999
dxflib 3.26.4.0
  0
SECTION
  2
HEADER
  9
$ACADVER
  1
AC1015
  9
$HANDSEED
  5
FFFF
  9
$ANGBASE
 50
0.0
  9
$ANGDIR
 70
0
  9
$ATTMODE
 70
1
  9
$AUNITS
 70
0
  9
$AUPREC
 70
0
  9
$CECOLOR
 62
256
  9
$CELTSCALE
 40
1.0
  9
$CHAMFERA
 40
0.0
  9
$CHAMFERB
 40
0.0
  9
$CHAMFERC
 40
0.0
  9
$CHAMFERD
 40
0.0
  9
$CMLJUST
 70
0
  9
$CMLSCALE
 40
1.0
  9
$DIMADEC
 70
0
  9
$DIMALT
 70
0
  9
$DIMALTD
 70
2
  9
$DIMALTF
 40
25.3999999999999986
  9
$DIMALTRND
 40
0.0
  9
$DIMALTTD
 70
2
  9
$DIMALTTZ
 70
0
  9
$DIMALTU
 70
2
  9
$DIMALTZ
 70
0
  9
$DIMAPOST
  1

  9
$DIMASZ
 40
2.5
  9
$DIMATFIT
 70
0
  9
$DIMAUNIT
 70
0
  9
$DIMAZIN
 70
2
  9
$DIMBLK
  1
0
  9
$DIMBLK1
  1
0
  9
$DIMBLK2
  1
0
  9
$DIMCEN
 40
0.09
  9
$DIMCLRD
 70
0
  9
$DIMCLRE
 70
0
  9
$DIMDEC
 70
4
  9
$DIMDLE
 40
0.0
  9
$DIMDLI
 40
5.0
  9
$DIMDSEP
 70
46
  9
$DIMEXE
 40
1.25
  9
$DIMEXO
 40
0.625
  9
$DIMFRAC
 70
0
  9
$DIMGAP
 40
0.625
  9
$DIMJUST
 70
0
  9
$DIMLDRBLK
  1

  9
$DIMLFAC
 40
1.0
  9
$DIMLIM
 70
0
  9
$DIMLUNIT
 70
2
  9
$DIMLWD
 70
-2
  9
$DIMLWE
 70
-2
  9
$DIMPOST
  1

  9
$DIMRND
 40
0.0
  9
$DIMSAH
 70
0
  9
$DIMSCALE
 40
1.0
  9
$DIMSD1
 70
0
  9
$DIMSD2
 70
0
  9
$DIMSE1
 70
0
  9
$DIMSE2
 70
0
  9
$DIMSOXD
 70
0
  9
$DIMTAD
 70
1
  9
$DIMTDEC
 70
4
  9
$DIMTFAC
 40
1.0
  9
$DIMTIH
 70
0
  9
$DIMTIX
 70
0
  9
$DIMTM
 40
0.0
  9
$DIMTOFL
 70
0
  9
$DIMTOH
 70
1
  9
$DIMTOL
 70
0
  9
$DIMTOLJ
 70
1
  9
$DIMTP
 40
0.0
  9
$DIMTSZ
 40
0.0
  9
$DIMTVP
 40
0.0
  9
$DIMTXSTY
  7
Standard
  9
$DIMTXT
 40
2.5
  9
$DIMTZIN
 70
0
  9
$DIMUPT
 70
0
  9
$DIMZIN
 70
8
  9
$DISPSILH
 70
0
  9
$DWGCODEPAGE
  3
ANSI_1252
  9
$ELEVATION
 40
0.0
  9
$EXTMAX
 10
190.6556987564381132
 20
96.4632202452214784
 30
0.0
  9
$EXTMIN
 10
-70.6556987564380847
 20
3.5367797547785931
 30
0.0
  9
$FILLETRAD
 40
0.0
  9
$FILLMODE
 70
1
  9
$INSBASE
 10
0.0
 20
0.0
 30
0.0
  9
$INSUNITS
 70
4
  9
$LIMCHECK
 70
0
  9
$LIMMAX
 10
12.0
 20
9.0
  9
$LIMMIN
 10
0.0
 20
0.0
  9
$LTSCALE
 40
1.0
  9
$LUNITS
 70
2
  9
$LUPREC
 70
4
  9
$MAXACTVP
 70
64
  9
$MEASUREMENT
 70
1
  9
$MIRRTEXT
 70
0
  9
$ORTHOMODE
 70
0
  9
$PDMODE
 70
0
  9
$PDSIZE
 40
0.0
  9
$PELEVATION
 40
0.0
  9
$PEXTMAX
 10
0.0
 20
0.0
 30
0.0
  9
$PEXTMIN
 10
0.0
 20
0.0
 30
0.0
  9
$PINSBASE
 10
0.0
 20
0.0
 30
0.0
  9
$PLIMCHECK
 70
0
  9
$PLIMMAX
 10
277.0
 20
202.5
  9
$PLIMMIN
 10
-20.0
 20
-7.5
  9
$PLINEGEN
 70
0
  9
$PLINEWID
 40
0.0
  9
$PROXYGRAPHICS
 70
1
  9
$PSLTSCALE
 70
1
  9
$PUCSNAME
  2

  9
$PUCSORG
 10
0.0
 20
0.0
 30
0.0
  9
$PUCSXDIR
 10
1.0
 20
0.0
 30
0.0
  9
$PUCSYDIR
 10
0.0
 20
1.0
 30
0.0
  9
$QTEXTMODE
 70
0
  9
$REGENMODE
 70
1
  9
$SHADEDGE
 70
3
  9
$SHADEDIF
 70
70
  9
$SKETCHINC
 40
0.1
  9
$SKPOLY
 70
0
  9
$SPLFRAME
 70
0
  9
$SPLINESEGS
 70
8
  9
$SPLINETYPE
 70
6
  9
$SURFTAB1
 70
6
  9
$SURFTAB2
 70
6
  9
$SURFTYPE
 70
6
  9
$SURFU
 70
6
  9
$SURFV
 70
6
  9
$TEXTSIZE
 40
0.2
  9
$TEXTSTYLE
  7
Standard
  9
$THICKNESS
 40
0.0
  9
$TILEMODE
 70
1
  9
$TRACEWID
 40
0.05
  9
$TREEDEPTH
 70
3020
  9
$UCSNAME
  2

  9
$UCSORG
 10
0.0
 20
0.0
 30
0.0
  9
$UCSXDIR
 10
1.0
 20
0.0
 30
0.0
  9
$UCSYDIR
 10
0.0
 20
1.0
 30
0.0
  9
$UNITMODE
 70
0
  9
$USERI1
 70
0
  9
$USERI2
 70
0
  9
$USERI3
 70
0
  9
$USERI4
 70
0
  9
$USERI5
 70
0
  9
$USERR1
 40
0.0
  9
$USERR2
 40
0.0
  9
$USERR3
 40
0.0
  9
$USERR4
 40
0.0
  9
$USERR5
 40
0.0
  9
$USRTIMER
 70
1
  9
$VISRETAIN
 70
1
  0
ENDSEC
  0
SECTION
  2
TABLES
  0
TABLE
  2
VPORT
  5
8
100
AcDbSymbolTable
 70
1
  0
VPORT
  5
30
100
AcDbSymbolTableRecord
100
AcDbViewportTableRecord
  2
*Active
 70
0
 10
0.0
 20
0.0
 11
1.0
 21
1.0
 12
286.3055555555554861
 22
148.5
 13
0.0
 23
0.0
 14
10.0
 24
10.0
 15
10.0
 25
10.0
 16
0.0
 26
0.0
 36
1.0
 17
0.0
 27
0.0
 37
0.0
 40
297.0
 41
1.92798353909465
 42
50.0
 43
0.0
 44
0.0
 50
0.0
 51
0.0
 71
0
 72
100
 73
1
 74
3
 75
1
 76
1
 77
0
 78
0
281
0
 65
1
110
0.0
120
0.0
130
0.0
111
1.0
121
0.0
131
0.0
112
0.0
122
1.0
132
0.0
 79
0
146
0.0
  0
ENDTAB
  0
TABLE
  2
LTYPE
  5
5
100
AcDbSymbolTable
 70
50
  0
LTYPE
  5
16
100
AcDbSymbolTableRecord
100
AcDbLinetypeTableRecord
  2
Continuous
 70
0
  3
Solid line
 72
65
 73
0
 40
0.0
  0
LTYPE
  5
31
100
AcDbSymbolTableRecord
100
AcDbLinetypeTableRecord
  2
TRACKS
 70
0
  3
Tracks -|-|-|-|-|-|-|-|-|-|-|-|-|-|-|-|-|-|-|-|-|-|-|-|-
 72
65
 73
1
 40
3.8100000000000001
 49
3.8100000000000001
 74
0
  0
LTYPE
  5
32
100
AcDbSymbolTableRecord
100
AcDbLinetypeTableRecord
  2
ACAD_ISO13W100
 70
0
  3
ISO double-dash double-dot __ __ . . __ __ . . _
 72
65
 73
8
 40
36.0000000000000071
 49
12.0
 74
0
 49
-3.0
 74
0
 49
12.0
 74
0
 49
-2.9500000000000002
 74
0
 49
0.1
 74
0
 49
-2.9000000000000004
 74
0
 49
0.1
 74
0
 49
-2.9500000000000002
 74
0
  0
LTYPE
  5
33
100
AcDbSymbolTableRecord
100
AcDbLinetypeTableRecord
  2
CENTER2
 70
0
  3
Center (.5x) ___ _ ___ _ ___ _ ___ _ ___ _ ___
 72
65
 73
4
 40
28.5750000000000028
 49
19.0500000000000007
 74
0
 49
-3.1749999999999998
 74
0
 49
3.1749999999999998
 74
0
 49
-3.1749999999999998
 74
0
  0
LTYPE
  5
34
100
AcDbSymbolTableRecord
100
AcDbLinetypeTableRecord
  2
DIVIDE
 70
0
  3
Divide ____ . . ____ . . ____ . . ____ . . ____
 72
65
 73
6
 40
31.7500000000000036
 49
12.6999999999999993
 74
0
 49
-6.2999999999999998
 74
0
 49
0.1
 74
0
 49
-6.25
 74
0
 49
0.1
 74
0
 49
-6.2999999999999998
 74
0
  0
LTYPE
  5
35
100
AcDbSymbolTableRecord
100
AcDbLinetypeTableRecord
  2
ACAD_ISO02W100
 70
0
  3
ISO dash __ __ __ __ __ __ __ __ __ __ __ __ __
 72
65
 73
2
 40
15.0
 49
12.0
 74
0
 49
-3.0
 74
0
  0
LTYPE
  5
36
100
AcDbSymbolTableRecord
100
AcDbLinetypeTableRecord
  2
DASHDOTX2
 70
0
  3
Dash dot (2x) ____  .  ____  .  ____  .  ___
 72
65
 73
4
 40
50.7999999999999972
 49
25.3999999999999986
 74
0
 49
-12.6499999999999986
 74
0
 49
0.1
 74
0
 49
-12.6499999999999986
 74
0
  0
LTYPE
  5
37
100
AcDbSymbolTableRecord
100
AcDbLinetypeTableRecord
  2
ACAD_ISO07W100
 70
0
  3
ISO dot . . . . . . . . . . . . . . . . . . . . 
 72
65
 73
2
 40
3.0
 49
0.1
 74
0
 49
-2.8999999999999999
 74
0
  0
LTYPE
  5
38
100
AcDbSymbolTableRecord
100
AcDbLinetypeTableRecord
  2
HIDDEN2
 70
0
  3
Hidden (.5x) _ _ _ _ _ _ _ _ _ _ _ _ _ _ _ _ _ 
 72
65
 73
2
 40
4.7624999999999993
 49
3.1749999999999998
 74
0
 49
-1.5874999999999999
 74
0
  0
LTYPE
  5
39
100
AcDbSymbolTableRecord
100
AcDbLinetypeTableRecord
  2
HIDDENX2
 70
0
  3
Hidden (2x) ____ ____ ____ ____ ____ ____ ____ 
 72
65
 73
2
 40
19.0499999999999972
 49
12.6999999999999993
 74
0
 49
-6.3499999999999996
 74
0
  0
LTYPE
  5
3A
100
AcDbSymbolTableRecord
100
AcDbLinetypeTableRecord
  2
DASHDOT2
 70
0
  3
Dash dot (.5x) _._._._._._._._._._._._._._._.
 72
65
 73
4
 40
12.6999999999999993
 49
6.3499999999999996
 74
0
 49
-3.125
 74
0
 49
0.1
 74
0
 49
-3.125
 74
0
  0
LTYPE
  5
3B
100
AcDbSymbolTableRecord
100
AcDbLinetypeTableRecord
  2
DOT
 70
0
  3
Dot . . . . . . . . . . . . . . . . . . . . . . . .
 72
65
 73
2
 40
6.3499999999999996
 49
0.1
 74
0
 49
-6.25
 74
0
  0
LTYPE
  5
3C
100
AcDbSymbolTableRecord
100
AcDbLinetypeTableRecord
  2
DASHED
 70
0
  3
Dashed __ __ __ __ __ __ __ __ __ __ __ __ __ _
 72
65
 73
2
 40
19.0499999999999972
 49
12.6999999999999993
 74
0
 49
-6.3499999999999996
 74
0
  0
LTYPE
  5
3D
100
AcDbSymbolTableRecord
100
AcDbLinetypeTableRecord
  2
PHANTOM
 70
0
  3
Phantom ______  __  __  ______  __  __  ______ 
 72
65
 73
6
 40
63.5000000000000071
 49
31.75
 74
0
 49
-6.3499999999999996
 74
0
 49
6.3499999999999996
 74
0
 49
-6.3499999999999996
 74
0
 49
6.3499999999999996
 74
0
 49
-6.3499999999999996
 74
0
  0
LTYPE
  5
3E
100
AcDbSymbolTableRecord
100
AcDbLinetypeTableRecord
  2
DOT2
 70
0
  3
Dot (.5x) ........................................
 72
65
 73
2
 40
3.1749999999999998
 49
0.1
 74
0
 49
-3.0749999999999997
 74
0
  0
LTYPE
  5
3F
100
AcDbSymbolTableRecord
100
AcDbLinetypeTableRecord
  2
ACAD_ISO04W100
 70
0
  3
ISO long-dash dot ____ . ____ . ____ . ____ . _
 72
65
 73
4
 40
30.0
 49
24.0
 74
0
 49
-2.9500000000000002
 74
0
 49
0.1
 74
0
 49
-2.9500000000000002
 74
0
  0
LTYPE
  5
40
100
AcDbSymbolTableRecord
100
AcDbLinetypeTableRecord
  2
ACAD_ISO11W100
 70
0
  3
ISO double-dash dot __ __ . __ __ . __ __ . __ _
 72
65
 73
6
 40
33.0
 49
12.0
 74
0
 49
-3.0
 74
0
 49
12.0
 74
0
 49
-2.9500000000000002
 74
0
 49
0.1
 74
0
 49
-2.9500000000000002
 74
0
  0
LTYPE
  5
41
100
AcDbSymbolTableRecord
100
AcDbLinetypeTableRecord
  2
ACAD_ISO12W100
 70
0
  3
ISO dash double-dot __ . . __ . . __ . . __ . . 
 72
65
 73
6
 40
21.0
 49
12.0
 74
0
 49
-2.9500000000000002
 74
0
 49
0.1
 74
0
 49
-2.9000000000000004
 74
0
 49
0.1
 74
0
 49
-2.9500000000000002
 74
0
  0
LTYPE
  5
42
100
AcDbSymbolTableRecord
100
AcDbLinetypeTableRecord
  2
BORDER
 70
0
  3
Border __ __ . __ __ . __ __ . __ __ . __ __ .
 72
65
 73
6
 40
44.4499999999999957
 49
12.6999999999999993
 74
0
 49
-6.3499999999999996
 74
0
 49
12.6999999999999993
 74
0
 49
-6.2999999999999998
 74
0
 49
0.1
 74
0
 49
-6.2999999999999998
 74
0
  0
LTYPE
  5
43
100
AcDbSymbolTableRecord
100
AcDbLinetypeTableRecord
  2
DASHED2
 70
0
  3
Dashed (.5x) _ _ _ _ _ _ _ _ _ _ _ _ _ _ _ _ _ 
 72
65
 73
2
 40
9.5249999999999986
 49
6.3499999999999996
 74
0
 49
-3.1749999999999998
 74
0
  0
LTYPE
  5
44
100
AcDbSymbolTableRecord
100
AcDbLinetypeTableRecord
  2
ACAD_ISO08W100
 70
0
  3
ISO long-dash short-dash ____ __ ____ __ ____ _
 72
65
 73
4
 40
36.0
 49
24.0
 74
0
 49
-3.0
 74
0
 49
6.0
 74
0
 49
-3.0
 74
0
  0
LTYPE
  5
45
100
AcDbSymbolTableRecord
100
AcDbLinetypeTableRecord
  2
ACAD_ISO10W100
 70
0
  3
ISO dash dot __ . __ . __ . __ . __ . __ . __ . 
 72
65
 73
4
 40
18.0
 49
12.0
 74
0
 49
-2.9500000000000002
 74
0
 49
0.1
 74
0
 49
-2.9500000000000002
 74
0
  0
LTYPE
  5
46
100
AcDbSymbolTableRecord
100
AcDbLinetypeTableRecord
  2
BORDERX2
 70
0
  3
Border (2x) ____  ____  .  ____  ____  .  ___
 72
65
 73
6
 40
88.8999999999999773
 49
25.3999999999999986
 74
0
 49
-12.6999999999999993
 74
0
 49
25.3999999999999986
 74
0
 49
-12.6499999999999986
 74
0
 49
0.1
 74
0
 49
-12.6499999999999986
 74
0
  0
LTYPE
  5
47
100
AcDbSymbolTableRecord
100
AcDbLinetypeTableRecord
  2
DIVIDEX2
 70
0
  3
Divide (2x) ________  .  .  ________  .  .  _
 72
65
 73
6
 40
63.5
 49
25.3999999999999986
 74
0
 49
-12.6499999999999986
 74
0
 49
0.1
 74
0
 49
-12.5999999999999979
 74
0
 49
0.1
 74
0
 49
-12.6499999999999986
 74
0
  0
LTYPE
  5
15
100
AcDbSymbolTableRecord
100
AcDbLinetypeTableRecord
  2
ByLayer
 70
0
  3

 72
65
 73
0
 40
0.0
  0
LTYPE
  5
48
100
AcDbSymbolTableRecord
100
AcDbLinetypeTableRecord
  2
ZIGZAG
 70
0
  3
Zig zag /\/\/\/\/\/\/\/\/\/\/\/\/\/\/\/\/\/\/\/\/\/\/\/
 72
65
 73
2
 40
5.0825399999999998
 49
0.00254
 74
0
 49
-5.0800000000000001
 74
0
  0
LTYPE
  5
49
100
AcDbSymbolTableRecord
100
AcDbLinetypeTableRecord
  2
FENCELINE1
 70
0
  3
Fenceline circle ----0-----0----0-----0----0-----0--
 72
65
 73
2
 40
8.8900000000000006
 49
6.3499999999999996
 74
0
 49
-2.54
 74
0
  0
LTYPE
  5
4A
100
AcDbSymbolTableRecord
100
AcDbLinetypeTableRecord
  2
PHANTOMX2
 70
0
  3
Phantom (2x) ____________    ____    ____   _
 72
65
 73
6
 40
127.0000000000000142
 49
63.5
 74
0
 49
-12.6999999999999993
 74
0
 49
12.6999999999999993
 74
0
 49
-12.6999999999999993
 74
0
 49
12.6999999999999993
 74
0
 49
-12.6999999999999993
 74
0
  0
LTYPE
  5
4B
100
AcDbSymbolTableRecord
100
AcDbLinetypeTableRecord
  2
DIVIDE2
 70
0
  3
Divide (.5x) __..__..__..__..__..__..__..__.._
 72
65
 73
6
 40
15.8749999999999982
 49
6.3499999999999996
 74
0
 49
-3.125
 74
0
 49
0.1
 74
0
 49
-3.0750000000000002
 74
0
 49
0.1
 74
0
 49
-3.125
 74
0
  0
LTYPE
  5
4C
100
AcDbSymbolTableRecord
100
AcDbLinetypeTableRecord
  2
CENTER
 70
0
  3
Center ____ _ ____ _ ____ _ ____ _ ____ _ ____
 72
65
 73
4
 40
50.8000000000000043
 49
31.75
 74
0
 49
-6.3499999999999996
 74
0
 49
6.3499999999999996
 74
0
 49
-6.3499999999999996
 74
0
  0
LTYPE
  5
4D
100
AcDbSymbolTableRecord
100
AcDbLinetypeTableRecord
  2
FENCELINE2
 70
0
  3
Fenceline square ----[]-----[]----[]-----[]----[]---
 72
65
 73
2
 40
8.8900000000000006
 49
6.3499999999999996
 74
0
 49
-2.54
 74
0
  0
LTYPE
  5
4E
100
AcDbSymbolTableRecord
100
AcDbLinetypeTableRecord
  2
ACAD_ISO14W100
 70
0
  3
ISO dash triple-dot __ . . . __ . . . __ . . . _
 72
65
 73
8
 40
24.0000000000000036
 49
12.0
 74
0
 49
-2.9500000000000002
 74
0
 49
0.1
 74
0
 49
-2.9000000000000004
 74
0
 49
0.1
 74
0
 49
-2.9000000000000004
 74
0
 49
0.1
 74
0
 49
-2.9500000000000002
 74
0
  0
LTYPE
  5
4F
100
AcDbSymbolTableRecord
100
AcDbLinetypeTableRecord
  2
ACAD_ISO03W100
 70
0
  3
ISO dash space __    __    __    __    __    __
 72
65
 73
2
 40
30.0
 49
12.0
 74
0
 49
-18.0
 74
0
  0
LTYPE
  5
50
100
AcDbSymbolTableRecord
100
AcDbLinetypeTableRecord
  2
CENTERX2
 70
0
  3
Center (2x) ________  __  ________  __  _____
 72
65
 73
4
 40
101.6000000000000085
 49
63.5
 74
0
 49
-12.6999999999999993
 74
0
 49
12.6999999999999993
 74
0
 49
-12.6999999999999993
 74
0
  0
LTYPE
  5
51
100
AcDbSymbolTableRecord
100
AcDbLinetypeTableRecord
  2
PHANTOM2
 70
0
  3
Phantom (.5x) ___ _ _ ___ _ _ ___ _ _ ___ _ _
 72
65
 73
6
 40
31.7500000000000036
 49
15.875
 74
0
 49
-3.1749999999999998
 74
0
 49
3.1749999999999998
 74
0
 49
-3.1749999999999998
 74
0
 49
3.1749999999999998
 74
0
 49
-3.1749999999999998
 74
0
  0
LTYPE
  5
52
100
AcDbSymbolTableRecord
100
AcDbLinetypeTableRecord
  2
BORDER2
 70
0
  3
Border (.5x) __.__.__.__.__.__.__.__.__.__.__.
 72
65
 73
6
 40
22.2250000000000014
 49
6.3499999999999996
 74
0
 49
-3.1749999999999998
 74
0
 49
6.3499999999999996
 74
0
 49
-3.125
 74
0
 49
0.1
 74
0
 49
-3.125
 74
0
  0
LTYPE
  5
53
100
AcDbSymbolTableRecord
100
AcDbLinetypeTableRecord
  2
DASHEDX2
 70
0
  3
Dashed (2x) ____  ____  ____  ____  ____  ___
 72
65
 73
2
 40
38.0999999999999943
 49
25.3999999999999986
 74
0
 49
-12.6999999999999993
 74
0
  0
LTYPE
  5
54
100
AcDbSymbolTableRecord
100
AcDbLinetypeTableRecord
  2
HIDDEN
 70
0
  3
Hidden __ __ __ __ __ __ __ __ __ __ __ __ __ __
 72
65
 73
2
 40
9.5249999999999986
 49
6.3499999999999996
 74
0
 49
-3.1749999999999998
 74
0
  0
LTYPE
  5
55
100
AcDbSymbolTableRecord
100
AcDbLinetypeTableRecord
  2
DRAINAGE2
 70
0
  3
Drainage reversed----<----<----<----
 72
65
 73
1
 40
5.0800000000000001
 49
5.0800000000000001
 74
0
  0
LTYPE
  5
14
100
AcDbSymbolTableRecord
100
AcDbLinetypeTableRecord
  2
ByBlock
 70
0
  3

 72
65
 73
0
 40
0.0
  0
LTYPE
  5
56
100
AcDbSymbolTableRecord
100
AcDbLinetypeTableRecord
  2
DASHDOT
 70
0
  3
Dash dot __ . __ . __ . __ . __ . __ . __ . __
 72
65
 73
4
 40
25.4000000000000021
 49
12.6999999999999993
 74
0
 49
-6.2999999999999998
 74
0
 49
0.1
 74
0
 49
-6.2999999999999998
 74
0
  0
LTYPE
  5
57
100
AcDbSymbolTableRecord
100
AcDbLinetypeTableRecord
  2
DRAINAGE
 70
0
  3
Drainage ---->---->---->----
 72
65
 73
1
 40
5.0800000000000001
 49
5.0800000000000001
 74
0
  0
LTYPE
  5
58
100
AcDbSymbolTableRecord
100
AcDbLinetypeTableRecord
  2
HOT_WATER_SUPPLY
 70
0
  3
Hot water supply ---- HW ---- HW ---- HW ----
 72
65
 73
2
 40
17.7800000000000011
 49
12.6999999999999993
 74
0
 49
-5.0800000000000001
 74
0
  0
LTYPE
  5
59
100
AcDbSymbolTableRecord
100
AcDbLinetypeTableRecord
  2
DOTX2
 70
0
  3
Dot (2x) .  .  .  .  .  .  .  .  .  .  .  .  .  .
 72
65
 73
2
 40
12.6999999999999993
 49
0.1
 74
0
 49
-12.5999999999999996
 74
0
  0
LTYPE
  5
5A
100
AcDbSymbolTableRecord
100
AcDbLinetypeTableRecord
  2
ACAD_ISO05W100
 70
0
  3
ISO long-dash double-dot ____ .. ____ .. ____ . 
 72
65
 73
6
 40
33.0000000000000071
 49
24.0
 74
0
 49
-2.9500000000000002
 74
0
 49
0.1
 74
0
 49
-2.9000000000000004
 74
0
 49
0.1
 74
0
 49
-2.9500000000000002
 74
0
  0
LTYPE
  5
5B
100
AcDbSymbolTableRecord
100
AcDbLinetypeTableRecord
  2
ACAD_ISO06W100
 70
0
  3
ISO long-dash triple-dot ____ ... ____ ... ____
 72
65
 73
8
 40
36.0000000000000071
 49
24.0
 74
0
 49
-2.9500000000000002
 74
0
 49
0.1
 74
0
 49
-2.9000000000000004
 74
0
 49
0.1
 74
0
 49
-2.9000000000000004
 74
0
 49
0.1
 74
0
 49
-2.9500000000000002
 74
0
  0
LTYPE
  5
5C
100
AcDbSymbolTableRecord
100
AcDbLinetypeTableRecord
  2
ACAD_ISO09W100
 70
0
  3
ISO long-dash double-short-dash ____ __ __ ____
 72
65
 73
6
 40
45.0
 49
24.0
 74
0
 49
-3.0
 74
0
 49
6.0
 74
0
 49
-3.0
 74
0
 49
6.0
 74
0
 49
-3.0
 74
0
  0
LTYPE
  5
5D
100
AcDbSymbolTableRecord
100
AcDbLinetypeTableRecord
  2
GAS_LINE
 70
0
  3
Gas line ----GAS----GAS----GAS----GAS----GAS----GAS--
 72
65
 73
2
 40
17.7800000000000011
 49
12.6999999999999993
 74
0
 49
-5.0800000000000001
 74
0
  0
LTYPE
  5
5E
100
AcDbSymbolTableRecord
100
AcDbLinetypeTableRecord
  2
ACAD_ISO15W100
 70
0
  3
ISO double-dash triple-dot __ __ . . . __ __ . .
 72
65
 73
10
 40
39.0000000000000071
 49
12.0
 74
0
 49
-3.0
 74
0
 49
12.0
 74
0
 49
-2.9500000000000002
 74
0
 49
0.1
 74
0
 49
-2.9000000000000004
 74
0
 49
0.1
 74
0
 49
-2.9000000000000004
 74
0
 49
0.1
 74
0
 49
-2.9500000000000002
 74
0
  0
LTYPE
  5
5F
100
AcDbSymbolTableRecord
100
AcDbLinetypeTableRecord
  2
BATTING
 70
0
  3
Batting SSSSSSSSSSSSSSSSSSSSSSSSSSSSSSSSSSSSSSSSSSSSSSS
 72
65
 73
2
 40
2.5425400000000002
 49
0.00254
 74
0
 49
-2.54
 74
0
  0
ENDTAB
  0
TABLE
  2
LAYER
  5
2
100
AcDbSymbolTable
 70
1
  0
LAYER
  5
10
100
AcDbSymbolTableRecord
100
AcDbLayerTableRecord
  2
0
 70
0
 62
7
420
16777215
  6
Continuous
370
25
390
F
  0
ENDTAB
  0
TABLE
  2
STYLE
  5
3
100
AcDbSymbolTable
 70
1
  0
STYLE
  5
60
100
AcDbSymbolTableRecord
100
AcDbTextStyleTableRecord
  2
Standard
 70
0
 40
0.0
 41
1.0
 50
0.0
 71
0
 42
2.5
  3

  4

1001
ACAD
1000
txt
1071
0
  0
ENDTAB
  0
TABLE
  2
VIEW
  5
6
100
AcDbSymbolTable
 70
0
  0
ENDTAB
  0
TABLE
  2
UCS
  5
7
100
AcDbSymbolTable
 70
0
  0
ENDTAB
  0
TABLE
  2
APPID
  5
9
100
AcDbSymbolTable
 70
1
  0
APPID
  5
12
100
AcDbSymbolTableRecord
100
AcDbRegAppTableRecord
  2
ACAD
 70
0
  0
APPID
  5
61
100
AcDbSymbolTableRecord
100
AcDbRegAppTableRecord
  2
QCAD
 70
0
  0
ENDTAB
  0
TABLE
  2
DIMSTYLE
  5
A
100
AcDbSymbolTable
 70
1
100
AcDbDimStyleTable
 71
0
  0
DIMSTYLE
105
27
100
AcDbSymbolTableRecord
100
AcDbDimStyleTableRecord
  2
Standard
 41
2.5
 42
0.625
 43
3.75
 44
1.25
 70
0
 73
0
 74
0
 77
1
 78
8
140
2.5
141
2.5
143
0.03937007874016
147
0.625
171
3
172
1
271
2
272
2
274
3
278
44
283
0
284
8
340
60
  0
ENDTAB
  0
TABLE
  2
BLOCK_RECORD
  5
1
100
AcDbSymbolTable
 70
1
  0
BLOCK_RECORD
  5
1F
100
AcDbSymbolTableRecord
100
AcDbBlockTableRecord
  2
*Model_Space
340
22
  0
BLOCK_RECORD
  5
1B
100
AcDbSymbolTableRecord
100
AcDbBlockTableRecord
  2
*Paper_Space
340
1E
  0
BLOCK_RECORD
  5
23
100
AcDbSymbolTableRecord
100
AcDbBlockTableRecord
  2
*Paper_Space0
340
26
  0
ENDTAB
  0
ENDSEC
  0
SECTION
  2
BLOCKS
  0
BLOCK
  5
20
100
AcDbEntity
  8
0
100
AcDbBlockBegin
  2
*Model_Space
 70
0
 10
0.0
 20
0.0
 30
0.0
  3
*Model_Space
  1

  0
ENDBLK
  5
21
100
AcDbEntity
  8
0
100
AcDbBlockEnd
  0
BLOCK
  5
1C
100
AcDbEntity
 67
1
  8
0
100
AcDbBlockBegin
  2
*Paper_Space
 70
0
 10
0.0
 20
0.0
 30
0.0
  3
*Paper_Space
  1

  0
ENDBLK
  5
1D
100
AcDbEntity
 67
1
  8
0
100
AcDbBlockEnd
  0
BLOCK
  5
24
100
AcDbEntity
  8
0
100
AcDbBlockBegin
  2
*Paper_Space0
 70
0
 10
0.0
 20
0.0
 30
0.0
  3
*Paper_Space0
  1

  0
ENDBLK
  5
25
100
AcDbEntity
  8
0
100
AcDbBlockEnd
  0
ENDSEC
  0
SECTION
  2
ENTITIES
  0
SPLINE
  5
62
100
AcDbEntity
  8
0
 62
0
370
-1
 48
1.0
  6
Continuous
100
AcDbSpline
 70
8
 71
3
 72
8
 73
4
 74
0
 40
0.0
 40
0.0
 40
0.0
 40
0.0
 40
1.0
 40
1.0
 40
1.0
 40
1.0
 10
176.7633779462671555
 20
-26.0200827216810353
 30
0.0
 10
176.6901076075268975
 20
-24.622001373024716
 30
0.0
 10
174.592985584542248
 20
-24.7319068811348188
 30
0.0
 10
174.666255923282506
 20
-26.1299882297913086
 30
0.0
  0
SPLINE
  5
63
100
AcDbEntity
  8
0
 62
0
370
-1
 48
1.0
  6
Continuous
100
AcDbSpline
 70
8
 71
3
 72
8
 73
4
 74
0
 40
0.0
 40
0.0
 40
0.0
 40
0.0
 40
1.0
 40
1.0
 40
1.0
 40
1.0
 10
-36.4947353936329364
 20
-25.8919815786694585
 30
0.0
 10
-36.4214650548927921
 20
-24.4939002300130255
 30
0.0
 10
-34.3243430319080289
 20
-24.603805738123242
 30
0.0
 10
-34.3976133706482869
 20
-26.0018870867796181
 30
0.0
  0
SPLINE
  5
64
100
AcDbEntity
  8
0
 62
0
370
-1
 48
1.0
  6
Continuous
100
AcDbSpline
 70
8
 71
3
 72
8
 73
4
 74
0
 40
0.0
 40
0.0
 40
0.0
 40
0.0
 40
1.0
 40
1.0
 40
1.0
 40
1.0
 10
-24.0392867741414875
 20
-113.0451426426056685
 30
0.0
 10
-24.1125571128816318
 20
-114.4432239912619877
 30
0.0
 10
-26.2096791358661676
 20
-114.3333184831518281
 30
0.0
 10
-26.1364087971260233
 20
-112.9352371344955088
 30
0.0
  0
SPLINE
  5
65
100
AcDbEntity
  8
0
 62
0
370
-1
 48
1.0
  6
Continuous
100
AcDbSpline
 70
8
 71
3
 72
8
 73
4
 74
0
 40
0.0
 40
0.0
 40
0.0
 40
0.0
 40
1.0
 40
1.0
 40
1.0
 40
1.0
 10
164.7743245635981566
 20
-112.519659897106834
 30
0.0
 10
164.8475949023381872
 20
-113.917741245763267
 30
0.0
 10
166.9447169253228367
 20
-113.807835737653221
 30
0.0
 10
166.871446586582806
 20
-112.4097543889966744
 30
0.0
  0
SPLINE
  5
66
100
AcDbEntity
  8
0
 62
0
370
-1
 48
1.0
  6
Continuous
100
AcDbSpline
 70
8
 71
3
 72
8
 73
4
 74
0
 40
0.0
 40
0.0
 40
0.0
 40
0.0
 40
1.0
 40
1.0
 40
1.0
 40
1.0
 10
174.666255923282506
 20
-26.1299882297913086
 30
0.0
 10
174.7395262620225367
 20
-27.5280695784476279
 30
0.0
 10
176.8366482850071861
 20
-27.4181640703376388
 30
0.0
 10
176.7633779462671555
 20
-26.0200827216810353
 30
0.0
  0
SPLINE
  5
67
100
AcDbEntity
  8
0
 62
0
370
-1
 48
1.0
  6
Continuous
100
AcDbSpline
 70
8
 71
3
 72
8
 73
4
 74
0
 40
0.0
 40
0.0
 40
0.0
 40
0.0
 40
1.0
 40
1.0
 40
1.0
 40
1.0
 10
-34.3976133706482869
 20
-26.0018870867796181
 30
0.0
 10
-34.4708837093883176
 20
-27.3999684354360511
 30
0.0
 10
-36.568005732372967
 20
-27.2900629273259483
 30
0.0
 10
-36.4947353936329364
 20
-25.8919815786694585
 30
0.0
  0
SPLINE
  5
68
100
AcDbEntity
  8
0
 62
0
370
-1
 48
1.0
  6
Continuous
100
AcDbSpline
 70
8
 71
3
 72
8
 73
4
 74
0
 40
0.0
 40
0.0
 40
0.0
 40
0.0
 40
1.0
 40
1.0
 40
1.0
 40
1.0
 10
-26.1364087971260233
 20
-112.9352371344955088
 30
0.0
 10
-26.0631384583858789
 20
-111.5371557858390759
 30
0.0
 10
-23.9660164354012295
 20
-111.6470612939492355
 30
0.0
 10
-24.0392867741414875
 20
-113.0451426426056685
 30
0.0
  0
SPLINE
  5
69
100
AcDbEntity
  8
0
 62
0
370
-1
 48
1.0
  6
Continuous
100
AcDbSpline
 70
8
 71
3
 72
8
 73
4
 74
0
 40
0.0
 40
0.0
 40
0.0
 40
0.0
 40
1.0
 40
1.0
 40
1.0
 40
1.0
 10
166.871446586582806
 20
-112.4097543889966744
 30
0.0
 10
166.798176247842548
 20
-111.0116730403402414
 30
0.0
 10
164.7010542248578986
 20
-111.1215785484505147
 30
0.0
 10
164.7743245635981566
 20
-112.519659897106834
 30
0.0
  0
LINE
  5
6A
100
AcDbEntity
  8
0
 62
0
370
-1
 48
1.0
  6
Continuous
100
AcDbLine
 10
176.7633779462671555
 20
-26.0200827216810353
 30
0.0
 11
176.7633779462671555
 21
-26.0200827216810353
 31
0.0
  0
LINE
  5
6B
100
AcDbEntity
  8
0
 62
0
370
-1
 48
1.0
  6
Continuous
100
AcDbLine
 10
-36.4947353936329364
 20
-25.8919815786694585
 30
0.0
 11
-36.4947353936329364
 21
-25.8919815786694585
 31
0.0
  0
LINE
  5
6C
100
AcDbEntity
  8
0
 62
0
370
-1
 48
1.0
  6
Continuous
100
AcDbLine
 10
-24.0392867741414875
 20
-113.0451426426056685
 30
0.0
 11
-24.0392867741414875
 21
-113.0451426426056685
 31
0.0
  0
LINE
  5
6D
100
AcDbEntity
  8
0
 62
0
370
-1
 48
1.0
  6
Continuous
100
AcDbLine
 10
164.7743245635981566
 20
-112.519659897106834
 30
0.0
 11
164.7743245635981566
 21
-112.519659897106834
 31
0.0
  0
LWPOLYLINE
  5
6E
100
AcDbEntity
  8
0
 62
254
420
13685453
370
-1
 48
1.0
  6
ByLayer
100
AcDbPolyline
 90
2
 70
128
 10
69.8180970034352413
 20
-37.6634675060667803
 10
71.0680940976593547
 20
-37.7290528966430827
  0
LWPOLYLINE
  5
6F
100
AcDbEntity
  8
0
 62
254
420
13685453
370
-1
 48
1.0
  6
ByLayer
100
AcDbPolyline
 90
2
 70
128
 10
44.1701106369331455
 20
-116.3582142423791481
 10
-12.9015893630670462
 20
-113.3672142423791627
  0
LWPOLYLINE
  5
70
100
AcDbEntity
  8
0
 62
254
420
13685453
370
-1
 48
1.0
  6
ByLayer
100
AcDbPolyline
 90
2
 70
128
 10
44.1701106369331455
 20
-116.3582142423791481
 10
-12.9015893630670462
 20
-113.3672142423791627
  0
LWPOLYLINE
  5
71
100
AcDbEntity
  8
0
 62
254
420
13685453
370
-1
 48
1.0
  6
ByLayer
100
AcDbPolyline
 90
2
 70
128
 10
72.3180970034352413
 20
-37.6634675060667803
 10
134.9197616634700125
 20
-34.3788714395447528
  0
LWPOLYLINE
  5
72
100
AcDbEntity
  8
0
 62
254
420
13685453
370
-1
 48
1.0
  6
ByLayer
100
AcDbPolyline
 90
2
 70
128
 10
71.0680940976593547
 20
-37.7290528966430827
 10
72.3180970034352413
 20
-37.6634675060667803
  0
LWPOLYLINE
  5
73
100
AcDbEntity
  8
0
 62
254
420
13685453
370
-1
 48
1.0
  6
ByLayer
100
AcDbPolyline
 90
2
 70
128
 10
-55.8633176226545629
 20
-31.0691600860987762
 10
-59.8234566165706383
 20
-106.6397678276677823
  0
LWPOLYLINE
  5
74
100
AcDbEntity
  8
0
 62
254
420
13685453
370
-1
 48
1.0
  6
ByLayer
100
AcDbPolyline
 90
2
 70
128
 10
152.9954210528755993
 20
-113.3155412166820213
 10
95.6923106369331435
 20
-116.3582142423791481
  0
LWPOLYLINE
  5
75
100
AcDbEntity
  8
0
 62
254
420
13685453
370
-1
 48
1.0
  6
ByLayer
100
AcDbPolyline
 90
2
 70
128
 10
152.7640106369329942
 20
-113.3672142423791627
 10
95.6923106369331435
 20
-116.3582142423791481
  0
LWPOLYLINE
  5
76
100
AcDbEntity
  8
0
 62
254
420
13685453
370
-1
 48
1.0
  6
ByLayer
100
AcDbPolyline
 90
2
 70
128
 10
95.6923106369331435
 20
-116.3582142423791481
 10
84.6857974290236371
 20
-102.689414242379172
  0
LWPOLYLINE
  5
77
100
AcDbEntity
  8
0
 62
254
420
13685453
370
-1
 48
1.0
  6
ByLayer
100
AcDbPolyline
 90
2
 70
128
 10
95.6923106369331435
 20
-116.3582142423791481
 10
84.6857974290237507
 20
-102.6894142423792289
  0
LWPOLYLINE
  5
78
100
AcDbEntity
  8
0
 62
254
420
13685453
370
-1
 48
1.0
  6
ByLayer
100
AcDbPolyline
 90
2
 70
128
 10
199.8234566165706383
 20
-106.1319166462883459
 10
195.8957566164596074
 20
-31.1795713208896075
  0
LWPOLYLINE
  5
79
100
AcDbEntity
  8
0
 62
254
420
13685453
370
-1
 48
1.0
  6
ByLayer
100
AcDbPolyline
 90
2
 70
128
 10
55.7790947701639652
 20
-102.689414242379172
 10
84.6857974290236371
 20
-102.689414242379172
  0
LWPOLYLINE
  5
7A
100
AcDbEntity
  8
0
 62
254
420
13685453
370
-1
 48
1.0
  6
ByLayer
100
AcDbPolyline
 90
2
 70
128
 10
55.7790947701639652
 20
-102.6894142423792289
 10
84.6857974290237507
 20
-102.6894142423792289
  0
LWPOLYLINE
  5
7B
100
AcDbEntity
  8
0
 62
254
420
13685453
370
-1
 48
1.0
  6
ByLayer
100
AcDbPolyline
 90
2
 70
128
 10
44.1701106369331455
 20
-116.3582142423791481
 10
-12.9015893630670462
 20
-113.3672142423791627
  0
LWPOLYLINE
  5
7C
100
AcDbEntity
  8
0
 62
254
420
13685453
370
-1
 48
1.0
  6
ByLayer
100
AcDbPolyline
 90
2
 70
128
 10
44.1701106369331455
 20
-116.3582142423791481
 10
-13.1015745738465057
 20
-113.3567238291060164
  0
LWPOLYLINE
  5
7D
100
AcDbEntity
  8
0
 62
254
420
13685453
370
-1
 48
1.0
  6
ByLayer
100
AcDbPolyline
 90
2
 70
128
 10
55.7790947701639652
 20
-102.689414242379172
 10
44.1701106369331455
 20
-116.3582142423791481
  0
LWPOLYLINE
  5
7E
100
AcDbEntity
  8
0
 62
254
420
13685453
370
-1
 48
1.0
  6
ByLayer
100
AcDbPolyline
 90
2
 70
128
 10
55.7790947701639652
 20
-102.6894142423792289
 10
44.1701106369331455
 20
-116.3582142423791481
  0
LWPOLYLINE
  5
7F
100
AcDbEntity
  8
0
 62
254
420
13685453
370
-1
 48
1.0
  6
ByLayer
100
AcDbPolyline
 90
2
 70
128
 10
152.7640106369329942
 20
-113.3672142423791627
 10
95.6923106369331435
 20
-116.3582142423791481
  0
LWPOLYLINE
  5
80
100
AcDbEntity
  8
0
 62
254
420
13685453
370
-1
 48
1.0
  6
ByLayer
100
AcDbPolyline
 90
2
 70
128
 10
152.7640106369329942
 20
-113.3672142423791627
 10
95.6923106369331435
 20
-116.3582142423791481
  0
LWPOLYLINE
  5
81
100
AcDbEntity
  8
0
 62
254
420
13685453
370
-1
 48
1.0
  6
ByLayer
100
AcDbPolyline
 90
2
 70
128
 10
-57.8179918579708101
 20
-106.7448698546898811
 10
-59.8234566165706383
 20
-106.6397678276677823
  0
LWPOLYLINE
  5
82
100
AcDbEntity
  8
0
 62
254
420
13685453
370
-1
 48
1.0
  6
ByLayer
100
AcDbPolyline
 90
2
 70
128
 10
197.6542579726063877
 20
-106.245554417216141
 10
199.8234542548445916
 20
-106.1318715774415864
  0
LINE
  5
83
100
AcDbEntity
  8
0
 62
256
370
-1
 48
1.0
  6
ByLayer
100
AcDbLine
 10
180.032845914481527
 20
-32.011867206139101
 30
0.0
 11
195.8957566164598347
 21
-31.1795713208895791
 31
0.0
  0
LINE
  5
84
100
AcDbEntity
  8
0
 62
256
370
-1
 48
1.0
  6
ByLayer
100
AcDbLine
 10
-40.164035445311697
 20
-31.8928707027511393
 30
0.0
 11
-55.8633176226546766
 21
-31.0691600860988331
 31
0.0
  0
LWPOLYLINE
  5
85
100
AcDbEntity
  8
0
 62
254
420
13685453
370
-1
 48
1.0
  6
ByLayer
100
AcDbPolyline
 90
2
 70
128
 10
38.9191325739832337
 20
-99.0345656175326496
 10
38.2649325739831738
 20
-111.5174656175326788
  0
LWPOLYLINE
  5
86
100
AcDbEntity
  8
0
 62
254
420
13685453
370
-1
 48
1.0
  6
ByLayer
100
AcDbPolyline
 90
2
 70
128
 10
34.672532573983176
 20
-112.8312656175326936
 10
34.6986325739832182
 20
-112.3319656175326884
  0
LWPOLYLINE
  5
87
100
AcDbEntity
  8
0
 62
254
420
13685453
370
-1
 48
1.0
  6
ByLayer
100
AcDbPolyline
 90
2
 70
128
 10
37.7133325739831662
 20
-112.489965617532647
 10
38.2126325739832282
 20
-112.5160656175326892
  0
LWPOLYLINE
  5
88
100
AcDbEntity
  8
0
 62
254
420
13685453
370
-1
 48
1.0
  6
ByLayer
100
AcDbPolyline
 90
2
 70
128
 10
34.6463325739831589
 20
-113.3305656175326988
 10
34.672532573983176
 20
-112.8312656175326936
  0
LWPOLYLINE
  5
89
100
AcDbEntity
  8
0
 62
254
420
13685453
370
-1
 48
1.0
  6
ByLayer
100
AcDbPolyline
 90
2
 70
128
 10
38.2387325739831567
 20
-112.016765617532684
 10
38.2126325739832282
 20
-112.5160656175326892
  0
LWPOLYLINE
  5
8A
100
AcDbEntity
  8
0
 62
254
420
13685453
370
-1
 48
1.0
  6
ByLayer
100
AcDbPolyline
 90
2
 70
128
 10
37.7133325739831662
 20
-112.489965617532647
 10
34.6986325739832182
 20
-112.3319656175326884
  0
LWPOLYLINE
  5
8B
100
AcDbEntity
  8
0
 62
254
420
13685453
370
-1
 48
1.0
  6
ByLayer
100
AcDbPolyline
 90
2
 70
128
 10
38.2387325739831567
 20
-112.016765617532684
 10
38.2649325739831738
 20
-111.5174656175326788
  0
LWPOLYLINE
  5
8C
100
AcDbEntity
  8
0
 62
254
420
13685453
370
-1
 48
1.0
  6
ByLayer
100
AcDbPolyline
 90
2
 70
128
 10
8.7756325739832164
 20
-111.974765617532654
 10
34.6463325739831589
 20
-113.3305656175326988
  0
LWPOLYLINE
  5
8D
100
AcDbEntity
  8
0
 62
254
420
13685453
370
-1
 48
1.0
  6
ByLayer
100
AcDbPolyline
 90
2
 70
128
 10
0.3851325739832419
 20
-96.5147656175325608
 10
0.8844325739831902
 20
-96.5409656175326916
  0
LWPOLYLINE
  5
8E
100
AcDbEntity
  8
0
 62
254
420
13685453
370
-1
 48
1.0
  6
ByLayer
100
AcDbPolyline
 90
2
 70
128
 10
9.5083325739832389
 20
-97.9939656175325524
 10
32.1522325739831558
 20
-99.1806656175326964
  0
LWPOLYLINE
  5
8F
100
AcDbEntity
  8
0
 62
254
420
13685453
370
-1
 48
1.0
  6
ByLayer
100
AcDbPolyline
 90
2
 70
128
 10
38.4460325739831887
 20
-98.5090656175326842
 10
38.9453325739832508
 20
-98.5352656175326445
  0
LWPOLYLINE
  5
90
100
AcDbEntity
  8
0
 62
254
420
13685453
370
-1
 48
1.0
  6
ByLayer
100
AcDbPolyline
 90
2
 70
128
 10
38.9453325739832508
 20
-98.5352656175326445
 10
38.9191325739832337
 20
-99.0345656175326496
  0
LWPOLYLINE
  5
91
100
AcDbEntity
  8
0
 62
254
420
13685453
370
-1
 48
1.0
  6
ByLayer
100
AcDbPolyline
 90
2
 70
128
 10
0.8321325739832446
 20
-97.5395656175326451
 10
6.8432325739831867
 20
-97.8542656175326613
  0
LWPOLYLINE
  5
92
100
AcDbEntity
  8
0
 62
254
420
13685453
370
-1
 48
1.0
  6
ByLayer
100
AcDbPolyline
 90
2
 70
128
 10
0.8582325739831731
 20
-97.0402656175326968
 10
0.8321325739832446
 20
-97.5395656175326451
  0
LWPOLYLINE
  5
93
100
AcDbEntity
  8
0
 62
254
420
13685453
370
-1
 48
1.0
  6
ByLayer
100
AcDbPolyline
 90
2
 70
128
 10
32.1784325739831729
 20
-98.6813656175326912
 10
32.1522325739831558
 20
-99.1806656175326964
  0
LWPOLYLINE
  5
94
100
AcDbEntity
  8
0
 62
254
420
13685453
370
-1
 48
1.0
  6
ByLayer
100
AcDbPolyline
 90
2
 70
128
 10
32.7038325739831635
 20
-98.2081656175325577
 10
32.2045325739832151
 20
-98.1819656175325974
  0
LWPOLYLINE
  5
95
100
AcDbEntity
  8
0
 62
254
420
13685453
370
-1
 48
1.0
  6
ByLayer
100
AcDbPolyline
 90
2
 70
128
 10
-5.3569674260168085
 20
-96.2138656175326616
 10
-5.8562674260167569
 20
-96.1876656175326445
  0
LWPOLYLINE
  5
96
100
AcDbEntity
  8
0
 62
254
420
13685453
370
-1
 48
1.0
  6
ByLayer
100
AcDbPolyline
 90
2
 70
128
 10
32.7038325739831635
 20
-98.2081656175325577
 10
38.4460325739831887
 20
-98.5090656175326842
  0
LWPOLYLINE
  5
97
100
AcDbEntity
  8
0
 62
254
420
13685453
370
-1
 48
1.0
  6
ByLayer
100
AcDbPolyline
 90
2
 70
128
 10
32.1784325739831729
 20
-98.6813656175326912
 10
32.2045325739832151
 20
-98.1819656175325974
  0
LWPOLYLINE
  5
98
100
AcDbEntity
  8
0
 62
254
420
13685453
370
-1
 48
1.0
  6
ByLayer
100
AcDbPolyline
 90
2
 70
128
 10
-5.3569674260168085
 20
-96.2138656175326616
 10
0.3851325739832419
 20
-96.5147656175325608
  0
LWPOLYLINE
  5
99
100
AcDbEntity
  8
0
 62
254
420
13685453
370
-1
 48
1.0
  6
ByLayer
100
AcDbPolyline
 90
2
 70
128
 10
0.8844325739831902
 20
-96.5409656175326916
 10
0.8582325739831731
 20
-97.0402656175326968
  0
LWPOLYLINE
  5
9A
100
AcDbEntity
  8
0
 62
254
420
13685453
370
-1
 48
1.0
  6
ByLayer
100
AcDbPolyline
 90
2
 70
128
 10
-5.882467426016774
 20
-96.6869656175325929
 10
-5.9086674260167911
 20
-97.1862656175326549
  0
LWPOLYLINE
  5
9B
100
AcDbEntity
  8
0
 62
254
420
13685453
370
-1
 48
1.0
  6
ByLayer
100
AcDbPolyline
 90
2
 70
128
 10
-5.882467426016774
 20
-96.6869656175325929
 10
-5.8562674260167569
 20
-96.1876656175326445
  0
LWPOLYLINE
  5
9C
100
AcDbEntity
  8
0
 62
254
420
13685453
370
-1
 48
1.0
  6
ByLayer
100
AcDbPolyline
 90
2
 70
128
 10
9.5083325739832389
 20
-97.9939656175325524
 10
8.7756325739832164
 20
-111.974765617532654
  0
LWPOLYLINE
  5
9D
100
AcDbEntity
  8
0
 62
254
420
13685453
370
-1
 48
1.0
  6
ByLayer
100
AcDbPolyline
 90
2
 70
128
 10
-5.9086674260167911
 20
-97.1862656175326549
 10
-7.1375674260167443
 20
-97.1215656175326956
  0
LWPOLYLINE
  5
9E
100
AcDbEntity
  8
0
 62
254
420
13685453
370
-1
 48
1.0
  6
ByLayer
100
AcDbPolyline
 90
2
 70
128
 10
6.1105325739831642
 20
-111.8350656175325923
 10
6.8432325739831867
 20
-97.8542656175326613
  0
LWPOLYLINE
  5
9F
100
AcDbEntity
  8
0
 62
254
420
13685453
370
-1
 48
1.0
  6
ByLayer
100
AcDbPolyline
 90
2
 70
128
 10
-7.8702674260167669
 20
-111.1023656175326835
 10
6.1105325739831642
 20
-111.8350656175325923
  0
LWPOLYLINE
  5
A0
100
AcDbEntity
  8
0
 62
254
420
13685453
370
-1
 48
1.0
  6
ByLayer
100
AcDbPolyline
 90
2
 70
128
 10
-7.1375674260167443
 20
-97.1215656175326956
 10
-7.8702674260167669
 20
-111.1023656175326835
  0
LWPOLYLINE
  5
A1
100
AcDbEntity
  8
0
 62
254
420
13685453
370
-1
 48
1.0
  6
ByLayer
100
AcDbPolyline
 90
2
 70
128
 10
100.9425325739831578
 20
-99.0345656175326496
 10
101.5967325739832177
 20
-111.5174656175326788
  0
LWPOLYLINE
  5
A2
100
AcDbEntity
  8
0
 62
254
420
13685453
370
-1
 48
1.0
  6
ByLayer
100
AcDbPolyline
 90
2
 70
128
 10
105.1891325739832155
 20
-112.8312656175326936
 10
105.1630325739831733
 20
-112.3319656175326884
  0
LWPOLYLINE
  5
A3
100
AcDbEntity
  8
0
 62
254
420
13685453
370
-1
 48
1.0
  6
ByLayer
100
AcDbPolyline
 90
2
 70
128
 10
105.2153325739832326
 20
-113.3305656175326988
 10
105.1891325739832155
 20
-112.8312656175326936
  0
LWPOLYLINE
  5
A4
100
AcDbEntity
  8
0
 62
254
420
13685453
370
-1
 48
1.0
  6
ByLayer
100
AcDbPolyline
 90
2
 70
128
 10
101.6229325739832348
 20
-112.016765617532684
 10
101.5967325739832177
 20
-111.5174656175326788
  0
LWPOLYLINE
  5
A5
100
AcDbEntity
  8
0
 62
254
420
13685453
370
-1
 48
1.0
  6
ByLayer
100
AcDbPolyline
 90
2
 70
128
 10
102.1483325739832253
 20
-112.489965617532647
 10
101.6490325739831633
 20
-112.5160656175326892
  0
LWPOLYLINE
  5
A6
100
AcDbEntity
  8
0
 62
254
420
13685453
370
-1
 48
1.0
  6
ByLayer
100
AcDbPolyline
 90
2
 70
128
 10
102.1483325739832253
 20
-112.489965617532647
 10
105.1630325739831733
 20
-112.3319656175326884
  0
LWPOLYLINE
  5
A7
100
AcDbEntity
  8
0
 62
254
420
13685453
370
-1
 48
1.0
  6
ByLayer
100
AcDbPolyline
 90
2
 70
128
 10
101.6229325739832348
 20
-112.016765617532684
 10
101.6490325739831633
 20
-112.5160656175326892
  0
LWPOLYLINE
  5
A8
100
AcDbEntity
  8
0
 62
254
420
13685453
370
-1
 48
1.0
  6
ByLayer
100
AcDbPolyline
 90
2
 70
128
 10
131.0860325739831751
 20
-111.974765617532654
 10
105.2153325739832326
 20
-113.3305656175326988
  0
LWPOLYLINE
  5
A9
100
AcDbEntity
  8
0
 62
254
420
13685453
370
-1
 48
1.0
  6
ByLayer
100
AcDbPolyline
 90
2
 70
128
 10
130.3533325739832662
 20
-97.9939656175325524
 10
107.7094325739832357
 20
-99.1806656175326964
  0
LWPOLYLINE
  5
AA
100
AcDbEntity
  8
0
 62
254
420
13685453
370
-1
 48
1.0
  6
ByLayer
100
AcDbPolyline
 90
2
 70
128
 10
101.4156325739832027
 20
-98.5090656175326842
 10
100.9163325739832544
 20
-98.5352656175326445
  0
LWPOLYLINE
  5
AB
100
AcDbEntity
  8
0
 62
254
420
13685453
370
-1
 48
1.0
  6
ByLayer
100
AcDbPolyline
 90
2
 70
128
 10
107.157832573983228
 20
-98.2081656175325577
 10
107.6571325739831764
 20
-98.1819656175325974
  0
LWPOLYLINE
  5
AC
100
AcDbEntity
  8
0
 62
254
420
13685453
370
-1
 48
1.0
  6
ByLayer
100
AcDbPolyline
 90
2
 70
128
 10
107.157832573983228
 20
-98.2081656175325577
 10
101.4156325739832027
 20
-98.5090656175326842
  0
LWPOLYLINE
  5
AD
100
AcDbEntity
  8
0
 62
254
420
13685453
370
-1
 48
1.0
  6
ByLayer
100
AcDbPolyline
 90
2
 70
128
 10
100.9163325739832544
 20
-98.5352656175326445
 10
100.9425325739831578
 20
-99.0345656175326496
  0
LWPOLYLINE
  5
AE
100
AcDbEntity
  8
0
 62
254
420
13685453
370
-1
 48
1.0
  6
ByLayer
100
AcDbPolyline
 90
2
 70
128
 10
107.6832325739832186
 20
-98.6813656175326912
 10
107.7094325739832357
 20
-99.1806656175326964
  0
LWPOLYLINE
  5
AF
100
AcDbEntity
  8
0
 62
254
420
13685453
370
-1
 48
1.0
  6
ByLayer
100
AcDbPolyline
 90
2
 70
128
 10
107.6832325739832186
 20
-98.6813656175326912
 10
107.6571325739831764
 20
-98.1819656175325974
  0
LWPOLYLINE
  5
B0
100
AcDbEntity
  8
0
 62
254
420
13685453
370
-1
 48
1.0
  6
ByLayer
100
AcDbPolyline
 90
2
 70
128
 10
139.0295325739832606
 20
-97.5395656175326451
 10
133.0184325739832047
 20
-97.8542656175326613
  0
LWPOLYLINE
  5
B1
100
AcDbEntity
  8
0
 62
254
420
13685453
370
-1
 48
1.0
  6
ByLayer
100
AcDbPolyline
 90
2
 70
128
 10
139.0034325739831047
 20
-97.0402656175326968
 10
139.0295325739832606
 20
-97.5395656175326451
  0
LWPOLYLINE
  5
B2
100
AcDbEntity
  8
0
 62
254
420
13685453
370
-1
 48
1.0
  6
ByLayer
100
AcDbPolyline
 90
2
 70
128
 10
145.7441325739832791
 20
-96.6869656175325929
 10
145.7703325739831826
 20
-97.1862656175326549
  0
LWPOLYLINE
  5
B3
100
AcDbEntity
  8
0
 62
254
420
13685453
370
-1
 48
1.0
  6
ByLayer
100
AcDbPolyline
 90
2
 70
128
 10
138.9772325739832013
 20
-96.5409656175326916
 10
139.0034325739831047
 20
-97.0402656175326968
  0
LWPOLYLINE
  5
B4
100
AcDbEntity
  8
0
 62
254
420
13685453
370
-1
 48
1.0
  6
ByLayer
100
AcDbPolyline
 90
2
 70
128
 10
145.2186325739832
 20
-96.2138656175326616
 10
139.4765325739832633
 20
-96.5147656175325608
  0
LWPOLYLINE
  5
B5
100
AcDbEntity
  8
0
 62
254
420
13685453
370
-1
 48
1.0
  6
ByLayer
100
AcDbPolyline
 90
2
 70
128
 10
139.4765325739832633
 20
-96.5147656175325608
 10
138.9772325739832013
 20
-96.5409656175326916
  0
LWPOLYLINE
  5
B6
100
AcDbEntity
  8
0
 62
254
420
13685453
370
-1
 48
1.0
  6
ByLayer
100
AcDbPolyline
 90
2
 70
128
 10
145.7441325739832791
 20
-96.6869656175325929
 10
145.717932573983262
 20
-96.1876656175326445
  0
LWPOLYLINE
  5
B7
100
AcDbEntity
  8
0
 62
254
420
13685453
370
-1
 48
1.0
  6
ByLayer
100
AcDbPolyline
 90
2
 70
128
 10
145.2186325739832
 20
-96.2138656175326616
 10
145.717932573983262
 20
-96.1876656175326445
  0
LWPOLYLINE
  5
B8
100
AcDbEntity
  8
0
 62
254
420
13685453
370
-1
 48
1.0
  6
ByLayer
100
AcDbPolyline
 90
2
 70
128
 10
130.3533325739832662
 20
-97.9939656175325524
 10
131.0860325739831751
 20
-111.974765617532654
  0
LWPOLYLINE
  5
B9
100
AcDbEntity
  8
0
 62
254
420
13685453
370
-1
 48
1.0
  6
ByLayer
100
AcDbPolyline
 90
2
 70
128
 10
188.9407325739832686
 20
-32.9260656175325153
 10
189.0058267446875107
 20
-34.1680438168268665
  0
LWPOLYLINE
  5
BA
100
AcDbEntity
  8
0
 62
254
420
13685453
370
-1
 48
1.0
  6
ByLayer
100
AcDbPolyline
 90
2
 70
128
 10
189.3866325739832064
 20
-34.1480656175326658
 10
189.0058267446876243
 20
-34.1680438168268665
  0
LWPOLYLINE
  5
BB
100
AcDbEntity
  8
0
 62
254
420
13685453
370
-1
 48
1.0
  6
ByLayer
100
AcDbPolyline
 90
2
 70
128
 10
189.8859325739832684
 20
-34.1219656175326236
 10
189.3866325739832064
 20
-34.1480656175326658
  0
LWPOLYLINE
  5
BC
100
AcDbEntity
  8
0
 62
254
420
13685453
370
-1
 48
1.0
  6
ByLayer
100
AcDbPolyline
 90
2
 70
128
 10
190.3852325739831031
 20
-34.0957656175326633
 10
189.8859325739832684
 20
-34.1219656175326236
  0
LWPOLYLINE
  5
BD
100
AcDbEntity
  8
0
 62
254
420
13685453
370
-1
 48
1.0
  6
ByLayer
100
AcDbPolyline
 90
2
 70
128
 10
190.8845325739832788
 20
-34.0695656175325325
 10
190.3852325739831031
 20
-34.0957656175326633
  0
LWPOLYLINE
  5
BE
100
AcDbEntity
  8
0
 62
254
420
13685453
370
-1
 48
1.0
  6
ByLayer
100
AcDbPolyline
 90
2
 70
128
 10
191.3838325739832271
 20
-34.0434656175326609
 10
190.8845325739832788
 20
-34.0695656175325325
  0
LWPOLYLINE
  5
BF
100
AcDbEntity
  8
0
 62
254
420
13685453
370
-1
 48
1.0
  6
ByLayer
100
AcDbPolyline
 90
2
 70
128
 10
191.8831325739831755
 20
-34.0172656175325301
 10
191.3838325739832271
 20
-34.0434656175326609
  0
LWPOLYLINE
  5
C0
100
AcDbEntity
  8
0
 62
254
420
13685453
370
-1
 48
1.0
  6
ByLayer
100
AcDbPolyline
 90
2
 70
128
 10
191.7371325739831036
 20
-40.7841656175326648
 10
191.8172325739832331
 20
-42.3133656175326678
  0
LWPOLYLINE
  5
C1
100
AcDbEntity
  8
0
 62
254
420
13685453
370
-1
 48
1.0
  6
ByLayer
100
AcDbPolyline
 90
2
 70
128
 10
191.8172325739832331
 20
-42.3133656175326678
 10
192.6301325739831327
 20
-57.8232656175325701
  0
LWPOLYLINE
  5
C2
100
AcDbEntity
  8
0
 62
254
420
13685453
370
-1
 48
1.0
  6
ByLayer
100
AcDbPolyline
 90
2
 70
128
 10
193.1294325739831947
 20
-57.7971656175325563
 10
192.6301325739831327
 20
-57.8232656175325701
  0
LWPOLYLINE
  5
C3
100
AcDbEntity
  8
0
 62
254
420
13685453
370
-1
 48
1.0
  6
ByLayer
100
AcDbPolyline
 90
2
 70
128
 10
193.0484325739831775
 20
-65.806065617532596
 10
192.9833325739832617
 20
-64.5640656175326626
  0
LWPOLYLINE
  5
C4
100
AcDbEntity
  8
0
 62
254
420
13685453
370
-1
 48
1.0
  6
ByLayer
100
AcDbPolyline
 90
2
 70
128
 10
179.0676325739831327
 20
-66.5387656175325333
 10
193.0484325739831775
 20
-65.806065617532596
  0
LWPOLYLINE
  5
C5
100
AcDbEntity
  8
0
 62
254
420
13685453
370
-1
 48
1.0
  6
ByLayer
100
AcDbPolyline
 90
2
 70
128
 10
175.6926325739831327
 20
-47.6395656175325257
 10
178.0665325739831815
 20
-47.5151656175326593
  0
LWPOLYLINE
  5
C6
100
AcDbEntity
  8
0
 62
254
420
13685453
370
-1
 48
1.0
  6
ByLayer
100
AcDbPolyline
 90
2
 70
128
 10
179.0676325739831327
 20
-66.5387656175325333
 10
178.0665325739831815
 20
-47.5151656175326593
  0
LWPOLYLINE
  5
C7
100
AcDbEntity
  8
0
 62
254
420
13685453
370
-1
 48
1.0
  6
ByLayer
100
AcDbPolyline
 90
2
 70
128
 10
175.6926325739831327
 20
-47.6395656175325257
 10
174.9599325739832238
 20
-33.6587656175326515
  0
LWPOLYLINE
  5
C8
100
AcDbEntity
  8
0
 62
254
420
13685453
370
-1
 48
1.0
  6
ByLayer
100
AcDbPolyline
 90
2
 70
128
 10
192.4086325739832546
 20
-34.4904656175326636
 10
192.3824325739832375
 20
-33.9910656175326267
  0
LWPOLYLINE
  5
C9
100
AcDbEntity
  8
0
 62
254
420
13685453
370
-1
 48
1.0
  6
ByLayer
100
AcDbPolyline
 90
2
 70
128
 10
192.7096325739831855
 20
-40.2325656175326571
 10
192.4086325739832546
 20
-34.4904656175326636
  0
LWPOLYLINE
  5
CA
100
AcDbEntity
  8
0
 62
254
420
13685453
370
-1
 48
1.0
  6
ByLayer
100
AcDbPolyline
 90
2
 70
128
 10
192.7096325739831855
 20
-40.2325656175326571
 10
192.7357325739832277
 20
-40.7318656175326623
  0
LWPOLYLINE
  5
CB
100
AcDbEntity
  8
0
 62
254
420
13685453
370
-1
 48
1.0
  6
ByLayer
100
AcDbPolyline
 90
2
 70
128
 10
192.2364325739832793
 20
-40.7580656175326226
 10
192.7357325739832277
 20
-40.7318656175326623
  0
LWPOLYLINE
  5
CC
100
AcDbEntity
  8
0
 62
254
420
13685453
370
-1
 48
1.0
  6
ByLayer
100
AcDbPolyline
 90
2
 70
128
 10
192.2364325739832793
 20
-40.7580656175326226
 10
191.7371325739831036
 20
-40.7841656175326648
  0
LWPOLYLINE
  5
CD
100
AcDbEntity
  8
0
 62
254
420
13685453
370
-1
 48
1.0
  6
ByLayer
100
AcDbPolyline
 90
2
 70
128
 10
192.3824325739832375
 20
-33.9910656175326267
 10
191.8831325739831755
 20
-34.0172656175325301
  0
LWPOLYLINE
  5
CE
100
AcDbEntity
  8
0
 62
254
420
13685453
370
-1
 48
1.0
  6
ByLayer
100
AcDbPolyline
 90
2
 70
128
 10
-23.48936742601677
 20
-104.2299656175325993
 10
-23.4631674260167529
 20
-103.7306656175326509
  0
LWPOLYLINE
  5
CF
100
AcDbEntity
  8
0
 62
254
420
13685453
370
-1
 48
1.0
  6
ByLayer
100
AcDbPolyline
 90
2
 70
128
 10
-22.8236674260167547
 20
-72.4280656175325248
 10
-36.8044674260167994
 20
-71.6953656175326159
  0
LWPOLYLINE
  5
D0
100
AcDbEntity
  8
0
 62
254
420
13685453
370
-1
 48
1.0
  6
ByLayer
100
AcDbPolyline
 90
2
 70
128
 10
-38.5341674260168929
 20
-104.7000656175325446
 10
-37.8014674260168704
 20
-90.7192656175325283
  0
LWPOLYLINE
  5
D1
100
AcDbEntity
  8
0
 62
254
420
13685453
370
-1
 48
1.0
  6
ByLayer
100
AcDbPolyline
 90
2
 70
128
 10
-23.4631674260167529
 20
-103.7306656175326509
 10
-23.162167426016822
 20
-97.9885656175325437
  0
LWPOLYLINE
  5
D2
100
AcDbEntity
  8
0
 62
254
420
13685453
370
-1
 48
1.0
  6
ByLayer
100
AcDbPolyline
 90
2
 70
128
 10
-23.1360674260168935
 20
-97.4892656175326522
 10
-23.162167426016822
 20
-97.9885656175325437
  0
LWPOLYLINE
  5
D3
100
AcDbEntity
  8
0
 62
254
420
13685453
370
-1
 48
1.0
  6
ByLayer
100
AcDbPolyline
 90
2
 70
128
 10
-36.8044674260167994
 20
-71.6953656175326159
 10
-37.8014674260168704
 20
-90.7192656175325283
  0
LWPOLYLINE
  5
D4
100
AcDbEntity
  8
0
 62
254
420
13685453
370
-1
 48
1.0
  6
ByLayer
100
AcDbPolyline
 90
2
 70
128
 10
-23.1360674260168935
 20
-97.4892656175326522
 10
-23.6353674260168418
 20
-97.4630656175326919
  0
LWPOLYLINE
  5
D5
100
AcDbEntity
  8
0
 62
254
420
13685453
370
-1
 48
1.0
  6
ByLayer
100
AcDbPolyline
 90
2
 70
128
 10
-24.4879674260167803
 20
-104.1776656175325968
 10
-23.988667426016832
 20
-104.2038656175325571
  0
LWPOLYLINE
  5
D6
100
AcDbEntity
  8
0
 62
254
420
13685453
370
-1
 48
1.0
  6
ByLayer
100
AcDbPolyline
 90
2
 70
128
 10
-23.8206674260168256
 20
-91.4519656175326645
 10
-24.1346674260167902
 20
-97.4369656175325929
  0
LWPOLYLINE
  5
D7
100
AcDbEntity
  8
0
 62
254
420
13685453
370
-1
 48
1.0
  6
ByLayer
100
AcDbPolyline
 90
2
 70
128
 10
-22.8887674260167842
 20
-73.6701656175325468
 10
-22.8236674260167547
 20
-72.4280656175325248
  0
LWPOLYLINE
  5
D8
100
AcDbEntity
  8
0
 62
254
420
13685453
370
-1
 48
1.0
  6
ByLayer
100
AcDbPolyline
 90
2
 70
128
 10
-24.5533674260168482
 20
-105.4327656175326808
 10
-38.5341674260168929
 20
-104.7000656175325446
  0
LWPOLYLINE
  5
D9
100
AcDbEntity
  8
0
 62
254
420
13685453
370
-1
 48
1.0
  6
ByLayer
100
AcDbPolyline
 90
2
 70
128
 10
-24.4879674260167803
 20
-104.1776656175325968
 10
-24.5533674260168482
 20
-105.4327656175326808
  0
LWPOLYLINE
  5
DA
100
AcDbEntity
  8
0
 62
254
420
13685453
370
-1
 48
1.0
  6
ByLayer
100
AcDbPolyline
 90
2
 70
128
 10
-24.1346674260167902
 20
-97.4369656175325929
 10
-23.6353674260168418
 20
-97.4630656175326919
  0
LWPOLYLINE
  5
DB
100
AcDbEntity
  8
0
 62
254
420
13685453
370
-1
 48
1.0
  6
ByLayer
100
AcDbPolyline
 90
2
 70
128
 10
-23.988667426016832
 20
-104.2038656175325571
 10
-23.48936742601677
 20
-104.2299656175325993
  0
LWPOLYLINE
  5
DC
100
AcDbEntity
  8
0
 62
254
420
13685453
370
-1
 48
1.0
  6
ByLayer
100
AcDbPolyline
 90
2
 70
128
 10
-22.8887674260167842
 20
-73.6701656175325468
 10
-22.3894674260168358
 20
-73.6962656175326458
  0
LWPOLYLINE
  5
DD
100
AcDbEntity
  8
0
 62
254
420
13685453
370
-1
 48
1.0
  6
ByLayer
100
AcDbPolyline
 90
2
 70
128
 10
-23.2420674260167743
 20
-80.4108656175325223
 10
-23.8206674260168256
 20
-91.4519656175326645
  0
LWPOLYLINE
  5
DE
100
AcDbEntity
  8
0
 62
254
420
13685453
370
-1
 48
1.0
  6
ByLayer
100
AcDbPolyline
 90
2
 70
128
 10
-22.742767426016826
 20
-80.4370656175326531
 10
-22.243467426016764
 20
-80.4632656175326701
  0
LWPOLYLINE
  5
DF
100
AcDbEntity
  8
0
 62
254
420
13685453
370
-1
 48
1.0
  6
ByLayer
100
AcDbPolyline
 90
2
 70
128
 10
-22.2172674260168606
 20
-79.9638656175326332
 10
-21.916267426016816
 20
-74.221765617532526
  0
LWPOLYLINE
  5
E0
100
AcDbEntity
  8
0
 62
254
420
13685453
370
-1
 48
1.0
  6
ByLayer
100
AcDbPolyline
 90
2
 70
128
 10
-22.243467426016764
 20
-80.4632656175326701
 10
-22.2172674260168606
 20
-79.9638656175326332
  0
LWPOLYLINE
  5
E1
100
AcDbEntity
  8
0
 62
254
420
13685453
370
-1
 48
1.0
  6
ByLayer
100
AcDbPolyline
 90
2
 70
128
 10
-21.8901674260167738
 20
-73.7224656175325208
 10
-22.3894674260168358
 20
-73.6962656175326458
  0
LWPOLYLINE
  5
E2
100
AcDbEntity
  8
0
 62
254
420
13685453
370
-1
 48
1.0
  6
ByLayer
100
AcDbPolyline
 90
2
 70
128
 10
-21.8901674260167738
 20
-73.7224656175325208
 10
-21.916267426016816
 20
-74.221765617532526
  0
LWPOLYLINE
  5
E3
100
AcDbEntity
  8
0
 62
254
420
13685453
370
-1
 48
1.0
  6
ByLayer
100
AcDbPolyline
 90
2
 70
128
 10
-23.2420674260167743
 20
-80.4108656175325223
 10
-22.742767426016826
 20
-80.4370656175326531
  0
LWPOLYLINE
  5
E4
100
AcDbEntity
  8
0
 62
254
420
13685453
370
-1
 48
1.0
  6
ByLayer
100
AcDbPolyline
 90
2
 70
128
 10
193.6549325739831602
 20
-58.270265617532516
 10
193.6287325739832568
 20
-57.7709656175326245
  0
LWPOLYLINE
  5
E5
100
AcDbEntity
  8
0
 62
254
420
13685453
370
-1
 48
1.0
  6
ByLayer
100
AcDbPolyline
 90
2
 70
128
 10
193.9558325739832298
 20
-64.0123656175326232
 10
193.6549325739831602
 20
-58.270265617532516
  0
LWPOLYLINE
  5
E6
100
AcDbEntity
  8
0
 62
254
420
13685453
370
-1
 48
1.0
  6
ByLayer
100
AcDbPolyline
 90
2
 70
128
 10
193.9558325739832298
 20
-64.0123656175326232
 10
193.9820325739831333
 20
-64.5117656175326601
  0
LWPOLYLINE
  5
E7
100
AcDbEntity
  8
0
 62
254
420
13685453
370
-1
 48
1.0
  6
ByLayer
100
AcDbPolyline
 90
2
 70
128
 10
193.4827325739831849
 20
-64.5378656175325318
 10
193.9820325739831333
 20
-64.5117656175326601
  0
LWPOLYLINE
  5
E8
100
AcDbEntity
  8
0
 62
254
420
13685453
370
-1
 48
1.0
  6
ByLayer
100
AcDbPolyline
 90
2
 70
128
 10
193.4827325739831849
 20
-64.5378656175325318
 10
192.9833325739832617
 20
-64.5640656175326626
  0
LWPOLYLINE
  5
E9
100
AcDbEntity
  8
0
 62
254
420
13685453
370
-1
 48
1.0
  6
ByLayer
100
AcDbPolyline
 90
2
 70
128
 10
193.6287325739832568
 20
-57.7709656175326245
 10
193.1294325739831947
 20
-57.7971656175325563
  0
LWPOLYLINE
  5
EA
100
AcDbEntity
  8
0
 62
254
420
13685453
370
-1
 48
1.0
  6
ByLayer
100
AcDbPolyline
 90
2
 70
128
 10
176.6668325739832426
 20
-71.721565617532633
 10
176.7323325739831716
 20
-72.9766656175326602
  0
LWPOLYLINE
  5
EB
100
AcDbEntity
  8
0
 62
254
420
13685453
370
-1
 48
1.0
  6
ByLayer
100
AcDbPolyline
 90
2
 70
128
 10
177.5848325739832489
 20
-79.6912656175326219
 10
177.0855325739830732
 20
-79.7174656175325254
  0
LWPOLYLINE
  5
EC
100
AcDbEntity
  8
0
 62
254
420
13685453
370
-1
 48
1.0
  6
ByLayer
100
AcDbPolyline
 90
2
 70
128
 10
177.730932573983182
 20
-72.9243656175326862
 10
177.2316325739832337
 20
-72.9505656175326465
  0
LWPOLYLINE
  5
ED
100
AcDbEntity
  8
0
 62
254
420
13685453
370
-1
 48
1.0
  6
ByLayer
100
AcDbPolyline
 90
2
 70
128
 10
178.0580325739832688
 20
-79.1657656175326565
 10
177.7571325739831991
 20
-73.423665617532663
  0
LWPOLYLINE
  5
EE
100
AcDbEntity
  8
0
 62
254
420
13685453
370
-1
 48
1.0
  6
ByLayer
100
AcDbPolyline
 90
2
 70
128
 10
177.7571325739831991
 20
-73.423665617532663
 10
177.730932573983182
 20
-72.9243656175326862
  0
LWPOLYLINE
  5
EF
100
AcDbEntity
  8
0
 62
254
420
13685453
370
-1
 48
1.0
  6
ByLayer
100
AcDbPolyline
 90
2
 70
128
 10
177.5848325739832489
 20
-79.6912656175326219
 10
178.0842325739831722
 20
-79.6650656175326617
  0
LWPOLYLINE
  5
F0
100
AcDbEntity
  8
0
 62
254
420
13685453
370
-1
 48
1.0
  6
ByLayer
100
AcDbPolyline
 90
2
 70
128
 10
178.0580325739832688
 20
-79.1657656175326565
 10
178.0842325739831722
 20
-79.6650656175326617
  0
LWPOLYLINE
  5
F1
100
AcDbEntity
  8
0
 62
254
420
13685453
370
-1
 48
1.0
  6
ByLayer
100
AcDbPolyline
 90
2
 70
128
 10
177.2316325739832337
 20
-72.9505656175326465
 10
176.7323325739831716
 20
-72.9766656175326602
  0
LWPOLYLINE
  5
F2
100
AcDbEntity
  8
0
 62
254
420
13685453
370
-1
 48
1.0
  6
ByLayer
100
AcDbPolyline
 90
2
 70
128
 10
-43.5779674260168122
 20
-104.461965617532627
 10
-57.5587674260168569
 20
-103.7292656175326613
  0
LWPOLYLINE
  5
F3
100
AcDbEntity
  8
0
 62
254
420
13685453
370
-1
 48
1.0
  6
ByLayer
100
AcDbPolyline
 90
2
 70
128
 10
-42.8452674260167896
 20
-90.4811656175326675
 10
-43.5779674260168122
 20
-104.461965617532627
  0
LWPOLYLINE
  5
F4
100
AcDbEntity
  8
0
 62
254
420
13685453
370
-1
 48
1.0
  6
ByLayer
100
AcDbPolyline
 90
2
 70
128
 10
-42.5809674260168549
 20
-85.4380656175326294
 10
-56.561767426016786
 20
-84.7053656175326637
  0
LWPOLYLINE
  5
F5
100
AcDbEntity
  8
0
 62
254
420
13685453
370
-1
 48
1.0
  6
ByLayer
100
AcDbPolyline
 90
2
 70
128
 10
-55.8290674260168771
 20
-70.7245656175326189
 10
-41.8482674260168324
 20
-71.4572656175325562
  0
LWPOLYLINE
  5
F6
100
AcDbEntity
  8
0
 62
254
420
13685453
370
-1
 48
1.0
  6
ByLayer
100
AcDbPolyline
 90
2
 70
128
 10
-41.8482674260168324
 20
-71.4572656175325562
 10
-42.5809674260168549
 20
-85.4380656175326294
  0
LWPOLYLINE
  5
F7
100
AcDbEntity
  8
0
 62
254
420
13685453
370
-1
 48
1.0
  6
ByLayer
100
AcDbPolyline
 90
2
 70
128
 10
-56.8260674260168344
 20
-89.7484656175325313
 10
-42.8452674260167896
 20
-90.4811656175326675
  0
LWPOLYLINE
  5
F8
100
AcDbEntity
  8
0
 62
254
420
13685453
370
-1
 48
1.0
  6
ByLayer
100
AcDbPolyline
 90
2
 70
128
 10
-57.5587674260168569
 20
-103.7292656175326613
 10
-56.8260674260168344
 20
-89.7484656175325313
  0
LWPOLYLINE
  5
F9
100
AcDbEntity
  8
0
 62
254
420
13685453
370
-1
 48
1.0
  6
ByLayer
100
AcDbPolyline
 90
2
 70
128
 10
-56.561767426016786
 20
-84.7053656175326637
 10
-55.8290674260168771
 20
-70.7245656175326189
  0
LWPOLYLINE
  5
FA
100
AcDbEntity
  8
0
 62
254
420
13685453
370
-1
 48
1.0
  6
ByLayer
100
AcDbPolyline
 90
2
 70
128
 10
-39.2059674260168549
 20
-66.5387656175325333
 10
-53.186767426016786
 20
-65.806065617532596
  0
LWPOLYLINE
  5
FB
100
AcDbEntity
  8
0
 62
254
420
13685453
370
-1
 48
1.0
  6
ByLayer
100
AcDbPolyline
 90
2
 70
128
 10
-38.4732674260168324
 20
-52.5579656175326591
 10
-39.2059674260168549
 20
-66.5387656175325333
  0
LWPOLYLINE
  5
FC
100
AcDbEntity
  8
0
 62
254
420
13685453
370
-1
 48
1.0
  6
ByLayer
100
AcDbPolyline
 90
2
 70
128
 10
-17.8309674260167412
 20
-67.6395656175325257
 10
-31.811767426016786
 20
-66.9068656175326169
  0
LWPOLYLINE
  5
FD
100
AcDbEntity
  8
0
 62
254
420
13685453
370
-1
 48
1.0
  6
ByLayer
100
AcDbPolyline
 90
2
 70
128
 10
-31.0790674260167634
 20
-52.9260656175325153
 10
-17.0982674260168324
 20
-53.6587656175326515
  0
LWPOLYLINE
  5
FE
100
AcDbEntity
  8
0
 62
254
420
13685453
370
-1
 48
1.0
  6
ByLayer
100
AcDbPolyline
 90
2
 70
128
 10
-17.0982674260168324
 20
-53.6587656175326515
 10
-17.8309674260167412
 20
-67.6395656175325257
  0
LWPOLYLINE
  5
FF
100
AcDbEntity
  8
0
 62
254
420
13685453
370
-1
 48
1.0
  6
ByLayer
100
AcDbPolyline
 90
2
 70
128
 10
-52.4540674260168771
 20
-51.8252656175325228
 10
-38.4732674260168324
 20
-52.5579656175326591
  0
LWPOLYLINE
  5
100
100
AcDbEntity
  8
0
 62
254
420
13685453
370
-1
 48
1.0
  6
ByLayer
100
AcDbPolyline
 90
2
 70
128
 10
-53.186767426016786
 20
-65.806065617532596
 10
-52.4540674260168771
 20
-51.8252656175325228
  0
LWPOLYLINE
  5
101
100
AcDbEntity
  8
0
 62
254
420
13685453
370
-1
 48
1.0
  6
ByLayer
100
AcDbPolyline
 90
2
 70
128
 10
-31.811767426016786
 20
-66.9068656175326169
 10
-31.0790674260167634
 20
-52.9260656175325153
  0
LWPOLYLINE
  5
102
100
AcDbEntity
  8
0
 62
254
420
13685453
370
-1
 48
1.0
  6
ByLayer
100
AcDbPolyline
 90
2
 70
128
 10
-35.8309674260167412
 20
-47.6395656175325257
 10
-49.811767426016786
 20
-46.9068656175326169
  0
LWPOLYLINE
  5
103
100
AcDbEntity
  8
0
 62
254
420
13685453
370
-1
 48
1.0
  6
ByLayer
100
AcDbPolyline
 90
2
 70
128
 10
-35.0982674260168324
 20
-33.6587656175326515
 10
-35.8309674260167412
 20
-47.6395656175325257
  0
LWPOLYLINE
  5
104
100
AcDbEntity
  8
0
 62
254
420
13685453
370
-1
 48
1.0
  6
ByLayer
100
AcDbPolyline
 90
2
 70
128
 10
-12.051167426016832
 20
-48.8857656175325701
 10
-26.0319674260167631
 20
-48.1530656175326612
  0
LWPOLYLINE
  5
105
100
AcDbEntity
  8
0
 62
254
420
13685453
370
-1
 48
1.0
  6
ByLayer
100
AcDbPolyline
 90
2
 70
128
 10
-25.2992674260167405
 20
-34.1722656175326165
 10
-11.3184674260168094
 20
-34.9049656175325254
  0
LWPOLYLINE
  5
106
100
AcDbEntity
  8
0
 62
254
420
13685453
370
-1
 48
1.0
  6
ByLayer
100
AcDbPolyline
 90
2
 70
128
 10
-11.3184674260168094
 20
-34.9049656175325254
 10
-12.051167426016832
 20
-48.8857656175325701
  0
LWPOLYLINE
  5
107
100
AcDbEntity
  8
0
 62
254
420
13685453
370
-1
 48
1.0
  6
ByLayer
100
AcDbPolyline
 90
2
 70
128
 10
-49.0790674260168771
 20
-32.9260656175325153
 10
-35.0982674260168324
 20
-33.6587656175326515
  0
LWPOLYLINE
  5
108
100
AcDbEntity
  8
0
 62
254
420
13685453
370
-1
 48
1.0
  6
ByLayer
100
AcDbPolyline
 90
2
 70
128
 10
-49.811767426016786
 20
-46.9068656175326169
 10
-49.0790674260168771
 20
-32.9260656175325153
  0
LWPOLYLINE
  5
109
100
AcDbEntity
  8
0
 62
254
420
13685453
370
-1
 48
1.0
  6
ByLayer
100
AcDbPolyline
 90
2
 70
128
 10
-26.0319674260167631
 20
-48.1530656175326612
 10
-25.2992674260167405
 20
-34.1722656175326165
  0
LWPOLYLINE
  5
10A
100
AcDbEntity
  8
0
 62
254
420
13685453
370
-1
 48
1.0
  6
ByLayer
100
AcDbPolyline
 90
2
 70
128
 10
6.972732573983194
 20
-49.8827656175325274
 10
-7.0080674260168507
 20
-49.1500656175326185
  0
LWPOLYLINE
  5
10B
100
AcDbEntity
  8
0
 62
254
420
13685453
370
-1
 48
1.0
  6
ByLayer
100
AcDbPolyline
 90
2
 70
128
 10
7.7054325739832166
 20
-35.9019656175326531
 10
6.972732573983194
 20
-49.8827656175325274
  0
LWPOLYLINE
  5
10C
100
AcDbEntity
  8
0
 62
254
420
13685453
370
-1
 48
1.0
  6
ByLayer
100
AcDbPolyline
 90
2
 70
128
 10
25.99663257398322
 20
-50.8797656175326551
 10
12.0158325739831753
 20
-50.1470656175325189
  0
LWPOLYLINE
  5
10D
100
AcDbEntity
  8
0
 62
254
420
13685453
370
-1
 48
1.0
  6
ByLayer
100
AcDbPolyline
 90
2
 70
128
 10
12.7485325739831978
 20
-36.166265617532531
 10
26.7293325739832426
 20
-36.8989656175326672
  0
LWPOLYLINE
  5
10E
100
AcDbEntity
  8
0
 62
254
420
13685453
370
-1
 48
1.0
  6
ByLayer
100
AcDbPolyline
 90
2
 70
128
 10
26.7293325739832426
 20
-36.8989656175326672
 10
25.99663257398322
 20
-50.8797656175326551
  0
LWPOLYLINE
  5
10F
100
AcDbEntity
  8
0
 62
254
420
13685453
370
-1
 48
1.0
  6
ByLayer
100
AcDbPolyline
 90
2
 70
128
 10
-6.2753674260168282
 20
-35.1692656175325169
 10
7.7054325739832166
 20
-35.9019656175326531
  0
LWPOLYLINE
  5
110
100
AcDbEntity
  8
0
 62
254
420
13685453
370
-1
 48
1.0
  6
ByLayer
100
AcDbPolyline
 90
2
 70
128
 10
-7.0080674260168507
 20
-49.1500656175326185
 10
-6.2753674260168282
 20
-35.1692656175325169
  0
LWPOLYLINE
  5
111
100
AcDbEntity
  8
0
 62
254
420
13685453
370
-1
 48
1.0
  6
ByLayer
100
AcDbPolyline
 90
2
 70
128
 10
12.0158325739831753
 20
-50.1470656175325189
 10
12.7485325739831978
 20
-36.166265617532531
  0
LWPOLYLINE
  5
112
100
AcDbEntity
  8
0
 62
254
420
13685453
370
-1
 48
1.0
  6
ByLayer
100
AcDbPolyline
 90
2
 70
128
 10
45.020532573983246
 20
-51.8767656175326692
 10
31.0397325739832013
 20
-51.144065617532533
  0
LWPOLYLINE
  5
113
100
AcDbEntity
  8
0
 62
254
420
13685453
370
-1
 48
1.0
  6
ByLayer
100
AcDbPolyline
 90
2
 70
128
 10
45.7532325739831549
 20
-37.8959656175326245
 10
45.020532573983246
 20
-51.8767656175326692
  0
LWPOLYLINE
  5
114
100
AcDbEntity
  8
0
 62
254
420
13685453
370
-1
 48
1.0
  6
ByLayer
100
AcDbPolyline
 90
2
 70
128
 10
64.0444325739831584
 20
-52.8737656175326265
 10
50.0636325739832273
 20
-52.1410656175326608
  0
LWPOLYLINE
  5
115
100
AcDbEntity
  8
0
 62
254
420
13685453
370
-1
 48
1.0
  6
ByLayer
100
AcDbPolyline
 90
2
 70
128
 10
50.7963325739832499
 20
-38.160265617532616
 10
64.7771325739831809
 20
-38.8929656175325249
  0
LWPOLYLINE
  5
116
100
AcDbEntity
  8
0
 62
254
420
13685453
370
-1
 48
1.0
  6
ByLayer
100
AcDbPolyline
 90
2
 70
128
 10
64.7771325739831809
 20
-38.8929656175325249
 10
64.0444325739831584
 20
-52.8737656175326265
  0
LWPOLYLINE
  5
117
100
AcDbEntity
  8
0
 62
254
420
13685453
370
-1
 48
1.0
  6
ByLayer
100
AcDbPolyline
 90
2
 70
128
 10
31.7724325739832238
 20
-37.1632656175326588
 10
45.7532325739831549
 20
-37.8959656175326245
  0
LWPOLYLINE
  5
118
100
AcDbEntity
  8
0
 62
254
420
13685453
370
-1
 48
1.0
  6
ByLayer
100
AcDbPolyline
 90
2
 70
128
 10
31.0397325739832013
 20
-51.144065617532533
 10
31.7724325739832238
 20
-37.1632656175326588
  0
LWPOLYLINE
  5
119
100
AcDbEntity
  8
0
 62
254
420
13685453
370
-1
 48
1.0
  6
ByLayer
100
AcDbPolyline
 90
2
 70
128
 10
50.0636325739832273
 20
-52.1410656175326608
 10
50.7963325739832499
 20
-38.160265617532616
  0
LWPOLYLINE
  5
11A
100
AcDbEntity
  8
0
 62
254
420
13685453
370
-1
 48
1.0
  6
ByLayer
100
AcDbPolyline
 90
2
 70
128
 10
1.2437325739831522
 20
-68.6544656175326509
 10
-12.7371674260167538
 20
-67.9217656175326567
  0
LWPOLYLINE
  5
11B
100
AcDbEntity
  8
0
 62
254
420
13685453
370
-1
 48
1.0
  6
ByLayer
100
AcDbPolyline
 90
2
 70
128
 10
1.9764325739831747
 20
-54.673665617532663
 10
1.2437325739831522
 20
-68.6544656175326509
  0
LWPOLYLINE
  5
11C
100
AcDbEntity
  8
0
 62
254
420
13685453
370
-1
 48
1.0
  6
ByLayer
100
AcDbPolyline
 90
2
 70
128
 10
20.2675325739832033
 20
-69.651465617532665
 10
6.2867325739831585
 20
-68.9187656175325571
  0
LWPOLYLINE
  5
11D
100
AcDbEntity
  8
0
 62
254
420
13685453
370
-1
 48
1.0
  6
ByLayer
100
AcDbPolyline
 90
2
 70
128
 10
7.0194325739831811
 20
-54.9378656175325659
 10
21.0002325739832258
 20
-55.6706656175325634
  0
LWPOLYLINE
  5
11E
100
AcDbEntity
  8
0
 62
254
420
13685453
370
-1
 48
1.0
  6
ByLayer
100
AcDbPolyline
 90
2
 70
128
 10
21.0002325739832258
 20
-55.6706656175325634
 10
20.2675325739832033
 20
-69.651465617532665
  0
LWPOLYLINE
  5
11F
100
AcDbEntity
  8
0
 62
254
420
13685453
370
-1
 48
1.0
  6
ByLayer
100
AcDbPolyline
 90
2
 70
128
 10
-12.0044674260168449
 20
-53.9408656175326655
 10
1.9764325739831747
 20
-54.673665617532663
  0
LWPOLYLINE
  5
120
100
AcDbEntity
  8
0
 62
254
420
13685453
370
-1
 48
1.0
  6
ByLayer
100
AcDbPolyline
 90
2
 70
128
 10
-12.7371674260167538
 20
-67.9217656175326567
 10
-12.0044674260168449
 20
-53.9408656175326655
  0
LWPOLYLINE
  5
121
100
AcDbEntity
  8
0
 62
254
420
13685453
370
-1
 48
1.0
  6
ByLayer
100
AcDbPolyline
 90
2
 70
128
 10
6.2867325739831585
 20
-68.9187656175325571
 10
7.0194325739831811
 20
-54.9378656175325659
  0
LWPOLYLINE
  5
122
100
AcDbEntity
  8
0
 62
254
420
13685453
370
-1
 48
1.0
  6
ByLayer
100
AcDbPolyline
 90
2
 70
128
 10
39.2675325739832033
 20
-70.651465617532665
 10
25.2867325739831585
 20
-69.9187656175325571
  0
LWPOLYLINE
  5
123
100
AcDbEntity
  8
0
 62
254
420
13685453
370
-1
 48
1.0
  6
ByLayer
100
AcDbPolyline
 90
2
 70
128
 10
40.0002325739832258
 20
-56.6706656175325634
 10
39.2675325739832033
 20
-70.651465617532665
  0
LWPOLYLINE
  5
124
100
AcDbEntity
  8
0
 62
254
420
13685453
370
-1
 48
1.0
  6
ByLayer
100
AcDbPolyline
 90
2
 70
128
 10
58.2914325739832293
 20
-71.6484656175325654
 10
44.3106325739831846
 20
-70.9157656175326565
  0
LWPOLYLINE
  5
125
100
AcDbEntity
  8
0
 62
254
420
13685453
370
-1
 48
1.0
  6
ByLayer
100
AcDbPolyline
 90
2
 70
128
 10
45.0433325739832071
 20
-56.9348656175325232
 10
59.0241325739832519
 20
-57.6676656175325206
  0
LWPOLYLINE
  5
126
100
AcDbEntity
  8
0
 62
254
420
13685453
370
-1
 48
1.0
  6
ByLayer
100
AcDbPolyline
 90
2
 70
128
 10
59.0241325739832519
 20
-57.6676656175325206
 10
58.2914325739832293
 20
-71.6484656175325654
  0
LWPOLYLINE
  5
127
100
AcDbEntity
  8
0
 62
254
420
13685453
370
-1
 48
1.0
  6
ByLayer
100
AcDbPolyline
 90
2
 70
128
 10
26.0194325739831811
 20
-55.9378656175325659
 10
40.0002325739832258
 20
-56.6706656175325634
  0
LWPOLYLINE
  5
128
100
AcDbEntity
  8
0
 62
254
420
13685453
370
-1
 48
1.0
  6
ByLayer
100
AcDbPolyline
 90
2
 70
128
 10
25.2867325739831585
 20
-69.9187656175325571
 10
26.0194325739831811
 20
-55.9378656175325659
  0
LWPOLYLINE
  5
129
100
AcDbEntity
  8
0
 62
254
420
13685453
370
-1
 48
1.0
  6
ByLayer
100
AcDbPolyline
 90
2
 70
128
 10
44.3106325739831846
 20
-70.9157656175326565
 10
45.0433325739832071
 20
-56.9348656175325232
  0
LWPOLYLINE
  5
12A
100
AcDbEntity
  8
0
 62
254
420
13685453
370
-1
 48
1.0
  6
ByLayer
100
AcDbPolyline
 90
2
 70
128
 10
-4.5331674260168029
 20
-87.432065617532686
 10
-18.5139674260168476
 20
-86.6993656175325214
  0
LWPOLYLINE
  5
12B
100
AcDbEntity
  8
0
 62
254
420
13685453
370
-1
 48
1.0
  6
ByLayer
100
AcDbPolyline
 90
2
 70
128
 10
-3.8004674260167803
 20
-73.4512656175326697
 10
-4.5331674260168029
 20
-87.432065617532686
  0
LWPOLYLINE
  5
12C
100
AcDbEntity
  8
0
 62
254
420
13685453
370
-1
 48
1.0
  6
ByLayer
100
AcDbPolyline
 90
2
 70
128
 10
14.4907325739832231
 20
-88.4290656175326149
 10
0.5099325739831784
 20
-87.6963656175325355
  0
LWPOLYLINE
  5
12D
100
AcDbEntity
  8
0
 62
254
420
13685453
370
-1
 48
1.0
  6
ByLayer
100
AcDbPolyline
 90
2
 70
128
 10
1.2426325739832009
 20
-73.7155656175326612
 10
15.2234325739832457
 20
-74.4482656175325701
  0
LWPOLYLINE
  5
12E
100
AcDbEntity
  8
0
 62
254
420
13685453
370
-1
 48
1.0
  6
ByLayer
100
AcDbPolyline
 90
2
 70
128
 10
15.2234325739832457
 20
-74.4482656175325701
 10
14.4907325739832231
 20
-88.4290656175326149
  0
LWPOLYLINE
  5
12F
100
AcDbEntity
  8
0
 62
254
420
13685453
370
-1
 48
1.0
  6
ByLayer
100
AcDbPolyline
 90
2
 70
128
 10
-17.7812674260168251
 20
-72.7185656175325335
 10
-3.8004674260167803
 20
-73.4512656175326697
  0
LWPOLYLINE
  5
130
100
AcDbEntity
  8
0
 62
254
420
13685453
370
-1
 48
1.0
  6
ByLayer
100
AcDbPolyline
 90
2
 70
128
 10
-18.5139674260168476
 20
-86.6993656175325214
 10
-17.7812674260168251
 20
-72.7185656175325335
  0
LWPOLYLINE
  5
131
100
AcDbEntity
  8
0
 62
254
420
13685453
370
-1
 48
1.0
  6
ByLayer
100
AcDbPolyline
 90
2
 70
128
 10
0.5099325739831784
 20
-87.6963656175325355
 10
1.2426325739832009
 20
-73.7155656175326612
  0
LWPOLYLINE
  5
132
100
AcDbEntity
  8
0
 62
254
420
13685453
370
-1
 48
1.0
  6
ByLayer
100
AcDbPolyline
 90
2
 70
128
 10
33.5146325739832491
 20
-89.4260656175325153
 10
19.5338325739832044
 20
-88.6933656175326632
  0
LWPOLYLINE
  5
133
100
AcDbEntity
  8
0
 62
254
420
13685453
370
-1
 48
1.0
  6
ByLayer
100
AcDbPolyline
 90
2
 70
128
 10
34.247332573983158
 20
-75.4452656175325558
 10
33.5146325739832491
 20
-89.4260656175325153
  0
LWPOLYLINE
  5
134
100
AcDbEntity
  8
0
 62
254
420
13685453
370
-1
 48
1.0
  6
ByLayer
100
AcDbPolyline
 90
2
 70
128
 10
52.5385325739831615
 20
-90.4230656175325294
 10
38.5576325739832555
 20
-89.6903656175326205
  0
LWPOLYLINE
  5
135
100
AcDbEntity
  8
0
 62
254
420
13685453
370
-1
 48
1.0
  6
ByLayer
100
AcDbPolyline
 90
2
 70
128
 10
39.290432573983253
 20
-75.7095656175325189
 10
53.271232573983184
 20
-76.4422656175326551
  0
LWPOLYLINE
  5
136
100
AcDbEntity
  8
0
 62
254
420
13685453
370
-1
 48
1.0
  6
ByLayer
100
AcDbPolyline
 90
2
 70
128
 10
53.271232573983184
 20
-76.4422656175326551
 10
52.5385325739831615
 20
-90.4230656175325294
  0
LWPOLYLINE
  5
137
100
AcDbEntity
  8
0
 62
254
420
13685453
370
-1
 48
1.0
  6
ByLayer
100
AcDbPolyline
 90
2
 70
128
 10
20.2665325739832269
 20
-74.7125656175326469
 10
34.247332573983158
 20
-75.4452656175325558
  0
LWPOLYLINE
  5
138
100
AcDbEntity
  8
0
 62
254
420
13685453
370
-1
 48
1.0
  6
ByLayer
100
AcDbPolyline
 90
2
 70
128
 10
19.5338325739832044
 20
-88.6933656175326632
 10
20.2665325739832269
 20
-74.7125656175326469
  0
LWPOLYLINE
  5
139
100
AcDbEntity
  8
0
 62
254
420
13685453
370
-1
 48
1.0
  6
ByLayer
100
AcDbPolyline
 90
2
 70
128
 10
38.5576325739832555
 20
-89.6903656175326205
 10
39.290432573983253
 20
-75.7095656175325189
  0
LWPOLYLINE
  5
13A
100
AcDbEntity
  8
0
 62
254
420
13685453
370
-1
 48
1.0
  6
ByLayer
100
AcDbPolyline
 90
2
 70
128
 10
171.6465325739832224
 20
-66.927765617532657
 10
157.6657325739831776
 20
-67.6604656175326227
  0
LWPOLYLINE
  5
13B
100
AcDbEntity
  8
0
 62
254
420
13685453
370
-1
 48
1.0
  6
ByLayer
100
AcDbPolyline
 90
2
 70
128
 10
157.6657325739831776
 20
-67.6604656175326227
 10
156.9330325739832688
 20
-53.6796656175325211
  0
LWPOLYLINE
  5
13C
100
AcDbEntity
  8
0
 62
254
420
13685453
370
-1
 48
1.0
  6
ByLayer
100
AcDbPolyline
 90
2
 70
128
 10
151.1801325739832009
 20
-34.9049656175325254
 10
165.160932573983132
 20
-34.1722656175326165
  0
LWPOLYLINE
  5
13D
100
AcDbEntity
  8
0
 62
254
420
13685453
370
-1
 48
1.0
  6
ByLayer
100
AcDbPolyline
 90
2
 70
128
 10
156.9330325739832688
 20
-53.6796656175325211
 10
170.9138325739831998
 20
-52.9468656175325236
  0
LWPOLYLINE
  5
13E
100
AcDbEntity
  8
0
 62
254
420
13685453
370
-1
 48
1.0
  6
ByLayer
100
AcDbPolyline
 90
2
 70
128
 10
170.9138325739831998
 20
-52.9468656175325236
 10
171.6465325739832224
 20
-66.927765617532657
  0
LWPOLYLINE
  5
13F
100
AcDbEntity
  8
0
 62
254
420
13685453
370
-1
 48
1.0
  6
ByLayer
100
AcDbPolyline
 90
2
 70
128
 10
146.8697325739832422
 20
-49.1500656175326185
 10
132.8889325739831975
 20
-49.8827656175325274
  0
LWPOLYLINE
  5
140
100
AcDbEntity
  8
0
 62
254
420
13685453
370
-1
 48
1.0
  6
ByLayer
100
AcDbPolyline
 90
2
 70
128
 10
132.8889325739831975
 20
-49.8827656175325274
 10
132.1562325739832886
 20
-35.9019656175326531
  0
LWPOLYLINE
  5
141
100
AcDbEntity
  8
0
 62
254
420
13685453
370
-1
 48
1.0
  6
ByLayer
100
AcDbPolyline
 90
2
 70
128
 10
127.8458325739831025
 20
-50.1470656175325189
 10
113.8650325739831715
 20
-50.8797656175326551
  0
LWPOLYLINE
  5
142
100
AcDbEntity
  8
0
 62
254
420
13685453
370
-1
 48
1.0
  6
ByLayer
100
AcDbPolyline
 90
2
 70
128
 10
113.1323325739832626
 20
-36.8989656175326672
 10
127.1131325739831937
 20
-36.166265617532531
  0
LWPOLYLINE
  5
143
100
AcDbEntity
  8
0
 62
254
420
13685453
370
-1
 48
1.0
  6
ByLayer
100
AcDbPolyline
 90
2
 70
128
 10
113.8650325739831715
 20
-50.8797656175326551
 10
113.1323325739832626
 20
-36.8989656175326672
  0
LWPOLYLINE
  5
144
100
AcDbEntity
  8
0
 62
254
420
13685453
370
-1
 48
1.0
  6
ByLayer
100
AcDbPolyline
 90
2
 70
128
 10
132.1562325739832886
 20
-35.9019656175326531
 10
146.137032573983106
 20
-35.1692656175325169
  0
LWPOLYLINE
  5
145
100
AcDbEntity
  8
0
 62
254
420
13685453
370
-1
 48
1.0
  6
ByLayer
100
AcDbPolyline
 90
2
 70
128
 10
146.137032573983106
 20
-35.1692656175325169
 10
146.8697325739832422
 20
-49.1500656175326185
  0
LWPOLYLINE
  5
146
100
AcDbEntity
  8
0
 62
254
420
13685453
370
-1
 48
1.0
  6
ByLayer
100
AcDbPolyline
 90
2
 70
128
 10
127.1131325739831937
 20
-36.166265617532531
 10
127.8458325739831025
 20
-50.1470656175325189
  0
LWPOLYLINE
  5
147
100
AcDbEntity
  8
0
 62
254
420
13685453
370
-1
 48
1.0
  6
ByLayer
100
AcDbPolyline
 90
2
 70
128
 10
108.8481325739832073
 20
-51.1433656175326519
 10
94.8673325739831625
 20
-51.8760656175326176
  0
LWPOLYLINE
  5
148
100
AcDbEntity
  8
0
 62
254
420
13685453
370
-1
 48
1.0
  6
ByLayer
100
AcDbPolyline
 90
2
 70
128
 10
94.8673325739831625
 20
-51.8760656175326176
 10
94.1345325739831651
 20
-37.895265617532516
  0
LWPOLYLINE
  5
149
100
AcDbEntity
  8
0
 62
254
420
13685453
370
-1
 48
1.0
  6
ByLayer
100
AcDbPolyline
 90
2
 70
128
 10
89.8242325739831813
 20
-52.140365617532666
 10
75.8434325739832502
 20
-52.873065617532518
  0
LWPOLYLINE
  5
14A
100
AcDbEntity
  8
0
 62
254
420
13685453
370
-1
 48
1.0
  6
ByLayer
100
AcDbPolyline
 90
2
 70
128
 10
75.1107325739832277
 20
-38.8922656175325301
 10
89.0915325739831587
 20
-38.1595656175326212
  0
LWPOLYLINE
  5
14B
100
AcDbEntity
  8
0
 62
254
420
13685453
370
-1
 48
1.0
  6
ByLayer
100
AcDbPolyline
 90
2
 70
128
 10
75.8434325739832502
 20
-52.873065617532518
 10
75.1107325739832277
 20
-38.8922656175325301
  0
LWPOLYLINE
  5
14C
100
AcDbEntity
  8
0
 62
254
420
13685453
370
-1
 48
1.0
  6
ByLayer
100
AcDbPolyline
 90
2
 70
128
 10
94.1345325739831651
 20
-37.895265617532516
 10
108.1154325739831847
 20
-37.162565617532664
  0
LWPOLYLINE
  5
14D
100
AcDbEntity
  8
0
 62
254
420
13685453
370
-1
 48
1.0
  6
ByLayer
100
AcDbPolyline
 90
2
 70
128
 10
108.1154325739831847
 20
-37.162565617532664
 10
108.8481325739832073
 20
-51.1433656175326519
  0
LWPOLYLINE
  5
14E
100
AcDbEntity
  8
0
 62
254
420
13685453
370
-1
 48
1.0
  6
ByLayer
100
AcDbPolyline
 90
2
 70
128
 10
89.0915325739831587
 20
-38.1595656175326212
 10
89.8242325739831813
 20
-52.140365617532666
  0
LWPOLYLINE
  5
14F
100
AcDbEntity
  8
0
 62
254
420
13685453
370
-1
 48
1.0
  6
ByLayer
100
AcDbPolyline
 90
2
 70
128
 10
152.6227325739831713
 20
-67.9247656175326142
 10
138.6418325739832653
 20
-68.6574656175325231
  0
LWPOLYLINE
  5
150
100
AcDbEntity
  8
0
 62
254
420
13685453
370
-1
 48
1.0
  6
ByLayer
100
AcDbPolyline
 90
2
 70
128
 10
138.6418325739832653
 20
-68.6574656175325231
 10
137.9091325739832428
 20
-54.6766656175325352
  0
LWPOLYLINE
  5
151
100
AcDbEntity
  8
0
 62
254
420
13685453
370
-1
 48
1.0
  6
ByLayer
100
AcDbPolyline
 90
2
 70
128
 10
133.598832573983259
 20
-68.9217656175326567
 10
119.6179325739832393
 20
-69.6544656175326509
  0
LWPOLYLINE
  5
152
100
AcDbEntity
  8
0
 62
254
420
13685453
370
-1
 48
1.0
  6
ByLayer
100
AcDbPolyline
 90
2
 70
128
 10
118.8852325739831031
 20
-55.673665617532663
 10
132.8661325739832364
 20
-54.9408656175326655
  0
LWPOLYLINE
  5
153
100
AcDbEntity
  8
0
 62
254
420
13685453
370
-1
 48
1.0
  6
ByLayer
100
AcDbPolyline
 90
2
 70
128
 10
119.6179325739832393
 20
-69.6544656175326509
 10
118.8852325739831031
 20
-55.673665617532663
  0
LWPOLYLINE
  5
154
100
AcDbEntity
  8
0
 62
254
420
13685453
370
-1
 48
1.0
  6
ByLayer
100
AcDbPolyline
 90
2
 70
128
 10
137.9091325739832428
 20
-54.6766656175325352
 10
151.8900325739832624
 20
-53.9438656175326514
  0
LWPOLYLINE
  5
155
100
AcDbEntity
  8
0
 62
254
420
13685453
370
-1
 48
1.0
  6
ByLayer
100
AcDbPolyline
 90
2
 70
128
 10
151.8900325739832624
 20
-53.9438656175326514
 10
152.6227325739831713
 20
-67.9247656175326142
  0
LWPOLYLINE
  5
156
100
AcDbEntity
  8
0
 62
254
420
13685453
370
-1
 48
1.0
  6
ByLayer
100
AcDbPolyline
 90
2
 70
128
 10
132.8661325739832364
 20
-54.9408656175326655
 10
133.598832573983259
 20
-68.9217656175326567
  0
LWPOLYLINE
  5
157
100
AcDbEntity
  8
0
 62
254
420
13685453
370
-1
 48
1.0
  6
ByLayer
100
AcDbPolyline
 90
2
 70
128
 10
114.5749325739832329
 20
-69.9187656175325571
 10
100.5941325739831882
 20
-70.651465617532665
  0
LWPOLYLINE
  5
158
100
AcDbEntity
  8
0
 62
254
420
13685453
370
-1
 48
1.0
  6
ByLayer
100
AcDbPolyline
 90
2
 70
128
 10
100.5941325739831882
 20
-70.651465617532665
 10
99.8614325739831656
 20
-56.6706656175325634
  0
LWPOLYLINE
  5
159
100
AcDbEntity
  8
0
 62
254
420
13685453
370
-1
 48
1.0
  6
ByLayer
100
AcDbPolyline
 90
2
 70
128
 10
95.5510325739832069
 20
-70.9157656175326565
 10
81.5702325739831622
 20
-71.6484656175325654
  0
LWPOLYLINE
  5
15A
100
AcDbEntity
  8
0
 62
254
420
13685453
370
-1
 48
1.0
  6
ByLayer
100
AcDbPolyline
 90
2
 70
128
 10
80.8375325739832533
 20
-57.6676656175325206
 10
94.8183325739831844
 20
-56.9348656175325232
  0
LWPOLYLINE
  5
15B
100
AcDbEntity
  8
0
 62
254
420
13685453
370
-1
 48
1.0
  6
ByLayer
100
AcDbPolyline
 90
2
 70
128
 10
81.5702325739831622
 20
-71.6484656175325654
 10
80.8375325739832533
 20
-57.6676656175325206
  0
LWPOLYLINE
  5
15C
100
AcDbEntity
  8
0
 62
254
420
13685453
370
-1
 48
1.0
  6
ByLayer
100
AcDbPolyline
 90
2
 70
128
 10
99.8614325739831656
 20
-56.6706656175325634
 10
113.8422325739832104
 20
-55.9378656175325659
  0
LWPOLYLINE
  5
15D
100
AcDbEntity
  8
0
 62
254
420
13685453
370
-1
 48
1.0
  6
ByLayer
100
AcDbPolyline
 90
2
 70
128
 10
113.8422325739832104
 20
-55.9378656175325659
 10
114.5749325739832329
 20
-69.9187656175325571
  0
LWPOLYLINE
  5
15E
100
AcDbEntity
  8
0
 62
254
420
13685453
370
-1
 48
1.0
  6
ByLayer
100
AcDbPolyline
 90
2
 70
128
 10
94.8183325739831844
 20
-56.9348656175325232
 10
95.5510325739832069
 20
-70.9157656175326565
  0
LWPOLYLINE
  5
15F
100
AcDbEntity
  8
0
 62
254
420
13685453
370
-1
 48
1.0
  6
ByLayer
100
AcDbPolyline
 90
2
 70
128
 10
197.4204325739832484
 20
-103.7292656175326613
 10
183.4396325739832037
 20
-104.461965617532627
  0
LWPOLYLINE
  5
160
100
AcDbEntity
  8
0
 62
254
420
13685453
370
-1
 48
1.0
  6
ByLayer
100
AcDbPolyline
 90
2
 70
128
 10
183.4396325739832037
 20
-104.461965617532627
 10
182.7069325739831811
 20
-90.4811656175326675
  0
LWPOLYLINE
  5
161
100
AcDbEntity
  8
0
 62
254
420
13685453
370
-1
 48
1.0
  6
ByLayer
100
AcDbPolyline
 90
2
 70
128
 10
147.7319325739831584
 20
-111.1023656175326835
 10
133.7511325739832273
 20
-111.8350656175325923
  0
LWPOLYLINE
  5
162
100
AcDbEntity
  8
0
 62
254
420
13685453
370
-1
 48
1.0
  6
ByLayer
100
AcDbPolyline
 90
2
 70
128
 10
145.7703325739831826
 20
-97.1862656175326549
 10
146.9992325739832495
 20
-97.1215656175326956
  0
LWPOLYLINE
  5
163
100
AcDbEntity
  8
0
 62
254
420
13685453
370
-1
 48
1.0
  6
ByLayer
100
AcDbPolyline
 90
2
 70
128
 10
133.7511325739832273
 20
-111.8350656175325923
 10
133.0184325739832047
 20
-97.8542656175326613
  0
LWPOLYLINE
  5
164
100
AcDbEntity
  8
0
 62
254
420
13685453
370
-1
 48
1.0
  6
ByLayer
100
AcDbPolyline
 90
2
 70
128
 10
182.7069325739831811
 20
-90.4811656175326675
 10
196.6877325739832258
 20
-89.7484656175325313
  0
LWPOLYLINE
  5
165
100
AcDbEntity
  8
0
 62
254
420
13685453
370
-1
 48
1.0
  6
ByLayer
100
AcDbPolyline
 90
2
 70
128
 10
196.6877325739832258
 20
-89.7484656175325313
 10
197.4204325739832484
 20
-103.7292656175326613
  0
LWPOLYLINE
  5
166
100
AcDbEntity
  8
0
 62
254
420
13685453
370
-1
 48
1.0
  6
ByLayer
100
AcDbPolyline
 90
2
 70
128
 10
146.9992325739832495
 20
-97.1215656175326956
 10
147.7319325739831584
 20
-111.1023656175326835
  0
LWPOLYLINE
  5
167
100
AcDbEntity
  8
0
 62
254
420
13685453
370
-1
 48
1.0
  6
ByLayer
100
AcDbPolyline
 90
2
 70
128
 10
178.4775325739832397
 20
-96.7172656175325471
 10
177.9782325739831776
 20
-96.7434656175326779
  0
LWPOLYLINE
  5
168
100
AcDbEntity
  8
0
 62
254
420
13685453
370
-1
 48
1.0
  6
ByLayer
100
AcDbPolyline
 90
2
 70
128
 10
177.3995325739832651
 20
-85.7023656175325641
 10
177.9782325739831776
 20
-96.7434656175326779
  0
LWPOLYLINE
  5
169
100
AcDbEntity
  8
0
 62
254
420
13685453
370
-1
 48
1.0
  6
ByLayer
100
AcDbPolyline
 90
2
 70
128
 10
178.9768325739830743
 20
-96.6911656175325618
 10
178.4775325739832397
 20
-96.7172656175325471
  0
LWPOLYLINE
  5
16A
100
AcDbEntity
  8
0
 62
254
420
13685453
370
-1
 48
1.0
  6
ByLayer
100
AcDbPolyline
 90
2
 70
128
 10
179.0030325739832051
 20
-97.1904656175326807
 10
178.9768325739830743
 20
-96.6911656175325618
  0
LWPOLYLINE
  5
16B
100
AcDbEntity
  8
0
 62
254
420
13685453
370
-1
 48
1.0
  6
ByLayer
100
AcDbPolyline
 90
2
 70
128
 10
179.3039325739831611
 20
-102.9325656175325605
 10
179.0030325739832051
 20
-97.1904656175326807
  0
LWPOLYLINE
  5
16C
100
AcDbEntity
  8
0
 62
254
420
13685453
370
-1
 48
1.0
  6
ByLayer
100
AcDbPolyline
 90
2
 70
128
 10
179.3039325739831611
 20
-102.9325656175325605
 10
179.3301325739831782
 20
-103.4318656175326794
  0
LWPOLYLINE
  5
16D
100
AcDbEntity
  8
0
 62
254
420
13685453
370
-1
 48
1.0
  6
ByLayer
100
AcDbPolyline
 90
2
 70
128
 10
178.830732573983255
 20
-103.4580656175326965
 10
179.3301325739831782
 20
-103.4318656175326794
  0
LWPOLYLINE
  5
16E
100
AcDbEntity
  8
0
 62
254
420
13685453
370
-1
 48
1.0
  6
ByLayer
100
AcDbPolyline
 90
2
 70
128
 10
178.830732573983255
 20
-103.4580656175326965
 10
178.3314325739831929
 20
-103.4842656175326567
  0
LWPOLYLINE
  5
16F
100
AcDbEntity
  8
0
 62
254
420
13685453
370
-1
 48
1.0
  6
ByLayer
100
AcDbPolyline
 90
2
 70
128
 10
178.3965325739832224
 20
-104.7262656175325617
 10
178.3314325739831929
 20
-103.4842656175326567
  0
LWPOLYLINE
  5
170
100
AcDbEntity
  8
0
 62
254
420
13685453
370
-1
 48
1.0
  6
ByLayer
100
AcDbPolyline
 90
2
 70
128
 10
164.4157325739831776
 20
-105.4589656175326979
 10
178.3965325739832224
 20
-104.7262656175325617
  0
LWPOLYLINE
  5
171
100
AcDbEntity
  8
0
 62
254
420
13685453
370
-1
 48
1.0
  6
ByLayer
100
AcDbPolyline
 90
2
 70
128
 10
163.4187325739831067
 20
-86.4350656175325298
 10
164.4157325739831776
 20
-105.4589656175326979
  0
LWPOLYLINE
  5
172
100
AcDbEntity
  8
0
 62
254
420
13685453
370
-1
 48
1.0
  6
ByLayer
100
AcDbPolyline
 90
2
 70
128
 10
196.4234325739831775
 20
-84.7053656175326637
 10
182.4426325739831327
 20
-85.4380656175326294
  0
LWPOLYLINE
  5
173
100
AcDbEntity
  8
0
 62
254
420
13685453
370
-1
 48
1.0
  6
ByLayer
100
AcDbPolyline
 90
2
 70
128
 10
182.4426325739831327
 20
-85.4380656175326294
 10
181.7099325739832238
 20
-71.4572656175325562
  0
LWPOLYLINE
  5
174
100
AcDbEntity
  8
0
 62
254
420
13685453
370
-1
 48
1.0
  6
ByLayer
100
AcDbPolyline
 90
2
 70
128
 10
162.6860325739831978
 20
-72.4542656175326556
 10
176.6668325739832426
 20
-71.721565617532633
  0
LWPOLYLINE
  5
175
100
AcDbEntity
  8
0
 62
254
420
13685453
370
-1
 48
1.0
  6
ByLayer
100
AcDbPolyline
 90
2
 70
128
 10
163.4187325739831067
 20
-86.4350656175325298
 10
162.6860325739831978
 20
-72.4542656175326556
  0
LWPOLYLINE
  5
176
100
AcDbEntity
  8
0
 62
254
420
13685453
370
-1
 48
1.0
  6
ByLayer
100
AcDbPolyline
 90
2
 70
128
 10
181.7099325739832238
 20
-71.4572656175325562
 10
195.6907325739832686
 20
-70.7245656175326189
  0
LWPOLYLINE
  5
177
100
AcDbEntity
  8
0
 62
254
420
13685453
370
-1
 48
1.0
  6
ByLayer
100
AcDbPolyline
 90
2
 70
128
 10
195.6907325739832686
 20
-70.7245656175326189
 10
196.4234325739831775
 20
-84.7053656175326637
  0
LWPOLYLINE
  5
178
100
AcDbEntity
  8
0
 62
254
420
13685453
370
-1
 48
1.0
  6
ByLayer
100
AcDbPolyline
 90
2
 70
128
 10
177.0855325739830732
 20
-79.7174656175325254
 10
177.3995325739832651
 20
-85.7023656175325641
  0
LWPOLYLINE
  5
179
100
AcDbEntity
  8
0
 62
254
420
13685453
370
-1
 48
1.0
  6
ByLayer
100
AcDbPolyline
 90
2
 70
128
 10
158.3756325739832391
 20
-86.6993656175325214
 10
144.3948325739831944
 20
-87.432065617532686
  0
LWPOLYLINE
  5
17A
100
AcDbEntity
  8
0
 62
254
420
13685453
370
-1
 48
1.0
  6
ByLayer
100
AcDbPolyline
 90
2
 70
128
 10
144.3948325739831944
 20
-87.432065617532686
 10
143.6621325739831718
 20
-73.4512656175326697
  0
LWPOLYLINE
  5
17B
100
AcDbEntity
  8
0
 62
254
420
13685453
370
-1
 48
1.0
  6
ByLayer
100
AcDbPolyline
 90
2
 70
128
 10
139.3517325739830994
 20
-87.6963656175325355
 10
125.3709325739832821
 20
-88.4290656175326149
  0
LWPOLYLINE
  5
17C
100
AcDbEntity
  8
0
 62
254
420
13685453
370
-1
 48
1.0
  6
ByLayer
100
AcDbPolyline
 90
2
 70
128
 10
124.6382325739832595
 20
-74.4482656175325701
 10
138.6190325739830769
 20
-73.7155656175326612
  0
LWPOLYLINE
  5
17D
100
AcDbEntity
  8
0
 62
254
420
13685453
370
-1
 48
1.0
  6
ByLayer
100
AcDbPolyline
 90
2
 70
128
 10
125.3709325739832821
 20
-88.4290656175326149
 10
124.6382325739832595
 20
-74.4482656175325701
  0
LWPOLYLINE
  5
17E
100
AcDbEntity
  8
0
 62
254
420
13685453
370
-1
 48
1.0
  6
ByLayer
100
AcDbPolyline
 90
2
 70
128
 10
143.6621325739831718
 20
-73.4512656175326697
 10
157.6429325739831029
 20
-72.7185656175325335
  0
LWPOLYLINE
  5
17F
100
AcDbEntity
  8
0
 62
254
420
13685453
370
-1
 48
1.0
  6
ByLayer
100
AcDbPolyline
 90
2
 70
128
 10
157.6429325739831029
 20
-72.7185656175325335
 10
158.3756325739832391
 20
-86.6993656175325214
  0
LWPOLYLINE
  5
180
100
AcDbEntity
  8
0
 62
254
420
13685453
370
-1
 48
1.0
  6
ByLayer
100
AcDbPolyline
 90
2
 70
128
 10
138.6190325739830769
 20
-73.7155656175326612
 10
139.3517325739830994
 20
-87.6963656175325355
  0
LWPOLYLINE
  5
181
100
AcDbEntity
  8
0
 62
254
420
13685453
370
-1
 48
1.0
  6
ByLayer
100
AcDbPolyline
 90
2
 70
128
 10
120.3278325739831871
 20
-88.6933656175326632
 10
106.347032573983256
 20
-89.4260656175325153
  0
LWPOLYLINE
  5
182
100
AcDbEntity
  8
0
 62
254
420
13685453
370
-1
 48
1.0
  6
ByLayer
100
AcDbPolyline
 90
2
 70
128
 10
105.6143325739832335
 20
-75.4452656175325558
 10
119.5951325739831645
 20
-74.7125656175326469
  0
LWPOLYLINE
  5
183
100
AcDbEntity
  8
0
 62
254
420
13685453
370
-1
 48
1.0
  6
ByLayer
100
AcDbPolyline
 90
2
 70
128
 10
106.347032573983256
 20
-89.4260656175325153
 10
105.6143325739832335
 20
-75.4452656175325558
  0
LWPOLYLINE
  5
184
100
AcDbEntity
  8
0
 62
254
420
13685453
370
-1
 48
1.0
  6
ByLayer
100
AcDbPolyline
 90
2
 70
128
 10
119.5951325739831645
 20
-74.7125656175326469
 10
120.3278325739831871
 20
-88.6933656175326632
  0
LWPOLYLINE
  5
185
100
AcDbEntity
  8
0
 62
254
420
13685453
370
-1
 48
1.0
  6
ByLayer
100
AcDbPolyline
 90
2
 70
128
 10
101.3040325739832497
 20
-89.6903656175326205
 10
87.32313257398323
 20
-90.4230656175325294
  0
LWPOLYLINE
  5
186
100
AcDbEntity
  8
0
 62
254
420
13685453
370
-1
 48
1.0
  6
ByLayer
100
AcDbPolyline
 90
2
 70
128
 10
100.5712325739832522
 20
-75.7095656175325189
 10
101.3040325739832497
 20
-89.6903656175326205
  0
LWPOLYLINE
  5
187
100
AcDbEntity
  8
0
 62
254
420
13685453
370
-1
 48
1.0
  6
ByLayer
100
AcDbPolyline
 90
2
 70
128
 10
86.5904325739832075
 20
-76.4422656175326551
 10
100.5712325739832522
 20
-75.7095656175325189
  0
LWPOLYLINE
  5
188
100
AcDbEntity
  8
0
 62
254
420
13685453
370
-1
 48
1.0
  6
ByLayer
100
AcDbPolyline
 90
2
 70
128
 10
76.9308325739832526
 20
-95.3142656175326692
 10
76.9308325739832526
 20
-81.3142656175326692
  0
LWPOLYLINE
  5
189
100
AcDbEntity
  8
0
 62
254
420
13685453
370
-1
 48
1.0
  6
ByLayer
100
AcDbPolyline
 90
2
 70
128
 10
76.9308325739832526
 20
-81.3142656175326692
 10
62.9308325739832526
 20
-81.3142656175326692
  0
LWPOLYLINE
  5
18A
100
AcDbEntity
  8
0
 62
254
420
13685453
370
-1
 48
1.0
  6
ByLayer
100
AcDbPolyline
 90
2
 70
128
 10
62.9308325739832526
 20
-81.3142656175326692
 10
62.9308325739832526
 20
-95.3142656175326692
  0
LWPOLYLINE
  5
18B
100
AcDbEntity
  8
0
 62
254
420
13685453
370
-1
 48
1.0
  6
ByLayer
100
AcDbPolyline
 90
2
 70
128
 10
62.9308325739832526
 20
-95.3142656175326692
 10
76.9308325739832526
 20
-95.3142656175326692
  0
LWPOLYLINE
  5
18C
100
AcDbEntity
  8
0
 62
254
420
13685453
370
-1
 48
1.0
  6
ByLayer
100
AcDbPolyline
 90
2
 70
128
 10
87.32313257398323
 20
-90.4230656175325294
 10
86.5904325739832075
 20
-76.4422656175326551
  0
LWPOLYLINE
  5
18D
100
AcDbEntity
  8
0
 62
254
420
13685453
370
-1
 48
1.0
  6
ByLayer
100
AcDbPolyline
 90
2
 70
128
 10
151.9128325739832235
 20
-48.8857656175325701
 10
151.1801325739832009
 20
-34.9049656175325254
  0
LWPOLYLINE
  5
18E
100
AcDbEntity
  8
0
 62
254
420
13685453
370
-1
 48
1.0
  6
ByLayer
100
AcDbPolyline
 90
2
 70
128
 10
165.160932573983132
 20
-34.1722656175326165
 10
165.8936325739832682
 20
-48.1530656175326612
  0
LWPOLYLINE
  5
18F
100
AcDbEntity
  8
0
 62
254
420
13685453
370
-1
 48
1.0
  6
ByLayer
100
AcDbPolyline
 90
2
 70
128
 10
165.8936325739832682
 20
-48.1530656175326612
 10
151.9128325739832235
 20
-48.8857656175325701
  0
LWPOLYLINE
  5
190
100
AcDbEntity
  8
0
 62
254
420
13685453
370
-1
 48
1.0
  6
ByLayer
100
AcDbPolyline
 90
2
 70
128
 10
38.9191325739832337
 20
-99.0345656175326496
 10
38.2649325739831738
 20
-111.5174656175326788
  0
LWPOLYLINE
  5
191
100
AcDbEntity
  8
0
 62
254
420
13685453
370
-1
 48
1.0
  6
ByLayer
100
AcDbPolyline
 90
2
 70
128
 10
34.672532573983176
 20
-112.8312656175326936
 10
34.6986325739832182
 20
-112.3319656175326884
  0
LWPOLYLINE
  5
192
100
AcDbEntity
  8
0
 62
254
420
13685453
370
-1
 48
1.0
  6
ByLayer
100
AcDbPolyline
 90
2
 70
128
 10
37.7133325739831662
 20
-112.489965617532647
 10
38.2126325739832282
 20
-112.5160656175326892
  0
LWPOLYLINE
  5
193
100
AcDbEntity
  8
0
 62
254
420
13685453
370
-1
 48
1.0
  6
ByLayer
100
AcDbPolyline
 90
2
 70
128
 10
34.6463325739831589
 20
-113.3305656175326988
 10
34.672532573983176
 20
-112.8312656175326936
  0
LWPOLYLINE
  5
194
100
AcDbEntity
  8
0
 62
254
420
13685453
370
-1
 48
1.0
  6
ByLayer
100
AcDbPolyline
 90
2
 70
128
 10
38.2387325739831567
 20
-112.016765617532684
 10
38.2126325739832282
 20
-112.5160656175326892
  0
LWPOLYLINE
  5
195
100
AcDbEntity
  8
0
 62
254
420
13685453
370
-1
 48
1.0
  6
ByLayer
100
AcDbPolyline
 90
2
 70
128
 10
37.7133325739831662
 20
-112.489965617532647
 10
34.6986325739832182
 20
-112.3319656175326884
  0
LWPOLYLINE
  5
196
100
AcDbEntity
  8
0
 62
254
420
13685453
370
-1
 48
1.0
  6
ByLayer
100
AcDbPolyline
 90
2
 70
128
 10
38.2387325739831567
 20
-112.016765617532684
 10
38.2649325739831738
 20
-111.5174656175326788
  0
LWPOLYLINE
  5
197
100
AcDbEntity
  8
0
 62
254
420
13685453
370
-1
 48
1.0
  6
ByLayer
100
AcDbPolyline
 90
2
 70
128
 10
8.7756325739832164
 20
-111.974765617532654
 10
34.6463325739831589
 20
-113.3305656175326988
  0
LWPOLYLINE
  5
198
100
AcDbEntity
  8
0
 62
254
420
13685453
370
-1
 48
1.0
  6
ByLayer
100
AcDbPolyline
 90
2
 70
128
 10
0.3851325739832419
 20
-96.5147656175325608
 10
0.8844325739831902
 20
-96.5409656175326916
  0
LWPOLYLINE
  5
199
100
AcDbEntity
  8
0
 62
254
420
13685453
370
-1
 48
1.0
  6
ByLayer
100
AcDbPolyline
 90
2
 70
128
 10
9.5083325739832389
 20
-97.9939656175325524
 10
32.1522325739831558
 20
-99.1806656175326964
  0
LWPOLYLINE
  5
19A
100
AcDbEntity
  8
0
 62
254
420
13685453
370
-1
 48
1.0
  6
ByLayer
100
AcDbPolyline
 90
2
 70
128
 10
38.4460325739831887
 20
-98.5090656175326842
 10
38.9453325739832508
 20
-98.5352656175326445
  0
LWPOLYLINE
  5
19B
100
AcDbEntity
  8
0
 62
254
420
13685453
370
-1
 48
1.0
  6
ByLayer
100
AcDbPolyline
 90
2
 70
128
 10
38.9453325739832508
 20
-98.5352656175326445
 10
38.9191325739832337
 20
-99.0345656175326496
  0
LWPOLYLINE
  5
19C
100
AcDbEntity
  8
0
 62
254
420
13685453
370
-1
 48
1.0
  6
ByLayer
100
AcDbPolyline
 90
2
 70
128
 10
0.8321325739832446
 20
-97.5395656175326451
 10
6.8432325739831867
 20
-97.8542656175326613
  0
LWPOLYLINE
  5
19D
100
AcDbEntity
  8
0
 62
254
420
13685453
370
-1
 48
1.0
  6
ByLayer
100
AcDbPolyline
 90
2
 70
128
 10
0.8582325739831731
 20
-97.0402656175326968
 10
0.8321325739832446
 20
-97.5395656175326451
  0
LWPOLYLINE
  5
19E
100
AcDbEntity
  8
0
 62
254
420
13685453
370
-1
 48
1.0
  6
ByLayer
100
AcDbPolyline
 90
2
 70
128
 10
32.1784325739831729
 20
-98.6813656175326912
 10
32.1522325739831558
 20
-99.1806656175326964
  0
LWPOLYLINE
  5
19F
100
AcDbEntity
  8
0
 62
254
420
13685453
370
-1
 48
1.0
  6
ByLayer
100
AcDbPolyline
 90
2
 70
128
 10
32.7038325739831635
 20
-98.2081656175325577
 10
32.2045325739832151
 20
-98.1819656175325974
  0
LWPOLYLINE
  5
1A0
100
AcDbEntity
  8
0
 62
254
420
13685453
370
-1
 48
1.0
  6
ByLayer
100
AcDbPolyline
 90
2
 70
128
 10
-5.3569674260168085
 20
-96.2138656175326616
 10
-5.8562674260167569
 20
-96.1876656175326445
  0
LWPOLYLINE
  5
1A1
100
AcDbEntity
  8
0
 62
254
420
13685453
370
-1
 48
1.0
  6
ByLayer
100
AcDbPolyline
 90
2
 70
128
 10
32.7038325739831635
 20
-98.2081656175325577
 10
38.4460325739831887
 20
-98.5090656175326842
  0
LWPOLYLINE
  5
1A2
100
AcDbEntity
  8
0
 62
254
420
13685453
370
-1
 48
1.0
  6
ByLayer
100
AcDbPolyline
 90
2
 70
128
 10
32.1784325739831729
 20
-98.6813656175326912
 10
32.2045325739832151
 20
-98.1819656175325974
  0
LWPOLYLINE
  5
1A3
100
AcDbEntity
  8
0
 62
254
420
13685453
370
-1
 48
1.0
  6
ByLayer
100
AcDbPolyline
 90
2
 70
128
 10
-5.3569674260168085
 20
-96.2138656175326616
 10
0.3851325739832419
 20
-96.5147656175325608
  0
LWPOLYLINE
  5
1A4
100
AcDbEntity
  8
0
 62
254
420
13685453
370
-1
 48
1.0
  6
ByLayer
100
AcDbPolyline
 90
2
 70
128
 10
0.8844325739831902
 20
-96.5409656175326916
 10
0.8582325739831731
 20
-97.0402656175326968
  0
LWPOLYLINE
  5
1A5
100
AcDbEntity
  8
0
 62
254
420
13685453
370
-1
 48
1.0
  6
ByLayer
100
AcDbPolyline
 90
2
 70
128
 10
-5.882467426016774
 20
-96.6869656175325929
 10
-5.9086674260167911
 20
-97.1862656175326549
  0
LWPOLYLINE
  5
1A6
100
AcDbEntity
  8
0
 62
254
420
13685453
370
-1
 48
1.0
  6
ByLayer
100
AcDbPolyline
 90
2
 70
128
 10
-5.882467426016774
 20
-96.6869656175325929
 10
-5.8562674260167569
 20
-96.1876656175326445
  0
LWPOLYLINE
  5
1A7
100
AcDbEntity
  8
0
 62
254
420
13685453
370
-1
 48
1.0
  6
ByLayer
100
AcDbPolyline
 90
2
 70
128
 10
9.5083325739832389
 20
-97.9939656175325524
 10
8.7756325739832164
 20
-111.974765617532654
  0
LWPOLYLINE
  5
1A8
100
AcDbEntity
  8
0
 62
254
420
13685453
370
-1
 48
1.0
  6
ByLayer
100
AcDbPolyline
 90
2
 70
128
 10
-5.9086674260167911
 20
-97.1862656175326549
 10
-7.1375674260167443
 20
-97.1215656175326956
  0
LWPOLYLINE
  5
1A9
100
AcDbEntity
  8
0
 62
254
420
13685453
370
-1
 48
1.0
  6
ByLayer
100
AcDbPolyline
 90
2
 70
128
 10
6.1105325739831642
 20
-111.8350656175325923
 10
6.8432325739831867
 20
-97.8542656175326613
  0
LWPOLYLINE
  5
1AA
100
AcDbEntity
  8
0
 62
254
420
13685453
370
-1
 48
1.0
  6
ByLayer
100
AcDbPolyline
 90
2
 70
128
 10
-7.8702674260167669
 20
-111.1023656175326835
 10
6.1105325739831642
 20
-111.8350656175325923
  0
LWPOLYLINE
  5
1AB
100
AcDbEntity
  8
0
 62
254
420
13685453
370
-1
 48
1.0
  6
ByLayer
100
AcDbPolyline
 90
2
 70
128
 10
-7.1375674260167443
 20
-97.1215656175326956
 10
-7.8702674260167669
 20
-111.1023656175326835
  0
LWPOLYLINE
  5
1AC
100
AcDbEntity
  8
0
 62
254
420
13685453
370
-1
 48
1.0
  6
ByLayer
100
AcDbPolyline
 90
2
 70
128
 10
100.9425325739831578
 20
-99.0345656175326496
 10
101.5967325739832177
 20
-111.5174656175326788
  0
LWPOLYLINE
  5
1AD
100
AcDbEntity
  8
0
 62
254
420
13685453
370
-1
 48
1.0
  6
ByLayer
100
AcDbPolyline
 90
2
 70
128
 10
105.1891325739832155
 20
-112.8312656175326936
 10
105.1630325739831733
 20
-112.3319656175326884
  0
LWPOLYLINE
  5
1AE
100
AcDbEntity
  8
0
 62
254
420
13685453
370
-1
 48
1.0
  6
ByLayer
100
AcDbPolyline
 90
2
 70
128
 10
105.2153325739832326
 20
-113.3305656175326988
 10
105.1891325739832155
 20
-112.8312656175326936
  0
LWPOLYLINE
  5
1AF
100
AcDbEntity
  8
0
 62
254
420
13685453
370
-1
 48
1.0
  6
ByLayer
100
AcDbPolyline
 90
2
 70
128
 10
101.6229325739832348
 20
-112.016765617532684
 10
101.5967325739832177
 20
-111.5174656175326788
  0
LWPOLYLINE
  5
1B0
100
AcDbEntity
  8
0
 62
254
420
13685453
370
-1
 48
1.0
  6
ByLayer
100
AcDbPolyline
 90
2
 70
128
 10
102.1483325739832253
 20
-112.489965617532647
 10
101.6490325739831633
 20
-112.5160656175326892
  0
LWPOLYLINE
  5
1B1
100
AcDbEntity
  8
0
 62
254
420
13685453
370
-1
 48
1.0
  6
ByLayer
100
AcDbPolyline
 90
2
 70
128
 10
102.1483325739832253
 20
-112.489965617532647
 10
105.1630325739831733
 20
-112.3319656175326884
  0
LWPOLYLINE
  5
1B2
100
AcDbEntity
  8
0
 62
254
420
13685453
370
-1
 48
1.0
  6
ByLayer
100
AcDbPolyline
 90
2
 70
128
 10
101.6229325739832348
 20
-112.016765617532684
 10
101.6490325739831633
 20
-112.5160656175326892
  0
LWPOLYLINE
  5
1B3
100
AcDbEntity
  8
0
 62
254
420
13685453
370
-1
 48
1.0
  6
ByLayer
100
AcDbPolyline
 90
2
 70
128
 10
131.0860325739831751
 20
-111.974765617532654
 10
105.2153325739832326
 20
-113.3305656175326988
  0
LWPOLYLINE
  5
1B4
100
AcDbEntity
  8
0
 62
254
420
13685453
370
-1
 48
1.0
  6
ByLayer
100
AcDbPolyline
 90
2
 70
128
 10
130.3533325739832662
 20
-97.9939656175325524
 10
107.7094325739832357
 20
-99.1806656175326964
  0
LWPOLYLINE
  5
1B5
100
AcDbEntity
  8
0
 62
254
420
13685453
370
-1
 48
1.0
  6
ByLayer
100
AcDbPolyline
 90
2
 70
128
 10
101.4156325739832027
 20
-98.5090656175326842
 10
100.9163325739832544
 20
-98.5352656175326445
  0
LWPOLYLINE
  5
1B6
100
AcDbEntity
  8
0
 62
254
420
13685453
370
-1
 48
1.0
  6
ByLayer
100
AcDbPolyline
 90
2
 70
128
 10
107.157832573983228
 20
-98.2081656175325577
 10
107.6571325739831764
 20
-98.1819656175325974
  0
LWPOLYLINE
  5
1B7
100
AcDbEntity
  8
0
 62
254
420
13685453
370
-1
 48
1.0
  6
ByLayer
100
AcDbPolyline
 90
2
 70
128
 10
107.157832573983228
 20
-98.2081656175325577
 10
101.4156325739832027
 20
-98.5090656175326842
  0
LWPOLYLINE
  5
1B8
100
AcDbEntity
  8
0
 62
254
420
13685453
370
-1
 48
1.0
  6
ByLayer
100
AcDbPolyline
 90
2
 70
128
 10
100.9163325739832544
 20
-98.5352656175326445
 10
100.9425325739831578
 20
-99.0345656175326496
  0
LWPOLYLINE
  5
1B9
100
AcDbEntity
  8
0
 62
254
420
13685453
370
-1
 48
1.0
  6
ByLayer
100
AcDbPolyline
 90
2
 70
128
 10
107.6832325739832186
 20
-98.6813656175326912
 10
107.7094325739832357
 20
-99.1806656175326964
  0
LWPOLYLINE
  5
1BA
100
AcDbEntity
  8
0
 62
254
420
13685453
370
-1
 48
1.0
  6
ByLayer
100
AcDbPolyline
 90
2
 70
128
 10
107.6832325739832186
 20
-98.6813656175326912
 10
107.6571325739831764
 20
-98.1819656175325974
  0
LWPOLYLINE
  5
1BB
100
AcDbEntity
  8
0
 62
254
420
13685453
370
-1
 48
1.0
  6
ByLayer
100
AcDbPolyline
 90
2
 70
128
 10
139.0295325739832606
 20
-97.5395656175326451
 10
133.0184325739832047
 20
-97.8542656175326613
  0
LWPOLYLINE
  5
1BC
100
AcDbEntity
  8
0
 62
254
420
13685453
370
-1
 48
1.0
  6
ByLayer
100
AcDbPolyline
 90
2
 70
128
 10
139.0034325739831047
 20
-97.0402656175326968
 10
139.0295325739832606
 20
-97.5395656175326451
  0
LWPOLYLINE
  5
1BD
100
AcDbEntity
  8
0
 62
254
420
13685453
370
-1
 48
1.0
  6
ByLayer
100
AcDbPolyline
 90
2
 70
128
 10
145.7441325739832791
 20
-96.6869656175325929
 10
145.7703325739831826
 20
-97.1862656175326549
  0
LWPOLYLINE
  5
1BE
100
AcDbEntity
  8
0
 62
254
420
13685453
370
-1
 48
1.0
  6
ByLayer
100
AcDbPolyline
 90
2
 70
128
 10
138.9772325739832013
 20
-96.5409656175326916
 10
139.0034325739831047
 20
-97.0402656175326968
  0
LWPOLYLINE
  5
1BF
100
AcDbEntity
  8
0
 62
254
420
13685453
370
-1
 48
1.0
  6
ByLayer
100
AcDbPolyline
 90
2
 70
128
 10
145.2186325739832
 20
-96.2138656175326616
 10
139.4765325739832633
 20
-96.5147656175325608
  0
LWPOLYLINE
  5
1C0
100
AcDbEntity
  8
0
 62
254
420
13685453
370
-1
 48
1.0
  6
ByLayer
100
AcDbPolyline
 90
2
 70
128
 10
139.4765325739832633
 20
-96.5147656175325608
 10
138.9772325739832013
 20
-96.5409656175326916
  0
LWPOLYLINE
  5
1C1
100
AcDbEntity
  8
0
 62
254
420
13685453
370
-1
 48
1.0
  6
ByLayer
100
AcDbPolyline
 90
2
 70
128
 10
145.7441325739832791
 20
-96.6869656175325929
 10
145.717932573983262
 20
-96.1876656175326445
  0
LWPOLYLINE
  5
1C2
100
AcDbEntity
  8
0
 62
254
420
13685453
370
-1
 48
1.0
  6
ByLayer
100
AcDbPolyline
 90
2
 70
128
 10
145.2186325739832
 20
-96.2138656175326616
 10
145.717932573983262
 20
-96.1876656175326445
  0
LWPOLYLINE
  5
1C3
100
AcDbEntity
  8
0
 62
254
420
13685453
370
-1
 48
1.0
  6
ByLayer
100
AcDbPolyline
 90
2
 70
128
 10
130.3533325739832662
 20
-97.9939656175325524
 10
131.0860325739831751
 20
-111.974765617532654
  0
LWPOLYLINE
  5
1C4
100
AcDbEntity
  8
0
 62
254
420
13685453
370
-1
 48
1.0
  6
ByLayer
100
AcDbPolyline
 90
2
 70
128
 10
189.8859325739832684
 20
-34.1219656175326236
 10
189.3866325739832064
 20
-34.1480656175326658
  0
LWPOLYLINE
  5
1C5
100
AcDbEntity
  8
0
 62
254
420
13685453
370
-1
 48
1.0
  6
ByLayer
100
AcDbPolyline
 90
2
 70
128
 10
190.3852325739831031
 20
-34.0957656175326633
 10
189.8859325739832684
 20
-34.1219656175326236
  0
LWPOLYLINE
  5
1C6
100
AcDbEntity
  8
0
 62
254
420
13685453
370
-1
 48
1.0
  6
ByLayer
100
AcDbPolyline
 90
2
 70
128
 10
190.8845325739832788
 20
-34.0695656175325325
 10
190.3852325739831031
 20
-34.0957656175326633
  0
LWPOLYLINE
  5
1C7
100
AcDbEntity
  8
0
 62
254
420
13685453
370
-1
 48
1.0
  6
ByLayer
100
AcDbPolyline
 90
2
 70
128
 10
191.3838325739832271
 20
-34.0434656175326609
 10
190.8845325739832788
 20
-34.0695656175325325
  0
LWPOLYLINE
  5
1C8
100
AcDbEntity
  8
0
 62
254
420
13685453
370
-1
 48
1.0
  6
ByLayer
100
AcDbPolyline
 90
2
 70
128
 10
191.8831325739831755
 20
-34.0172656175325301
 10
191.3838325739832271
 20
-34.0434656175326609
  0
LWPOLYLINE
  5
1C9
100
AcDbEntity
  8
0
 62
254
420
13685453
370
-1
 48
1.0
  6
ByLayer
100
AcDbPolyline
 90
2
 70
128
 10
191.7371325739831036
 20
-40.7841656175326648
 10
191.8172325739832331
 20
-42.3133656175326678
  0
LWPOLYLINE
  5
1CA
100
AcDbEntity
  8
0
 62
254
420
13685453
370
-1
 48
1.0
  6
ByLayer
100
AcDbPolyline
 90
2
 70
128
 10
191.8172325739832331
 20
-42.3133656175326678
 10
192.6301325739831327
 20
-57.8232656175325701
  0
LWPOLYLINE
  5
1CB
100
AcDbEntity
  8
0
 62
254
420
13685453
370
-1
 48
1.0
  6
ByLayer
100
AcDbPolyline
 90
2
 70
128
 10
193.1294325739831947
 20
-57.7971656175325563
 10
192.6301325739831327
 20
-57.8232656175325701
  0
LWPOLYLINE
  5
1CC
100
AcDbEntity
  8
0
 62
254
420
13685453
370
-1
 48
1.0
  6
ByLayer
100
AcDbPolyline
 90
2
 70
128
 10
193.0484325739831775
 20
-65.806065617532596
 10
192.9833325739832617
 20
-64.5640656175326626
  0
LWPOLYLINE
  5
1CD
100
AcDbEntity
  8
0
 62
254
420
13685453
370
-1
 48
1.0
  6
ByLayer
100
AcDbPolyline
 90
2
 70
128
 10
179.0676325739831327
 20
-66.5387656175325333
 10
193.0484325739831775
 20
-65.806065617532596
  0
LWPOLYLINE
  5
1CE
100
AcDbEntity
  8
0
 62
254
420
13685453
370
-1
 48
1.0
  6
ByLayer
100
AcDbPolyline
 90
2
 70
128
 10
175.6926325739831327
 20
-47.6395656175325257
 10
178.0665325739831815
 20
-47.5151656175326593
  0
LWPOLYLINE
  5
1CF
100
AcDbEntity
  8
0
 62
254
420
13685453
370
-1
 48
1.0
  6
ByLayer
100
AcDbPolyline
 90
2
 70
128
 10
179.0676325739831327
 20
-66.5387656175325333
 10
178.0665325739831815
 20
-47.5151656175326593
  0
LWPOLYLINE
  5
1D0
100
AcDbEntity
  8
0
 62
254
420
13685453
370
-1
 48
1.0
  6
ByLayer
100
AcDbPolyline
 90
2
 70
128
 10
175.6926325739831327
 20
-47.6395656175325257
 10
174.9599325739832238
 20
-33.6587656175326515
  0
LWPOLYLINE
  5
1D1
100
AcDbEntity
  8
0
 62
254
420
13685453
370
-1
 48
1.0
  6
ByLayer
100
AcDbPolyline
 90
2
 70
128
 10
192.4086325739832546
 20
-34.4904656175326636
 10
192.3824325739832375
 20
-33.9910656175326267
  0
LWPOLYLINE
  5
1D2
100
AcDbEntity
  8
0
 62
254
420
13685453
370
-1
 48
1.0
  6
ByLayer
100
AcDbPolyline
 90
2
 70
128
 10
192.7096325739831855
 20
-40.2325656175326571
 10
192.4086325739832546
 20
-34.4904656175326636
  0
LWPOLYLINE
  5
1D3
100
AcDbEntity
  8
0
 62
254
420
13685453
370
-1
 48
1.0
  6
ByLayer
100
AcDbPolyline
 90
2
 70
128
 10
192.7096325739831855
 20
-40.2325656175326571
 10
192.7357325739832277
 20
-40.7318656175326623
  0
LWPOLYLINE
  5
1D4
100
AcDbEntity
  8
0
 62
254
420
13685453
370
-1
 48
1.0
  6
ByLayer
100
AcDbPolyline
 90
2
 70
128
 10
192.2364325739832793
 20
-40.7580656175326226
 10
192.7357325739832277
 20
-40.7318656175326623
  0
LWPOLYLINE
  5
1D5
100
AcDbEntity
  8
0
 62
254
420
13685453
370
-1
 48
1.0
  6
ByLayer
100
AcDbPolyline
 90
2
 70
128
 10
192.2364325739832793
 20
-40.7580656175326226
 10
191.7371325739831036
 20
-40.7841656175326648
  0
LWPOLYLINE
  5
1D6
100
AcDbEntity
  8
0
 62
254
420
13685453
370
-1
 48
1.0
  6
ByLayer
100
AcDbPolyline
 90
2
 70
128
 10
192.3824325739832375
 20
-33.9910656175326267
 10
191.8831325739831755
 20
-34.0172656175325301
  0
LWPOLYLINE
  5
1D7
100
AcDbEntity
  8
0
 62
254
420
13685453
370
-1
 48
1.0
  6
ByLayer
100
AcDbPolyline
 90
2
 70
128
 10
-23.48936742601677
 20
-104.2299656175325993
 10
-23.4631674260167529
 20
-103.7306656175326509
  0
LWPOLYLINE
  5
1D8
100
AcDbEntity
  8
0
 62
254
420
13685453
370
-1
 48
1.0
  6
ByLayer
100
AcDbPolyline
 90
2
 70
128
 10
-22.8236674260167547
 20
-72.4280656175325248
 10
-36.8044674260167994
 20
-71.6953656175326159
  0
LWPOLYLINE
  5
1D9
100
AcDbEntity
  8
0
 62
254
420
13685453
370
-1
 48
1.0
  6
ByLayer
100
AcDbPolyline
 90
2
 70
128
 10
-38.5341674260168929
 20
-104.7000656175325446
 10
-37.8014674260168704
 20
-90.7192656175325283
  0
LWPOLYLINE
  5
1DA
100
AcDbEntity
  8
0
 62
254
420
13685453
370
-1
 48
1.0
  6
ByLayer
100
AcDbPolyline
 90
2
 70
128
 10
-23.4631674260167529
 20
-103.7306656175326509
 10
-23.162167426016822
 20
-97.9885656175325437
  0
LWPOLYLINE
  5
1DB
100
AcDbEntity
  8
0
 62
254
420
13685453
370
-1
 48
1.0
  6
ByLayer
100
AcDbPolyline
 90
2
 70
128
 10
-23.1360674260168935
 20
-97.4892656175326522
 10
-23.162167426016822
 20
-97.9885656175325437
  0
LWPOLYLINE
  5
1DC
100
AcDbEntity
  8
0
 62
254
420
13685453
370
-1
 48
1.0
  6
ByLayer
100
AcDbPolyline
 90
2
 70
128
 10
-36.8044674260167994
 20
-71.6953656175326159
 10
-37.8014674260168704
 20
-90.7192656175325283
  0
LWPOLYLINE
  5
1DD
100
AcDbEntity
  8
0
 62
254
420
13685453
370
-1
 48
1.0
  6
ByLayer
100
AcDbPolyline
 90
2
 70
128
 10
-23.1360674260168935
 20
-97.4892656175326522
 10
-23.6353674260168418
 20
-97.4630656175326919
  0
LWPOLYLINE
  5
1DE
100
AcDbEntity
  8
0
 62
254
420
13685453
370
-1
 48
1.0
  6
ByLayer
100
AcDbPolyline
 90
2
 70
128
 10
-24.4879674260167803
 20
-104.1776656175325968
 10
-23.988667426016832
 20
-104.2038656175325571
  0
LWPOLYLINE
  5
1DF
100
AcDbEntity
  8
0
 62
254
420
13685453
370
-1
 48
1.0
  6
ByLayer
100
AcDbPolyline
 90
2
 70
128
 10
-23.8206674260168256
 20
-91.4519656175326645
 10
-24.1346674260167902
 20
-97.4369656175325929
  0
LWPOLYLINE
  5
1E0
100
AcDbEntity
  8
0
 62
254
420
13685453
370
-1
 48
1.0
  6
ByLayer
100
AcDbPolyline
 90
2
 70
128
 10
-22.8887674260167842
 20
-73.6701656175325468
 10
-22.8236674260167547
 20
-72.4280656175325248
  0
LWPOLYLINE
  5
1E1
100
AcDbEntity
  8
0
 62
254
420
13685453
370
-1
 48
1.0
  6
ByLayer
100
AcDbPolyline
 90
2
 70
128
 10
-24.5533674260168482
 20
-105.4327656175326808
 10
-38.5341674260168929
 20
-104.7000656175325446
  0
LWPOLYLINE
  5
1E2
100
AcDbEntity
  8
0
 62
254
420
13685453
370
-1
 48
1.0
  6
ByLayer
100
AcDbPolyline
 90
2
 70
128
 10
-24.4879674260167803
 20
-104.1776656175325968
 10
-24.5533674260168482
 20
-105.4327656175326808
  0
LWPOLYLINE
  5
1E3
100
AcDbEntity
  8
0
 62
254
420
13685453
370
-1
 48
1.0
  6
ByLayer
100
AcDbPolyline
 90
2
 70
128
 10
-24.1346674260167902
 20
-97.4369656175325929
 10
-23.6353674260168418
 20
-97.4630656175326919
  0
LWPOLYLINE
  5
1E4
100
AcDbEntity
  8
0
 62
254
420
13685453
370
-1
 48
1.0
  6
ByLayer
100
AcDbPolyline
 90
2
 70
128
 10
-23.988667426016832
 20
-104.2038656175325571
 10
-23.48936742601677
 20
-104.2299656175325993
  0
LWPOLYLINE
  5
1E5
100
AcDbEntity
  8
0
 62
254
420
13685453
370
-1
 48
1.0
  6
ByLayer
100
AcDbPolyline
 90
2
 70
128
 10
-22.8887674260167842
 20
-73.6701656175325468
 10
-22.3894674260168358
 20
-73.6962656175326458
  0
LWPOLYLINE
  5
1E6
100
AcDbEntity
  8
0
 62
254
420
13685453
370
-1
 48
1.0
  6
ByLayer
100
AcDbPolyline
 90
2
 70
128
 10
-23.2420674260167743
 20
-80.4108656175325223
 10
-23.8206674260168256
 20
-91.4519656175326645
  0
LWPOLYLINE
  5
1E7
100
AcDbEntity
  8
0
 62
254
420
13685453
370
-1
 48
1.0
  6
ByLayer
100
AcDbPolyline
 90
2
 70
128
 10
-22.742767426016826
 20
-80.4370656175326531
 10
-22.243467426016764
 20
-80.4632656175326701
  0
LWPOLYLINE
  5
1E8
100
AcDbEntity
  8
0
 62
254
420
13685453
370
-1
 48
1.0
  6
ByLayer
100
AcDbPolyline
 90
2
 70
128
 10
-22.2172674260168606
 20
-79.9638656175326332
 10
-21.916267426016816
 20
-74.221765617532526
  0
LWPOLYLINE
  5
1E9
100
AcDbEntity
  8
0
 62
254
420
13685453
370
-1
 48
1.0
  6
ByLayer
100
AcDbPolyline
 90
2
 70
128
 10
-22.243467426016764
 20
-80.4632656175326701
 10
-22.2172674260168606
 20
-79.9638656175326332
  0
LWPOLYLINE
  5
1EA
100
AcDbEntity
  8
0
 62
254
420
13685453
370
-1
 48
1.0
  6
ByLayer
100
AcDbPolyline
 90
2
 70
128
 10
-21.8901674260167738
 20
-73.7224656175325208
 10
-22.3894674260168358
 20
-73.6962656175326458
  0
LWPOLYLINE
  5
1EB
100
AcDbEntity
  8
0
 62
254
420
13685453
370
-1
 48
1.0
  6
ByLayer
100
AcDbPolyline
 90
2
 70
128
 10
-21.8901674260167738
 20
-73.7224656175325208
 10
-21.916267426016816
 20
-74.221765617532526
  0
LWPOLYLINE
  5
1EC
100
AcDbEntity
  8
0
 62
254
420
13685453
370
-1
 48
1.0
  6
ByLayer
100
AcDbPolyline
 90
2
 70
128
 10
-23.2420674260167743
 20
-80.4108656175325223
 10
-22.742767426016826
 20
-80.4370656175326531
  0
LWPOLYLINE
  5
1ED
100
AcDbEntity
  8
0
 62
254
420
13685453
370
-1
 48
1.0
  6
ByLayer
100
AcDbPolyline
 90
2
 70
128
 10
193.6549325739831602
 20
-58.270265617532516
 10
193.6287325739832568
 20
-57.7709656175326245
  0
LWPOLYLINE
  5
1EE
100
AcDbEntity
  8
0
 62
254
420
13685453
370
-1
 48
1.0
  6
ByLayer
100
AcDbPolyline
 90
2
 70
128
 10
193.9558325739832298
 20
-64.0123656175326232
 10
193.6549325739831602
 20
-58.270265617532516
  0
LWPOLYLINE
  5
1EF
100
AcDbEntity
  8
0
 62
254
420
13685453
370
-1
 48
1.0
  6
ByLayer
100
AcDbPolyline
 90
2
 70
128
 10
193.9558325739832298
 20
-64.0123656175326232
 10
193.9820325739831333
 20
-64.5117656175326601
  0
LWPOLYLINE
  5
1F0
100
AcDbEntity
  8
0
 62
254
420
13685453
370
-1
 48
1.0
  6
ByLayer
100
AcDbPolyline
 90
2
 70
128
 10
193.4827325739831849
 20
-64.5378656175325318
 10
193.9820325739831333
 20
-64.5117656175326601
  0
LWPOLYLINE
  5
1F1
100
AcDbEntity
  8
0
 62
254
420
13685453
370
-1
 48
1.0
  6
ByLayer
100
AcDbPolyline
 90
2
 70
128
 10
193.4827325739831849
 20
-64.5378656175325318
 10
192.9833325739832617
 20
-64.5640656175326626
  0
LWPOLYLINE
  5
1F2
100
AcDbEntity
  8
0
 62
254
420
13685453
370
-1
 48
1.0
  6
ByLayer
100
AcDbPolyline
 90
2
 70
128
 10
193.6287325739832568
 20
-57.7709656175326245
 10
193.1294325739831947
 20
-57.7971656175325563
  0
LWPOLYLINE
  5
1F3
100
AcDbEntity
  8
0
 62
254
420
13685453
370
-1
 48
1.0
  6
ByLayer
100
AcDbPolyline
 90
2
 70
128
 10
176.6668325739832426
 20
-71.721565617532633
 10
176.7323325739831716
 20
-72.9766656175326602
  0
LWPOLYLINE
  5
1F4
100
AcDbEntity
  8
0
 62
254
420
13685453
370
-1
 48
1.0
  6
ByLayer
100
AcDbPolyline
 90
2
 70
128
 10
177.5848325739832489
 20
-79.6912656175326219
 10
177.0855325739830732
 20
-79.7174656175325254
  0
LWPOLYLINE
  5
1F5
100
AcDbEntity
  8
0
 62
254
420
13685453
370
-1
 48
1.0
  6
ByLayer
100
AcDbPolyline
 90
2
 70
128
 10
177.730932573983182
 20
-72.9243656175326862
 10
177.2316325739832337
 20
-72.9505656175326465
  0
LWPOLYLINE
  5
1F6
100
AcDbEntity
  8
0
 62
254
420
13685453
370
-1
 48
1.0
  6
ByLayer
100
AcDbPolyline
 90
2
 70
128
 10
178.0580325739832688
 20
-79.1657656175326565
 10
177.7571325739831991
 20
-73.423665617532663
  0
LWPOLYLINE
  5
1F7
100
AcDbEntity
  8
0
 62
254
420
13685453
370
-1
 48
1.0
  6
ByLayer
100
AcDbPolyline
 90
2
 70
128
 10
177.7571325739831991
 20
-73.423665617532663
 10
177.730932573983182
 20
-72.9243656175326862
  0
LWPOLYLINE
  5
1F8
100
AcDbEntity
  8
0
 62
254
420
13685453
370
-1
 48
1.0
  6
ByLayer
100
AcDbPolyline
 90
2
 70
128
 10
177.5848325739832489
 20
-79.6912656175326219
 10
178.0842325739831722
 20
-79.6650656175326617
  0
LWPOLYLINE
  5
1F9
100
AcDbEntity
  8
0
 62
254
420
13685453
370
-1
 48
1.0
  6
ByLayer
100
AcDbPolyline
 90
2
 70
128
 10
178.0580325739832688
 20
-79.1657656175326565
 10
178.0842325739831722
 20
-79.6650656175326617
  0
LWPOLYLINE
  5
1FA
100
AcDbEntity
  8
0
 62
254
420
13685453
370
-1
 48
1.0
  6
ByLayer
100
AcDbPolyline
 90
2
 70
128
 10
177.2316325739832337
 20
-72.9505656175326465
 10
176.7323325739831716
 20
-72.9766656175326602
  0
LWPOLYLINE
  5
1FB
100
AcDbEntity
  8
0
 62
254
420
13685453
370
-1
 48
1.0
  6
ByLayer
100
AcDbPolyline
 90
2
 70
128
 10
-43.5779674260168122
 20
-104.461965617532627
 10
-57.5587674260168569
 20
-103.7292656175326613
  0
LWPOLYLINE
  5
1FC
100
AcDbEntity
  8
0
 62
254
420
13685453
370
-1
 48
1.0
  6
ByLayer
100
AcDbPolyline
 90
2
 70
128
 10
-42.8452674260167896
 20
-90.4811656175326675
 10
-43.5779674260168122
 20
-104.461965617532627
  0
LWPOLYLINE
  5
1FD
100
AcDbEntity
  8
0
 62
254
420
13685453
370
-1
 48
1.0
  6
ByLayer
100
AcDbPolyline
 90
2
 70
128
 10
-42.5809674260168549
 20
-85.4380656175326294
 10
-56.561767426016786
 20
-84.7053656175326637
  0
LWPOLYLINE
  5
1FE
100
AcDbEntity
  8
0
 62
254
420
13685453
370
-1
 48
1.0
  6
ByLayer
100
AcDbPolyline
 90
2
 70
128
 10
-55.8290674260168771
 20
-70.7245656175326189
 10
-41.8482674260168324
 20
-71.4572656175325562
  0
LWPOLYLINE
  5
1FF
100
AcDbEntity
  8
0
 62
254
420
13685453
370
-1
 48
1.0
  6
ByLayer
100
AcDbPolyline
 90
2
 70
128
 10
-41.8482674260168324
 20
-71.4572656175325562
 10
-42.5809674260168549
 20
-85.4380656175326294
  0
LWPOLYLINE
  5
200
100
AcDbEntity
  8
0
 62
254
420
13685453
370
-1
 48
1.0
  6
ByLayer
100
AcDbPolyline
 90
2
 70
128
 10
-56.8260674260168344
 20
-89.7484656175325313
 10
-42.8452674260167896
 20
-90.4811656175326675
  0
LWPOLYLINE
  5
201
100
AcDbEntity
  8
0
 62
254
420
13685453
370
-1
 48
1.0
  6
ByLayer
100
AcDbPolyline
 90
2
 70
128
 10
-57.5587674260168569
 20
-103.7292656175326613
 10
-56.8260674260168344
 20
-89.7484656175325313
  0
LWPOLYLINE
  5
202
100
AcDbEntity
  8
0
 62
254
420
13685453
370
-1
 48
1.0
  6
ByLayer
100
AcDbPolyline
 90
2
 70
128
 10
-56.561767426016786
 20
-84.7053656175326637
 10
-55.8290674260168771
 20
-70.7245656175326189
  0
LWPOLYLINE
  5
203
100
AcDbEntity
  8
0
 62
254
420
13685453
370
-1
 48
1.0
  6
ByLayer
100
AcDbPolyline
 90
2
 70
128
 10
-39.2059674260168549
 20
-66.5387656175325333
 10
-53.186767426016786
 20
-65.806065617532596
  0
LWPOLYLINE
  5
204
100
AcDbEntity
  8
0
 62
254
420
13685453
370
-1
 48
1.0
  6
ByLayer
100
AcDbPolyline
 90
2
 70
128
 10
-38.4732674260168324
 20
-52.5579656175326591
 10
-39.2059674260168549
 20
-66.5387656175325333
  0
LWPOLYLINE
  5
205
100
AcDbEntity
  8
0
 62
254
420
13685453
370
-1
 48
1.0
  6
ByLayer
100
AcDbPolyline
 90
2
 70
128
 10
-17.8309674260167412
 20
-67.6395656175325257
 10
-31.811767426016786
 20
-66.9068656175326169
  0
LWPOLYLINE
  5
206
100
AcDbEntity
  8
0
 62
254
420
13685453
370
-1
 48
1.0
  6
ByLayer
100
AcDbPolyline
 90
2
 70
128
 10
-31.0790674260167634
 20
-52.9260656175325153
 10
-17.0982674260168324
 20
-53.6587656175326515
  0
LWPOLYLINE
  5
207
100
AcDbEntity
  8
0
 62
254
420
13685453
370
-1
 48
1.0
  6
ByLayer
100
AcDbPolyline
 90
2
 70
128
 10
-17.0982674260168324
 20
-53.6587656175326515
 10
-17.8309674260167412
 20
-67.6395656175325257
  0
LWPOLYLINE
  5
208
100
AcDbEntity
  8
0
 62
254
420
13685453
370
-1
 48
1.0
  6
ByLayer
100
AcDbPolyline
 90
2
 70
128
 10
-52.4540674260168771
 20
-51.8252656175325228
 10
-38.4732674260168324
 20
-52.5579656175326591
  0
LWPOLYLINE
  5
209
100
AcDbEntity
  8
0
 62
254
420
13685453
370
-1
 48
1.0
  6
ByLayer
100
AcDbPolyline
 90
2
 70
128
 10
-53.186767426016786
 20
-65.806065617532596
 10
-52.4540674260168771
 20
-51.8252656175325228
  0
LWPOLYLINE
  5
20A
100
AcDbEntity
  8
0
 62
254
420
13685453
370
-1
 48
1.0
  6
ByLayer
100
AcDbPolyline
 90
2
 70
128
 10
-31.811767426016786
 20
-66.9068656175326169
 10
-31.0790674260167634
 20
-52.9260656175325153
  0
LWPOLYLINE
  5
20B
100
AcDbEntity
  8
0
 62
254
420
13685453
370
-1
 48
1.0
  6
ByLayer
100
AcDbPolyline
 90
2
 70
128
 10
-35.8309674260167412
 20
-47.6395656175325257
 10
-49.811767426016786
 20
-46.9068656175326169
  0
LWPOLYLINE
  5
20C
100
AcDbEntity
  8
0
 62
254
420
13685453
370
-1
 48
1.0
  6
ByLayer
100
AcDbPolyline
 90
2
 70
128
 10
-35.0982674260168324
 20
-33.6587656175326515
 10
-35.8309674260167412
 20
-47.6395656175325257
  0
LWPOLYLINE
  5
20D
100
AcDbEntity
  8
0
 62
254
420
13685453
370
-1
 48
1.0
  6
ByLayer
100
AcDbPolyline
 90
2
 70
128
 10
-12.051167426016832
 20
-48.8857656175325701
 10
-26.0319674260167631
 20
-48.1530656175326612
  0
LWPOLYLINE
  5
20E
100
AcDbEntity
  8
0
 62
254
420
13685453
370
-1
 48
1.0
  6
ByLayer
100
AcDbPolyline
 90
2
 70
128
 10
-25.2992674260167405
 20
-34.1722656175326165
 10
-11.3184674260168094
 20
-34.9049656175325254
  0
LWPOLYLINE
  5
20F
100
AcDbEntity
  8
0
 62
254
420
13685453
370
-1
 48
1.0
  6
ByLayer
100
AcDbPolyline
 90
2
 70
128
 10
-11.3184674260168094
 20
-34.9049656175325254
 10
-12.051167426016832
 20
-48.8857656175325701
  0
LWPOLYLINE
  5
210
100
AcDbEntity
  8
0
 62
254
420
13685453
370
-1
 48
1.0
  6
ByLayer
100
AcDbPolyline
 90
2
 70
128
 10
-49.0790674260168771
 20
-32.9260656175325153
 10
-35.0982674260168324
 20
-33.6587656175326515
  0
LWPOLYLINE
  5
211
100
AcDbEntity
  8
0
 62
254
420
13685453
370
-1
 48
1.0
  6
ByLayer
100
AcDbPolyline
 90
2
 70
128
 10
-49.811767426016786
 20
-46.9068656175326169
 10
-49.0790674260168771
 20
-32.9260656175325153
  0
LWPOLYLINE
  5
212
100
AcDbEntity
  8
0
 62
254
420
13685453
370
-1
 48
1.0
  6
ByLayer
100
AcDbPolyline
 90
2
 70
128
 10
-26.0319674260167631
 20
-48.1530656175326612
 10
-25.2992674260167405
 20
-34.1722656175326165
  0
LWPOLYLINE
  5
213
100
AcDbEntity
  8
0
 62
254
420
13685453
370
-1
 48
1.0
  6
ByLayer
100
AcDbPolyline
 90
2
 70
128
 10
6.972732573983194
 20
-49.8827656175325274
 10
-7.0080674260168507
 20
-49.1500656175326185
  0
LWPOLYLINE
  5
214
100
AcDbEntity
  8
0
 62
254
420
13685453
370
-1
 48
1.0
  6
ByLayer
100
AcDbPolyline
 90
2
 70
128
 10
7.7054325739832166
 20
-35.9019656175326531
 10
6.972732573983194
 20
-49.8827656175325274
  0
LWPOLYLINE
  5
215
100
AcDbEntity
  8
0
 62
254
420
13685453
370
-1
 48
1.0
  6
ByLayer
100
AcDbPolyline
 90
2
 70
128
 10
25.99663257398322
 20
-50.8797656175326551
 10
12.0158325739831753
 20
-50.1470656175325189
  0
LWPOLYLINE
  5
216
100
AcDbEntity
  8
0
 62
254
420
13685453
370
-1
 48
1.0
  6
ByLayer
100
AcDbPolyline
 90
2
 70
128
 10
12.7485325739831978
 20
-36.166265617532531
 10
26.7293325739832426
 20
-36.8989656175326672
  0
LWPOLYLINE
  5
217
100
AcDbEntity
  8
0
 62
254
420
13685453
370
-1
 48
1.0
  6
ByLayer
100
AcDbPolyline
 90
2
 70
128
 10
26.7293325739832426
 20
-36.8989656175326672
 10
25.99663257398322
 20
-50.8797656175326551
  0
LWPOLYLINE
  5
218
100
AcDbEntity
  8
0
 62
254
420
13685453
370
-1
 48
1.0
  6
ByLayer
100
AcDbPolyline
 90
2
 70
128
 10
-6.2753674260168282
 20
-35.1692656175325169
 10
7.7054325739832166
 20
-35.9019656175326531
  0
LWPOLYLINE
  5
219
100
AcDbEntity
  8
0
 62
254
420
13685453
370
-1
 48
1.0
  6
ByLayer
100
AcDbPolyline
 90
2
 70
128
 10
-7.0080674260168507
 20
-49.1500656175326185
 10
-6.2753674260168282
 20
-35.1692656175325169
  0
LWPOLYLINE
  5
21A
100
AcDbEntity
  8
0
 62
254
420
13685453
370
-1
 48
1.0
  6
ByLayer
100
AcDbPolyline
 90
2
 70
128
 10
12.0158325739831753
 20
-50.1470656175325189
 10
12.7485325739831978
 20
-36.166265617532531
  0
LWPOLYLINE
  5
21B
100
AcDbEntity
  8
0
 62
254
420
13685453
370
-1
 48
1.0
  6
ByLayer
100
AcDbPolyline
 90
2
 70
128
 10
45.020532573983246
 20
-51.8767656175326692
 10
31.0397325739832013
 20
-51.144065617532533
  0
LWPOLYLINE
  5
21C
100
AcDbEntity
  8
0
 62
254
420
13685453
370
-1
 48
1.0
  6
ByLayer
100
AcDbPolyline
 90
2
 70
128
 10
45.7532325739831549
 20
-37.8959656175326245
 10
45.020532573983246
 20
-51.8767656175326692
  0
LWPOLYLINE
  5
21D
100
AcDbEntity
  8
0
 62
254
420
13685453
370
-1
 48
1.0
  6
ByLayer
100
AcDbPolyline
 90
2
 70
128
 10
64.0444325739831584
 20
-52.8737656175326265
 10
50.0636325739832273
 20
-52.1410656175326608
  0
LWPOLYLINE
  5
21E
100
AcDbEntity
  8
0
 62
254
420
13685453
370
-1
 48
1.0
  6
ByLayer
100
AcDbPolyline
 90
2
 70
128
 10
50.7963325739832499
 20
-38.160265617532616
 10
64.7771325739831809
 20
-38.8929656175325249
  0
LWPOLYLINE
  5
21F
100
AcDbEntity
  8
0
 62
254
420
13685453
370
-1
 48
1.0
  6
ByLayer
100
AcDbPolyline
 90
2
 70
128
 10
64.7771325739831809
 20
-38.8929656175325249
 10
64.0444325739831584
 20
-52.8737656175326265
  0
LWPOLYLINE
  5
220
100
AcDbEntity
  8
0
 62
254
420
13685453
370
-1
 48
1.0
  6
ByLayer
100
AcDbPolyline
 90
2
 70
128
 10
31.7724325739832238
 20
-37.1632656175326588
 10
45.7532325739831549
 20
-37.8959656175326245
  0
LWPOLYLINE
  5
221
100
AcDbEntity
  8
0
 62
254
420
13685453
370
-1
 48
1.0
  6
ByLayer
100
AcDbPolyline
 90
2
 70
128
 10
31.0397325739832013
 20
-51.144065617532533
 10
31.7724325739832238
 20
-37.1632656175326588
  0
LWPOLYLINE
  5
222
100
AcDbEntity
  8
0
 62
254
420
13685453
370
-1
 48
1.0
  6
ByLayer
100
AcDbPolyline
 90
2
 70
128
 10
50.0636325739832273
 20
-52.1410656175326608
 10
50.7963325739832499
 20
-38.160265617532616
  0
LWPOLYLINE
  5
223
100
AcDbEntity
  8
0
 62
254
420
13685453
370
-1
 48
1.0
  6
ByLayer
100
AcDbPolyline
 90
2
 70
128
 10
1.2437325739831522
 20
-68.6544656175326509
 10
-12.7371674260167538
 20
-67.9217656175326567
  0
LWPOLYLINE
  5
224
100
AcDbEntity
  8
0
 62
254
420
13685453
370
-1
 48
1.0
  6
ByLayer
100
AcDbPolyline
 90
2
 70
128
 10
1.9764325739831747
 20
-54.673665617532663
 10
1.2437325739831522
 20
-68.6544656175326509
  0
LWPOLYLINE
  5
225
100
AcDbEntity
  8
0
 62
254
420
13685453
370
-1
 48
1.0
  6
ByLayer
100
AcDbPolyline
 90
2
 70
128
 10
20.2675325739832033
 20
-69.651465617532665
 10
6.2867325739831585
 20
-68.9187656175325571
  0
LWPOLYLINE
  5
226
100
AcDbEntity
  8
0
 62
254
420
13685453
370
-1
 48
1.0
  6
ByLayer
100
AcDbPolyline
 90
2
 70
128
 10
7.0194325739831811
 20
-54.9378656175325659
 10
21.0002325739832258
 20
-55.6706656175325634
  0
LWPOLYLINE
  5
227
100
AcDbEntity
  8
0
 62
254
420
13685453
370
-1
 48
1.0
  6
ByLayer
100
AcDbPolyline
 90
2
 70
128
 10
21.0002325739832258
 20
-55.6706656175325634
 10
20.2675325739832033
 20
-69.651465617532665
  0
LWPOLYLINE
  5
228
100
AcDbEntity
  8
0
 62
254
420
13685453
370
-1
 48
1.0
  6
ByLayer
100
AcDbPolyline
 90
2
 70
128
 10
-12.0044674260168449
 20
-53.9408656175326655
 10
1.9764325739831747
 20
-54.673665617532663
  0
LWPOLYLINE
  5
229
100
AcDbEntity
  8
0
 62
254
420
13685453
370
-1
 48
1.0
  6
ByLayer
100
AcDbPolyline
 90
2
 70
128
 10
-12.7371674260167538
 20
-67.9217656175326567
 10
-12.0044674260168449
 20
-53.9408656175326655
  0
LWPOLYLINE
  5
22A
100
AcDbEntity
  8
0
 62
254
420
13685453
370
-1
 48
1.0
  6
ByLayer
100
AcDbPolyline
 90
2
 70
128
 10
6.2867325739831585
 20
-68.9187656175325571
 10
7.0194325739831811
 20
-54.9378656175325659
  0
LWPOLYLINE
  5
22B
100
AcDbEntity
  8
0
 62
254
420
13685453
370
-1
 48
1.0
  6
ByLayer
100
AcDbPolyline
 90
2
 70
128
 10
39.2675325739832033
 20
-70.651465617532665
 10
25.2867325739831585
 20
-69.9187656175325571
  0
LWPOLYLINE
  5
22C
100
AcDbEntity
  8
0
 62
254
420
13685453
370
-1
 48
1.0
  6
ByLayer
100
AcDbPolyline
 90
2
 70
128
 10
40.0002325739832258
 20
-56.6706656175325634
 10
39.2675325739832033
 20
-70.651465617532665
  0
LWPOLYLINE
  5
22D
100
AcDbEntity
  8
0
 62
254
420
13685453
370
-1
 48
1.0
  6
ByLayer
100
AcDbPolyline
 90
2
 70
128
 10
58.2914325739832293
 20
-71.6484656175325654
 10
44.3106325739831846
 20
-70.9157656175326565
  0
LWPOLYLINE
  5
22E
100
AcDbEntity
  8
0
 62
254
420
13685453
370
-1
 48
1.0
  6
ByLayer
100
AcDbPolyline
 90
2
 70
128
 10
45.0433325739832071
 20
-56.9348656175325232
 10
59.0241325739832519
 20
-57.6676656175325206
  0
LWPOLYLINE
  5
22F
100
AcDbEntity
  8
0
 62
254
420
13685453
370
-1
 48
1.0
  6
ByLayer
100
AcDbPolyline
 90
2
 70
128
 10
59.0241325739832519
 20
-57.6676656175325206
 10
58.2914325739832293
 20
-71.6484656175325654
  0
LWPOLYLINE
  5
230
100
AcDbEntity
  8
0
 62
254
420
13685453
370
-1
 48
1.0
  6
ByLayer
100
AcDbPolyline
 90
2
 70
128
 10
26.0194325739831811
 20
-55.9378656175325659
 10
40.0002325739832258
 20
-56.6706656175325634
  0
LWPOLYLINE
  5
231
100
AcDbEntity
  8
0
 62
254
420
13685453
370
-1
 48
1.0
  6
ByLayer
100
AcDbPolyline
 90
2
 70
128
 10
25.2867325739831585
 20
-69.9187656175325571
 10
26.0194325739831811
 20
-55.9378656175325659
  0
LWPOLYLINE
  5
232
100
AcDbEntity
  8
0
 62
254
420
13685453
370
-1
 48
1.0
  6
ByLayer
100
AcDbPolyline
 90
2
 70
128
 10
44.3106325739831846
 20
-70.9157656175326565
 10
45.0433325739832071
 20
-56.9348656175325232
  0
LWPOLYLINE
  5
233
100
AcDbEntity
  8
0
 62
254
420
13685453
370
-1
 48
1.0
  6
ByLayer
100
AcDbPolyline
 90
2
 70
128
 10
-4.5331674260168029
 20
-87.432065617532686
 10
-18.5139674260168476
 20
-86.6993656175325214
  0
LWPOLYLINE
  5
234
100
AcDbEntity
  8
0
 62
254
420
13685453
370
-1
 48
1.0
  6
ByLayer
100
AcDbPolyline
 90
2
 70
128
 10
-3.8004674260167803
 20
-73.4512656175326697
 10
-4.5331674260168029
 20
-87.432065617532686
  0
LWPOLYLINE
  5
235
100
AcDbEntity
  8
0
 62
254
420
13685453
370
-1
 48
1.0
  6
ByLayer
100
AcDbPolyline
 90
2
 70
128
 10
14.4907325739832231
 20
-88.4290656175326149
 10
0.5099325739831784
 20
-87.6963656175325355
  0
LWPOLYLINE
  5
236
100
AcDbEntity
  8
0
 62
254
420
13685453
370
-1
 48
1.0
  6
ByLayer
100
AcDbPolyline
 90
2
 70
128
 10
1.2426325739832009
 20
-73.7155656175326612
 10
15.2234325739832457
 20
-74.4482656175325701
  0
LWPOLYLINE
  5
237
100
AcDbEntity
  8
0
 62
254
420
13685453
370
-1
 48
1.0
  6
ByLayer
100
AcDbPolyline
 90
2
 70
128
 10
15.2234325739832457
 20
-74.4482656175325701
 10
14.4907325739832231
 20
-88.4290656175326149
  0
LWPOLYLINE
  5
238
100
AcDbEntity
  8
0
 62
254
420
13685453
370
-1
 48
1.0
  6
ByLayer
100
AcDbPolyline
 90
2
 70
128
 10
-17.7812674260168251
 20
-72.7185656175325335
 10
-3.8004674260167803
 20
-73.4512656175326697
  0
LWPOLYLINE
  5
239
100
AcDbEntity
  8
0
 62
254
420
13685453
370
-1
 48
1.0
  6
ByLayer
100
AcDbPolyline
 90
2
 70
128
 10
-18.5139674260168476
 20
-86.6993656175325214
 10
-17.7812674260168251
 20
-72.7185656175325335
  0
LWPOLYLINE
  5
23A
100
AcDbEntity
  8
0
 62
254
420
13685453
370
-1
 48
1.0
  6
ByLayer
100
AcDbPolyline
 90
2
 70
128
 10
0.5099325739831784
 20
-87.6963656175325355
 10
1.2426325739832009
 20
-73.7155656175326612
  0
LWPOLYLINE
  5
23B
100
AcDbEntity
  8
0
 62
254
420
13685453
370
-1
 48
1.0
  6
ByLayer
100
AcDbPolyline
 90
2
 70
128
 10
33.5146325739832491
 20
-89.4260656175325153
 10
19.5338325739832044
 20
-88.6933656175326632
  0
LWPOLYLINE
  5
23C
100
AcDbEntity
  8
0
 62
254
420
13685453
370
-1
 48
1.0
  6
ByLayer
100
AcDbPolyline
 90
2
 70
128
 10
34.247332573983158
 20
-75.4452656175325558
 10
33.5146325739832491
 20
-89.4260656175325153
  0
LWPOLYLINE
  5
23D
100
AcDbEntity
  8
0
 62
254
420
13685453
370
-1
 48
1.0
  6
ByLayer
100
AcDbPolyline
 90
2
 70
128
 10
52.5385325739831615
 20
-90.4230656175325294
 10
38.5576325739832555
 20
-89.6903656175326205
  0
LWPOLYLINE
  5
23E
100
AcDbEntity
  8
0
 62
254
420
13685453
370
-1
 48
1.0
  6
ByLayer
100
AcDbPolyline
 90
2
 70
128
 10
39.290432573983253
 20
-75.7095656175325189
 10
53.271232573983184
 20
-76.4422656175326551
  0
LWPOLYLINE
  5
23F
100
AcDbEntity
  8
0
 62
254
420
13685453
370
-1
 48
1.0
  6
ByLayer
100
AcDbPolyline
 90
2
 70
128
 10
53.271232573983184
 20
-76.4422656175326551
 10
52.5385325739831615
 20
-90.4230656175325294
  0
LWPOLYLINE
  5
240
100
AcDbEntity
  8
0
 62
254
420
13685453
370
-1
 48
1.0
  6
ByLayer
100
AcDbPolyline
 90
2
 70
128
 10
20.2665325739832269
 20
-74.7125656175326469
 10
34.247332573983158
 20
-75.4452656175325558
  0
LWPOLYLINE
  5
241
100
AcDbEntity
  8
0
 62
254
420
13685453
370
-1
 48
1.0
  6
ByLayer
100
AcDbPolyline
 90
2
 70
128
 10
19.5338325739832044
 20
-88.6933656175326632
 10
20.2665325739832269
 20
-74.7125656175326469
  0
LWPOLYLINE
  5
242
100
AcDbEntity
  8
0
 62
254
420
13685453
370
-1
 48
1.0
  6
ByLayer
100
AcDbPolyline
 90
2
 70
128
 10
38.5576325739832555
 20
-89.6903656175326205
 10
39.290432573983253
 20
-75.7095656175325189
  0
LWPOLYLINE
  5
243
100
AcDbEntity
  8
0
 62
254
420
13685453
370
-1
 48
1.0
  6
ByLayer
100
AcDbPolyline
 90
2
 70
128
 10
171.6465325739832224
 20
-66.927765617532657
 10
157.6657325739831776
 20
-67.6604656175326227
  0
LWPOLYLINE
  5
244
100
AcDbEntity
  8
0
 62
254
420
13685453
370
-1
 48
1.0
  6
ByLayer
100
AcDbPolyline
 90
2
 70
128
 10
157.6657325739831776
 20
-67.6604656175326227
 10
156.9330325739832688
 20
-53.6796656175325211
  0
LWPOLYLINE
  5
245
100
AcDbEntity
  8
0
 62
254
420
13685453
370
-1
 48
1.0
  6
ByLayer
100
AcDbPolyline
 90
2
 70
128
 10
151.1801325739832009
 20
-34.9049656175325254
 10
165.160932573983132
 20
-34.1722656175326165
  0
LWPOLYLINE
  5
246
100
AcDbEntity
  8
0
 62
254
420
13685453
370
-1
 48
1.0
  6
ByLayer
100
AcDbPolyline
 90
2
 70
128
 10
156.9330325739832688
 20
-53.6796656175325211
 10
170.9138325739831998
 20
-52.9468656175325236
  0
LWPOLYLINE
  5
247
100
AcDbEntity
  8
0
 62
254
420
13685453
370
-1
 48
1.0
  6
ByLayer
100
AcDbPolyline
 90
2
 70
128
 10
170.9138325739831998
 20
-52.9468656175325236
 10
171.6465325739832224
 20
-66.927765617532657
  0
LWPOLYLINE
  5
248
100
AcDbEntity
  8
0
 62
254
420
13685453
370
-1
 48
1.0
  6
ByLayer
100
AcDbPolyline
 90
2
 70
128
 10
146.8697325739832422
 20
-49.1500656175326185
 10
132.8889325739831975
 20
-49.8827656175325274
  0
LWPOLYLINE
  5
249
100
AcDbEntity
  8
0
 62
254
420
13685453
370
-1
 48
1.0
  6
ByLayer
100
AcDbPolyline
 90
2
 70
128
 10
132.8889325739831975
 20
-49.8827656175325274
 10
132.1562325739832886
 20
-35.9019656175326531
  0
LWPOLYLINE
  5
24A
100
AcDbEntity
  8
0
 62
254
420
13685453
370
-1
 48
1.0
  6
ByLayer
100
AcDbPolyline
 90
2
 70
128
 10
127.8458325739831025
 20
-50.1470656175325189
 10
113.8650325739831715
 20
-50.8797656175326551
  0
LWPOLYLINE
  5
24B
100
AcDbEntity
  8
0
 62
254
420
13685453
370
-1
 48
1.0
  6
ByLayer
100
AcDbPolyline
 90
2
 70
128
 10
113.1323325739832626
 20
-36.8989656175326672
 10
127.1131325739831937
 20
-36.166265617532531
  0
LWPOLYLINE
  5
24C
100
AcDbEntity
  8
0
 62
254
420
13685453
370
-1
 48
1.0
  6
ByLayer
100
AcDbPolyline
 90
2
 70
128
 10
113.8650325739831715
 20
-50.8797656175326551
 10
113.1323325739832626
 20
-36.8989656175326672
  0
LWPOLYLINE
  5
24D
100
AcDbEntity
  8
0
 62
254
420
13685453
370
-1
 48
1.0
  6
ByLayer
100
AcDbPolyline
 90
2
 70
128
 10
132.1562325739832886
 20
-35.9019656175326531
 10
146.137032573983106
 20
-35.1692656175325169
  0
LWPOLYLINE
  5
24E
100
AcDbEntity
  8
0
 62
254
420
13685453
370
-1
 48
1.0
  6
ByLayer
100
AcDbPolyline
 90
2
 70
128
 10
146.137032573983106
 20
-35.1692656175325169
 10
146.8697325739832422
 20
-49.1500656175326185
  0
LWPOLYLINE
  5
24F
100
AcDbEntity
  8
0
 62
254
420
13685453
370
-1
 48
1.0
  6
ByLayer
100
AcDbPolyline
 90
2
 70
128
 10
127.1131325739831937
 20
-36.166265617532531
 10
127.8458325739831025
 20
-50.1470656175325189
  0
LWPOLYLINE
  5
250
100
AcDbEntity
  8
0
 62
254
420
13685453
370
-1
 48
1.0
  6
ByLayer
100
AcDbPolyline
 90
2
 70
128
 10
108.8481325739832073
 20
-51.1433656175326519
 10
94.8673325739831625
 20
-51.8760656175326176
  0
LWPOLYLINE
  5
251
100
AcDbEntity
  8
0
 62
254
420
13685453
370
-1
 48
1.0
  6
ByLayer
100
AcDbPolyline
 90
2
 70
128
 10
94.8673325739831625
 20
-51.8760656175326176
 10
94.1345325739831651
 20
-37.895265617532516
  0
LWPOLYLINE
  5
252
100
AcDbEntity
  8
0
 62
254
420
13685453
370
-1
 48
1.0
  6
ByLayer
100
AcDbPolyline
 90
2
 70
128
 10
89.8242325739831813
 20
-52.140365617532666
 10
75.8434325739832502
 20
-52.873065617532518
  0
LWPOLYLINE
  5
253
100
AcDbEntity
  8
0
 62
254
420
13685453
370
-1
 48
1.0
  6
ByLayer
100
AcDbPolyline
 90
2
 70
128
 10
75.1107325739832277
 20
-38.8922656175325301
 10
89.0915325739831587
 20
-38.1595656175326212
  0
LWPOLYLINE
  5
254
100
AcDbEntity
  8
0
 62
254
420
13685453
370
-1
 48
1.0
  6
ByLayer
100
AcDbPolyline
 90
2
 70
128
 10
75.8434325739832502
 20
-52.873065617532518
 10
75.1107325739832277
 20
-38.8922656175325301
  0
LWPOLYLINE
  5
255
100
AcDbEntity
  8
0
 62
254
420
13685453
370
-1
 48
1.0
  6
ByLayer
100
AcDbPolyline
 90
2
 70
128
 10
94.1345325739831651
 20
-37.895265617532516
 10
108.1154325739831847
 20
-37.162565617532664
  0
LWPOLYLINE
  5
256
100
AcDbEntity
  8
0
 62
254
420
13685453
370
-1
 48
1.0
  6
ByLayer
100
AcDbPolyline
 90
2
 70
128
 10
108.1154325739831847
 20
-37.162565617532664
 10
108.8481325739832073
 20
-51.1433656175326519
  0
LWPOLYLINE
  5
257
100
AcDbEntity
  8
0
 62
254
420
13685453
370
-1
 48
1.0
  6
ByLayer
100
AcDbPolyline
 90
2
 70
128
 10
89.0915325739831587
 20
-38.1595656175326212
 10
89.8242325739831813
 20
-52.140365617532666
  0
LWPOLYLINE
  5
258
100
AcDbEntity
  8
0
 62
254
420
13685453
370
-1
 48
1.0
  6
ByLayer
100
AcDbPolyline
 90
2
 70
128
 10
152.6227325739831713
 20
-67.9247656175326142
 10
138.6418325739832653
 20
-68.6574656175325231
  0
LWPOLYLINE
  5
259
100
AcDbEntity
  8
0
 62
254
420
13685453
370
-1
 48
1.0
  6
ByLayer
100
AcDbPolyline
 90
2
 70
128
 10
138.6418325739832653
 20
-68.6574656175325231
 10
137.9091325739832428
 20
-54.6766656175325352
  0
LWPOLYLINE
  5
25A
100
AcDbEntity
  8
0
 62
254
420
13685453
370
-1
 48
1.0
  6
ByLayer
100
AcDbPolyline
 90
2
 70
128
 10
133.598832573983259
 20
-68.9217656175326567
 10
119.6179325739832393
 20
-69.6544656175326509
  0
LWPOLYLINE
  5
25B
100
AcDbEntity
  8
0
 62
254
420
13685453
370
-1
 48
1.0
  6
ByLayer
100
AcDbPolyline
 90
2
 70
128
 10
118.8852325739831031
 20
-55.673665617532663
 10
132.8661325739832364
 20
-54.9408656175326655
  0
LWPOLYLINE
  5
25C
100
AcDbEntity
  8
0
 62
254
420
13685453
370
-1
 48
1.0
  6
ByLayer
100
AcDbPolyline
 90
2
 70
128
 10
119.6179325739832393
 20
-69.6544656175326509
 10
118.8852325739831031
 20
-55.673665617532663
  0
LWPOLYLINE
  5
25D
100
AcDbEntity
  8
0
 62
254
420
13685453
370
-1
 48
1.0
  6
ByLayer
100
AcDbPolyline
 90
2
 70
128
 10
137.9091325739832428
 20
-54.6766656175325352
 10
151.8900325739832624
 20
-53.9438656175326514
  0
LWPOLYLINE
  5
25E
100
AcDbEntity
  8
0
 62
254
420
13685453
370
-1
 48
1.0
  6
ByLayer
100
AcDbPolyline
 90
2
 70
128
 10
151.8900325739832624
 20
-53.9438656175326514
 10
152.6227325739831713
 20
-67.9247656175326142
  0
LWPOLYLINE
  5
25F
100
AcDbEntity
  8
0
 62
254
420
13685453
370
-1
 48
1.0
  6
ByLayer
100
AcDbPolyline
 90
2
 70
128
 10
132.8661325739832364
 20
-54.9408656175326655
 10
133.598832573983259
 20
-68.9217656175326567
  0
LWPOLYLINE
  5
260
100
AcDbEntity
  8
0
 62
254
420
13685453
370
-1
 48
1.0
  6
ByLayer
100
AcDbPolyline
 90
2
 70
128
 10
114.5749325739832329
 20
-69.9187656175325571
 10
100.5941325739831882
 20
-70.651465617532665
  0
LWPOLYLINE
  5
261
100
AcDbEntity
  8
0
 62
254
420
13685453
370
-1
 48
1.0
  6
ByLayer
100
AcDbPolyline
 90
2
 70
128
 10
100.5941325739831882
 20
-70.651465617532665
 10
99.8614325739831656
 20
-56.6706656175325634
  0
LWPOLYLINE
  5
262
100
AcDbEntity
  8
0
 62
254
420
13685453
370
-1
 48
1.0
  6
ByLayer
100
AcDbPolyline
 90
2
 70
128
 10
95.5510325739832069
 20
-70.9157656175326565
 10
81.5702325739831622
 20
-71.6484656175325654
  0
LWPOLYLINE
  5
263
100
AcDbEntity
  8
0
 62
254
420
13685453
370
-1
 48
1.0
  6
ByLayer
100
AcDbPolyline
 90
2
 70
128
 10
80.8375325739832533
 20
-57.6676656175325206
 10
94.8183325739831844
 20
-56.9348656175325232
  0
LWPOLYLINE
  5
264
100
AcDbEntity
  8
0
 62
254
420
13685453
370
-1
 48
1.0
  6
ByLayer
100
AcDbPolyline
 90
2
 70
128
 10
81.5702325739831622
 20
-71.6484656175325654
 10
80.8375325739832533
 20
-57.6676656175325206
  0
LWPOLYLINE
  5
265
100
AcDbEntity
  8
0
 62
254
420
13685453
370
-1
 48
1.0
  6
ByLayer
100
AcDbPolyline
 90
2
 70
128
 10
99.8614325739831656
 20
-56.6706656175325634
 10
113.8422325739832104
 20
-55.9378656175325659
  0
LWPOLYLINE
  5
266
100
AcDbEntity
  8
0
 62
254
420
13685453
370
-1
 48
1.0
  6
ByLayer
100
AcDbPolyline
 90
2
 70
128
 10
113.8422325739832104
 20
-55.9378656175325659
 10
114.5749325739832329
 20
-69.9187656175325571
  0
LWPOLYLINE
  5
267
100
AcDbEntity
  8
0
 62
254
420
13685453
370
-1
 48
1.0
  6
ByLayer
100
AcDbPolyline
 90
2
 70
128
 10
94.8183325739831844
 20
-56.9348656175325232
 10
95.5510325739832069
 20
-70.9157656175326565
  0
LWPOLYLINE
  5
268
100
AcDbEntity
  8
0
 62
254
420
13685453
370
-1
 48
1.0
  6
ByLayer
100
AcDbPolyline
 90
2
 70
128
 10
197.4204325739832484
 20
-103.7292656175326613
 10
183.4396325739832037
 20
-104.461965617532627
  0
LWPOLYLINE
  5
269
100
AcDbEntity
  8
0
 62
254
420
13685453
370
-1
 48
1.0
  6
ByLayer
100
AcDbPolyline
 90
2
 70
128
 10
183.4396325739832037
 20
-104.461965617532627
 10
182.7069325739831811
 20
-90.4811656175326675
  0
LWPOLYLINE
  5
26A
100
AcDbEntity
  8
0
 62
254
420
13685453
370
-1
 48
1.0
  6
ByLayer
100
AcDbPolyline
 90
2
 70
128
 10
147.7319325739831584
 20
-111.1023656175326835
 10
133.7511325739832273
 20
-111.8350656175325923
  0
LWPOLYLINE
  5
26B
100
AcDbEntity
  8
0
 62
254
420
13685453
370
-1
 48
1.0
  6
ByLayer
100
AcDbPolyline
 90
2
 70
128
 10
145.7703325739831826
 20
-97.1862656175326549
 10
146.9992325739832495
 20
-97.1215656175326956
  0
LWPOLYLINE
  5
26C
100
AcDbEntity
  8
0
 62
254
420
13685453
370
-1
 48
1.0
  6
ByLayer
100
AcDbPolyline
 90
2
 70
128
 10
133.7511325739832273
 20
-111.8350656175325923
 10
133.0184325739832047
 20
-97.8542656175326613
  0
LWPOLYLINE
  5
26D
100
AcDbEntity
  8
0
 62
254
420
13685453
370
-1
 48
1.0
  6
ByLayer
100
AcDbPolyline
 90
2
 70
128
 10
182.7069325739831811
 20
-90.4811656175326675
 10
196.6877325739832258
 20
-89.7484656175325313
  0
LWPOLYLINE
  5
26E
100
AcDbEntity
  8
0
 62
254
420
13685453
370
-1
 48
1.0
  6
ByLayer
100
AcDbPolyline
 90
2
 70
128
 10
196.6877325739832258
 20
-89.7484656175325313
 10
197.4204325739832484
 20
-103.7292656175326613
  0
LWPOLYLINE
  5
26F
100
AcDbEntity
  8
0
 62
254
420
13685453
370
-1
 48
1.0
  6
ByLayer
100
AcDbPolyline
 90
2
 70
128
 10
146.9992325739832495
 20
-97.1215656175326956
 10
147.7319325739831584
 20
-111.1023656175326835
  0
LWPOLYLINE
  5
270
100
AcDbEntity
  8
0
 62
254
420
13685453
370
-1
 48
1.0
  6
ByLayer
100
AcDbPolyline
 90
2
 70
128
 10
178.4775325739832397
 20
-96.7172656175325471
 10
177.9782325739831776
 20
-96.7434656175326779
  0
LWPOLYLINE
  5
271
100
AcDbEntity
  8
0
 62
254
420
13685453
370
-1
 48
1.0
  6
ByLayer
100
AcDbPolyline
 90
2
 70
128
 10
177.3995325739832651
 20
-85.7023656175325641
 10
177.9782325739831776
 20
-96.7434656175326779
  0
LWPOLYLINE
  5
272
100
AcDbEntity
  8
0
 62
254
420
13685453
370
-1
 48
1.0
  6
ByLayer
100
AcDbPolyline
 90
2
 70
128
 10
178.9768325739830743
 20
-96.6911656175325618
 10
178.4775325739832397
 20
-96.7172656175325471
  0
LWPOLYLINE
  5
273
100
AcDbEntity
  8
0
 62
254
420
13685453
370
-1
 48
1.0
  6
ByLayer
100
AcDbPolyline
 90
2
 70
128
 10
179.0030325739832051
 20
-97.1904656175326807
 10
178.9768325739830743
 20
-96.6911656175325618
  0
LWPOLYLINE
  5
274
100
AcDbEntity
  8
0
 62
254
420
13685453
370
-1
 48
1.0
  6
ByLayer
100
AcDbPolyline
 90
2
 70
128
 10
179.3039325739831611
 20
-102.9325656175325605
 10
179.0030325739832051
 20
-97.1904656175326807
  0
LWPOLYLINE
  5
275
100
AcDbEntity
  8
0
 62
254
420
13685453
370
-1
 48
1.0
  6
ByLayer
100
AcDbPolyline
 90
2
 70
128
 10
179.3039325739831611
 20
-102.9325656175325605
 10
179.3301325739831782
 20
-103.4318656175326794
  0
LWPOLYLINE
  5
276
100
AcDbEntity
  8
0
 62
254
420
13685453
370
-1
 48
1.0
  6
ByLayer
100
AcDbPolyline
 90
2
 70
128
 10
178.830732573983255
 20
-103.4580656175326965
 10
179.3301325739831782
 20
-103.4318656175326794
  0
LWPOLYLINE
  5
277
100
AcDbEntity
  8
0
 62
254
420
13685453
370
-1
 48
1.0
  6
ByLayer
100
AcDbPolyline
 90
2
 70
128
 10
178.830732573983255
 20
-103.4580656175326965
 10
178.3314325739831929
 20
-103.4842656175326567
  0
LWPOLYLINE
  5
278
100
AcDbEntity
  8
0
 62
254
420
13685453
370
-1
 48
1.0
  6
ByLayer
100
AcDbPolyline
 90
2
 70
128
 10
178.3965325739832224
 20
-104.7262656175325617
 10
178.3314325739831929
 20
-103.4842656175326567
  0
LWPOLYLINE
  5
279
100
AcDbEntity
  8
0
 62
254
420
13685453
370
-1
 48
1.0
  6
ByLayer
100
AcDbPolyline
 90
2
 70
128
 10
164.4157325739831776
 20
-105.4589656175326979
 10
178.3965325739832224
 20
-104.7262656175325617
  0
LWPOLYLINE
  5
27A
100
AcDbEntity
  8
0
 62
254
420
13685453
370
-1
 48
1.0
  6
ByLayer
100
AcDbPolyline
 90
2
 70
128
 10
163.4187325739831067
 20
-86.4350656175325298
 10
164.4157325739831776
 20
-105.4589656175326979
  0
LWPOLYLINE
  5
27B
100
AcDbEntity
  8
0
 62
254
420
13685453
370
-1
 48
1.0
  6
ByLayer
100
AcDbPolyline
 90
2
 70
128
 10
196.4234325739831775
 20
-84.7053656175326637
 10
182.4426325739831327
 20
-85.4380656175326294
  0
LWPOLYLINE
  5
27C
100
AcDbEntity
  8
0
 62
254
420
13685453
370
-1
 48
1.0
  6
ByLayer
100
AcDbPolyline
 90
2
 70
128
 10
182.4426325739831327
 20
-85.4380656175326294
 10
181.7099325739832238
 20
-71.4572656175325562
  0
LWPOLYLINE
  5
27D
100
AcDbEntity
  8
0
 62
254
420
13685453
370
-1
 48
1.0
  6
ByLayer
100
AcDbPolyline
 90
2
 70
128
 10
162.6860325739831978
 20
-72.4542656175326556
 10
176.6668325739832426
 20
-71.721565617532633
  0
LWPOLYLINE
  5
27E
100
AcDbEntity
  8
0
 62
254
420
13685453
370
-1
 48
1.0
  6
ByLayer
100
AcDbPolyline
 90
2
 70
128
 10
163.4187325739831067
 20
-86.4350656175325298
 10
162.6860325739831978
 20
-72.4542656175326556
  0
LWPOLYLINE
  5
27F
100
AcDbEntity
  8
0
 62
254
420
13685453
370
-1
 48
1.0
  6
ByLayer
100
AcDbPolyline
 90
2
 70
128
 10
181.7099325739832238
 20
-71.4572656175325562
 10
195.6907325739832686
 20
-70.7245656175326189
  0
LWPOLYLINE
  5
280
100
AcDbEntity
  8
0
 62
254
420
13685453
370
-1
 48
1.0
  6
ByLayer
100
AcDbPolyline
 90
2
 70
128
 10
195.6907325739832686
 20
-70.7245656175326189
 10
196.4234325739831775
 20
-84.7053656175326637
  0
LWPOLYLINE
  5
281
100
AcDbEntity
  8
0
 62
254
420
13685453
370
-1
 48
1.0
  6
ByLayer
100
AcDbPolyline
 90
2
 70
128
 10
177.0855325739830732
 20
-79.7174656175325254
 10
177.3995325739832651
 20
-85.7023656175325641
  0
LWPOLYLINE
  5
282
100
AcDbEntity
  8
0
 62
254
420
13685453
370
-1
 48
1.0
  6
ByLayer
100
AcDbPolyline
 90
2
 70
128
 10
158.3756325739832391
 20
-86.6993656175325214
 10
144.3948325739831944
 20
-87.432065617532686
  0
LWPOLYLINE
  5
283
100
AcDbEntity
  8
0
 62
254
420
13685453
370
-1
 48
1.0
  6
ByLayer
100
AcDbPolyline
 90
2
 70
128
 10
144.3948325739831944
 20
-87.432065617532686
 10
143.6621325739831718
 20
-73.4512656175326697
  0
LWPOLYLINE
  5
284
100
AcDbEntity
  8
0
 62
254
420
13685453
370
-1
 48
1.0
  6
ByLayer
100
AcDbPolyline
 90
2
 70
128
 10
139.3517325739830994
 20
-87.6963656175325355
 10
125.3709325739832821
 20
-88.4290656175326149
  0
LWPOLYLINE
  5
285
100
AcDbEntity
  8
0
 62
254
420
13685453
370
-1
 48
1.0
  6
ByLayer
100
AcDbPolyline
 90
2
 70
128
 10
124.6382325739832595
 20
-74.4482656175325701
 10
138.6190325739830769
 20
-73.7155656175326612
  0
LWPOLYLINE
  5
286
100
AcDbEntity
  8
0
 62
254
420
13685453
370
-1
 48
1.0
  6
ByLayer
100
AcDbPolyline
 90
2
 70
128
 10
125.3709325739832821
 20
-88.4290656175326149
 10
124.6382325739832595
 20
-74.4482656175325701
  0
LWPOLYLINE
  5
287
100
AcDbEntity
  8
0
 62
254
420
13685453
370
-1
 48
1.0
  6
ByLayer
100
AcDbPolyline
 90
2
 70
128
 10
143.6621325739831718
 20
-73.4512656175326697
 10
157.6429325739831029
 20
-72.7185656175325335
  0
LWPOLYLINE
  5
288
100
AcDbEntity
  8
0
 62
254
420
13685453
370
-1
 48
1.0
  6
ByLayer
100
AcDbPolyline
 90
2
 70
128
 10
157.6429325739831029
 20
-72.7185656175325335
 10
158.3756325739832391
 20
-86.6993656175325214
  0
LWPOLYLINE
  5
289
100
AcDbEntity
  8
0
 62
254
420
13685453
370
-1
 48
1.0
  6
ByLayer
100
AcDbPolyline
 90
2
 70
128
 10
138.6190325739830769
 20
-73.7155656175326612
 10
139.3517325739830994
 20
-87.6963656175325355
  0
LWPOLYLINE
  5
28A
100
AcDbEntity
  8
0
 62
254
420
13685453
370
-1
 48
1.0
  6
ByLayer
100
AcDbPolyline
 90
2
 70
128
 10
120.3278325739831871
 20
-88.6933656175326632
 10
106.347032573983256
 20
-89.4260656175325153
  0
LWPOLYLINE
  5
28B
100
AcDbEntity
  8
0
 62
254
420
13685453
370
-1
 48
1.0
  6
ByLayer
100
AcDbPolyline
 90
2
 70
128
 10
105.6143325739832335
 20
-75.4452656175325558
 10
119.5951325739831645
 20
-74.7125656175326469
  0
LWPOLYLINE
  5
28C
100
AcDbEntity
  8
0
 62
254
420
13685453
370
-1
 48
1.0
  6
ByLayer
100
AcDbPolyline
 90
2
 70
128
 10
106.347032573983256
 20
-89.4260656175325153
 10
105.6143325739832335
 20
-75.4452656175325558
  0
LWPOLYLINE
  5
28D
100
AcDbEntity
  8
0
 62
254
420
13685453
370
-1
 48
1.0
  6
ByLayer
100
AcDbPolyline
 90
2
 70
128
 10
119.5951325739831645
 20
-74.7125656175326469
 10
120.3278325739831871
 20
-88.6933656175326632
  0
LWPOLYLINE
  5
28E
100
AcDbEntity
  8
0
 62
254
420
13685453
370
-1
 48
1.0
  6
ByLayer
100
AcDbPolyline
 90
2
 70
128
 10
101.3040325739832497
 20
-89.6903656175326205
 10
87.32313257398323
 20
-90.4230656175325294
  0
LWPOLYLINE
  5
28F
100
AcDbEntity
  8
0
 62
254
420
13685453
370
-1
 48
1.0
  6
ByLayer
100
AcDbPolyline
 90
2
 70
128
 10
100.5712325739832522
 20
-75.7095656175325189
 10
101.3040325739832497
 20
-89.6903656175326205
  0
LWPOLYLINE
  5
290
100
AcDbEntity
  8
0
 62
254
420
13685453
370
-1
 48
1.0
  6
ByLayer
100
AcDbPolyline
 90
2
 70
128
 10
86.5904325739832075
 20
-76.4422656175326551
 10
100.5712325739832522
 20
-75.7095656175325189
  0
LWPOLYLINE
  5
291
100
AcDbEntity
  8
0
 62
254
420
13685453
370
-1
 48
1.0
  6
ByLayer
100
AcDbPolyline
 90
2
 70
128
 10
76.9308325739832526
 20
-95.3142656175326692
 10
76.9308325739832526
 20
-81.3142656175326692
  0
LWPOLYLINE
  5
292
100
AcDbEntity
  8
0
 62
254
420
13685453
370
-1
 48
1.0
  6
ByLayer
100
AcDbPolyline
 90
2
 70
128
 10
76.9308325739832526
 20
-81.3142656175326692
 10
62.9308325739832526
 20
-81.3142656175326692
  0
LWPOLYLINE
  5
293
100
AcDbEntity
  8
0
 62
254
420
13685453
370
-1
 48
1.0
  6
ByLayer
100
AcDbPolyline
 90
2
 70
128
 10
62.9308325739832526
 20
-81.3142656175326692
 10
62.9308325739832526
 20
-95.3142656175326692
  0
LWPOLYLINE
  5
294
100
AcDbEntity
  8
0
 62
254
420
13685453
370
-1
 48
1.0
  6
ByLayer
100
AcDbPolyline
 90
2
 70
128
 10
62.9308325739832526
 20
-95.3142656175326692
 10
76.9308325739832526
 20
-95.3142656175326692
  0
LWPOLYLINE
  5
295
100
AcDbEntity
  8
0
 62
254
420
13685453
370
-1
 48
1.0
  6
ByLayer
100
AcDbPolyline
 90
2
 70
128
 10
87.32313257398323
 20
-90.4230656175325294
 10
86.5904325739832075
 20
-76.4422656175326551
  0
LWPOLYLINE
  5
296
100
AcDbEntity
  8
0
 62
254
420
13685453
370
-1
 48
1.0
  6
ByLayer
100
AcDbPolyline
 90
2
 70
128
 10
151.9128325739832235
 20
-48.8857656175325701
 10
151.1801325739832009
 20
-34.9049656175325254
  0
LWPOLYLINE
  5
297
100
AcDbEntity
  8
0
 62
254
420
13685453
370
-1
 48
1.0
  6
ByLayer
100
AcDbPolyline
 90
2
 70
128
 10
165.160932573983132
 20
-34.1722656175326165
 10
165.8936325739832682
 20
-48.1530656175326612
  0
LWPOLYLINE
  5
298
100
AcDbEntity
  8
0
 62
254
420
13685453
370
-1
 48
1.0
  6
ByLayer
100
AcDbPolyline
 90
2
 70
128
 10
165.8936325739832682
 20
-48.1530656175326612
 10
151.9128325739832235
 20
-48.8857656175325701
  0
LINE
  5
299
100
AcDbEntity
  8
0
 62
256
370
-1
 48
1.0
  6
ByLayer
100
AcDbLine
 10
174.9599325739832238
 20
-33.6587656175326515
 30
0.0
 11
188.9407325739832686
 21
-32.9260656175325153
 31
0.0
  0
LINE
  5
29A
100
AcDbEntity
  8
0
 62
0
370
-1
 48
1.0
  6
Continuous
100
AcDbLine
 10
134.8289161212840099
 20
-29.3241824245008615
 30
0.0
 11
134.7805053617595377
 21
-28.4004501048534053
 31
0.0
  0
LINE
  5
29B
100
AcDbEntity
  8
0
 62
0
370
-1
 48
1.0
  6
Continuous
100
AcDbLine
 10
5.0402641628904803
 20
-29.1960812814892279
 30
0.0
 11
5.0886749224149526
 21
-28.2723489618418853
 31
0.0
  0
LINE
  5
29C
100
AcDbEntity
  8
0
 62
0
370
-1
 48
1.0
  6
Continuous
100
AcDbLine
 10
197.831899452926109
 20
-109.6382160468151312
 30
0.0
 11
197.8803102124505813
 21
-110.5619483664622464
 31
0.0
  0
LINE
  5
29D
100
AcDbEntity
  8
0
 62
0
370
-1
 48
1.0
  6
Continuous
100
AcDbLine
 10
-57.9956333179709418
 20
-110.1375310962164065
 30
0.0
 11
-58.0440440774956414
 21
-111.0612634158635217
 31
0.0
  0
LINE
  5
29E
100
AcDbEntity
  8
0
 62
256
370
-1
 48
1.0
  6
ByLayer
100
AcDbLine
 10
179.7197903129173255
 20
-26.044280605649476
 30
0.0
 11
180.0328460366497438
 21
-32.0118695349545135
 31
0.0
  0
LINE
  5
29F
100
AcDbEntity
  8
0
 62
256
370
-1
 48
1.0
  6
ByLayer
100
AcDbLine
 10
-39.8506100287427216
 20
-25.916179462637956
 30
0.0
 11
-40.164035445311697
 21
-31.8928707027511393
 31
0.0
  0
LINE
  5
2A0
100
AcDbEntity
  8
0
 62
256
370
-1
 48
1.0
  6
ByLayer
100
AcDbLine
 10
134.8289161212840099
 20
-29.3241824245008615
 30
0.0
 11
134.9197616634700125
 21
-34.3788714395447528
 31
0.0
  0
LINE
  5
2A1
100
AcDbEntity
  8
0
 62
256
370
-1
 48
1.0
  6
ByLayer
100
AcDbLine
 10
5.0402641628904803
 20
-29.1960812814892279
 30
0.0
 11
4.7753596198648438
 21
-34.2547220813037541
 31
0.0
  0
LINE
  5
2A2
100
AcDbEntity
  8
0
 62
256
370
-1
 48
1.0
  6
ByLayer
100
AcDbLine
 10
197.831899452926109
 20
-109.6382160468151312
 30
0.0
 11
197.6542579726063877
 21
-106.2455544172161694
 31
0.0
  0
LINE
  5
2A3
100
AcDbEntity
  8
0
 62
256
370
-1
 48
1.0
  6
ByLayer
100
AcDbLine
 10
-57.9956333179709418
 20
-110.1375310962164065
 30
0.0
 11
-57.8179918579706964
 21
-106.7448698546898811
 31
0.0
  0
ARC
  5
2A4
100
AcDbEntity
  8
0
 62
256
370
-1
 48
1.0
  6
ByLayer
100
AcDbCircle
 10
177.3230794295061514
 20
-26.1698869006327186
 30
0.0
 40
2.4000000000001194
100
AcDbArc
 50
3.0
 51
93.0000000000000142
  0
ARC
  5
2A5
100
AcDbEntity
  8
0
 62
256
370
-1
 48
1.0
  6
ByLayer
100
AcDbCircle
 10
-37.4538991453316612
 20
-26.0417857576210281
 30
0.0
 40
2.4000000000001194
100
AcDbArc
 50
86.9999999999999858
 51
177.0000000000000853
  0
ARC
  5
2A6
100
AcDbEntity
  8
0
 62
256
370
-1
 48
1.0
  6
ByLayer
100
AcDbCircle
 10
155.3377361447039675
 20
-112.7925115706833878
 30
0.0
 40
2.4000000000000834
100
AcDbArc
 50
192.5874233857271349
 51
273.0000000000000568
  0
ARC
  5
2A7
100
AcDbEntity
  8
0
 62
256
370
-1
 48
1.0
  6
ByLayer
100
AcDbCircle
 10
-15.5019269502599855
 20
-113.290536259887034
 30
0.0
 40
2.4012647345250278
100
AcDbArc
 50
267.0124993278740817
 51
358.4205203697594584
  0
ARC
  5
2A8
100
AcDbEntity
  8
0
 62
256
370
-1
 48
1.0
  6
ByLayer
100
AcDbCircle
 10
137.1782148747051906
 20
-28.2747914739141493
 30
0.0
 40
2.4009999999998968
100
AcDbArc
 50
93.0000000000000142
 51
183.0
  0
ARC
  5
2A9
100
AcDbEntity
  8
0
 62
256
370
-1
 48
1.0
  6
ByLayer
100
AcDbCircle
 10
2.6909654094692996
 20
-28.1466903309025156
 30
0.0
 40
2.4009999999998968
100
AcDbArc
 50
357.0000000000001705
 51
86.9999999999999858
  0
ARC
  5
2AA
100
AcDbEntity
  8
0
 62
256
370
-1
 48
1.0
  6
ByLayer
100
AcDbCircle
 10
195.4826006995049283
 20
-110.6876069974018435
 30
0.0
 40
2.4009999999998968
100
AcDbArc
 50
273.0000000000000568
 51
2.9999999999998015
  0
ARC
  5
2AB
100
AcDbEntity
  8
0
 62
256
370
-1
 48
1.0
  6
ByLayer
100
AcDbCircle
 10
-55.6463345645497611
 20
-111.1869220468030051
 30
0.0
 40
2.4009999999998968
100
AcDbArc
 50
177.0000000000003411
 51
266.9999999999999432
  0
LINE
  5
2AC
100
AcDbEntity
  8
0
 62
256
370
-1
 48
1.0
  6
ByLayer
100
AcDbLine
 10
177.1974731345230794
 20
-23.7731760172215445
 30
0.0
 11
137.0525562437658209
 21
-25.8770819609684395
 31
0.0
  0
LINE
  5
2AD
100
AcDbEntity
  8
0
 62
256
370
-1
 48
1.0
  6
ByLayer
100
AcDbLine
 10
-37.3282928503485891
 20
-23.645074874209854
 30
0.0
 11
2.8166240404086693
 21
-25.748980817956749
 31
0.0
  0
LINE
  5
2AE
100
AcDbEntity
  8
0
 62
256
370
-1
 48
1.0
  6
ByLayer
100
AcDbLine
 10
155.4633424396870396
 20
-115.1892224540945051
 30
0.0
 11
195.608259330444298
 21
-113.0853165103476101
 31
0.0
  0
LINE
  5
2AF
100
AcDbEntity
  8
0
 62
256
370
-1
 48
1.0
  6
ByLayer
100
AcDbLine
 10
-15.6270763047318724
 20
-115.6885375034956667
 30
0.0
 11
-55.7719931954891308
 21
-113.5846315597487717
 31
0.0
  0
LINE
  5
2B0
100
AcDbEntity
  8
0
 62
256
370
-1
 48
1.0
  6
ByLayer
100
AcDbLine
 10
69.8180970034372876
 20
-37.6634675060668371
 30
0.0
 11
15.8921021266902471
 21
-34.8373258689478575
 31
0.0
  0
LINE
  5
2B1
100
AcDbEntity
  8
0
 62
256
370
-1
 48
1.0
  6
ByLayer
100
AcDbLine
 10
15.8921021266902471
 20
-34.8373258689478575
 30
0.0
 11
4.7753596198647301
 21
-34.2547220813037541
 31
0.0
  0
ENDSEC
  0
SECTION
  2
OBJECTS
  0
DICTIONARY
  5
C
100
AcDbDictionary
280
0
281
1
  3
ACAD_GROUP
350
D
  3
ACAD_LAYOUT
350
1A
  3
ACAD_MLINESTYLE
350
17
  3
ACAD_PLOTSETTINGS
350
19
  3
ACAD_PLOTSTYLENAME
350
E
  3
AcDbVariableDictionary
350
2B2
  3
QCAD_OBJECTS
350
2B3
  0
DICTIONARY
  5
D
100
AcDbDictionary
280
0
281
1
  0
ACDBDICTIONARYWDFLT
  5
E
100
AcDbDictionary
281
1
  3
Normal
350
F
100
AcDbDictionaryWithDefault
340
F
  0
ACDBPLACEHOLDER
  5
F
  0
DICTIONARY
  5
17
100
AcDbDictionary
280
0
281
1
  3
Standard
350
18
  0
MLINESTYLE
  5
18
100
AcDbMlineStyle
  2
STANDARD
 70
0
  3

 62
256
 51
90.0
 52
90.0
 71
2
 49
0.5
 62
256
  6
BYLAYER
 49
-0.5
 62
256
  6
BYLAYER
  0
DICTIONARY
  5
19
100
AcDbDictionary
280
0
281
1
  0
DICTIONARY
  5
1A
100
AcDbDictionary
281
1
  3
Layout1
350
1E
  3
Layout2
350
26
  3
Model
350
22
  0
LAYOUT
  5
1E
100
AcDbPlotSettings
  1

  2
none_device
  4

  6

 40
0.0
 41
0.0
 42
0.0
 43
0.0
 44
0.0
 45
0.0
 46
0.0
 47
0.0
 48
0.0
 49
0.0
140
0.0
141
0.0
142
1.0
143
1.0
 70
688
 72
0
 73
0
 74
5
  7

 75
16
147
1.0
148
0.0
149
0.0
100
AcDbLayout
  1
Layout1
 70
1
 71
1
 10
0.0
 20
0.0
 11
420.0
 21
297.0
 12
0.0
 22
0.0
 32
0.0
 14
100000000000000000000.0
 24
100000000000000000000.0
 34
100000000000000000000.0
 15
-100000000000000000000.0
 25
-100000000000000000000.0
 35
-100000000000000000000.0
146
0.0
 13
0.0
 23
0.0
 33
0.0
 16
1.0
 26
0.0
 36
0.0
 17
0.0
 27
1.0
 37
0.0
 76
0
330
1B
  0
LAYOUT
  5
22
100
AcDbPlotSettings
  1

  2
none_device
  4

  6

 40
0.0
 41
0.0
 42
0.0
 43
0.0
 44
0.0
 45
0.0
 46
0.0
 47
0.0
 48
0.0
 49
0.0
140
0.0
141
0.0
142
1.0
143
1.0
 70
1712
 72
0
 73
0
 74
0
  7

 75
0
147
1.0
148
0.0
149
0.0
100
AcDbLayout
  1
Model
 70
1
 71
0
 10
0.0
 20
0.0
 11
12.0
 21
9.0
 12
0.0
 22
0.0
 32
0.0
 14
0.0
 24
0.0
 34
0.0
 15
0.0
 25
0.0
 35
0.0
146
0.0
 13
0.0
 23
0.0
 33
0.0
 16
1.0
 26
0.0
 36
0.0
 17
0.0
 27
1.0
 37
0.0
 76
0
330
1F
  0
LAYOUT
  5
26
100
AcDbPlotSettings
  1

  2
none_device
  4

  6

 40
0.0
 41
0.0
 42
0.0
 43
0.0
 44
0.0
 45
0.0
 46
0.0
 47
0.0
 48
0.0
 49
0.0
140
0.0
141
0.0
142
1.0
143
1.0
 70
688
 72
0
 73
0
 74
5
  7

 75
16
147
1.0
148
0.0
149
0.0
100
AcDbLayout
  1
Layout2
 70
1
 71
2
 10
0.0
 20
0.0
 11
12.0
 21
9.0
 12
0.0
 22
0.0
 32
0.0
 14
0.0
 24
0.0
 34
0.0
 15
0.0
 25
0.0
 35
0.0
146
0.0
 13
0.0
 23
0.0
 33
0.0
 16
1.0
 26
0.0
 36
0.0
 17
0.0
 27
1.0
 37
0.0
 76
0
330
23
  0
DICTIONARY
  5
2B2
100
AcDbDictionary
281
1
  3
DIMASSOC
350
2B5
  3
HIDETEXT
350
2B4
  0
DICTIONARYVAR
  5
2B4
100
DictionaryVariables
280
0
  1
2
  0
DICTIONARYVAR
  5
2B5
100
DictionaryVariables
280
0
  1
1
  0
DICTIONARY
  5
2B3
100
AcDbDictionary
281
1
  3
ColorSettings/BackgroundColor
350
2B6
  3
ColorSettings/ColorMode
350
2B7
  3
Grid/DisplayGrid00
350
2B8
  3
Grid/DisplayGrid01
350
2B9
  3
Grid/DisplayGrid02
350
2BA
  3
Grid/DisplayGrid03
350
2BB
  3
Grid/GridSpacingX00
350
2BC
  3
Grid/GridSpacingX01
350
2BD
  3
Grid/GridSpacingX02
350
2BE
  3
Grid/GridSpacingX03
350
2BF
  3
Grid/GridSpacingY00
350
2C0
  3
Grid/GridSpacingY01
350
2C1
  3
Grid/GridSpacingY02
350
2C2
  3
Grid/GridSpacingY03
350
2C3
  3
Grid/IsometricGrid00
350
2C4
  3
Grid/IsometricGrid01
350
2C5
  3
Grid/IsometricGrid02
350
2C6
  3
Grid/IsometricGrid03
350
2C7
  3
Grid/IsometricProjection00
350
2C8
  3
Grid/IsometricProjection01
350
2C9
  3
Grid/IsometricProjection02
350
2CA
  3
Grid/IsometricProjection03
350
2CB
  3
Grid/MetaGridSpacingX00
350
2CC
  3
Grid/MetaGridSpacingX01
350
2CD
  3
Grid/MetaGridSpacingX02
350
2CE
  3
Grid/MetaGridSpacingX03
350
2CF
  3
Grid/MetaGridSpacingY00
350
2D0
  3
Grid/MetaGridSpacingY01
350
2D1
  3
Grid/MetaGridSpacingY02
350
2D2
  3
Grid/MetaGridSpacingY03
350
2D3
  3
MultiPageSettings/Columns
350
2D4
  3
MultiPageSettings/GlueMarginsBottom
350
2D5
  3
MultiPageSettings/GlueMarginsLeft
350
2D6
  3
MultiPageSettings/GlueMarginsRight
350
2D7
  3
MultiPageSettings/GlueMarginsTop
350
2D8
  3
MultiPageSettings/PrintCropMarks
350
2D9
  3
MultiPageSettings/Rows
350
2DA
  3
PageSettings/OffsetX
350
2DB
  3
PageSettings/OffsetY
350
2DC
  3
PageSettings/PageOrientation
350
2DD
  3
PageSettings/PaperHeight
350
2DE
  3
PageSettings/PaperWidth
350
2DF
  3
PageSettings/Scale
350
2E0
  3
PageSettings/ShowPaperBorders
350
2E1
  3
PageTagSettings/EnablePageTags
350
2E2
  3
PageTagSettings/TagAlignment
350
2E3
  3
PageTagSettings/TagFont
350
2E4
  3
PageTagSettings/TagPosition
350
2E5
  3
QCADVersion
350
2E6
  3
UnitSettings/PaperUnit
350
2E7
  3
ViewportCenter
350
2E8
  3
ViewportHeight
350
2E9
  3
ViewportWidth
350
2EA
  0
XRECORD
  5
2B6
330
2B3
100
AcDbXrecord
280
1
1000
#ffffff
  0
XRECORD
  5
2B7
330
2B3
100
AcDbXrecord
280
1
1000
FullColor
  0
XRECORD
  5
2B8
330
2B3
100
AcDbXrecord
280
1
290
1
  0
XRECORD
  5
2B9
330
2B3
100
AcDbXrecord
280
1
290
1
  0
XRECORD
  5
2BA
330
2B3
100
AcDbXrecord
280
1
290
1
  0
XRECORD
  5
2BB
330
2B3
100
AcDbXrecord
280
1
290
1
  0
XRECORD
  5
2BC
330
2B3
100
AcDbXrecord
280
1
1000
auto
  0
XRECORD
  5
2BD
330
2B3
100
AcDbXrecord
280
1
1000
auto
  0
XRECORD
  5
2BE
330
2B3
100
AcDbXrecord
280
1
1000
auto
  0
XRECORD
  5
2BF
330
2B3
100
AcDbXrecord
280
1
1000
auto
  0
XRECORD
  5
2C0
330
2B3
100
AcDbXrecord
280
1
1000
auto
  0
XRECORD
  5
2C1
330
2B3
100
AcDbXrecord
280
1
1000
auto
  0
XRECORD
  5
2C2
330
2B3
100
AcDbXrecord
280
1
1000
auto
  0
XRECORD
  5
2C3
330
2B3
100
AcDbXrecord
280
1
1000
auto
  0
XRECORD
  5
2C4
330
2B3
100
AcDbXrecord
280
1
290
0
  0
XRECORD
  5
2C5
330
2B3
100
AcDbXrecord
280
1
290
0
  0
XRECORD
  5
2C6
330
2B3
100
AcDbXrecord
280
1
290
0
  0
XRECORD
  5
2C7
330
2B3
100
AcDbXrecord
280
1
290
0
  0
XRECORD
  5
2C8
330
2B3
100
AcDbXrecord
280
1
 90
65537
  0
XRECORD
  5
2C9
330
2B3
100
AcDbXrecord
280
1
 90
65537
  0
XRECORD
  5
2CA
330
2B3
100
AcDbXrecord
280
1
 90
65537
  0
XRECORD
  5
2CB
330
2B3
100
AcDbXrecord
280
1
 90
65537
  0
XRECORD
  5
2CC
330
2B3
100
AcDbXrecord
280
1
1000
auto
  0
XRECORD
  5
2CD
330
2B3
100
AcDbXrecord
280
1
1000
auto
  0
XRECORD
  5
2CE
330
2B3
100
AcDbXrecord
280
1
1000
auto
  0
XRECORD
  5
2CF
330
2B3
100
AcDbXrecord
280
1
1000
auto
  0
XRECORD
  5
2D0
330
2B3
100
AcDbXrecord
280
1
1000
auto
  0
XRECORD
  5
2D1
330
2B3
100
AcDbXrecord
280
1
1000
auto
  0
XRECORD
  5
2D2
330
2B3
100
AcDbXrecord
280
1
1000
auto
  0
XRECORD
  5
2D3
330
2B3
100
AcDbXrecord
280
1
1000
auto
  0
XRECORD
  5
2D4
330
2B3
100
AcDbXrecord
280
1
 90
1
  0
XRECORD
  5
2D5
330
2B3
100
AcDbXrecord
280
1
 40
10.0
  0
XRECORD
  5
2D6
330
2B3
100
AcDbXrecord
280
1
 40
10.0
  0
XRECORD
  5
2D7
330
2B3
100
AcDbXrecord
280
1
 40
10.0
  0
XRECORD
  5
2D8
330
2B3
100
AcDbXrecord
280
1
 40
10.0
  0
XRECORD
  5
2D9
330
2B3
100
AcDbXrecord
280
1
290
0
  0
XRECORD
  5
2DA
330
2B3
100
AcDbXrecord
280
1
 90
1
  0
XRECORD
  5
2DB
330
2B3
100
AcDbXrecord
280
1
 40
0.0
  0
XRECORD
  5
2DC
330
2B3
100
AcDbXrecord
280
1
 40
0.0
  0
XRECORD
  5
2DD
330
2B3
100
AcDbXrecord
280
1
1000
Portrait
  0
XRECORD
  5
2DE
330
2B3
100
AcDbXrecord
280
1
 40
297.0
  0
XRECORD
  5
2DF
330
2B3
100
AcDbXrecord
280
1
 40
210.0
  0
XRECORD
  5
2E0
330
2B3
100
AcDbXrecord
280
1
1000
1:1
  0
XRECORD
  5
2E1
330
2B3
100
AcDbXrecord
280
1
290
1
  0
XRECORD
  5
2E2
330
2B3
100
AcDbXrecord
280
1
290
0
  0
XRECORD
  5
2E3
330
2B3
100
AcDbXrecord
280
1
1000
Inside
  0
XRECORD
  5
2E4
330
2B3
100
AcDbXrecord
280
1
1000
Arial,10,-1,5,50,0,0,0,0,0
  0
XRECORD
  5
2E5
330
2B3
100
AcDbXrecord
280
1
1000
TopLeft
  0
XRECORD
  5
2E6
330
2B3
100
AcDbXrecord
280
1
1000
3.29.6
  0
XRECORD
  5
2E7
330
2B3
100
AcDbXrecord
280
1
 90
4
  0
XRECORD
  5
2E9
330
2B3
100
AcDbXrecord
280
1
 40
323.8256531729129506
  0
XRECORD
  5
2EA
330
2B3
100
AcDbXrecord
280
1
 40
673.6852446121955609
  0
ENDSEC
  0
EOF
