0
SECTION
2
HEADER
9
$INSUNITS
70
4
9
$ACADVER
1
AC1014
9
$HANDSEED
5
FFFF
0
ENDSEC
0
SECTION
2
TABLES
0
TABLE
2
VPORT
5
8
100
AcDbSymbolTable
0
ENDTAB
0
TABLE
2
LTYPE
5
5
100
AcDbSymbolTable
0
LTYPE
5
14
100
AcDbSymbolTableRecord
100
AcDbLinetypeTableRecord
2
BYBLOCK
70
0
0
LTYPE
5
15
100
AcDbSymbolTableRecord
100
AcDbLinetypeTableRecord
2
BYLAYER
70
0
0
ENDTAB
0
TABLE
2
LAYER
5
2
100
AcDbSymbolTable
70
2
0
LAYER
5
50
100
AcDbSymbolTableRecord
100
AcDbLayerTableRecord
2
0
70
0
6
CONTINUOUS
0
ENDTAB
0
TABLE
2
STYLE
5
3
100
AcDbSymbolTable
70
1
0
STYLE
5
11
100
AcDbSymbolTableRecord
100
AcDbTextStyleTableRecord
2
STANDARD
70
0
0
ENDTAB
0
TABLE
2
VIEW
5
6
100
AcDbSymbolTable
70
0
0
ENDTAB
0
TABLE
2
UCS
5
7
100
AcDbSymbolTable
70
0
0
ENDTAB
0
TABLE
2
APPID
5
9
100
AcDbSymbolTable
70
2
0
APPID
5
12
100
AcDbSymbolTableRecord
100
AcDbRegAppTableRecord
2
ACAD
70
0
0
ENDTAB
0
TABLE
2
DIMSTYLE
5
A
100
AcDbSymbolTable
70
1
0
ENDTAB
0
TABLE
2
BLOCK_RECORD
5
1
100
AcDbSymbolTable
70
1
0
BLOCK_RECORD
5
1F
100
AcDbSymbolTableRecord
100
AcDbBlockTableRecord
2
*MODEL_SPACE
0
BLOCK_RECORD
5
1B
100
AcDbSymbolTableRecord
100
AcDbBlockTableRecord
2
*PAPER_SPACE
0
ENDTAB
0
ENDSEC
0
SECTION
2
BLOCKS
0
BLOCK
5
20
100
AcDbEntity
100
AcDbBlockBegin
2
*MODEL_SPACE
0
ENDBLK
5
21
100
AcDbEntity
100
AcDbBlockEnd
0
BLOCK
5
1C
100
AcDbEntity
100
AcDbBlockBegin
2
*PAPER_SPACE
0
ENDBLK
5
1D
100
AcDbEntity
100
AcDbBlockEnd
0
ENDSEC
0
SECTION
2
ENTITIES
0
SPLINE
5
100
100
AcDbEntity
8
0
100
AcDbSpline
70
0
71
3
72
8
73
4
74
0
42
0.000000001
43
0.0000000001
44
0.0000000001
40
0
40
0
40
0
40
0
40
1
40
1
40
1
40
1
10
545.52880536270641
20
-192.98575940987803
30
0
10
547.05024681397788
20
-194.01724718220069
30
0
10
547.62528949672389
20
-195.28897015027511
30
0
10
547.21703646800631
20
-196.72153736057979
30
0
0
ARC
5
101
100
AcDbEntity
8
0
100
AcDbCircle
10
542.72765365631335
20
-195.32004590967068
30
0
40
4.703056061423931
210
0
220
0
230
1
100
AcDbArc
50
317.67902718972977
51
342.66272772975026
0
ARC
5
102
100
AcDbEntity
8
0
100
AcDbCircle
10
539.52310158843352
20
-192.37097914006631
30
0
40
9.0580389455933865
210
0
220
0
230
1
100
AcDbArc
50
298.01866619293094
51
317.53402508131143
0
ARC
5
103
100
AcDbEntity
8
0
100
AcDbCircle
10
543.38476319447193
20
-199.8643405056076
30
0
40
0.63861341162501684
210
0
220
0
230
1
100
AcDbArc
50
272.41159299581204
51
308.03026432287214
0
ARC
5
104
100
AcDbEntity
8
0
100
AcDbCircle
10
543.38715383914916
20
-200.69785235058367
30
0
40
0.19699110895749025
210
0
220
-0
230
1
100
AcDbArc
50
82.861186355680275
51
148.62113563564881
0
ARC
5
105
100
AcDbEntity
8
0
100
AcDbCircle
10
527.77858008703708
20
-183.90633037073559
30
0
40
22.736024500118496
210
0
220
0
230
1
100
AcDbArc
50
309.68326181015442
51
312.77458889398793
0
SPLINE
5
106
100
AcDbEntity
8
0
100
AcDbSpline
70
0
71
3
72
8
73
4
74
0
42
0.000000001
43
0.0000000001
44
0.0000000001
40
0
40
0
40
0
40
0
40
1
40
1
40
1
40
1
10
542.2965098466434
20
-201.40365946877594
30
0
10
540.60310736475799
20
-202.76996193839804
30
0
10
538.3432617633373
20
-204.04154155954188
30
0
10
535.90429250526631
20
-204.99853245484172
30
0
0
ARC
5
107
100
AcDbEntity
8
0
100
AcDbCircle
10
538.33661970121807
20
-211.4577600094735
30
0
40
6.9020168205156214
210
0
220
0
230
1
100
AcDbArc
50
110.63468117716826
51
113.47437706461584
0
ARC
5
108
100
AcDbEntity
8
0
100
AcDbCircle
10
560.80772771925626
20
-155.9005439722205
30
0
40
55.311045006864092
210
0
220
0
230
1
100
AcDbArc
50
242.87231945404906
51
244.20258795874827
0
ARC
5
109
100
AcDbEntity
8
0
100
AcDbCircle
10
623.39573592328793
20
-21.100676879078396
30
0
40
203.92736828464854
210
0
220
0
230
1
100
AcDbArc
50
244.85252910738262
51
245.64801635208477
0
SPLINE
5
110
100
AcDbEntity
8
0
100
AcDbSpline
70
0
71
3
72
8
73
4
74
0
42
0.000000001
43
0.0000000001
44
0.0000000001
40
0
40
0
40
0
40
0
40
1
40
1
40
1
40
1
10
539.30810211818027
20
-206.8845334882059
30
0
10
540.1802458986183
20
-207.27893614898193
30
0
10
540.20342913642094
20
-207.29056938100143
30
0
10
540.27210866029213
20
-207.36366517843919
30
0
0
ARC
5
111
100
AcDbEntity
8
0
100
AcDbCircle
10
539.88670888070612
20
-207.65530888483582
30
0
40
0.48331050225055483
210
0
220
0
230
1
100
AcDbArc
50
-8.1231523568406274
51
37.115898272500374
0
ARC
5
112
100
AcDbEntity
8
0
100
AcDbCircle
10
539.94866315600621
20
-207.63142370166145
30
0
40
0.4265850269706063
210
0
220
0
230
1
100
AcDbArc
50
286.767928513556
51
347.52095516199574
0
ARC
5
113
100
AcDbEntity
8
0
100
AcDbCircle
10
538.8893221699841
20
-197.36318235389973
30
0
40
10.7419629310413
210
0
220
0
230
1
100
AcDbArc
50
272.37089456936496
51
276.3195716211506
0
ARC
5
114
100
AcDbEntity
8
0
100
AcDbCircle
10
539.45655144592638
20
-213.49001058975134
30
0
40
5.3954595912094483
210
0
220
0
230
1
100
AcDbArc
50
91.304737392566651
51
98.28560227799899
0
ARC
5
115
100
AcDbEntity
8
0
100
AcDbCircle
10
571.08403859145074
20
-180.4550352301541
30
0
40
42.627973109309671
210
0
220
0
230
1
100
AcDbArc
50
220.51976365199334
51
221.33469182776361
0
SPLINE
5
116
100
AcDbEntity
8
0
100
AcDbSpline
70
0
71
3
72
8
73
4
74
0
42
0.000000001
43
0.0000000001
44
0.0000000001
40
0
40
0
40
0
40
0
40
1
40
1
40
1
40
1
10
539.07621226326603
20
-208.6089540542325
30
0
10
539.50956673505016
20
-209.10197431363784
30
0
10
539.52775739770277
20
-209.1283227172552
30
0
10
539.51854078916483
20
-209.29372301818361
30
0
0
ARC
5
117
100
AcDbEntity
8
0
100
AcDbCircle
10
539.10188321251712
20
-209.27543123758824
30
0
40
0.41705889921584427
210
0
220
0
230
1
100
AcDbArc
50
256.2878576892349
51
357.48625883507628
0
ARC
5
118
100
AcDbEntity
8
0
100
AcDbCircle
10
539.59373336267993
20
-208.13264395601536
30
0
40
1.6568400050938523
210
0
220
0
230
1
100
AcDbArc
50
231.28074854717954
51
249.1128189361834
0
ARC
5
119
100
AcDbEntity
8
0
100
AcDbCircle
10
507.32227034000539
20
-257.44727396917682
30
0
40
57.286449667426979
210
0
220
-0
230
1
100
AcDbArc
50
56.958650417122158
51
63.545575965922765
0
LINE
5
120
100
AcDbEntity
8
0
100
AcDbLine
10
532.61882729736431
20
-206.05306067698342
30
0
11
532.49848640666448
21
-206.07861721390373
31
0
0
LINE
5
121
100
AcDbEntity
8
0
100
AcDbLine
10
532.84256996368026
20
-206.1593453444363
30
0
11
532.61882729736431
21
-206.05306067698342
31
0
0
ARC
5
122
100
AcDbEntity
8
0
100
AcDbCircle
10
533.85061049238038
20
-213.34774854734542
30
0
40
7.393815651339751
210
0
220
0
230
1
100
AcDbArc
50
100.53710815499207
51
106.31204399500838
0
ARC
5
123
100
AcDbEntity
8
0
100
AcDbCircle
10
545.15121841870859
20
-190.86046165122721
30
0
40
20.392107428022147
210
0
220
0
230
1
100
AcDbArc
50
229.00420171056206
51
230.39269056908648
0
ARC
5
124
100
AcDbEntity
8
0
100
AcDbCircle
10
599.26546633929649
20
-126.37765357668862
30
0
40
104.57237997073777
210
0
220
0
230
1
100
AcDbArc
50
230.0737438959012
51
232.18579128330205
0
ARC
5
125
100
AcDbEntity
8
0
100
AcDbCircle
10
528.58958953803483
20
-217.81437408670089
30
0
40
10.996815962641772
210
0
220
-0
230
1
100
AcDbArc
50
48.205011600276805
51
53.363236747074446
0
ARC
5
126
100
AcDbEntity
8
0
100
AcDbCircle
10
535.57070050838036
20
-209.85472986603952
30
0
40
0.4220105644862916
210
0
220
0
230
1
100
AcDbArc
50
-73.360811366082046
51
34.471970371618347
0
SPLINE
5
127
100
AcDbEntity
8
0
100
AcDbSpline
70
0
71
3
72
8
73
4
74
0
42
0.000000001
43
0.0000000001
44
0.0000000001
40
0
40
0
40
0
40
0
40
1
40
1
40
1
40
1
10
535.69154060232006
20
-210.25906956015166
30
0
10
535.5984138203313
20
-210.28624376699042
30
0
10
535.51170696395445
20
-210.27492278093291
30
0
10
534.81757457869014
20
-210.14517700605651
30
0
0
SPLINE
5
128
100
AcDbEntity
8
0
100
AcDbSpline
70
0
71
3
72
8
73
4
74
0
42
0.000000001
43
0.0000000001
44
0.0000000001
40
0
40
0
40
0
40
0
40
1
40
1
40
1
40
1
10
534.81757457869014
20
-210.14517700605651
30
0
10
534.35918123143642
20
-210.05825146224041
30
0
10
534.21296871483105
20
-210.03717896970352
30
0
10
534.2187501740043
20
-210.05461129978485
30
0
0
ARC
5
129
100
AcDbEntity
8
0
100
AcDbCircle
10
552.57749691854485
20
-200.92601427010109
30
0
40
20.503045280166035
210
0
220
0
230
1
100
AcDbArc
50
206.43813674061289
51
208.04363569684199
0
ARC
5
130
100
AcDbEntity
8
0
100
AcDbCircle
10
529.66827225245038
20
-213.23737379756693
30
0
40
5.5053367923297847
210
0
220
-0
230
1
100
AcDbArc
50
22.309008466660313
51
29.034969261512316
0
ARC
5
131
100
AcDbEntity
8
0
100
AcDbCircle
10
534.37898630111863
20
-211.25485188754362
30
0
40
0.39731528625242624
210
0
220
0
230
1
100
AcDbArc
50
-74.433549428160688
51
15.669920003368487
0
ARC
5
132
100
AcDbEntity
8
0
100
AcDbCircle
10
534.35377727984144
20
-211.24177806739951
30
0
40
0.41719217900576316
210
0
220
0
230
1
100
AcDbArc
50
241.41616006969937
51
288.42092605350643
0
ARC
5
133
100
AcDbEntity
8
0
100
AcDbCircle
10
536.6229203566495
20
-208.72448193102699
30
0
40
3.7960621954239846
210
0
220
0
230
1
100
AcDbArc
50
221.90121039427538
51
229.43245726400704
0
ARC
5
134
100
AcDbEntity
8
0
100
AcDbCircle
10
491.58338241985717
20
-250.99922833424185
30
0
40
57.976422379163267
210
0
220
-0
230
1
100
AcDbArc
50
43.270483581029296
51
49.715930645213007
0
LINE
5
135
100
AcDbEntity
8
0
100
AcDbLine
10
528.8366558013181
20
-206.5812105377411
30
0
11
528.57620544956842
21
-206.57512377982059
31
0
0
LINE
5
136
100
AcDbEntity
8
0
100
AcDbLine
10
529.06964428637036
20
-206.7720226440523
30
0
11
528.8366558013181
21
-206.5812105377411
31
0
0
ARC
5
137
100
AcDbEntity
8
0
100
AcDbCircle
10
528.54072655648099
20
-201.11500660509606
30
0
40
5.4602324413506365
210
0
220
0
230
1
100
AcDbArc
50
249.74655627821085
51
270.37229278457863
0
SPLINE
5
138
100
AcDbEntity
8
0
100
AcDbSpline
70
0
71
3
72
8
73
4
74
0
42
0.000000001
43
0.0000000001
44
0.0000000001
40
0
40
0
40
0
40
0
40
1
40
1
40
1
40
1
10
526.65053907755055
20
-206.23763577458234
30
0
10
525.76164934450912
20
-205.85996128786991
30
0
10
525.06282585795282
20
-204.92151907210791
30
0
10
524.69084173431861
20
-203.59985447385122
30
0
0
SPLINE
5
139
100
AcDbEntity
8
0
100
AcDbSpline
70
0
71
3
72
8
73
4
74
0
42
0.000000001
43
0.0000000001
44
0.0000000001
40
0
40
0
40
0
40
0
40
1
40
1
40
1
40
1
10
524.69084173431861
20
-203.59985447385122
30
0
10
524.38173505381894
20
-202.50456294943518
30
0
10
524.27170723453798
20
-201.19865338934284
30
0
10
524.35364176419512
20
-199.60583417663821
30
0
0
ARC
5
140
100
AcDbEntity
8
0
100
AcDbCircle
10
548.75634970208819
20
-200.92254661755072
30
0
40
24.438205465094363
210
0
220
0
230
1
100
AcDbArc
50
169.37925033395629
51
176.91145020291799
0
LINE
5
141
100
AcDbEntity
8
0
100
AcDbLine
10
524.73680327973443
20
-196.41840674199642
30
0
11
524.77393342667528
21
-196.23217544100243
31
0
0
LINE
5
142
100
AcDbEntity
8
0
100
AcDbLine
10
524.77393342667528
20
-196.23217544100243
30
0
11
525.21856515775494
21
-196.18446902544832
31
0
0
ARC
5
143
100
AcDbEntity
8
0
100
AcDbCircle
10
531.51133512342699
20
-255.8346202425812
30
0
40
59.981159492524768
210
0
220
-0
230
1
100
AcDbArc
50
88.399471754189364
51
96.022122041712151
0
SPLINE
5
144
100
AcDbEntity
8
0
100
AcDbSpline
70
0
71
3
72
8
73
4
74
0
42
0.000000001
43
0.0000000001
44
0.0000000001
40
0
40
0
40
0
40
0
40
1
40
1
40
1
40
1
10
533.18666017733563
20
-195.87686194533146
30
0
10
537.41529179566305
20
-195.99887880256284
30
0
10
541.14788203860815
20
-196.59299674683484
30
0
10
544.19913740501534
20
-197.62963353646185
30
0
0
ARC
5
145
100
AcDbEntity
8
0
100
AcDbCircle
10
540.58688639564878
20
-208.83381173189144
30
0
40
11.772084199053596
210
0
220
-0
230
1
100
AcDbArc
50
66.931622963710566
51
72.130567604170523
0
ARC
5
146
100
AcDbEntity
8
0
100
AcDbCircle
10
545.22116934717928
20
-197.3806200257404
30
0
40
0.62280397987311986
210
0
220
0
230
1
100
AcDbArc
50
268.00930652640221
51
313.53934527893648
0
SPLINE
5
147
100
AcDbEntity
8
0
100
AcDbSpline
70
0
71
3
72
8
73
4
74
0
42
0.000000001
43
0.0000000001
44
0.0000000001
40
0
40
0
40
0
40
0
40
1
40
1
40
1
40
1
10
545.65018944522831
20
-197.83209156727503
30
0
10
546.1621619618337
20
-197.21964915643571
30
0
10
546.46543686857183
20
-196.5694077204158
30
0
10
546.49912612053618
20
-196.00813622434447
30
0
0
SPLINE
5
148
100
AcDbEntity
8
0
100
AcDbSpline
70
0
71
3
72
8
73
4
74
0
42
0.000000001
43
0.0000000001
44
0.0000000001
40
0
40
0
40
0
40
0
40
1
40
1
40
1
40
1
10
546.49912612053618
20
-196.00813622434447
30
0
10
546.54655254222189
20
-195.2066773634746
30
0
10
546.16171667408616
20
-194.51990652854946
30
0
10
545.2880092397678
20
-193.8447905290727
30
0
0
ARC
5
149
100
AcDbEntity
8
0
100
AcDbCircle
10
539.83591635522555
20
-201.81743241268521
30
0
40
9.6585886870705835
210
0
220
-0
230
1
100
AcDbArc
50
55.633719054738251
51
64.366280945264322
0
ARC
5
150
100
AcDbEntity
8
0
100
AcDbCircle
10
538.79527233792089
20
-205.00746059889241
30
0
40
12.992362902265542
210
0
220
-0
230
1
100
AcDbArc
50
66.315138176463165
51
71.247012976848382
0
SPLINE
5
151
100
AcDbEntity
8
0
100
AcDbSpline
70
0
71
3
72
8
73
4
74
0
42
0.000000001
43
0.0000000001
44
0.0000000001
40
0
40
0
40
0
40
0
40
1
40
1
40
1
40
1
10
542.97217190635229
20
-192.70481845261318
30
0
10
539.87102624329384
20
-191.65701585825832
30
0
10
534.99208109420215
20
-191.24398452160446
30
0
10
528.42830333341089
20
-191.47544553733016
30
0
0
ARC
5
152
100
AcDbEntity
8
0
100
AcDbCircle
10
527.91362611703335
20
-180.20392244083521
30
0
40
11.283267503337749
210
0
220
0
230
1
100
AcDbArc
50
269.01837960499961
51
272.61440827341039
0
ARC
5
153
100
AcDbEntity
8
0
100
AcDbCircle
10
527.81421321694449
20
-191.06113219187944
30
0
40
0.43466301994422002
210
0
220
0
230
1
100
AcDbArc
50
197.10997651555027
51
257.52564971762735
0
ARC
5
154
100
AcDbEntity
8
0
100
AcDbCircle
10
527.80622205968461
20
-191.07924145528659
30
0
40
0.42196282788627743
210
0
220
0
230
1
100
AcDbArc
50
100.6895307849241
51
195.07866745218658
0
ARC
5
155
100
AcDbEntity
8
0
100
AcDbCircle
10
531.10546960384977
20
-255.92365643330362
30
0
40
65.346399458548788
210
0
220
0
230
1
100
AcDbArc
50
90.500619451261471
51
92.962729259380325
0
ARC
5
156
100
AcDbEntity
8
0
100
AcDbCircle
10
531.846724475359
20
-249.93577309240402
30
0
40
59.370524769583085
210
0
220
-0
230
1
100
AcDbArc
50
83.292238529076073
51
91.266456056170682
0
SPLINE
5
157
100
AcDbEntity
8
0
100
AcDbSpline
70
0
71
3
72
8
73
4
74
0
42
0.000000001
43
0.0000000001
44
0.0000000001
40
0
40
0
40
0
40
0
40
1
40
1
40
1
40
1
10
538.78151489601828
20
-190.97164931160648
30
0
10
541.15549172219016
20
-191.27940083268601
30
0
10
543.0285654349384
20
-191.75370199588417
30
0
10
544.4715580564548
20
-192.40904546047062
30
0
0
ARC
5
158
100
AcDbEntity
8
0
100
AcDbCircle
10
538.1541022562327
20
-205.24169319040294
30
0
40
14.303394546340888
210
0
220
-0
230
1
100
AcDbArc
50
58.96360328183836
51
63.789180428402517
0
LINE
5
159
100
AcDbEntity
8
0
100
AcDbLine
10
545.52868189048422
20
-192.98597327004012
30
0
11
545.52880536270641
21
-192.98575940987803
31
0
0
ARC
5
160
100
AcDbEntity
8
0
100
AcDbCircle
10
495.84159453373223
20
-191.59613964765609
30
0
40
28.457911666592008
210
0
220
0
230
1
100
AcDbArc
50
349.87371922946136
51
350.42609458498885
0
SPLINE
5
161
100
AcDbEntity
8
0
100
AcDbSpline
70
0
71
3
72
8
73
4
74
0
42
0.000000001
43
0.0000000001
44
0.0000000001
40
0
40
0
40
0
40
0
40
1
40
1
40
1
40
1
10
523.85620701288849
20
-196.59956088379602
30
0
10
523.57328559411098
20
-198.1956946001122
30
0
10
523.10088849461783
20
-201.85814593333819
30
0
10
524.11693213941862
20
-204.48425171783595
30
0
0
ARC
5
162
100
AcDbEntity
8
0
100
AcDbCircle
10
531.79980864839138
20
-201.3377437026908
30
0
40
8.3022348883598767
210
0
220
0
230
1
100
AcDbArc
50
202.27146320400229
51
208.53523120881397
0
ARC
5
163
100
AcDbEntity
8
0
100
AcDbCircle
10
524.33396558424784
20
-205.42552735192885
30
0
40
0.21087633741888584
210
0
220
-0
230
1
100
AcDbArc
50
12.612832917509516
51
35.285815063321046
0
ARC
5
164
100
AcDbEntity
8
0
100
AcDbCircle
10
531.37415997726066
20
122.16777196421232
30
0
40
327.61854556042289
210
0
220
0
230
1
100
AcDbArc
50
268.50732929578072
51
268.80467364946782
0
LINE
5
165
100
AcDbEntity
8
0
100
AcDbLine
10
521.14779693915227
20
-205.29878473923841
30
0
11
521.09032654437283
21
-205.20930804959403
31
0
0
LINE
5
166
100
AcDbEntity
8
0
100
AcDbLine
10
522.8400010310794
20
-205.33960127524347
30
0
11
521.14779693915227
21
-205.29878473923841
31
0
0
SPLINE
5
167
100
AcDbEntity
8
0
100
AcDbSpline
70
0
71
3
72
8
73
4
74
0
42
0.000000001
43
0.0000000001
44
0.0000000001
40
0
40
0
40
0
40
0
40
1
40
1
40
1
40
1
10
521.09032654437283
20
-205.20930804959403
30
0
10
520.79183141026454
20
-204.74481845434812
30
0
10
520.27699203636746
20
-203.41461085211932
30
0
10
519.89525654590443
20
-202.11900833887557
30
0
0
SPLINE
5
168
100
AcDbEntity
8
0
100
AcDbSpline
70
0
71
3
72
8
73
4
74
0
42
0.000000001
43
0.0000000001
44
0.0000000001
40
0
40
0
40
0
40
0
40
1
40
1
40
1
40
1
10
519.89525654590443
20
-202.11900833887557
30
0
10
518.32801311803996
20
-196.7904319170988
30
0
10
518.98764057338133
20
-196.65637420593569
30
0
10
522.85888683123278
20
-196.34577010983713
30
0
0
ARC
5
169
100
AcDbEntity
8
0
100
AcDbCircle
10
524.41892771931896
20
-215.34250397859461
30
0
40
19.060682706894166
210
0
220
0
230
1
100
AcDbArc
50
91.602868902336553
51
94.694682540854572
0
ARC
5
170
100
AcDbEntity
8
0
100
AcDbCircle
10
523.87709457689562
20
-196.31681024299965
30
0
40
0.028864822330888357
210
0
220
0
230
1
100
AcDbArc
50
-25.529213279985967
51
72.512910204471737
0
ARC
5
171
100
AcDbEntity
8
0
100
AcDbCircle
10
526.97928889088757
20
-197.81242155271912
30
0
40
8.7219732730810478
210
0
220
0
230
1
100
AcDbArc
50
180.64794849200413
51
186.51490997124623
0
SPLINE
5
172
100
AcDbEntity
8
0
100
AcDbSpline
70
0
71
3
72
8
73
4
74
0
42
0.000000001
43
0.0000000001
44
0.0000000001
40
0
40
0
40
0
40
0
40
1
40
1
40
1
40
1
10
518.31363895182051
20
-198.80203203664058
30
0
10
518.67902648596237
20
-201.14625392972118
30
0
10
519.28206337218637
20
-203.53175118172106
30
0
10
520.39106327973172
20
-205.64322755181843
30
0
0
ARC
5
173
100
AcDbEntity
8
0
100
AcDbCircle
10
477.78249230037261
20
-152.80031126674899
30
0
40
67.881250153587715
210
0
220
0
230
1
100
AcDbArc
50
307.82691408658991
51
308.88010480978284
0
ARC
5
174
100
AcDbEntity
8
0
100
AcDbCircle
10
1564.8762503945873
20
2742.751115039192
30
0
40
3128.991792979351
210
0
220
0
230
1
100
AcDbArc
50
250.36626509268038
51
250.4808696823722
0
SPLINE
5
175
100
AcDbEntity
8
0
100
AcDbSpline
70
0
71
3
72
8
73
4
74
0
42
0.000000001
43
0.0000000001
44
0.0000000001
40
0
40
0
40
0
40
0
40
1
40
1
40
1
40
1
10
513.5156674548341
20
-204.32040855379935
30
0
10
513.42410475395559
20
-204.26754480379941
30
0
10
514.50012433654763
20
-200.24997477236633
30
0
10
517.69584202775923
20
-198.12858936454134
30
0
0
ARC
5
176
100
AcDbEntity
8
0
100
AcDbCircle
10
519.97925869753522
20
-201.36213327599845
30
0
40
3.9585095572871221
210
0
220
0
230
1
100
AcDbArc
50
115.84390684773871
51
125.22841372036144
0
ARC
5
177
100
AcDbEntity
8
0
100
AcDbCircle
10
517.82345366137872
20
-197.87162126918543
30
0
40
0.43620575241146764
210
0
220
0
230
1
100
AcDbArc
50
-5.1866896345263536
51
9.5123094280586766
0
SPLINE
5
178
100
AcDbEntity
8
0
100
AcDbSpline
70
0
71
3
72
8
73
4
74
0
42
0.000000001
43
0.0000000001
44
0.0000000001
40
0
40
0
40
0
40
0
40
1
40
1
40
1
40
1
10
528.02690096041204
20
-209.43761484164264
30
0
10
527.99671723582946
20
-210.74070347507006
30
0
10
526.16956510143586
20
-211.54230658277569
30
0
10
525.20381600889925
20
-212.09623363396821
30
0
0
ARC
5
179
100
AcDbEntity
8
0
100
AcDbCircle
10
525.53117441200982
20
-212.40260101413992
30
0
40
0.44835755343284267
210
0
220
0
230
1
100
AcDbArc
50
136.8971256942954
51
196.76097950347233
0
SPLINE
5
180
100
AcDbEntity
8
0
100
AcDbSpline
70
0
71
3
72
8
73
4
74
0
42
0.000000001
43
0.0000000001
44
0.0000000001
40
0
40
0
40
0
40
0
40
1
40
1
40
1
40
1
10
525.10186482859444
20
-212.53189825814772
30
0
10
525.56262990266782
20
-213.78135196172181
30
0
10
527.44689894134672
20
-215.64666780715697
30
0
10
526.92059251500302
20
-217.09617283348919
30
0
0
SPLINE
5
181
100
AcDbEntity
8
0
100
AcDbSpline
70
0
71
3
72
8
73
4
74
0
42
0.000000001
43
0.0000000001
44
0.0000000001
40
0
40
0
40
0
40
0
40
1
40
1
40
1
40
1
10
526.92059251500302
20
-217.09617283348919
30
0
10
526.82384392378731
20
-217.3422040868131
30
0
10
526.1127963361206
20
-217.09718796858482
30
0
10
525.94210026083613
20
-217.02926946585251
30
0
0
SPLINE
5
182
100
AcDbEntity
8
0
100
AcDbSpline
70
0
71
3
72
8
73
4
74
0
42
0.000000001
43
0.0000000001
44
0.0000000001
40
0
40
0
40
0
40
0
40
1
40
1
40
1
40
1
10
525.94210026083613
20
-217.02926946585251
30
0
10
525.05128904003323
20
-216.67333809356879
30
0
10
523.79998536141306
20
-215.75907519619233
30
0
10
522.36746670083687
20
-214.41813474354501
30
0
0
ARC
5
183
100
AcDbEntity
8
0
100
AcDbCircle
10
533.95459095974854
20
-201.86887703743287
30
0
40
17.080553783934292
210
0
220
0
230
1
100
AcDbArc
50
223.72852206343526
51
227.28273711759098
0
SPLINE
5
184
100
AcDbEntity
8
0
100
AcDbSpline
70
0
71
3
72
8
73
4
74
0
42
0.000000001
43
0.0000000001
44
0.0000000001
40
0
40
0
40
0
40
0
40
1
40
1
40
1
40
1
10
521.61178768170271
20
-213.67567697667693
30
0
10
521.59051591562718
20
-213.62587853406464
30
0
10
521.88370966289062
20
-213.49538317845369
30
0
10
522.2431534989322
20
-212.82595930307343
30
0
0
ARC
5
185
100
AcDbEntity
8
0
100
AcDbCircle
10
517.30070462607637
20
-210.29650670481871
30
0
40
5.5521105273230624
210
0
220
0
230
1
100
AcDbArc
50
332.89748532744522
51
355.23471747061751
0
LINE
5
186
100
AcDbEntity
8
0
100
AcDbLine
10
522.83362361475827
20
-210.75774283988935
30
0
11
522.85966940213621
21
-210.51761465727222
31
0
0
ARC
5
187
100
AcDbEntity
8
0
100
AcDbCircle
10
532.56548997768402
20
-235.72161629564653
30
0
40
27.008233034241634
210
0
220
0
230
1
100
AcDbArc
50
104.85007382900726
51
111.06121933849532
0
SPLINE
5
188
100
AcDbEntity
8
0
100
AcDbSpline
70
0
71
3
72
8
73
4
74
0
42
0.000000001
43
0.0000000001
44
0.0000000001
40
0
40
0
40
0
40
0
40
1
40
1
40
1
40
1
10
525.64353322457873
20
-209.61546440878203
30
0
10
525.91957499676641
20
-209.59877936767492
30
0
10
527.86127218227534
20
-208.92742618946019
30
0
10
528.02690096041204
20
-209.43761484164284
30
0
0
ARC
5
189
100
AcDbEntity
8
0
100
AcDbCircle
10
193.66617759137981
20
217.73363518887311
30
0
40
536.55113572383902
210
0
220
0
230
1
100
AcDbArc
50
306.89329183348832
51
307.36647008243597
0
ARC
5
190
100
AcDbEntity
8
0
100
AcDbCircle
10
517.39188841801047
20
-209.19316223079392
30
0
40
2.718015023594496
210
0
220
0
230
1
100
AcDbArc
50
224.27502555891436
51
233.41977994790372
0
SPLINE
5
191
100
AcDbEntity
8
0
100
AcDbSpline
70
0
71
3
72
8
73
4
74
0
42
0.000000001
43
0.0000000001
44
0.0000000001
40
0
40
0
40
0
40
0
40
1
40
1
40
1
40
1
10
515.44579755611539
20
-211.09061737538462
30
0
10
514.29383927554773
20
-209.92102764552743
30
0
10
513.70627113930573
20
-207.99825217707382
30
0
10
513.54249806539747
20
-207.08113046199489
30
0
0
SPLINE
5
192
100
AcDbEntity
8
0
100
AcDbSpline
70
0
71
3
72
8
73
4
74
0
42
0.000000001
43
0.0000000001
44
0.0000000001
40
0
40
0
40
0
40
0
40
1
40
1
40
1
40
1
10
513.54249806539747
20
-207.08113046199489
30
0
10
513.49198149272092
20
-206.54138884360572
30
0
10
513.30500088201688
20
-205.71046598359783
30
0
10
513.42019756579202
20
-205.17156725221369
30
0
0
ARC
5
193
100
AcDbEntity
8
0
100
AcDbCircle
10
-143.2051247345515
20
-2058.9079259285736
30
0
40
1966.5948493181602
210
0
220
-0
230
1
100
AcDbArc
50
70.319233626311146
51
70.494978341718266
0
ARC
5
194
100
AcDbEntity
8
0
100
AcDbCircle
10
496.32655420885612
20
-211.01131099559552
30
0
40
23.09416673606848
210
0
220
-0
230
1
100
AcDbArc
50
5.7412236515517243
51
9.5133498140145463
0
SPLINE
5
195
100
AcDbEntity
8
0
100
AcDbSpline
70
0
71
3
72
8
73
4
74
0
42
0.000000001
43
0.0000000001
44
0.0000000001
40
0
40
0
40
0
40
0
40
1
40
1
40
1
40
1
10
520.46426401440613
20
-213.31932016021159
30
0
10
519.61377936037479
20
-213.49700279205109
30
0
10
518.28356547048588
20
-213.06690250093942
30
0
10
516.88634402198431
20
-212.16167770583596
30
0
0
SPLINE
5
196
100
AcDbEntity
8
0
100
AcDbSpline
70
0
71
3
72
8
73
4
74
0
42
0.000000001
43
0.0000000001
44
0.0000000001
40
0
40
0
40
0
40
0
40
1
40
1
40
1
40
1
10
516.88634402198431
20
-212.16167770583596
30
0
10
516.84398175600552
20
-212.1235735250572
30
0
10
516.46367809648109
20
-211.92347656343543
30
0
10
516.50938624412129
20
-211.86660328495833
30
0
0
ARC
5
197
100
AcDbEntity
8
0
100
AcDbCircle
10
858.81420797895521
20
-661.53606069054501
30
0
40
565.13291525653619
210
0
220
0
230
1
100
AcDbArc
50
126.86013106131441
51
127.27971627666629
0
ARC
5
198
100
AcDbEntity
8
0
100
AcDbCircle
10
372.1697136104342
20
-506.39982416274313
30
0
40
331.69816430360515
210
0
220
-0
230
1
100
AcDbArc
50
63.142496711370562
51
63.569691567220666
0
SPLINE
5
199
100
AcDbEntity
8
0
100
AcDbSpline
70
0
71
3
72
8
73
4
74
0
42
0.000000001
43
0.0000000001
44
0.0000000001
40
0
40
0
40
0
40
0
40
1
40
1
40
1
40
1
10
522.02203216867838
20
-210.48099268171032
30
0
10
522.01089405885398
20
-211.54471834271533
30
0
10
521.57879459186336
20
-212.97406824013305
30
0
10
520.46426401440613
20
-213.31932016021159
30
0
0
LWPOLYLINE
5
200
100
AcDbEntity
8
0
100
AcDbPolyline
90
20
70
1
43
0.0
10
217.99378805948436
20
62.171397940449467
10
215.49378805948422
20
62.171397940449467
10
114.09983255337121
20
67.491380046543284
10
88.898260800783106
20
68.813667061582606
10
84.877341270228385
20
-7.916848848806346
10
84.851173292106893
20
-8.4161636161836348
10
116.14416603219621
20
-10.056161005550662
10
132.91019344082042
20
-10.934831876329161
10
132.68715603760563
20
-15.191516826927803
10
189.75885603760571
20
-18.182516826927799
10
201.36784017083664
20
-4.5137168269278121
10
230.2745428296962
20
-4.5137168269278121
10
241.28105603760574
20
-18.182516826927799
10
298.35275603760567
20
-15.191516826927803
10
298.10355603760564
20
-10.435516826927802
10
306.58098070480099
20
-9.9917641075861869
10
346.16257080498303
20
-7.9168488488063327
10
342.17457080498298
20
68.186251151193673
10
342.14840282686163
20
68.685565918570973
10
316.94683075260463
20
67.363285034271669
0
LINE
5
201
100
AcDbEntity
8
0
100
AcDbLine
10
298.10355603760564
20
-10.435516826927802
30
0
11
298.35275603760567
21
-15.191516826927803
31
0
0
LINE
5
202
100
AcDbEntity
8
0
100
AcDbLine
10
132.68715603760563
20
-15.191516826927803
30
0
11
132.91019344082042
21
-10.934831876329161
31
0
0
LINE
5
203
100
AcDbEntity
8
0
100
AcDbLine
10
298.35275603760567
20
-15.191516826927803
30
0
11
241.28105603760574
21
-18.182516826927799
31
0
0
LINE
5
204
100
AcDbEntity
8
0
100
AcDbLine
10
189.75885603760571
20
-18.182516826927799
30
0
11
132.68715603760563
21
-15.191516826927803
31
0
0
LWPOLYLINE
5
205
100
AcDbEntity
8
0
100
AcDbPolyline
90
12
70
1
43
0.0
10
527.26238408745712
20
25.078163210426698
10
528.25938408745719
20
44.102063210426685
10
533.01538408745705
20
43.85286321042669
10
534.01238408745712
20
62.876763210426674
10
410.35708408745711
20
69.364763210426688
10
406.36908408745711
20
-6.7383367895733137
10
444.41688408745711
20
-8.7323367895733099
10
445.41388408745718
20
10.2915632104267
10
521.50948408745717
20
6.3035632104267023
10
522.50648408745724
20
25.327463210426696
10
527.26238408745712
20
25.078163210426698
10
528.25938408745719
20
44.102063210426685
0
LWPOLYLINE
5
206
100
AcDbEntity
8
0
100
AcDbPolyline
90
4
70
1
43
0.0
10
521.50948408745717
20
6.3035632104267023
10
522.50648408745724
20
25.327463210426696
10
527.26238408745712
20
25.078163210426698
10
522.50648408745724
20
25.327463210426696
0
LWPOLYLINE
5
207
100
AcDbEntity
8
0
100
AcDbPolyline
90
2
70
1
43
0.0
10
445.41388408745718
20
10.2915632104267
10
521.50948408745717
20
6.3035632104267023
0
LWPOLYLINE
5
208
100
AcDbEntity
8
0
100
AcDbPolyline
90
4
70
1
43
0.0
10
561.27648408745711
20
2.0460632104266949
10
618.3481840874573
20
5.0370632104266955
10
619.34518408745691
20
-13.986836789573289
10
562.27348408745718
20
-16.977836789573299
0
LWPOLYLINE
5
209
100
AcDbEntity
8
0
100
AcDbPolyline
90
16
70
1
43
0.0
10
544.76538408745694
20
44.102063210426685
10
540.00938408745708
20
43.85286321042669
10
539.01238408745712
20
62.876763210426674
10
662.66768408745725
20
69.364763210426688
10
666.65568408745708
20
-6.7383367895733093
10
628.5981840874573
20
-8.7323367895733099
10
627.61088408745741
20
10.2915632104267
10
551.51528408745708
20
6.3035632104267023
10
550.51828408745712
20
25.327463210426696
10
545.76238408745712
20
25.078163210426698
10
544.76538408745694
20
44.102063210426685
10
545.76238408745712
20
25.078163210426698
10
550.51828408745712
20
25.327463210426696
10
551.51528408745708
20
6.3035632104267023
10
550.51828408745712
20
25.327463210426696
10
545.76238408745712
20
25.078163210426698
0
LINE
5
210
100
AcDbEntity
8
0
100
AcDbLine
10
627.61088408745741
20
10.2915632104267
30
0
11
551.51528408745708
21
6.3035632104267023
31
0
0
LWPOLYLINE
5
211
100
AcDbEntity
8
0
100
AcDbPolyline
90
5
70
1
43
0.0
10
454.67658408745712
20
5.0370632104266955
10
511.74828408745719
20
2.0460632104266949
10
510.75128408745712
20
-16.977836789573299
10
453.67958408745716
20
-13.986836789573289
10
453.92878408745719
20
-9.2308367895732868
0
LWPOLYLINE
5
212
100
AcDbEntity
8
0
100
AcDbPolyline
90
2
70
1
43
0.0
10
619.09598408745694
20
-9.2308367895732868
10
619.34518408745691
20
-13.986836789573289
0
LWPOLYLINE
5
213
100
AcDbEntity
8
0
100
AcDbPolyline
90
2
70
1
43
0.0
10
453.67958408745716
20
-13.986836789573289
10
453.92878408745719
20
-9.2308367895732868
0
LWPOLYLINE
5
214
100
AcDbEntity
8
0
100
AcDbPolyline
90
4
70
1
43
0.0
10
666.65568408745708
20
-6.7383367895733093
10
662.66768408745725
20
69.364763210426688
10
539.01238408745712
20
62.876763210426674
10
662.66768408745725
20
69.364763210426688
0
LWPOLYLINE
5
215
100
AcDbEntity
8
0
100
AcDbPolyline
90
2
70
1
43
0.0
10
410.35708408745711
20
69.364763210426688
10
534.01238408745712
20
62.876763210426674
0
LWPOLYLINE
5
216
100
AcDbEntity
8
0
100
AcDbPolyline
90
2
70
1
43
0.0
10
510.75128408745712
20
-16.977836789573299
10
453.67958408745716
20
-13.986836789573289
0
LWPOLYLINE
5
217
100
AcDbEntity
8
0
100
AcDbPolyline
90
2
70
1
43
0.0
10
410.35708408745711
20
69.364763210426688
10
406.36908408745711
20
-6.7383367895733137
0
LWPOLYLINE
5
218
100
AcDbEntity
8
0
100
AcDbPolyline
90
2
70
1
43
0.0
10
619.34518408745691
20
-13.986836789573289
10
562.27348408745718
20
-16.977836789573299
0
ARC
5
219
100
AcDbEntity
8
0
100
AcDbCircle
10
89.364656037605656
20
68.160083173072209
30
0
40
11.50000000000002
210
0
220
-0
230
1
100
AcDbArc
50
87.000000000000014
51
176.99999999999994
0
ARC
5
220
100
AcDbEntity
8
0
100
AcDbCircle
10
341.67525603760561
20
68.160083173072209
30
0
40
11.50000000000002
210
0
220
-0
230
1
100
AcDbArc
50
3.0000000000000449
51
92.999999999999915
0
LINE
5
221
100
AcDbEntity
8
0
100
AcDbLine
10
77.880416387928037
20
68.761946669866091
30
0
11
73.892416387928051
21
-7.341153330133956
31
0
0
ARC
5
222
100
AcDbEntity
8
0
100
AcDbCircle
10
85.376656037605642
20
-7.943016826927809
30
0
40
11.499999999999984
210
0
220
0
230
1
100
AcDbArc
50
177.00000000000009
51
266.99999999999989
0
LINE
5
223
100
AcDbEntity
8
0
100
AcDbLine
10
353.1594956872832
20
68.761946669866077
30
0
11
357.14749568728308
21
-7.3411533301339471
31
0
0
ARC
5
224
100
AcDbEntity
8
0
100
AcDbCircle
10
345.66325603760555
20
-7.9430168269277903
30
0
40
11.500000000000011
210
0
220
0
230
1
100
AcDbArc
50
-87.000000000000085
51
2.9999999999998015
0
LWPOLYLINE
5
225
100
AcDbEntity
8
0
100
AcDbPolyline
90
12
70
1
43
0.0
10
347.79537387045929
20
-13.554306477882543
10
350.9708003510022
20
-13.554306477882543
10
352.55851359127371
20
-10.804306477882541
10
350.9708003510022
20
-8.0543064778826512
10
347.79537387045929
20
-8.0543064778826512
10
346.20766063018772
20
-10.804306477882541
10
347.79537387045929
20
-13.554306477882543
10
350.9708003510022
20
-13.554306477882543
10
352.55851359127371
20
-10.804306477882541
10
350.9708003510022
20
-8.0543064778826512
10
347.79537387045929
20
-8.0543064778826512
10
346.20766063018772
20
-10.804306477882541
0
LWPOLYLINE
5
226
100
AcDbEntity
8
0
100
AcDbPolyline
90
6
70
1
43
0.0
10
85.850968344344864
20
75.146372824026869
10
89.026394824887873
20
75.146372824026869
10
90.614108065159357
20
72.396372824026997
10
89.026394824887873
20
69.646372824026997
10
85.850968344344864
20
69.646372824026997
10
84.263255104073437
20
72.396372824026997
0
LWPOLYLINE
5
227
100
AcDbEntity
8
0
100
AcDbPolyline
90
6
70
1
43
0.0
10
84.832251445023644
20
-10.804306477882541
10
83.244538204752118
20
-13.554306477882543
10
80.069111724209122
20
-13.554306477882543
10
78.481398483937696
20
-10.804306477882541
10
80.069111724209122
20
-8.0543064778826476
10
83.244538204752118
20
-8.0543064778826565
0
LWPOLYLINE
5
228
100
AcDbEntity
8
0
100
AcDbPolyline
90
6
70
1
43
0.0
10
347.42169668846748
20
-114.61549043999551
10
349.00940992873899
20
-117.36549043999551
10
352.18483640928207
20
-117.36549043999551
10
353.77254964955335
20
-114.61549043999551
10
352.18483640928207
20
-111.86549043999561
10
349.00940992873899
20
-111.86549043999561
0
LWPOLYLINE
5
229
100
AcDbEntity
8
0
100
AcDbPolyline
90
6
70
1
43
0.0
10
352.18483640928207
20
-117.36549043999551
10
353.77254964955335
20
-114.61549043999551
10
352.18483640928207
20
-111.86549043999561
10
349.00940992873899
20
-111.86549043999561
10
347.42169668846748
20
-114.61549043999551
10
349.00940992873899
20
-117.36549043999551
0
LWPOLYLINE
5
230
100
AcDbEntity
8
0
100
AcDbPolyline
90
6
70
1
43
0.0
10
90.240430883167704
20
-28.664811138086019
10
91.828144123439216
20
-31.414811138085913
10
90.240430883167704
20
-34.164811138085909
10
87.065004402624666
20
-34.164811138085909
10
85.477291162353254
20
-31.414811138085913
10
87.065004402624666
20
-28.664811138086019
0
LWPOLYLINE
5
231
100
AcDbEntity
8
0
100
AcDbPolyline
90
6
70
1
43
0.0
10
84.458574263031949
20
-111.86549043999561
10
86.046287503303461
20
-114.61549043999551
10
84.458574263031949
20
-117.36549043999551
10
81.283147782488925
20
-117.36549043999551
10
79.695434542217527
20
-114.61549043999551
10
81.283147782488925
20
-111.86549043999561
0
LWPOLYLINE
5
232
100
AcDbEntity
8
0
100
AcDbPolyline
90
29
70
1
43
0.0
10
80.09308198096241
20
-35.101573248489771
10
76.10508198096241
20
-111.20467324848981
42
0.41421356237309309
10
86.041164555334518
20
-122.23981090396377
10
217.13848153905548
20
-129.11033015704541
10
347.53111805142578
20
-122.23382442826831
42
0.41130239352259085
10
357.36290221080833
20
-111.20467324848981
10
353.37490221080839
20
-35.101573248489792
42
0.41421356237309953
10
342.33976455533445
20
-25.165490674117812
10
230.83969148706242
20
-31.00896189352278
42
0.24469844322909962
10
230.04397934714891
20
-31.477672164044137
10
224.50676204154988
20
-39.544393237063879
42
0.60681489631460539
10
225.40714609394928
20
-41.0729420360517
10
343.34974486935971
20
-34.883401793295256
10
347.37660686326279
20
-111.72803281091922
10
299.31759209588529
20
-114.24670078904072
10
299.56679209588538
20
-119.00270078904072
10
242.49509209588552
20
-121.9937007890407
10
231.48857888797602
20
-108.3249007890408
10
202.58187622911635
20
-108.3249007890408
10
190.9728920958855
20
-121.9937007890407
10
133.90119209588542
20
-119.00270078904072
10
134.12422411776399
20
-114.746015556418
10
86.065209350386652
20
-112.22734757829659
10
90.118563976022585
20
-34.877933185183373
10
207.96726974409586
20
-41.119796131312768
42
0.60681489631461405
10
208.86765379649523
20
-39.591247332325004
10
203.40736758028598
20
-31.52452625930519
42
0.24469844322908343
10
202.61165544037249
20
-31.055815988783856
10
91.128219636436384
20
-25.165490674117681
42
0.41421356237309354
0
LINE
5
233
100
AcDbEntity
8
0
100
AcDbLine
10
183.44578900174835
20
-24.598384280767899
30
0
11
215.87210952453273
21
-26.297775729687128
31
0
0
LINE
5
234
100
AcDbEntity
8
0
100
AcDbLine
10
84.77479254081176
20
-19.427256476605418
30
0
11
184.6377460162692
21
-24.660852100899771
31
0
0
LINE
5
235
100
AcDbEntity
8
0
100
AcDbLine
10
346.26511953439939
20
-19.4272564766054
30
0
11
246.40216605894199
21
-24.660852100899771
31
0
0
LINE
5
236
100
AcDbEntity
8
0
100
AcDbLine
10
184.6377460162692
20
-24.660852100899771
30
0
11
210.32822904401795
21
-26.007233265092744
31
0
0
LINE
5
237
100
AcDbEntity
8
0
100
AcDbLine
10
246.40216605894199
20
-24.660852100899771
30
0
11
215.51995603760591
21
-26.279320147470493
31
0
0
LWPOLYLINE
5
238
100
AcDbEntity
8
0
100
AcDbPolyline
90
6
70
1
43
0.0
10
351.76458110869351
20
-134.77621548988171
10
350.17686786842211
20
-132.02621548988179
10
347.00144138787914
20
-132.02621548988179
10
345.41372814760763
20
-134.77621548988171
10
347.00144138787914
20
-137.52621548988171
10
350.17686786842211
20
-137.52621548988171
0
LWPOLYLINE
5
239
100
AcDbEntity
8
0
100
AcDbPolyline
90
6
70
1
43
0.0
10
345.41372814760763
20
-134.77621548988171
10
347.00144138787914
20
-137.52621548988171
10
350.17686786842211
20
-137.52621548988171
10
351.76458110869351
20
-134.77621548988171
10
350.17686786842211
20
-132.02621548988179
10
347.00144138787914
20
-132.02621548988179
0
LWPOLYLINE
5
240
100
AcDbEntity
8
0
100
AcDbPolyline
90
24
70
1
43
0.0
10
350.17686786842211
20
-132.02621548988179
10
347.00144138787914
20
-132.02621548988179
10
345.41372814760763
20
-134.77621548988171
10
347.00144138787914
20
-137.52621548988171
10
350.17686786842211
20
-137.52621548988171
10
351.76458110869351
20
-134.77621548988171
10
350.17686786842211
20
-132.02621548988179
10
347.00144138787914
20
-132.02621548988179
10
345.41372814760763
20
-134.77621548988171
10
347.00144138787914
20
-137.52621548988171
10
350.17686786842211
20
-137.52621548988171
10
351.76458110869351
20
-134.77621548988171
10
350.17686786842211
20
-132.02621548988179
10
347.00144138787914
20
-132.02621548988179
10
345.41372814760763
20
-134.77621548988171
10
347.00144138787914
20
-137.52621548988171
10
350.17686786842211
20
-137.52621548988171
10
351.76458110869351
20
-134.77621548988171
10
350.17686786842211
20
-132.02621548988179
10
347.00144138787914
20
-132.02621548988179
10
345.41372814760763
20
-134.77621548988171
10
347.00144138787914
20
-137.52621548988171
10
350.17686786842211
20
-137.52621548988171
10
351.76458110869351
20
-134.77621548988171
0
LWPOLYLINE
5
241
100
AcDbEntity
8
0
100
AcDbPolyline
90
18
70
1
43
0.0
10
354.95872448855783
20
-220.72689479179118
10
356.54643772882923
20
-217.97689479179121
10
354.95872448855783
20
-215.22689479179132
10
351.78329800801487
20
-215.22689479179132
10
350.1955847677433
20
-217.97689479179121
10
351.78329800801487
20
-220.72689479179118
10
354.95872448855783
20
-220.72689479179118
10
356.54643772882923
20
-217.97689479179121
10
354.95872448855783
20
-215.22689479179132
10
351.78329800801487
20
-215.22689479179132
10
350.1955847677433
20
-217.97689479179121
10
351.78329800801487
20
-220.72689479179118
10
354.95872448855783
20
-220.72689479179118
10
356.54643772882923
20
-217.97689479179121
10
354.95872448855783
20
-215.22689479179132
10
351.78329800801487
20
-215.22689479179132
10
350.1955847677433
20
-217.97689479179121
10
351.78329800801487
20
-220.72689479179118
0
LWPOLYLINE
5
242
100
AcDbEntity
8
0
100
AcDbPolyline
90
6
70
1
43
0.0
10
94.602032202715009
20
-134.77621548988162
10
93.014318962443511
20
-137.52621548988159
10
89.838892481900459
20
-137.52621548988159
10
88.251179241629075
20
-134.77621548988162
10
89.838892481900459
20
-132.02621548988171
10
93.014318962443511
20
-132.02621548988171
0
LWPOLYLINE
5
243
100
AcDbEntity
8
0
100
AcDbPolyline
90
6
70
1
43
0.0
10
84.057035861764746
20
-220.72689479179118
10
82.469322621493347
20
-217.97689479179121
10
84.057035861764746
20
-215.22689479179132
10
87.23246234230777
20
-215.22689479179132
10
88.820175582579282
20
-217.97689479179121
10
87.23246234230777
20
-220.72689479179118
0
LWPOLYLINE
5
244
100
AcDbEntity
8
0
100
AcDbPolyline
90
29
70
1
43
0.0
10
355.15620527913325
20
-138.5149967764591
42
0.41743795795712146
10
345.0613166783674
20
-129.52552456066803
10
233.56181898596623
20
-135.32129991690624
42
0.24469844322910064
10
232.76610684605274
20
-135.79001018742761
10
227.18610319384058
20
-143.02379634022509
42
0.60681489631462016
10
228.08648724624004
20
-144.55234513921292
10
346.13632696441709
20
-138.4870223953377
10
349.65118017516119
20
-215.11560514083652
10
302.09148017516111
20
-217.60810514083653
10
302.34068017516114
20
-222.3641051408365
10
245.26898017516118
20
-225.35510514083651
10
234.26246696725173
20
-211.68630514083648
10
205.35576430839214
20
-211.68630514083648
10
193.74678017516118
20
-225.35510514083651
10
136.6750801751611
20
-222.3641051408365
10
136.89811757837592
20
-218.10742019023792
10
88.839097429662417
20
-215.58875193009231
10
92.886184938338644
20
-138.35892125232613
10
210.73601237435983
20
-144.54369271620965
42
0.60681489631461538
10
211.63639642675921
20
-143.01514391722188
10
206.12949507918972
20
-135.83686428268874
42
0.24469844322908538
10
205.33378293927623
20
-135.36815401216739
10
93.849771759469263
20
-129.52552456066803
42
0.41421356237309614
10
83.865599594992915
20
-138.5153135565285
10
79.877599594992887
20
-214.61841355652848
42
0.41421356237310214
10
88.867388590853295
20
-224.60258572100491
10
219.96470557457431
20
-231.4731049740866
10
350.35673126383597
20
-224.5893687890001
42
0.40779116930708031
10
359.13816075532964
20
-214.61841355652834
0
ARC
5
245
100
AcDbEntity
8
0
100
AcDbCircle
10
89.364580175161308
20
-215.11560514083652
30
0
40
9.4999999999999751
210
0
220
0
230
1
100
AcDbArc
50
176.99999999999963
51
266.99999999999966
0
LWPOLYLINE
5
246
100
AcDbEntity
8
0
100
AcDbPolyline
90
6
70
1
43
0.0
10
666.18137178071777
20
76.35105286138139
10
663.00594530017474
20
76.35105286138139
10
661.4182320599034
20
73.60105286138149
10
663.00594530017474
20
70.85105286138149
10
666.18137178071777
20
70.85105286138149
10
667.76908502098922
20
73.60105286138149
0
LWPOLYLINE
5
247
100
AcDbEntity
8
0
100
AcDbPolyline
90
6
70
1
43
0.0
10
673.55094164112472
20
-9.5996264405280272
10
671.96322840085361
20
-6.8496264405281124
10
668.78780192031047
20
-6.8496264405281124
10
667.20008868003902
20
-9.5996264405280272
10
668.78780192031047
20
-12.349626440528032
10
671.96322840085361
20
-12.349626440528032
0
LWPOLYLINE
5
248
100
AcDbEntity
8
0
100
AcDbPolyline
90
6
70
1
43
0.0
10
406.84339639419613
20
70.851052861381604
10
405.25568315392479
20
73.601052861381618
10
406.84339639419613
20
76.35105286138149
10
410.01882287473916
20
76.35105286138149
10
411.60653611501067
20
73.601052861381618
10
410.01882287473916
20
70.851052861381604
0
LWPOLYLINE
5
249
100
AcDbEntity
8
0
100
AcDbPolyline
90
6
70
1
43
0.0
10
404.23696625460337
20
-12.349626440528032
10
401.06153977406041
20
-12.349626440528032
10
399.47382653378901
20
-9.5996264405280272
10
401.06153977406041
20
-6.8496264405281124
10
404.23696625460337
20
-6.8496264405281124
10
405.82467949487494
20
-9.5996264405280272
0
LWPOLYLINE
5
250
100
AcDbEntity
8
0
100
AcDbPolyline
90
2
70
1
43
0.0
10
619.09598408745694
20
-9.2308367895732868
10
619.34518408745691
20
-13.986836789573289
0
LINE
5
251
100
AcDbEntity
8
0
100
AcDbLine
10
453.67958408745716
20
-13.986836789573289
30
0
11
453.92878408745719
21
-9.2308367895732868
31
0
0
LINE
5
252
100
AcDbEntity
8
0
100
AcDbLine
10
405.87189250314907
20
-16.225317369741703
30
0
11
536.96920948687
21
-23.095836622823377
31
0
0
LINE
5
253
100
AcDbEntity
8
0
100
AcDbLine
10
667.36221949673666
20
-16.225317369741589
30
0
11
536.96920948687
21
-23.095836622823377
31
0
0
LINE
5
254
100
AcDbEntity
8
0
100
AcDbLine
10
398.83134559100915
20
30.956288400953532
30
0
11
396.88210350728855
21
-6.2411452052652416
31
0
0
LINE
5
255
100
AcDbEntity
8
0
100
AcDbLine
10
672.15466466762541
20
69.861954794734771
30
0
11
676.14266466762524
21
-6.2411452052652105
31
0
0
ARC
5
256
100
AcDbEntity
8
0
100
AcDbCircle
10
662.66768408745702
20
69.364763210426787
30
0
40
9.5060528189814892
210
0
220
-0
230
1
100
AcDbArc
50
3.0000000000000449
51
93.630036524704408
0
LWPOLYLINE
5
257
100
AcDbEntity
8
0
100
AcDbPolyline
90
2
70
1
43
0.0
10
396.88210350728855
20
-6.2411452052652416
42
0.41421356237310164
10
405.87189250314907
20
-16.225317369741735
42
-0.41421356237310336
0
LWPOLYLINE
5
258
100
AcDbEntity
8
0
100
AcDbPolyline
90
2
70
1
43
0.0
10
667.3612351761318
20
-16.212100437736936
42
0.40779116930707665
10
676.14266466762547
20
-6.2411452052652061
42
-0.40779116930707665
0
LINE
5
259
100
AcDbEntity
8
0
100
AcDbLine
10
88.898260800783106
20
68.813667061582606
30
0
11
91.838488059484206
21
68.65939794044948
31
0
0
LINE
5
260
100
AcDbEntity
8
0
100
AcDbLine
10
299.31759209588529
20
-114.24670078904072
30
0
11
299.56679209588538
21
-119.00270078904072
31
0
0
LINE
5
261
100
AcDbEntity
8
0
100
AcDbLine
10
346.87729209588548
20
-111.75420078904069
30
0
11
299.31759209588529
21
-114.24670078904072
31
0
0
LINE
5
262
100
AcDbEntity
8
0
100
AcDbLine
10
190.9728920958855
20
-121.9937007890407
30
0
11
133.90119209588542
21
-119.00270078904072
31
0
0
LINE
5
263
100
AcDbEntity
8
0
100
AcDbLine
10
299.56679209588538
20
-119.00270078904072
30
0
11
242.49509209588552
21
-121.9937007890407
31
0
0
LINE
5
264
100
AcDbEntity
8
0
100
AcDbLine
10
134.12422411776399
20
-114.746015556418
30
0
11
86.564524117763938
21
-112.25351555641801
31
0
0
LWPOLYLINE
5
265
100
AcDbEntity
8
0
100
AcDbPolyline
90
8
70
1
43
0.0
10
526.98738408745726
20
11.066063210426712
10
526.98738408745726
20
20.591063210426711
10
536.51238408745712
20
20.591063210426711
10
546.0373840874571
20
20.591063210426711
10
546.0373840874571
20
11.066063210426712
10
546.0373840874571
20
1.5410632104267075
10
536.51238408745712
20
1.5410632104267066
10
526.98738408745726
20
1.5410632104267064
0
LINE
5
266
100
AcDbEntity
8
0
100
AcDbLine
10
526.98738408745726
20
20.591063210426711
30
0
11
526.98738408745703
21
18.066063210426712
31
0
0
LINE
5
267
100
AcDbEntity
8
0
100
AcDbLine
10
546.0373840874571
20
20.591063210426711
30
0
11
546.0373840874571
21
18.066063210426712
31
0
0
LINE
5
268
100
AcDbEntity
8
0
100
AcDbLine
10
110.10831120215221
20
-31.516990844278542
30
0
11
110.10831120215221
21
-31.516990844278542
31
0
0
SPLINE
5
269
100
AcDbEntity
8
0
100
AcDbSpline
70
0
71
3
72
8
73
4
74
0
42
0.000000001
43
0.0000000001
44
0.0000000001
40
0
40
0
40
0
40
0
40
1
40
1
40
1
40
1
10
322.62624192695023
20
72.190854233705608
30
0
10
322.73261999160974
20
70.161039841363447
30
0
10
319.68879716967768
20
70.001519846734965
30
0
10
319.58142047548364
20
72.03128190312087
30
0
0
SPLINE
5
270
100
AcDbEntity
8
0
100
AcDbSpline
70
0
71
3
72
8
73
4
74
0
42
0.000000001
43
0.0000000001
44
0.0000000001
40
0
40
0
40
0
40
0
40
1
40
1
40
1
40
1
10
312.73431056726582
20
-14.198817433609969
30
0
10
312.84068863192522
20
-16.228631825952142
30
0
10
309.79686580999334
20
-16.388151820580617
30
0
10
309.68948911579918
20
-14.35838976419473
30
0
0
SPLINE
5
271
100
AcDbEntity
8
0
100
AcDbSpline
70
0
71
3
72
8
73
4
74
0
42
0.000000001
43
0.0000000001
44
0.0000000001
40
0
40
0
40
0
40
0
40
1
40
1
40
1
40
1
10
108.4204217006945
20
72.318955376717255
30
0
10
108.31404363603511
20
70.289140984375138
30
0
10
111.35786645796699
20
70.129620989746655
30
0
10
111.46524315216119
20
72.159383046132518
30
0
0
SPLINE
5
272
100
AcDbEntity
8
0
100
AcDbSpline
70
0
71
3
72
8
73
4
74
0
42
0.000000001
43
0.0000000001
44
0.0000000001
40
0
40
0
40
0
40
0
40
1
40
1
40
1
40
1
10
118.77874829720129
20
-14.724300179108752
30
0
10
118.67237023254191
20
-16.754114571450881
30
0
10
121.71619305447381
20
-16.913634566079391
30
0
10
121.82356974866801
20
-14.883872509693504
30
0
0
LWPOLYLINE
5
273
100
AcDbEntity
8
0
100
AcDbPolyline
90
6
70
1
43
0.0
10
342.01351725032333
20
75.146372824026855
10
340.42580401005182
20
72.396372824026969
10
342.01351725032333
20
69.646372824026969
10
345.18894373086647
20
69.646372824026969
10
346.77665697113787
20
72.396372824026969
10
345.18894373086647
20
75.146372824026855
0
SPLINE
5
274
100
AcDbEntity
8
0
100
AcDbSpline
70
0
71
3
72
8
73
4
74
0
42
0.000000001
43
0.0000000001
44
0.0000000001
40
0
40
0
40
0
40
0
40
1
40
1
40
1
40
1
10
319.58142047548364
20
72.03128190312087
30
0
10
319.47604104035906
20
74.061148631419272
30
0
10
322.51986386229078
20
74.220668626047768
30
0
10
322.62624192695023
20
72.190854233705608
30
0
0
SPLINE
5
275
100
AcDbEntity
8
0
100
AcDbSpline
70
0
71
3
72
8
73
4
74
0
42
0.000000001
43
0.0000000001
44
0.0000000001
40
0
40
0
40
0
40
0
40
1
40
1
40
1
40
1
10
309.68948911579918
20
-14.35838976419473
30
0
10
309.58410968067449
20
-12.328523035896321
30
0
10
312.62793250260637
20
-12.169003041267841
30
0
10
312.73431056726582
20
-14.198817433609969
30
0
0
SPLINE
5
276
100
AcDbEntity
8
0
100
AcDbSpline
70
0
71
3
72
8
73
4
74
0
42
0.000000001
43
0.0000000001
44
0.0000000001
40
0
40
0
40
0
40
0
40
1
40
1
40
1
40
1
10
111.46524315216119
20
72.159383046132518
30
0
10
111.57062258728581
20
74.189249774430948
30
0
10
108.52679976535391
20
74.348769769059416
30
0
10
108.4204217006945
20
72.318955376717255
30
0
0
SPLINE
5
277
100
AcDbEntity
8
0
100
AcDbSpline
70
0
71
3
72
8
73
4
74
0
42
0.000000001
43
0.0000000001
44
0.0000000001
40
0
40
0
40
0
40
0
40
1
40
1
40
1
40
1
10
121.82356974866801
20
-14.883872509693504
30
0
10
121.92894918379272
20
-12.854005781395099
30
0
10
118.88512636186071
20
-12.69448578676662
30
0
10
118.77874829720129
20
-14.724300179108752
30
0
0
LINE
5
278
100
AcDbEntity
8
0
100
AcDbLine
10
322.62624192695023
20
72.190854233705608
30
0
11
322.62624192695023
21
72.190854233705608
31
0
0
LINE
5
279
100
AcDbEntity
8
0
100
AcDbLine
10
312.73431056726582
20
-14.198817433609969
30
0
11
312.73431056726582
21
-14.198817433609969
31
0
0
LINE
5
280
100
AcDbEntity
8
0
100
AcDbLine
10
118.77874829720129
20
-14.724300179108752
30
0
11
118.77874829720129
21
-14.724300179108752
31
0
0
SPLINE
5
281
100
AcDbEntity
8
0
100
AcDbSpline
70
0
71
3
72
8
73
4
74
0
42
0.000000001
43
0.0000000001
44
0.0000000001
40
0
40
0
40
0
40
0
40
1
40
1
40
1
40
1
10
326.61416606450587
20
-134.98173408020301
30
0
10
326.72054412916532
20
-137.0115484725452
30
0
10
323.67672130723344
20
-137.17106846717371
30
0
10
323.56934461303916
20
-135.14130641078779
30
0
0
SPLINE
5
282
100
AcDbEntity
8
0
100
AcDbSpline
70
0
71
3
72
8
73
4
74
0
42
0.000000001
43
0.0000000001
44
0.0000000001
40
0
40
0
40
0
40
0
40
1
40
1
40
1
40
1
10
316.72223470482152
20
-221.37140574751868
30
0
10
316.82861276948086
20
-223.40122013986081
30
0
10
313.78478994754903
20
-223.56074013448932
30
0
10
313.67741325335481
20
-221.5309780781034
30
0
0
SPLINE
5
283
100
AcDbEntity
8
0
100
AcDbSpline
70
0
71
3
72
8
73
4
74
0
42
0.000000001
43
0.0000000001
44
0.0000000001
40
0
40
0
40
0
40
0
40
1
40
1
40
1
40
1
10
112.40834583825011
20
-134.85363293719141
30
0
10
112.3019677735907
20
-136.88344732953351
30
0
10
115.3457905955226
20
-137.04296732416199
30
0
10
115.45316728971682
20
-135.01320526777621
30
0
0
SPLINE
5
284
100
AcDbEntity
8
0
100
AcDbSpline
70
0
71
3
72
8
73
4
74
0
42
0.000000001
43
0.0000000001
44
0.0000000001
40
0
40
0
40
0
40
0
40
1
40
1
40
1
40
1
10
122.766672434757
20
-221.89688849301743
30
0
10
122.66029437009762
20
-223.92670288535965
30
0
10
125.70411719202951
20
-224.0862228799881
30
0
10
125.81149388622362
20
-222.05646082360218
30
0
0
SPLINE
5
285
100
AcDbEntity
8
0
100
AcDbSpline
70
0
71
3
72
8
73
4
74
0
42
0.000000001
43
0.0000000001
44
0.0000000001
40
0
40
0
40
0
40
0
40
1
40
1
40
1
40
1
10
323.56934461303916
20
-135.14130641078779
30
0
10
323.4639651779147
20
-133.11143968248942
30
0
10
326.50778799984653
20
-132.95191968786094
30
0
10
326.61416606450587
20
-134.98173408020301
30
0
0
SPLINE
5
286
100
AcDbEntity
8
0
100
AcDbSpline
70
0
71
3
72
8
73
4
74
0
42
0.000000001
43
0.0000000001
44
0.0000000001
40
0
40
0
40
0
40
0
40
1
40
1
40
1
40
1
10
313.67741325335481
20
-221.5309780781034
30
0
10
313.57203381823012
20
-219.50111134980503
30
0
10
316.61585664016218
20
-219.34159135517655
30
0
10
316.72223470482152
20
-221.37140574751868
30
0
0
SPLINE
5
287
100
AcDbEntity
8
0
100
AcDbSpline
70
0
71
3
72
8
73
4
74
0
42
0.000000001
43
0.0000000001
44
0.0000000001
40
0
40
0
40
0
40
0
40
1
40
1
40
1
40
1
10
115.45316728971682
20
-135.01320526777621
30
0
10
115.55854672484142
20
-132.9833385394777
30
0
10
112.51472390290951
20
-132.8238185448493
30
0
10
112.40834583825011
20
-134.85363293719141
30
0
0
SPLINE
5
288
100
AcDbEntity
8
0
100
AcDbSpline
70
0
71
3
72
8
73
4
74
0
42
0.000000001
43
0.0000000001
44
0.0000000001
40
0
40
0
40
0
40
0
40
1
40
1
40
1
40
1
10
125.81149388622362
20
-222.05646082360218
30
0
10
125.91687332134832
20
-220.02659409530381
30
0
10
122.87305049941642
20
-219.86707410067535
30
0
10
122.766672434757
20
-221.89688849301743
30
0
0
LINE
5
289
100
AcDbEntity
8
0
100
AcDbLine
10
326.61416606450587
20
-134.98173408020301
30
0
11
326.61416606450587
21
-134.98173408020301
31
0
0
LINE
5
290
100
AcDbEntity
8
0
100
AcDbLine
10
316.72223470482152
20
-221.37140574751868
30
0
11
316.72223470482152
21
-221.37140574751868
31
0
0
LINE
5
291
100
AcDbEntity
8
0
100
AcDbLine
10
122.766672434757
20
-221.89688849301743
30
0
11
122.766672434757
21
-221.89688849301743
31
0
0
SPLINE
5
292
100
AcDbEntity
8
0
100
AcDbSpline
70
0
71
3
72
8
73
4
74
0
42
0.000000001
43
0.0000000001
44
0.0000000001
40
0
40
0
40
0
40
0
40
1
40
1
40
1
40
1
10
323.84027798522999
20
-31.620329728407306
30
0
10
323.9466560498895
20
-33.650144120749452
30
0
10
320.90283322795761
20
-33.809664115377899
30
0
10
320.7954565337634
20
-31.779902058992015
30
0
0
SPLINE
5
293
100
AcDbEntity
8
0
100
AcDbSpline
70
0
71
3
72
8
73
4
74
0
42
0.000000001
43
0.0000000001
44
0.0000000001
40
0
40
0
40
0
40
0
40
1
40
1
40
1
40
1
10
313.94834662554564
20
-118.01000139572292
30
0
10
314.05472469020498
20
-120.0398157880651
30
0
10
311.01090186827321
20
-120.19933578269351
30
0
10
310.90352517407899
20
-118.1695737263076
30
0
0
SPLINE
5
294
100
AcDbEntity
8
0
100
AcDbSpline
70
0
71
3
72
8
73
4
74
0
42
0.000000001
43
0.0000000001
44
0.0000000001
40
0
40
0
40
0
40
0
40
1
40
1
40
1
40
1
10
109.63445775897432
20
-31.492228585395626
30
0
10
109.5280796943149
20
-33.522042977737748
30
0
10
112.57190251624679
20
-33.681562972366272
30
0
10
112.679279210441
20
-31.651800915980374
30
0
0
SPLINE
5
295
100
AcDbEntity
8
0
100
AcDbSpline
70
0
71
3
72
8
73
4
74
0
42
0.000000001
43
0.0000000001
44
0.0000000001
40
0
40
0
40
0
40
0
40
1
40
1
40
1
40
1
10
119.99278435548109
20
-118.5354841412216
30
0
10
119.88640629082181
20
-120.5652985335638
30
0
10
122.93022911275371
20
-120.7248185281923
30
0
10
123.03760580694782
20
-118.69505647180642
30
0
0
SPLINE
5
296
100
AcDbEntity
8
0
100
AcDbSpline
70
0
71
3
72
8
73
4
74
0
42
0.000000001
43
0.0000000001
44
0.0000000001
40
0
40
0
40
0
40
0
40
1
40
1
40
1
40
1
10
320.7954565337634
20
-31.779902058992015
30
0
10
320.69007709863882
20
-29.750035330693635
30
0
10
323.73389992057071
20
-29.590515336065124
30
0
10
323.84027798522999
20
-31.620329728407306
30
0
0
SPLINE
5
297
100
AcDbEntity
8
0
100
AcDbSpline
70
0
71
3
72
8
73
4
74
0
42
0.000000001
43
0.0000000001
44
0.0000000001
40
0
40
0
40
0
40
0
40
1
40
1
40
1
40
1
10
310.90352517407899
20
-118.1695737263076
30
0
10
310.7981457389543
20
-116.13970699800922
30
0
10
313.84196856088624
20
-115.98018700338071
30
0
10
313.94834662554564
20
-118.01000139572292
30
0
0
SPLINE
5
298
100
AcDbEntity
8
0
100
AcDbSpline
70
0
71
3
72
8
73
4
74
0
42
0.000000001
43
0.0000000001
44
0.0000000001
40
0
40
0
40
0
40
0
40
1
40
1
40
1
40
1
10
112.679279210441
20
-31.651800915980374
30
0
10
112.78465864556559
20
-29.621934187681944
30
0
10
109.7408358236337
20
-29.46241419305349
30
0
10
109.63445775897432
20
-31.492228585395626
30
0
0
SPLINE
5
299
100
AcDbEntity
8
0
100
AcDbSpline
70
0
71
3
72
8
73
4
74
0
42
0.000000001
43
0.0000000001
44
0.0000000001
40
0
40
0
40
0
40
0
40
1
40
1
40
1
40
1
10
123.03760580694782
20
-118.69505647180642
30
0
10
123.14298524207253
20
-116.66518974350801
30
0
10
120.0991624201405
20
-116.50566974887951
30
0
10
119.99278435548109
20
-118.5354841412216
30
0
0
LINE
5
300
100
AcDbEntity
8
0
100
AcDbLine
10
323.84027798522999
20
-31.620329728407306
30
0
11
323.84027798522999
21
-31.620329728407306
31
0
0
LINE
5
301
100
AcDbEntity
8
0
100
AcDbLine
10
313.94834662554564
20
-118.01000139572292
30
0
11
313.94834662554564
21
-118.01000139572292
31
0
0
LINE
5
302
100
AcDbEntity
8
0
100
AcDbLine
10
119.99278435548109
20
-118.5354841412216
30
0
11
119.99278435548109
21
-118.5354841412216
31
0
0
LWPOLYLINE
5
303
100
AcDbEntity
8
0
100
AcDbPolyline
90
6
70
1
43
0.0
10
341.63984006833186
20
-31.414811138085923
10
343.22755330860338
20
-34.164811138085923
10
346.4029797891464
20
-34.164811138085923
10
347.99069302941774
20
-31.414811138085923
10
346.4029797891464
20
-28.664811138086037
10
343.22755330860338
20
-28.664811138086037
0
LINE
5
304
100
AcDbEntity
8
0
100
AcDbLine
10
89.966519534399509
20
79.644322822749828
30
0
11
215.51995603760574
21
73.064346034262456
31
0
0
LINE
5
305
100
AcDbEntity
8
0
100
AcDbLine
10
215.51995603760574
20
73.064346034262456
30
0
11
341.07339254081177
21
79.644322822749814
31
0
0
LINE
5
306
100
AcDbEntity
8
0
100
AcDbLine
10
219.96470557457431
20
-231.4731049740866
30
0
11
350.35673126383597
21
-224.5893687890001
31
0
0
LINE
5
307
100
AcDbEntity
8
0
100
AcDbLine
10
536.40771217497115
20
72.271767002107879
30
0
11
662.06582059066307
21
78.851743790595194
31
0
0
LINE
5
308
100
AcDbEntity
8
0
100
AcDbLine
10
391.31101123178388
20
79.875962879835782
30
0
11
536.40771217497115
21
72.271767002107879
31
0
0
ARC
5
309
100
AcDbEntity
8
0
100
AcDbCircle
10
391.31311029851582
20
43.636795095120647
30
0
40
3.0000000000005782
210
0
220
0
230
1
100
AcDbArc
50
179.47225093276202
51
206.99999999999937
0
ARC
5
310
100
AcDbEntity
8
0
100
AcDbCircle
10
391.19648681258752
20
78.842522521530896
30
0
40
1.0397667126647203
210
0
220
-0
230
1
100
AcDbArc
50
83.676363749744652
51
173.87304390964286
0
LINE
5
311
100
AcDbEntity
8
0
100
AcDbLine
10
388.64009072595019
20
42.274823595901772
30
0
11
398.83135889088362
21
30.956273629946498
31
0
0
LWPOLYLINE
5
312
100
AcDbEntity
8
0
100
AcDbPolyline
90
4
70
1
43
0.0
10
401.39829226854027
20
70.11487944335866
10
400.11449134916177
20
45.618498620861729
42
-0.99999999999999989
10
395.12134367538908
20
45.880178402076382
10
396.40514459476753
20
70.37655922457337
42
-0.99999999999999989
0
LINE
5
313
100
AcDbEntity
8
0
100
AcDbLine
10
390.16265941399462
20
78.953498765314592
30
0
11
388.31323756025984
21
43.664427580928219
31
0
0
ARC
5
314
100
AcDbEntity
8
0
100
AcDbCircle
10
662.66768408745725
20
69.364763210426759
30
0
40
9.5060528189813489
210
0
220
-0
230
1
100
AcDbArc
50
3.0000000000002878
51
93.630036524705773
0
LINE
5
315
100
AcDbEntity
8
0
100
AcDbLine
10
536.96920948687
20
-23.095836622823377
30
0
11
667.3612351761318
21
-16.212100437736932
31
0
0
LINE
5
316
100
AcDbEntity
8
0
100
AcDbLine
10
405.87189250314907
20
-16.225317369741703
30
0
11
536.96920948687
21
-23.095836622823377
31
0
0
LINE
5
317
100
AcDbEntity
8
0
100
AcDbLine
10
676.14266466762524
20
-6.2411452052652105
30
0
11
672.16070919142896
21
69.862271574804126
31
0
0
LINE
5
318
100
AcDbEntity
8
0
100
AcDbLine
10
662.06582059066307
20
78.851743790595194
30
0
11
550.56632289826189
21
73.055968434356771
31
0
0
LINE
5
319
100
AcDbEntity
8
0
100
AcDbLine
10
522.33828685157187
20
73.009114339095788
30
0
11
410.85427567176498
21
78.851743790595179
31
0
0
CIRCLE
5
320
100
AcDbEntity
8
0
100
AcDbCircle
10
677.07081693060854
20
-34.207348711032111
30
0
40
1.6749999999999898
210
0
220
0
230
1
0
CIRCLE
5
321
100
AcDbEntity
8
0
100
AcDbCircle
10
659.09173197537029
20
-135.29345622272498
30
0
40
1.6749999999999898
210
0
220
0
230
1
0
CIRCLE
5
322
100
AcDbEntity
8
0
100
AcDbCircle
10
682.85267355074427
20
-117.40802801294159
30
0
40
1.6749999999999898
210
0
220
0
230
1
0
CIRCLE
5
323
100
AcDbEntity
8
0
100
AcDbCircle
10
664.87358859550591
20
-218.49413552463443
30
0
40
1.6749999999999898
210
0
220
0
230
1
0
CIRCLE
5
324
100
AcDbEntity
8
0
100
AcDbCircle
10
420.90826802462982
20
-34.207348711032111
30
0
40
1.6749999999999898
210
0
220
0
230
1
0
CIRCLE
5
325
100
AcDbEntity
8
0
100
AcDbCircle
10
402.92918306939163
20
-135.29345622272498
30
0
40
1.6749999999999898
210
0
220
0
230
1
0
CIRCLE
5
326
100
AcDbEntity
8
0
100
AcDbCircle
10
415.12641140449409
20
-117.40802801294159
30
0
40
1.6749999999999898
210
0
220
0
230
1
0
CIRCLE
5
327
100
AcDbEntity
8
0
100
AcDbCircle
10
397.14732644925567
20
-218.49413552463443
30
0
40
1.6749999999999898
210
0
220
0
230
1
0
LWPOLYLINE
5
328
100
AcDbEntity
8
0
100
AcDbPolyline
90
10
70
1
43
0.0
10
552.48654247761942
20
-63.955538361986854
10
551.48954247761958
20
-44.931638361986892
10
675.14484247761959
20
-38.443638361986871
10
679.13284247761953
20
-114.54673836198693
10
641.07534247761964
20
-116.54073836198691
10
640.08804247761964
20
-97.516838361986856
10
563.99244247761942
20
-101.5048383619868
10
562.99544247761958
20
-82.480938361986844
10
558.23954247761958
20
-82.730238361986864
10
557.24254247761951
20
-63.706338361986887
0
LWPOLYLINE
5
329
100
AcDbEntity
8
0
100
AcDbPolyline
90
10
70
1
43
0.0
10
545.49254247761951
20
-63.955538361986854
10
546.48954247761958
20
-44.931638361986892
10
422.83424247761963
20
-38.443638361986871
10
418.84624247761951
20
-114.54673836198693
10
456.89404247761962
20
-116.54073836198691
10
457.89104247761969
20
-97.516838361986856
10
533.98664247761963
20
-101.5048383619868
10
534.98364247761958
20
-82.480938361986844
10
539.73954247761958
20
-82.730238361986864
10
540.73654247761976
20
-63.706338361986887
0
LWPOLYLINE
5
330
100
AcDbEntity
8
0
100
AcDbPolyline
90
10
70
1
43
0.0
10
539.73954247761958
20
-82.730238361986864
10
540.73654247761976
20
-63.706338361986887
10
545.49254247761951
20
-63.955538361986854
10
546.48954247761958
20
-44.931638361986892
10
422.83424247761963
20
-38.443638361986871
10
418.84624247761951
20
-114.54673836198693
10
456.89404247761962
20
-116.54073836198691
10
457.89104247761969
20
-97.516838361986856
10
533.98664247761963
20
-101.5048383619868
10
534.98364247761958
20
-82.480938361986844
0
LWPOLYLINE
5
331
100
AcDbEntity
8
0
100
AcDbPolyline
90
6
70
1
43
0.0
10
533.98664247761963
20
-101.5048383619868
10
534.98364247761958
20
-82.480938361986844
10
539.73954247761958
20
-82.730238361986864
10
540.73654247761976
20
-63.706338361986887
10
539.73954247761958
20
-82.730238361986864
10
534.98364247761958
20
-82.480938361986844
0
LWPOLYLINE
5
332
100
AcDbEntity
8
0
100
AcDbPolyline
90
2
70
1
43
0.0
10
457.89104247761969
20
-97.516838361986856
10
533.98664247761963
20
-101.5048383619868
0
LWPOLYLINE
5
333
100
AcDbEntity
8
0
100
AcDbPolyline
90
10
70
1
43
0.0
10
574.75064247761952
20
-124.78623836198679
10
573.75364247761968
20
-105.76233836198681
10
630.82534247761964
20
-102.77133836198679
10
631.82234247761949
20
-121.7952383619868
10
574.75064247761952
20
-124.78623836198679
10
573.75364247761968
20
-105.76233836198681
10
630.82534247761964
20
-102.77133836198679
10
631.82234247761949
20
-121.7952383619868
10
631.57314247761951
20
-117.0392383619868
10
631.82234247761949
20
-121.7952383619868
0
LWPOLYLINE
5
334
100
AcDbEntity
8
0
100
AcDbPolyline
90
10
70
1
43
0.0
10
558.23954247761958
20
-82.730238361986864
10
557.24254247761951
20
-63.706338361986887
10
552.48654247761942
20
-63.955538361986854
10
551.48954247761958
20
-44.931638361986892
10
675.14484247761959
20
-38.443638361986871
10
679.13284247761953
20
-114.54673836198693
10
641.07534247761964
20
-116.54073836198691
10
640.08804247761964
20
-97.516838361986856
10
563.99244247761942
20
-101.5048383619868
10
562.99544247761958
20
-82.480938361986844
0
LWPOLYLINE
5
335
100
AcDbEntity
8
0
100
AcDbPolyline
90
6
70
1
43
0.0
10
563.99244247761942
20
-101.5048383619868
10
562.99544247761958
20
-82.480938361986844
10
558.23954247761958
20
-82.730238361986864
10
557.24254247761951
20
-63.706338361986887
10
558.23954247761958
20
-82.730238361986864
10
562.99544247761958
20
-82.480938361986844
0
LWPOLYLINE
5
336
100
AcDbEntity
8
0
100
AcDbPolyline
90
2
70
1
43
0.0
10
640.08804247761964
20
-97.516838361986856
10
563.99244247761942
20
-101.5048383619868
0
LWPOLYLINE
5
337
100
AcDbEntity
8
0
100
AcDbPolyline
90
5
70
1
43
0.0
10
524.22544247761959
20
-105.76233836198681
10
523.22844247761952
20
-124.78623836198679
10
466.15674247761967
20
-121.7952383619868
10
466.40594247761948
20
-117.0392383619868
10
467.15374247761952
20
-102.77133836198679
0
SPLINE
5
338
100
AcDbEntity
8
0
100
AcDbSpline
70
0
71
3
72
8
73
4
74
0
42
0.000000001
43
0.0000000001
44
0.0000000001
40
0
40
0
40
0
40
0
40
1
40
1
40
1
40
1
10
637.64288996854771
20
-135.52373707192911
30
0
10
637.56961962980779
20
-134.12565572327293
30
0
10
635.47249760682291
20
-134.235561231383
30
0
10
635.54576794556328
20
-135.63364258003929
30
0
0
SPLINE
5
339
100
AcDbEntity
8
0
100
AcDbSpline
70
0
71
3
72
8
73
4
74
0
42
0.000000001
43
0.0000000001
44
0.0000000001
40
0
40
0
40
0
40
0
40
1
40
1
40
1
40
1
10
424.38477662864773
20
-135.39563592891761
30
0
10
424.45804696738787
20
-133.9975545802611
30
0
10
426.55516899037252
20
-134.1074600883712
30
0
10
426.48189865163238
20
-135.5055414370278
30
0
0
SPLINE
5
340
100
AcDbEntity
8
0
100
AcDbSpline
70
0
71
3
72
8
73
4
74
0
42
0.000000001
43
0.0000000001
44
0.0000000001
40
0
40
0
40
0
40
0
40
1
40
1
40
1
40
1
10
436.84022524813918
20
-222.54879699285371
30
0
10
436.76695490939903
20
-223.94687834151023
30
0
10
434.66983288641472
20
-223.83697283340001
30
0
10
434.74310322515453
20
-222.43889148474352
30
0
0
SPLINE
5
341
100
AcDbEntity
8
0
100
AcDbSpline
70
0
71
3
72
8
73
4
74
0
42
0.000000001
43
0.0000000001
44
0.0000000001
40
0
40
0
40
0
40
0
40
1
40
1
40
1
40
1
10
625.65383658587871
20
-222.02331424735505
30
0
10
625.72710692461897
20
-223.42139559601134
30
0
10
627.8242289476035
20
-223.31149008790106
30
0
10
627.75095860886336
20
-221.91340873924472
30
0
0
SPLINE
5
342
100
AcDbEntity
8
0
100
AcDbSpline
70
0
71
3
72
8
73
4
74
0
42
0.000000001
43
0.0000000001
44
0.0000000001
40
0
40
0
40
0
40
0
40
1
40
1
40
1
40
1
10
635.54576794556328
20
-135.63364258003929
30
0
10
635.61903828430331
20
-137.0317239286957
30
0
10
637.71616030728785
20
-136.92181842058559
30
0
10
637.64288996854771
20
-135.52373707192911
30
0
0
SPLINE
5
343
100
AcDbEntity
8
0
100
AcDbSpline
70
0
71
3
72
8
73
4
74
0
42
0.000000001
43
0.0000000001
44
0.0000000001
40
0
40
0
40
0
40
0
40
1
40
1
40
1
40
1
10
426.48189865163238
20
-135.5055414370278
30
0
10
426.40862831289218
20
-136.90362278568409
30
0
10
424.31150628990787
20
-136.79371727757393
30
0
10
424.38477662864773
20
-135.39563592891761
30
0
0
SPLINE
5
344
100
AcDbEntity
8
0
100
AcDbSpline
70
0
71
3
72
8
73
4
74
0
42
0.000000001
43
0.0000000001
44
0.0000000001
40
0
40
0
40
0
40
0
40
1
40
1
40
1
40
1
10
434.74310322515453
20
-222.43889148474352
30
0
10
434.81637356389484
20
-221.04081013608715
30
0
10
436.91349558687932
20
-221.15071564419722
30
0
10
436.84022524813918
20
-222.54879699285371
30
0
0
SPLINE
5
345
100
AcDbEntity
8
0
100
AcDbSpline
70
0
71
3
72
8
73
4
74
0
42
0.000000001
43
0.0000000001
44
0.0000000001
40
0
40
0
40
0
40
0
40
1
40
1
40
1
40
1
10
627.75095860886336
20
-221.91340873924472
30
0
10
627.6776882701231
20
-220.51532739058842
30
0
10
625.58056624713856
20
-220.62523289869853
30
0
10
625.65383658587871
20
-222.02331424735505
30
0
0
LWPOLYLINE
5
346
100
AcDbEntity
8
0
100
AcDbPolyline
90
5
70
1
43
0.0
10
467.15374247761952
20
-102.77133836198679
10
466.40594247761948
20
-117.0392383619868
10
466.15674247761967
20
-121.7952383619868
10
523.22844247761952
20
-124.78623836198679
10
524.22544247761959
20
-105.76233836198681
0
LINE
5
347
100
AcDbEntity
8
0
100
AcDbLine
10
637.64288996854771
20
-135.52373707192911
30
0
11
637.64288996854771
21
-135.52373707192911
31
0
0
LINE
5
348
100
AcDbEntity
8
0
100
AcDbLine
10
424.38477662864773
20
-135.39563592891761
30
0
11
424.38477662864773
21
-135.39563592891761
31
0
0
LINE
5
349
100
AcDbEntity
8
0
100
AcDbLine
10
436.84022524813918
20
-222.54879699285371
30
0
11
436.84022524813918
21
-222.54879699285371
31
0
0
LINE
5
350
100
AcDbEntity
8
0
100
AcDbLine
10
625.65383658587871
20
-222.02331424735505
30
0
11
625.65383658587871
21
-222.02331424735505
31
0
0
LWPOLYLINE
5
351
100
AcDbEntity
8
0
100
AcDbPolyline
90
2
70
1
43
0.0
10
466.15674247761967
20
-121.7952383619868
10
466.40594247761948
20
-117.0392383619868
0
LWPOLYLINE
5
352
100
AcDbEntity
8
0
100
AcDbPolyline
90
4
70
1
43
0.0
10
679.13284247761953
20
-114.54673836198693
10
675.14484247761959
20
-38.443638361986871
10
551.48954247761958
20
-44.931638361986892
10
675.14484247761959
20
-38.443638361986871
0
LWPOLYLINE
5
353
100
AcDbEntity
8
0
100
AcDbPolyline
90
2
70
1
43
0.0
10
422.83424247761963
20
-38.443638361986871
10
546.48954247761958
20
-44.931638361986892
0
LWPOLYLINE
5
354
100
AcDbEntity
8
0
100
AcDbPolyline
90
2
70
1
43
0.0
10
631.57314247761951
20
-117.0392383619868
10
631.82234247761949
20
-121.7952383619868
0
LWPOLYLINE
5
355
100
AcDbEntity
8
0
100
AcDbPolyline
90
2
70
1
43
0.0
10
523.22844247761952
20
-124.78623836198679
10
466.15674247761967
20
-121.7952383619868
0
LWPOLYLINE
5
356
100
AcDbEntity
8
0
100
AcDbPolyline
90
4
70
1
43
0.0
10
412.59164973932394
20
-62.189902951552114
42
-0.99999999999999989
10
407.59850206555137
20
-61.928223170337525
10
408.88230298492988
20
-37.431842347840444
42
-0.99999999999999989
10
413.87545065870233
20
-37.693522129055154
0
LWPOLYLINE
5
357
100
AcDbEntity
8
0
100
AcDbPolyline
90
2
70
1
43
0.0
10
422.83424247761963
20
-38.443638361986871
10
418.84624247761951
20
-114.54673836198693
0
LWPOLYLINE
5
358
100
AcDbEntity
8
0
100
AcDbPolyline
90
2
70
1
43
0.0
10
631.82234247761949
20
-121.7952383619868
10
574.75064247761952
20
-124.78623836198679
0
LWPOLYLINE
5
359
100
AcDbEntity
8
0
100
AcDbPolyline
90
2
70
1
43
0.0
10
631.57314247761951
20
-117.0392383619868
10
631.82234247761949
20
-121.7952383619868
0
LWPOLYLINE
5
360
100
AcDbEntity
8
0
100
AcDbPolyline
90
2
70
1
43
0.0
10
466.15674247761967
20
-121.7952383619868
10
466.40594247761948
20
-117.0392383619868
0
LWPOLYLINE
5
361
100
AcDbEntity
8
0
100
AcDbPolyline
90
13
70
1
43
0.0
10
401.84005347723223
20
-63.171296379303342
42
0.12069343814028241
10
402.16690664292258
20
-64.560900364329783
10
412.35817480785602
20
-75.879450330285067
10
410.35789143220563
20
-114.10188273392177
42
0.41421356237310114
10
418.40138684955411
20
-123.03508940740059
10
548.93635900002619
20
-129.93533492733931
10
679.88973651049741
20
-123.01297196512971
42
0.40347437710495582
10
687.62119352303284
20
-114.10188273392168
10
683.63930551931276
20
-37.998462417769673
42
0.41781750339018497
10
674.59531493706834
20
-29.955287316572999
10
548.93720652137631
20
-36.535264105060293
10
404.73306467517489
20
-28.984883915327806
42
0.41521933948794698
10
403.58471285738568
20
-29.907348029848993
0
LWPOLYLINE
5
362
100
AcDbEntity
8
0
100
AcDbPolyline
90
2
70
1
43
0.0
10
679.13284247761953
20
-114.54673836198693
10
675.14484247761959
20
-38.443638361986871
0
LWPOLYLINE
5
363
100
AcDbEntity
8
0
100
AcDbPolyline
90
2
70
1
43
0.0
10
422.83424247761963
20
-38.443638361986871
10
546.48954247761958
20
-44.931638361986892
0
LWPOLYLINE
5
364
100
AcDbEntity
8
0
100
AcDbPolyline
90
2
70
1
43
0.0
10
523.22844247761952
20
-124.78623836198679
10
466.15674247761967
20
-121.7952383619868
0
LWPOLYLINE
5
365
100
AcDbEntity
8
0
100
AcDbPolyline
90
2
70
1
43
0.0
10
551.48954247761958
20
-44.931638361986892
10
675.14484247761959
20
-38.443638361986871
0
LWPOLYLINE
5
366
100
AcDbEntity
8
0
100
AcDbPolyline
90
2
70
1
43
0.0
10
422.83424247761963
20
-38.443638361986871
10
418.84624247761951
20
-114.54673836198693
0
LWPOLYLINE
5
367
100
AcDbEntity
8
0
100
AcDbPolyline
90
2
70
1
43
0.0
10
631.82234247761949
20
-121.7952383619868
10
574.75064247761952
20
-124.78623836198679
0
LWPOLYLINE
5
368
100
AcDbEntity
8
0
100
AcDbPolyline
90
10
70
1
43
0.0
10
658.1627575223813
20
-161.55552087367963
10
531.01045752238065
20
-168.21929054741082
10
403.85815752238136
20
-161.55552087367963
10
402.86115752238152
20
-180.58129587367969
10
401.86415752238133
20
-199.60707087367973
10
501.72711099783868
20
-204.84066649797424
10
503.120962660808
20
-204.91371516828025
42
-0.72989472544718936
10
558.89995238395443
20
-204.91371516828022
10
560.29380404692392
20
-204.84066649797401
10
660.15675752238144
20
-199.60707087367973
0
LINE
5
369
100
AcDbEntity
8
0
100
AcDbLine
10
418.40138684955411
20
-123.03508940740059
30
0
11
549.49870383327527
21
-129.9056086604823
31
0
0
LINE
5
370
100
AcDbEntity
8
0
100
AcDbLine
10
679.89171384314193
20
-123.03508940740051
30
0
11
549.49870383327527
21
-129.9056086604823
31
0
0
ARC
5
371
100
AcDbEntity
8
0
100
AcDbCircle
10
418.84624247761934
20
-114.54673836198693
30
0
40
8.4999999999998526
210
0
220
0
230
1
100
AcDbArc
50
176.99999999999901
51
266.99999999999858
0
LWPOLYLINE
5
372
100
AcDbEntity
8
0
100
AcDbPolyline
90
10
70
1
43
0.0
10
392.37880647696721
20
-215.18799024561451
42
0.41421356237309881
10
400.42230189431586
20
-224.12119691909345
10
530.95727404478794
20
-231.02144243903197
10
661.91065155525939
20
-224.0990794768224
42
0.40347437710495648
10
669.64210856779471
20
-215.18799024561434
10
665.66022056407462
20
-139.08456992946248
42
0.41781750339018564
10
656.6162299818302
20
-131.04139482826582
10
530.95812156613817
20
-137.62137161675301
10
405.40428966297941
20
-131.04750242679836
42
0.4178175033901762
10
396.36680647696721
20
-139.08489024561453
0
ARC
5
373
100
AcDbEntity
8
0
100
AcDbCircle
10
675.14484247761959
20
-38.443638361986778
30
0
40
8.506120384052954
210
0
220
-0
230
1
100
AcDbArc
50
3.0000000000005302
51
93.704103663991944
0
ARC
5
374
100
AcDbEntity
8
0
100
AcDbCircle
10
679.13284247761953
20
-114.54673836198693
30
0
40
8.4999999999994351
210
0
220
0
230
1
100
AcDbArc
50
-84.891252918537845
51
3.0000000000016245
0
LWPOLYLINE
5
375
100
AcDbEntity
8
0
100
AcDbPolyline
90
8
70
1
43
0.0
10
539.46454247761983
20
-96.74233836198681
10
539.46454247761983
20
-87.217338361986791
10
548.98954247761969
20
-87.217338361986791
10
558.51454247761967
20
-87.217338361986791
10
558.51454247761967
20
-96.74233836198681
10
558.51454247761967
20
-106.2673383619868
10
548.98954247761969
20
-106.2673383619868
10
539.46454247761983
20
-106.2673383619868
0
LINE
5
376
100
AcDbEntity
8
0
100
AcDbLine
10
539.46454247761983
20
-87.217338361986791
30
0
11
539.46454247761972
21
-89.74233836198681
31
0
0
LINE
5
377
100
AcDbEntity
8
0
100
AcDbLine
10
558.51454247761967
20
-87.217338361986791
30
0
11
558.51454247761967
21
-89.74233836198681
31
0
0
LINE
5
378
100
AcDbEntity
8
0
100
AcDbLine
10
403.85815752238136
20
-161.55552087367963
30
0
11
401.86415752238133
21
-199.60707087367973
31
0
0
LINE
5
379
100
AcDbEntity
8
0
100
AcDbLine
10
659.15975752238114
20
-180.58129587367969
30
0
11
660.15675752238144
21
-199.60707087367973
31
0
0
LINE
5
380
100
AcDbEntity
8
0
100
AcDbLine
10
658.1627575223813
20
-161.55552087367963
30
0
11
659.15975752238114
21
-180.58129587367969
31
0
0
LINE
5
381
100
AcDbEntity
8
0
100
AcDbLine
10
674.59531493706834
20
-29.955287316572999
30
0
11
548.93720652137631
21
-36.535264105060293
31
0
0
LINE
5
382
100
AcDbEntity
8
0
100
AcDbLine
10
683.63930551931276
20
-37.998462417769673
30
0
11
687.62119352303284
21
-114.10188273392168
31
0
0
LINE
5
383
100
AcDbEntity
8
0
100
AcDbLine
10
88.867388590853295
20
-224.60258572100491
30
0
11
219.96470557457431
21
-231.4731049740866
31
0
0
LINE
5
384
100
AcDbEntity
8
0
100
AcDbLine
10
350.35771558444083
20
-224.60258572100491
30
0
11
219.96470557457431
21
-231.4731049740866
31
0
0
LINE
5
385
100
AcDbEntity
8
0
100
AcDbLine
10
81.826841678713436
20
-177.42097995030971
30
0
11
79.877599594992887
21
-214.61841355652848
31
0
0
LINE
5
386
100
AcDbEntity
8
0
100
AcDbLine
10
355.15016075532981
20
-138.5153135565285
30
0
11
359.13816075532964
21
-214.61841355652834
31
0
0
ARC
5
387
100
AcDbEntity
8
0
100
AcDbCircle
10
89.364580175161223
20
-215.11560514083652
30
0
40
9.4999999999998863
210
0
220
0
230
1
100
AcDbArc
50
176.99999999999963
51
267.00000000000017
0
LWPOLYLINE
5
388
100
AcDbEntity
8
0
100
AcDbPolyline
90
2
70
1
43
0.0
10
350.35673126383597
20
-224.5893687890001
42
0.40779116930708337
10
359.13816075532952
20
-214.61841355652834
42
-0.40779116930708337
0
LINE
5
389
100
AcDbEntity
8
0
100
AcDbLine
10
88.867388590853295
20
-224.60258572100491
30
0
11
219.96470557457431
21
-231.4731049740866
31
0
0
LINE
5
390
100
AcDbEntity
8
0
100
AcDbLine
10
359.13816075532964
20
-214.61841355652834
30
0
11
355.15620527913325
21
-138.5149967764591
31
0
0
LINE
5
391
100
AcDbEntity
8
0
100
AcDbLine
10
224.50676204154988
20
-39.544393237063879
30
0
11
227.27537069434942
21
-35.511032700553997
31
0
0
LWPOLYLINE
5
392
100
AcDbEntity
8
0
100
AcDbPolyline
90
6
70
1
43
0.0
10
978.67323462462366
20
64.641182314891637
10
980.26094786489466
20
67.391182314891637
10
978.67323462462366
20
70.141182314891552
10
975.49780814408052
20
70.141182314891552
10
973.91009490380884
20
67.391182314891637
10
975.49780814408052
20
64.641182314891637
0
LWPOLYLINE
5
393
100
AcDbEntity
8
0
100
AcDbPolyline
90
6
70
1
43
0.0
10
986.04280448503062
20
-15.809496987017839
10
984.45509124475916
20
-13.059496987017841
10
981.27966476421602
20
-13.059496987017841
10
979.69195152394479
20
-15.809496987017839
10
981.27966476421602
20
-18.559496987017837
10
984.45509124475916
20
-18.559496987017837
0
LWPOLYLINE
5
394
100
AcDbEntity
8
0
100
AcDbPolyline
90
6
70
1
43
0.0
10
984.45509124475916
20
-13.059496987017841
10
981.27966476421602
20
-13.059496987017841
10
979.69195152394479
20
-15.809496987017839
10
981.27966476421602
20
-18.559496987017837
10
984.45509124475916
20
-18.559496987017837
10
986.04280448503062
20
-15.809496987017839
0
LWPOLYLINE
5
395
100
AcDbEntity
8
0
100
AcDbPolyline
90
6
70
1
43
0.0
10
979.69195152394479
20
-15.809496987017839
10
981.27966476421602
20
-18.559496987017837
10
984.45509124475916
20
-18.559496987017837
10
986.04280448503062
20
-15.809496987017839
10
984.45509124475916
20
-13.059496987017841
10
981.27966476421602
20
-13.059496987017841
0
LWPOLYLINE
5
396
100
AcDbEntity
8
0
100
AcDbPolyline
90
6
70
1
43
0.0
10
984.45509124475916
20
-18.559496987017837
10
986.04280448503062
20
-15.809496987017839
10
984.45509124475916
20
-13.059496987017841
10
981.27966476421602
20
-13.059496987017841
10
979.69195152394479
20
-15.809496987017839
10
981.27966476421602
20
-18.559496987017837
0
LWPOLYLINE
5
397
100
AcDbEntity
8
0
100
AcDbPolyline
90
6
70
1
43
0.0
10
719.3352592381018
20
64.641182314891751
10
717.74754599783046
20
67.391182314891751
10
719.3352592381018
20
70.141182314891637
10
722.51068571864482
20
70.141182314891637
10
724.09839895891639
20
67.391182314891751
10
722.51068571864482
20
64.641182314891751
0
LWPOLYLINE
5
398
100
AcDbEntity
8
0
100
AcDbPolyline
90
6
70
1
43
0.0
10
719.3352592381018
20
70.141182314891637
10
722.51068571864482
20
70.141182314891637
10
724.09839895891639
20
67.391182314891751
10
722.51068571864482
20
64.641182314891751
10
719.3352592381018
20
64.641182314891751
10
717.74754599783046
20
67.391182314891751
0
LWPOLYLINE
5
399
100
AcDbEntity
8
0
100
AcDbPolyline
90
2
70
1
43
0.0
10
749.39148369270879
20
-19.578927493713049
10
749.43989445223326
20
-18.655195174065142
0
SPLINE
5
400
100
AcDbEntity
8
0
100
AcDbSpline
70
0
71
3
72
8
73
4
74
0
42
0.000000001
43
0.0000000001
44
0.0000000001
40
0
40
0
40
0
40
0
40
1
40
1
40
1
40
1
10
952.46525300154508
20
69.397987682557442
30
0
10
951.14206886799536
20
69.328642540535441
30
0
10
950.12475093513945
20
68.19985326724796
30
0
10
950.19414841311732
20
66.875670504163338
30
0
0
SPLINE
5
401
100
AcDbEntity
8
0
100
AcDbSpline
70
0
71
3
72
8
73
4
74
0
42
0.000000001
43
0.0000000001
44
0.0000000001
40
0
40
0
40
0
40
0
40
1
40
1
40
1
40
1
10
952.46525300154485
20
69.397987682557357
30
0
10
951.14206886799536
20
69.328642540535441
30
0
10
950.12475093513899
20
68.19985326724796
30
0
10
950.19414841311686
20
66.875670504163253
30
0
0
SPLINE
5
402
100
AcDbEntity
8
0
100
AcDbSpline
70
0
71
3
72
8
73
4
74
0
42
0.000000001
43
0.0000000001
44
0.0000000001
40
0
40
0
40
0
40
0
40
1
40
1
40
1
40
1
10
745.54999241361418
20
69.526088825569047
30
0
10
746.87317654716367
20
69.45674368354716
30
0
10
747.89049448002004
20
68.327954410259537
30
0
10
747.82109700204205
20
67.003771647175057
30
0
0
SPLINE
5
403
100
AcDbEntity
8
0
100
AcDbSpline
70
0
71
3
72
8
73
4
74
0
42
0.000000001
43
0.0000000001
44
0.0000000001
40
0
40
0
40
0
40
0
40
1
40
1
40
1
40
1
10
745.54999241361418
20
69.526088825568962
30
0
10
746.87317654716367
20
69.45674368354716
30
0
10
747.8904944800197
20
68.327954410259451
30
0
10
747.82109700204182
20
67.003771647174943
30
0
0
SPLINE
5
404
100
AcDbEntity
8
0
100
AcDbSpline
70
0
71
3
72
8
73
4
74
0
42
0.000000001
43
0.0000000001
44
0.0000000001
40
0
40
0
40
0
40
0
40
1
40
1
40
1
40
1
10
751.66258828113644
20
-22.101244672107164
30
0
10
750.33940414758672
20
-22.031899530085241
30
0
10
749.32208621473023
20
-20.903110256797646
30
0
10
749.39148369270879
20
-19.578927493713049
30
0
0
SPLINE
5
405
100
AcDbEntity
8
0
100
AcDbSpline
70
0
71
3
72
8
73
4
74
0
42
0.000000001
43
0.0000000001
44
0.0000000001
40
0
40
0
40
0
40
0
40
1
40
1
40
1
40
1
10
751.66258828113644
20
-22.101244672107164
30
0
10
750.33940414758627
20
-22.031899530085358
30
0
10
749.32208621473012
20
-20.903110256797763
30
0
10
749.39148369270856
20
-19.578927493713142
30
0
0
SPLINE
5
406
100
AcDbEntity
8
0
100
AcDbSpline
70
0
71
3
72
8
73
4
74
0
42
0.000000001
43
0.0000000001
44
0.0000000001
40
0
40
0
40
0
40
0
40
1
40
1
40
1
40
1
10
946.81905237084504
20
-21.575761926608443
30
0
10
948.14223650439476
20
-21.506416784586463
30
0
10
949.15955443725124
20
-20.37762751129895
30
0
10
949.0901569592728
20
-19.053444748214361
30
0
0
SPLINE
5
407
100
AcDbEntity
8
0
100
AcDbSpline
70
0
71
3
72
8
73
4
74
0
42
0.000000001
43
0.0000000001
44
0.0000000001
40
0
40
0
40
0
40
0
40
1
40
1
40
1
40
1
10
946.81905237084482
20
-21.575761926608443
30
0
10
948.14223650439476
20
-21.506416784586463
30
0
10
949.15955443725079
20
-20.37762751129895
30
0
10
949.0901569592728
20
-19.053444748214361
30
0
0
LWPOLYLINE
5
408
100
AcDbEntity
8
0
100
AcDbPolyline
90
6
70
1
43
0.0
10
716.72882909850932
20
-18.559496987017837
10
713.5534026179663
20
-18.559496987017837
10
711.96568937769473
20
-15.809496987017839
10
713.5534026179663
20
-13.059496987017951
10
716.72882909850932
20
-13.059496987017951
10
718.31654233878089
20
-15.809496987017839
0
LWPOLYLINE
5
409
100
AcDbEntity
8
0
100
AcDbPolyline
90
2
70
1
43
0.0
10
755.65610779062024
20
-22.310536161122659
10
751.66258828113644
20
-22.101244672107164
0
SPLINE
5
410
100
AcDbEntity
8
0
100
AcDbSpline
70
0
71
3
72
8
73
4
74
0
42
0.000000001
43
0.0000000001
44
0.0000000001
40
0
40
0
40
0
40
0
40
1
40
1
40
1
40
1
10
958.98208831895772
20
67.33622691910125
30
0
10
958.91269084097928
20
68.660409682185843
30
0
10
957.78295527411331
20
69.676676649551041
30
0
10
956.45877251102843
20
69.607279171572927
30
0
0
SPLINE
5
411
100
AcDbEntity
8
0
100
AcDbSpline
70
0
71
3
72
8
73
4
74
0
42
0.000000001
43
0.0000000001
44
0.0000000001
40
0
40
0
40
0
40
0
40
1
40
1
40
1
40
1
10
958.98208831895727
20
67.336226919101136
30
0
10
958.91269084097917
20
68.660409682185758
30
0
10
957.78295527411274
20
69.676676649551041
30
0
10
956.45877251102843
20
69.607279171572856
30
0
0
SPLINE
5
412
100
AcDbEntity
8
0
100
AcDbSpline
70
0
71
3
72
8
73
4
74
0
42
0.000000001
43
0.0000000001
44
0.0000000001
40
0
40
0
40
0
40
0
40
1
40
1
40
1
40
1
10
739.03315709620176
20
67.464328062112941
30
0
10
739.10255457417986
20
68.788510825197449
30
0
10
740.23229014104618
20
69.80477779256276
30
0
10
741.5564729041306
20
69.735380314584546
30
0
0
SPLINE
5
413
100
AcDbEntity
8
0
100
AcDbSpline
70
0
71
3
72
8
73
4
74
0
42
0.000000001
43
0.0000000001
44
0.0000000001
40
0
40
0
40
0
40
0
40
1
40
1
40
1
40
1
10
739.03315709620142
20
67.464328062112855
30
0
10
739.10255457417963
20
68.788510825197562
30
0
10
740.23229014104572
20
69.80477779256276
30
0
10
741.55647290413026
20
69.73538031458466
30
0
0
SPLINE
5
414
100
AcDbEntity
8
0
100
AcDbSpline
70
0
71
3
72
8
73
4
74
0
42
0.000000001
43
0.0000000001
44
0.0000000001
40
0
40
0
40
0
40
0
40
1
40
1
40
1
40
1
10
758.17942359854885
20
-20.039483908650944
30
0
10
758.11002612057064
20
-21.363666671735558
30
0
10
756.98029055370455
20
-22.379933639100763
30
0
10
755.65610779062024
20
-22.310536161122659
30
0
0
SPLINE
5
415
100
AcDbEntity
8
0
100
AcDbSpline
70
0
71
3
72
8
73
4
74
0
42
0.000000001
43
0.0000000001
44
0.0000000001
40
0
40
0
40
0
40
0
40
1
40
1
40
1
40
1
10
758.17942359854874
20
-20.03948390865105
30
0
10
758.11002612057052
20
-21.363666671735643
30
0
10
756.98029055370421
20
-22.379933639100948
30
0
10
755.65610779062001
20
-22.310536161122737
30
0
0
SPLINE
5
416
100
AcDbEntity
8
0
100
AcDbSpline
70
0
71
3
72
8
73
4
74
0
42
0.000000001
43
0.0000000001
44
0.0000000001
40
0
40
0
40
0
40
0
40
1
40
1
40
1
40
1
10
940.30221705343263
20
-19.514001163152241
30
0
10
940.37161453141096
20
-20.838183926236841
30
0
10
941.50135009827693
20
-21.854450893602056
30
0
10
942.82553286136181
20
-21.78505341562396
30
0
0
SPLINE
5
417
100
AcDbEntity
8
0
100
AcDbSpline
70
0
71
3
72
8
73
4
74
0
42
0.000000001
43
0.0000000001
44
0.0000000001
40
0
40
0
40
0
40
0
40
1
40
1
40
1
40
1
10
940.3022170534324
20
-19.514001163152358
30
0
10
940.37161453141084
20
-20.838183926236841
30
0
10
941.50135009827693
20
-21.854450893602056
30
0
10
942.82553286136135
20
-21.78505341562396
30
0
0
LWPOLYLINE
5
418
100
AcDbEntity
8
0
100
AcDbPolyline
90
2
70
1
43
0.0
10
758.22783435807378
20
-19.11575158900305
10
758.17942359854885
20
-20.039483908650944
0
CIRCLE
5
419
100
AcDbEntity
8
0
100
AcDbCircle
10
981.02606203062965
20
-31.64698678589286
30
0
40
1.6749999999999898
210
0
220
0
230
1
0
CIRCLE
5
420
100
AcDbEntity
8
0
100
AcDbCircle
10
981.02606203062965
20
-131.64698678589289
30
0
40
1.6749999999999898
210
0
220
0
230
1
0
CIRCLE
5
421
100
AcDbEntity
8
0
100
AcDbCircle
10
986.80791865076526
20
-114.84766608780241
30
0
40
1.6749999999999898
210
0
220
0
230
1
0
CIRCLE
5
422
100
AcDbEntity
8
0
100
AcDbCircle
10
724.86351312465081
20
-31.64698678589286
30
0
40
1.6749999999999898
210
0
220
0
230
1
0
CIRCLE
5
423
100
AcDbEntity
8
0
100
AcDbCircle
10
724.86351312465081
20
-131.64698678589289
30
0
40
1.6749999999999898
210
0
220
0
230
1
0
CIRCLE
5
424
100
AcDbEntity
8
0
100
AcDbCircle
10
719.08165650451508
20
-114.84766608780241
30
0
40
1.6749999999999898
210
0
220
0
230
1
0
LWPOLYLINE
5
425
100
AcDbEntity
8
0
100
AcDbPolyline
90
10
70
1
43
0.0
10
856.44178757764053
20
-61.395176436847549
10
855.44478757764068
20
-42.371276436847552
10
979.10008757764081
20
-35.883276436847552
10
983.08808757764041
20
-111.98637643684771
10
945.03058757764063
20
-113.98037643684759
10
944.04328757764074
20
-94.956476436847552
10
867.94768757764064
20
-98.944476436847566
10
866.95068757764079
20
-79.92057643684754
10
862.1947875776408
20
-80.169876436847559
10
861.1977875776405
20
-61.14597643684759
0
LWPOLYLINE
5
426
100
AcDbEntity
8
0
100
AcDbPolyline
90
10
70
1
43
0.0
10
843.69478757764068
20
-80.169876436847559
10
844.69178757764075
20
-61.14597643684759
10
849.44778757764061
20
-61.395176436847549
10
850.44478757764068
20
-42.371276436847552
10
726.78948757764078
20
-35.883276436847552
10
722.8014875776405
20
-111.98637643684771
10
760.84928757764078
20
-113.98037643684759
10
761.84628757764074
20
-94.956476436847552
10
837.94188757764061
20
-98.944476436847566
10
838.9388875776408
20
-79.92057643684754
0
LWPOLYLINE
5
427
100
AcDbEntity
8
0
100
AcDbPolyline
90
6
70
1
43
0.0
10
837.94188757764061
20
-98.944476436847566
10
838.9388875776408
20
-79.92057643684754
10
843.69478757764068
20
-80.169876436847559
10
844.69178757764075
20
-61.14597643684759
10
843.69478757764068
20
-80.169876436847559
10
838.9388875776408
20
-79.92057643684754
0
LWPOLYLINE
5
428
100
AcDbEntity
8
0
100
AcDbPolyline
90
2
70
1
43
0.0
10
761.84628757764074
20
-94.956476436847552
10
837.94188757764061
20
-98.944476436847566
0
LWPOLYLINE
5
429
100
AcDbEntity
8
0
100
AcDbPolyline
90
12
70
1
43
0.0
10
878.70588757764051
20
-122.2258764368475
10
877.70888757764067
20
-103.20197643684759
10
934.78058757764074
20
-100.2109764368476
10
935.77758757764047
20
-119.23487643684751
10
878.70588757764051
20
-122.2258764368475
10
935.77758757764047
20
-119.23487643684751
10
935.5283875776405
20
-114.47887643684759
10
935.77758757764047
20
-119.23487643684751
10
878.70588757764051
20
-122.2258764368475
10
935.77758757764047
20
-119.23487643684751
10
935.5283875776405
20
-114.47887643684759
10
935.77758757764047
20
-119.23487643684751
0
LWPOLYLINE
5
430
100
AcDbEntity
8
0
100
AcDbPolyline
90
4
70
1
43
0.0
10
866.95068757764079
20
-79.92057643684754
10
862.1947875776408
20
-80.169876436847559
10
861.1977875776405
20
-61.14597643684759
10
862.1947875776408
20
-80.169876436847559
0
LWPOLYLINE
5
431
100
AcDbEntity
8
0
100
AcDbPolyline
90
2
70
1
43
0.0
10
867.94768757764064
20
-98.944476436847566
10
866.95068757764079
20
-79.92057643684754
0
SPLINE
5
432
100
AcDbEntity
8
0
100
AcDbSpline
70
0
71
3
72
8
73
4
74
0
42
0.000000001
43
0.0000000001
44
0.0000000001
40
0
40
0
40
0
40
0
40
1
40
1
40
1
40
1
10
959.57722002380706
20
-131.87726763509681
30
0
10
959.50394968506669
20
-130.47918628644061
30
0
10
957.40682766208238
20
-130.58909179455094
30
0
10
957.48009800082241
20
-131.9871731432072
30
0
0
SPLINE
5
433
100
AcDbEntity
8
0
100
AcDbSpline
70
0
71
3
72
8
73
4
74
0
42
0.000000001
43
0.0000000001
44
0.0000000001
40
0
40
0
40
0
40
0
40
1
40
1
40
1
40
1
10
746.31910668390719
20
-131.74916649208549
30
0
10
746.39237702264722
20
-130.35108514342909
30
0
10
748.48949904563187
20
-130.46099065153928
30
0
10
748.41622870689162
20
-131.85907200019551
30
0
0
SPLINE
5
434
100
AcDbEntity
8
0
100
AcDbSpline
70
0
71
3
72
8
73
4
74
0
42
0.000000001
43
0.0000000001
44
0.0000000001
40
0
40
0
40
0
40
0
40
1
40
1
40
1
40
1
10
957.48009800082241
20
-131.9871731432072
30
0
10
957.55336833956278
20
-133.38525449186341
30
0
10
959.65049036254743
20
-133.27534898375342
30
0
10
959.57722002380706
20
-131.87726763509681
30
0
0
SPLINE
5
435
100
AcDbEntity
8
0
100
AcDbSpline
70
0
71
3
72
8
73
4
74
0
42
0.000000001
43
0.0000000001
44
0.0000000001
40
0
40
0
40
0
40
0
40
1
40
1
40
1
40
1
10
748.41622870689162
20
-131.85907200019551
30
0
10
748.34295836815159
20
-133.257153348852
30
0
10
746.24583634516694
20
-133.1472478407419
30
0
10
746.31910668390719
20
-131.74916649208549
30
0
0
LWPOLYLINE
5
436
100
AcDbEntity
8
0
100
AcDbPolyline
90
5
70
1
43
0.0
10
771.10898757764073
20
-100.2109764368476
10
770.36118757764052
20
-114.47887643684759
10
770.11198757764066
20
-119.23487643684751
10
827.18368757764051
20
-122.2258764368475
10
828.18068757764081
20
-103.20197643684759
0
LINE
5
437
100
AcDbEntity
8
0
100
AcDbLine
10
959.57722002380706
20
-131.87726763509681
30
0
11
959.57722002380706
21
-131.87726763509681
31
0
0
LINE
5
438
100
AcDbEntity
8
0
100
AcDbLine
10
746.31910668390719
20
-131.74916649208549
30
0
11
746.31910668390719
21
-131.74916649208549
31
0
0
LWPOLYLINE
5
439
100
AcDbEntity
8
0
100
AcDbPolyline
90
2
70
1
43
0.0
10
770.11198757764066
20
-119.23487643684751
10
770.36118757764052
20
-114.47887643684759
0
LWPOLYLINE
5
440
100
AcDbEntity
8
0
100
AcDbPolyline
90
4
70
1
43
0.0
10
983.08808757764041
20
-111.98637643684771
10
979.10008757764081
20
-35.883276436847552
10
855.44478757764068
20
-42.371276436847552
10
979.10008757764081
20
-35.883276436847552
0
LWPOLYLINE
5
441
100
AcDbEntity
8
0
100
AcDbPolyline
90
2
70
1
43
0.0
10
726.78948757764078
20
-35.883276436847552
10
850.44478757764068
20
-42.371276436847552
0
LWPOLYLINE
5
442
100
AcDbEntity
8
0
100
AcDbPolyline
90
2
70
1
43
0.0
10
944.04328757764074
20
-94.956476436847552
10
867.94768757764064
20
-98.944476436847566
0
LWPOLYLINE
5
443
100
AcDbEntity
8
0
100
AcDbPolyline
90
2
70
1
43
0.0
10
851.47807895324149
20
57.166207431314064
10
848.97807895324149
20
57.166207431314064
0
LWPOLYLINE
5
444
100
AcDbEntity
8
0
100
AcDbPolyline
90
2
70
1
43
0.0
10
931.58784693136283
20
-15.440707336063239
10
931.83704693136292
20
-20.196707336063163
0
LWPOLYLINE
5
445
100
AcDbEntity
8
0
100
AcDbPolyline
90
2
70
1
43
0.0
10
931.58784693136283
20
-15.440707336063239
10
931.83704693136292
20
-20.196707336063163
0
LWPOLYLINE
5
446
100
AcDbEntity
8
0
100
AcDbPolyline
90
2
70
1
43
0.0
10
766.17144693136288
20
-20.196707336063163
10
766.39448433457733
20
-15.940022385464463
0
LWPOLYLINE
5
447
100
AcDbEntity
8
0
100
AcDbPolyline
90
2
70
1
43
0.0
10
766.17144693136288
20
-20.196707336063163
10
766.39448433457733
20
-15.940022385464463
0
LWPOLYLINE
5
448
100
AcDbEntity
8
0
100
AcDbPolyline
90
2
70
1
43
0.0
10
770.11198757764066
20
-119.23487643684751
10
770.36118757764052
20
-114.47887643684759
0
LWPOLYLINE
5
449
100
AcDbEntity
8
0
100
AcDbPolyline
90
4
70
1
43
0.0
10
983.08808757764041
20
-111.98637643684771
10
979.10008757764081
20
-35.883276436847552
10
855.44478757764068
20
-42.371276436847552
10
979.10008757764081
20
-35.883276436847552
0
LWPOLYLINE
5
450
100
AcDbEntity
8
0
100
AcDbPolyline
90
2
70
1
43
0.0
10
747.58412344712849
20
62.486189537407853
10
848.97807895324149
20
57.166207431314064
0
LWPOLYLINE
5
451
100
AcDbEntity
8
0
100
AcDbPolyline
90
2
70
1
43
0.0
10
823.24314693136273
20
-23.187707336063141
10
766.17144693136288
20
-20.196707336063163
0
LWPOLYLINE
5
452
100
AcDbEntity
8
0
100
AcDbPolyline
90
2
70
1
43
0.0
10
827.18368757764051
20
-122.2258764368475
10
770.11198757764066
20
-119.23487643684751
0
LWPOLYLINE
5
453
100
AcDbEntity
8
0
100
AcDbPolyline
90
2
70
1
43
0.0
10
851.47807895324149
20
57.166207431314064
10
950.43112164636216
20
62.358094525136245
0
LWPOLYLINE
5
454
100
AcDbEntity
8
0
100
AcDbPolyline
90
2
70
1
43
0.0
10
726.78948757764078
20
-35.883276436847552
10
722.8014875776405
20
-111.98637643684771
0
LWPOLYLINE
5
455
100
AcDbEntity
8
0
100
AcDbPolyline
90
2
70
1
43
0.0
10
931.83704693136292
20
-20.196707336063163
10
874.76534693136318
20
-23.187707336063141
0
LWPOLYLINE
5
456
100
AcDbEntity
8
0
100
AcDbPolyline
90
2
70
1
43
0.0
10
766.39448433457733
20
-15.940022385464463
10
758.4163690534233
20
-15.52243736222036
0
LWPOLYLINE
5
457
100
AcDbEntity
8
0
100
AcDbPolyline
90
2
70
1
43
0.0
10
931.58784693136283
20
-15.440707336063239
10
940.06527159855841
20
-14.996954616721553
0
LWPOLYLINE
5
458
100
AcDbEntity
8
0
100
AcDbPolyline
90
2
70
1
43
0.0
10
931.58784693136283
20
-15.440707336063239
10
931.83704693136292
20
-20.196707336063163
0
LWPOLYLINE
5
459
100
AcDbEntity
8
0
100
AcDbPolyline
90
2
70
1
43
0.0
10
931.58784693136283
20
-15.440707336063239
10
931.83704693136292
20
-20.196707336063163
0
LWPOLYLINE
5
460
100
AcDbEntity
8
0
100
AcDbPolyline
90
2
70
1
43
0.0
10
935.5283875776405
20
-114.47887643684759
10
935.77758757764047
20
-119.23487643684751
0
LWPOLYLINE
5
461
100
AcDbEntity
8
0
100
AcDbPolyline
90
2
70
1
43
0.0
10
766.17144693136288
20
-20.196707336063163
10
766.39448433457733
20
-15.940022385464463
0
LWPOLYLINE
5
462
100
AcDbEntity
8
0
100
AcDbPolyline
90
2
70
1
43
0.0
10
766.17144693136288
20
-20.196707336063163
10
766.39448433457733
20
-15.940022385464463
0
LINE
5
463
100
AcDbEntity
8
0
100
AcDbLine
10
770.11198757764066
20
-119.23487643684751
30
0
11
770.36118757764052
21
-114.47887643684759
31
0
0
LWPOLYLINE
5
464
100
AcDbEntity
8
0
100
AcDbPolyline
90
2
70
1
43
0.0
10
874.76534693136318
20
-23.187707336063141
10
863.75883372345345
20
-9.5189073360631369
0
LWPOLYLINE
5
465
100
AcDbEntity
8
0
100
AcDbPolyline
90
2
70
1
43
0.0
10
874.76534693136318
20
-23.187707336063141
10
863.75883372345345
20
-9.5189073360631369
0
LWPOLYLINE
5
466
100
AcDbEntity
8
0
100
AcDbPolyline
90
2
70
1
43
0.0
10
979.64686169874039
20
-12.922039357941662
10
975.65886169874034
20
63.181060642058249
0
LINE
5
467
100
AcDbEntity
8
0
100
AcDbLine
10
722.3825516945401
20
63.808476552447154
30
0
11
725.32277895324114
21
63.654207431314056
31
0
0
LWPOLYLINE
5
468
100
AcDbEntity
8
0
100
AcDbPolyline
90
2
70
1
43
0.0
10
726.78948757764078
20
-35.883276436847552
10
850.44478757764068
20
-42.371276436847552
0
LWPOLYLINE
5
469
100
AcDbEntity
8
0
100
AcDbPolyline
90
2
70
1
43
0.0
10
834.85213106459378
20
-9.5189073360631369
10
863.75883372345345
20
-9.5189073360631369
0
LWPOLYLINE
5
470
100
AcDbEntity
8
0
100
AcDbPolyline
90
2
70
1
43
0.0
10
834.85213106459378
20
-9.5189073360631369
10
863.75883372345345
20
-9.5189073360631369
0
LWPOLYLINE
5
471
100
AcDbEntity
8
0
100
AcDbPolyline
90
2
70
1
43
0.0
10
823.24314693136273
20
-23.187707336063141
10
766.17144693136288
20
-20.196707336063163
0
LWPOLYLINE
5
472
100
AcDbEntity
8
0
100
AcDbPolyline
90
2
70
1
43
0.0
10
827.18368757764051
20
-122.2258764368475
10
770.11198757764066
20
-119.23487643684751
0
LWPOLYLINE
5
473
100
AcDbEntity
8
0
100
AcDbPolyline
90
2
70
1
43
0.0
10
726.78948757764078
20
-35.883276436847552
10
722.8014875776405
20
-111.98637643684771
0
LWPOLYLINE
5
474
100
AcDbEntity
8
0
100
AcDbPolyline
90
2
70
1
43
0.0
10
834.85213106459378
20
-9.5189073360631369
10
823.24314693136273
20
-23.187707336063141
0
LWPOLYLINE
5
475
100
AcDbEntity
8
0
100
AcDbPolyline
90
2
70
1
43
0.0
10
834.85213106459378
20
-9.5189073360631369
10
823.24314693136273
20
-23.187707336063141
0
LWPOLYLINE
5
476
100
AcDbEntity
8
0
100
AcDbPolyline
90
2
70
1
43
0.0
10
931.83704693136292
20
-20.196707336063163
10
874.76534693136318
20
-23.187707336063141
0
LWPOLYLINE
5
477
100
AcDbEntity
8
0
100
AcDbPolyline
90
2
70
1
43
0.0
10
931.83704693136292
20
-20.196707336063163
10
874.76534693136318
20
-23.187707336063141
0
LWPOLYLINE
5
478
100
AcDbEntity
8
0
100
AcDbPolyline
90
2
70
1
43
0.0
10
749.6284569259534
20
-15.061351514686038
10
718.33546418586411
20
-13.42135412531894
0
LWPOLYLINE
5
479
100
AcDbEntity
8
0
100
AcDbPolyline
90
2
70
1
43
0.0
10
948.85318372602853
20
-14.53586876918726
10
979.64686169874039
20
-12.922039357941662
0
ARC
5
480
100
AcDbEntity
8
0
100
AcDbCircle
10
974.21325335285076
20
62.10392717293935
30
0
40
11.50000000000002
210
0
220
-0
230
1
100
AcDbArc
50
3.0000000000000449
51
92.999999999999915
0
LINE
5
481
100
AcDbEntity
8
0
100
AcDbLine
10
718.30113653222656
20
-35.438420808782439
30
0
11
714.31313653222662
21
-111.54152080878261
31
0
0
LINE
5
482
100
AcDbEntity
8
0
100
AcDbLine
10
987.58843862305412
20
-35.438420808782354
30
0
11
991.57643862305406
21
-111.54152080878231
31
0
0
ARC
5
483
100
AcDbEntity
8
0
100
AcDbCircle
10
719.91191242236005
20
-12.001913757551561
30
0
40
11.500000000000021
210
0
220
0
230
1
100
AcDbArc
50
176.99999999999994
51
267.00000000000006
0
ARC
5
484
100
AcDbEntity
8
0
100
AcDbCircle
10
978.09658144036507
20
-12.001913757551449
30
0
40
11.500000000000011
210
0
220
0
230
1
100
AcDbArc
50
-87.000000000000085
51
2.9999999999998015
0
ARC
5
485
100
AcDbEntity
8
0
100
AcDbCircle
10
722.80148757764027
20
-111.98637643684771
30
0
40
8.499999999999778
210
0
220
0
230
1
100
AcDbArc
50
176.99999999999946
51
266.99999999999977
0
ARC
5
486
100
AcDbEntity
8
0
100
AcDbCircle
10
727.29437249206683
20
-145.1351945210582
30
0
40
8.4999999999999236
210
0
220
0
230
1
100
AcDbArc
50
176.99999999999912
51
266.99999999999977
0
ARC
5
487
100
AcDbEntity
8
0
100
AcDbCircle
10
726.78948757764022
20
-35.883276436847439
30
0
40
8.4999999999998881
210
0
220
-0
230
1
100
AcDbArc
50
86.295896336010927
51
177.00000000000009
0
ARC
5
488
100
AcDbEntity
8
0
100
AcDbCircle
10
727.73578115614896
20
-136.93424192784471
30
0
40
8.4999999999998881
210
0
220
-0
230
1
100
AcDbArc
50
86.295896336010159
51
176.99999999999983
0
ARC
5
489
100
AcDbEntity
8
0
100
AcDbCircle
10
979.10008757764047
20
-35.883276436847439
30
0
40
8.506120384052954
210
0
220
-0
230
1
100
AcDbArc
50
3.0000000000005302
51
93.704103663991944
0
ARC
5
490
100
AcDbEntity
8
0
100
AcDbCircle
10
978.15379399911512
20
-136.9342419279335
30
0
40
8.506120384052954
210
0
220
-0
230
1
100
AcDbArc
50
3.000000000000409
51
93.704103663991944
0
ARC
5
491
100
AcDbEntity
8
0
100
AcDbCircle
10
983.08808757764041
20
-111.98637643684771
30
0
40
8.4999999999994351
210
0
220
0
230
1
100
AcDbArc
50
-84.891252918537091
51
3.000000000002597
0
ARC
5
492
100
AcDbEntity
8
0
100
AcDbCircle
10
978.59807615982447
20
-145.19002952603941
30
0
40
8.4999999999994351
210
0
220
0
230
1
100
AcDbArc
50
-84.891252918537091
51
3.0000000000015028
0
LWPOLYLINE
5
493
100
AcDbEntity
8
0
100
AcDbPolyline
90
2
70
1
43
0.0
10
758.22783435807378
20
-19.11575158900305
10
758.4163690534233
20
-15.52243736222036
0
LWPOLYLINE
5
494
100
AcDbEntity
8
0
100
AcDbPolyline
90
2
70
1
43
0.0
10
749.43989445223326
20
-18.655195174065142
10
749.6284569259534
20
-15.061351514686038
0
LWPOLYLINE
5
495
100
AcDbEntity
8
0
100
AcDbPolyline
90
2
70
1
43
0.0
10
959.21903377383205
20
62.819180372670573
10
975.63269372061882
20
63.680375409435555
0
LWPOLYLINE
5
496
100
AcDbEntity
8
0
100
AcDbPolyline
90
2
70
1
43
0.0
10
738.79621164132732
20
62.947281515682256
10
722.3825516945401
20
63.808476552447154
0
CIRCLE
5
497
100
AcDbEntity
8
0
100
AcDbCircle
10
852.94478757764068
20
-94.181976436847577
30
0
40
5
210
0
220
0
230
1
0
LINE
5
498
100
AcDbEntity
8
0
100
AcDbLine
10
724.39710400666809
20
73.588166822616955
30
0
11
849.00424693136245
21
67.057783179129245
31
0
0
LINE
5
499
100
AcDbEntity
8
0
100
AcDbLine
10
849.00424693136245
20
67.057783179129245
30
0
11
973.61138985605692
21
73.588166822616955
31
0
0
LINE
5
500
100
AcDbEntity
8
0
100
AcDbLine
10
852.89245162139753
20
-33.974902179920953
30
0
11
978.55056003708921
21
-27.394925391433663
31
0
0
LINE
5
501
100
AcDbEntity
8
0
100
AcDbLine
10
727.33861971823853
20
-27.40103298996619
30
0
11
852.89245162139753
21
-33.974902179920953
31
0
0
LWPOLYLINE
5
502
100
AcDbEntity
8
0
100
AcDbPolyline
90
2
70
1
43
0.0
10
738.79621164132732
20
62.947281515682256
10
739.03315709620176
20
67.464328062112941
0
LWPOLYLINE
5
503
100
AcDbEntity
8
0
100
AcDbPolyline
90
2
70
1
43
0.0
10
741.5564729041306
20
69.735380314584546
10
745.54999241361418
20
69.526088825569047
0
LWPOLYLINE
5
504
100
AcDbEntity
8
0
100
AcDbPolyline
90
2
70
1
43
0.0
10
747.82109700204205
20
67.003771647175057
10
747.58412344712849
20
62.486189537407853
0
LWPOLYLINE
5
505
100
AcDbEntity
8
0
100
AcDbPolyline
90
2
70
1
43
0.0
10
950.19414841311732
20
66.875670504163338
10
950.43112164636216
20
62.358094525136245
0
LWPOLYLINE
5
506
100
AcDbEntity
8
0
100
AcDbPolyline
90
2
70
1
43
0.0
10
958.98208831895772
20
67.33622691910125
10
959.21903377383205
20
62.819180372670573
0
LWPOLYLINE
5
507
100
AcDbEntity
8
0
100
AcDbPolyline
90
2
70
1
43
0.0
10
956.45877251102843
20
69.607279171572927
10
952.46525300154508
20
69.397987682557442
0
LWPOLYLINE
5
508
100
AcDbEntity
8
0
100
AcDbPolyline
90
2
70
1
43
0.0
10
940.06527159855841
20
-14.996954616721553
10
940.30221705343263
20
-19.514001163152241
0
LWPOLYLINE
5
509
100
AcDbEntity
8
0
100
AcDbPolyline
90
2
70
1
43
0.0
10
948.85318372602853
20
-14.53586876918726
10
949.0901569592728
20
-19.053444748214361
0
LINE
5
510
100
AcDbEntity
8
0
100
AcDbLine
10
983.8449816105184
20
-120.4526100399905
30
0
11
853.45394893329626
21
-127.3452467353431
31
0
0
LINE
5
511
100
AcDbEntity
8
0
100
AcDbLine
10
722.35663194957522
20
-120.47472748226147
30
0
11
853.45394893329626
21
-127.3452467353431
31
0
0
LINE
5
512
100
AcDbEntity
8
0
100
AcDbLine
10
852.89240503942381
20
-134.976318275811
30
0
11
977.60426645856387
21
-128.44589088251973
31
0
0
LINE
5
513
100
AcDbEntity
8
0
100
AcDbLine
10
728.28491329674739
20
-128.45199848096345
30
0
11
852.89240503942381
21
-134.976318275811
31
0
0
LWPOLYLINE
5
514
100
AcDbEntity
8
0
100
AcDbPolyline
90
2
70
1
43
0.0
10
942.82553286136135
20
-21.78505341562396
10
946.81905237084482
20
-21.575761926608443
0
LWPOLYLINE
5
515
100
AcDbEntity
8
0
100
AcDbPolyline
90
2
70
1
43
0.0
10
722.3825516945401
20
63.808476552447154
10
718.33546418586411
20
-13.421354125318938
0
LINE
5
516
100
AcDbEntity
8
0
100
AcDbLine
10
989.58082109004272
20
-11.400050260757613
30
0
11
985.6974930025284
21
62.705790669733219
31
0
0
LINE
5
517
100
AcDbEntity
8
0
100
AcDbLine
10
719.31004892556621
20
-23.486153407229171
30
0
11
819.17300240102361
21
-28.719749031523556
31
0
0
LINE
5
518
100
AcDbEntity
8
0
100
AcDbLine
10
819.17300240102361
20
-28.719749031523556
30
0
11
849.00424693136176
21
-30.283138310607942
31
0
0
LINE
5
519
100
AcDbEntity
8
0
100
AcDbLine
10
978.69844493715891
20
-23.486153407229061
30
0
11
878.83549146170139
21
-28.71974903152346
31
0
0
LINE
5
520
100
AcDbEntity
8
0
100
AcDbLine
10
878.83549146170139
20
-28.71974903152346
30
0
11
849.00424693136176
21
-30.283138310607942
31
0
0
LINE
5
521
100
AcDbEntity
8
0
100
AcDbLine
10
853.41170977305956
20
-160.31378489641668
30
0
11
979.35497019270247
21
-153.65626312918221
31
0
0
LINE
5
522
100
AcDbEntity
8
0
100
AcDbLine
10
854.41033930781532
20
-160.36657373039554
30
0
11
726.84951686400177
21
-153.62354556647196
31
0
0
LINE
5
523
100
AcDbEntity
8
0
100
AcDbLine
10
719.24743011073519
20
-136.48938629977965
30
0
11
718.80602144665306
21
-144.69033889299305
31
0
0
LINE
5
524
100
AcDbEntity
8
0
100
AcDbLine
10
986.64825704080829
20
-136.48906598371642
30
0
11
987.0864272052379
21
-144.74517389797418
31
0
0
LINE
5
525
100
AcDbEntity
8
0
100
AcDbLine
10
708.4276727726824
20
-11.400050260757686
30
0
11
710.48300370217498
21
27.818000143405648
31
0
0
LWPOLYLINE
5
526
100
AcDbEntity
8
0
100
AcDbPolyline
90
2
70
1
43
0.0
10
749.39148369270879
20
-19.578927493713049
10
749.43989445223326
20
-18.655195174065142
0
SPLINE
5
527
100
AcDbEntity
8
0
100
AcDbSpline
70
0
71
3
72
8
73
4
74
0
42
0.000000001
43
0.0000000001
44
0.0000000001
40
0
40
0
40
0
40
0
40
1
40
1
40
1
40
1
10
952.46525300154508
20
69.397987682557542
30
0
10
951.14206886799536
20
69.32864254053554
30
0
10
950.12475093513945
20
68.199853267248045
30
0
10
950.19414841311732
20
66.875670504163423
30
0
0
SPLINE
5
528
100
AcDbEntity
8
0
100
AcDbSpline
70
0
71
3
72
8
73
4
74
0
42
0.000000001
43
0.0000000001
44
0.0000000001
40
0
40
0
40
0
40
0
40
1
40
1
40
1
40
1
10
952.46525300154485
20
69.397987682557442
30
0
10
951.14206886799536
20
69.32864254053554
30
0
10
950.12475093513899
20
68.199853267248045
30
0
10
950.19414841311686
20
66.875670504163338
30
0
0
SPLINE
5
529
100
AcDbEntity
8
0
100
AcDbSpline
70
0
71
3
72
8
73
4
74
0
42
0.000000001
43
0.0000000001
44
0.0000000001
40
0
40
0
40
0
40
0
40
1
40
1
40
1
40
1
10
745.54999241361418
20
69.526088825569133
30
0
10
746.87317654716367
20
69.456743683547245
30
0
10
747.89049448002004
20
68.327954410259622
30
0
10
747.82109700204205
20
67.003771647175142
30
0
0
SPLINE
5
530
100
AcDbEntity
8
0
100
AcDbSpline
70
0
71
3
72
8
73
4
74
0
42
0.000000001
43
0.0000000001
44
0.0000000001
40
0
40
0
40
0
40
0
40
1
40
1
40
1
40
1
10
745.54999241361418
20
69.526088825569047
30
0
10
746.87317654716367
20
69.456743683547245
30
0
10
747.8904944800197
20
68.327954410259537
30
0
10
747.82109700204182
20
67.003771647175029
30
0
0
SPLINE
5
531
100
AcDbEntity
8
0
100
AcDbSpline
70
0
71
3
72
8
73
4
74
0
42
0.000000001
43
0.0000000001
44
0.0000000001
40
0
40
0
40
0
40
0
40
1
40
1
40
1
40
1
10
751.66258828113644
20
-22.101244672107075
30
0
10
750.33940414758672
20
-22.031899530085163
30
0
10
749.32208621473023
20
-20.903110256797564
30
0
10
749.39148369270879
20
-19.578927493712968
30
0
0
SPLINE
5
532
100
AcDbEntity
8
0
100
AcDbSpline
70
0
71
3
72
8
73
4
74
0
42
0.000000001
43
0.0000000001
44
0.0000000001
40
0
40
0
40
0
40
0
40
1
40
1
40
1
40
1
10
751.66258828113644
20
-22.101244672107075
30
0
10
750.33940414758627
20
-22.031899530085269
30
0
10
749.32208621473012
20
-20.903110256797671
30
0
10
749.39148369270856
20
-19.578927493713049
30
0
0
SPLINE
5
533
100
AcDbEntity
8
0
100
AcDbSpline
70
0
71
3
72
8
73
4
74
0
42
0.000000001
43
0.0000000001
44
0.0000000001
40
0
40
0
40
0
40
0
40
1
40
1
40
1
40
1
10
946.81905237084504
20
-21.575761926608351
30
0
10
948.14223650439476
20
-21.506416784586378
30
0
10
949.15955443725124
20
-20.377627511298876
30
0
10
949.0901569592728
20
-19.053444748214282
30
0
0
SPLINE
5
534
100
AcDbEntity
8
0
100
AcDbSpline
70
0
71
3
72
8
73
4
74
0
42
0.000000001
43
0.0000000001
44
0.0000000001
40
0
40
0
40
0
40
0
40
1
40
1
40
1
40
1
10
946.81905237084482
20
-21.575761926608351
30
0
10
948.14223650439476
20
-21.506416784586378
30
0
10
949.15955443725079
20
-20.377627511298876
30
0
10
949.0901569592728
20
-19.053444748214282
30
0
0
LWPOLYLINE
5
535
100
AcDbEntity
8
0
100
AcDbPolyline
90
2
70
1
43
0.0
10
755.65610779062024
20
-22.310536161122659
10
751.66258828113644
20
-22.101244672107164
0
SPLINE
5
536
100
AcDbEntity
8
0
100
AcDbSpline
70
0
71
3
72
8
73
4
74
0
42
0.000000001
43
0.0000000001
44
0.0000000001
40
0
40
0
40
0
40
0
40
1
40
1
40
1
40
1
10
958.98208831895772
20
67.33622691910135
30
0
10
958.91269084097928
20
68.660409682185929
30
0
10
957.78295527411331
20
69.67667664955114
30
0
10
956.45877251102843
20
69.607279171573026
30
0
0
SPLINE
5
537
100
AcDbEntity
8
0
100
AcDbSpline
70
0
71
3
72
8
73
4
74
0
42
0.000000001
43
0.0000000001
44
0.0000000001
40
0
40
0
40
0
40
0
40
1
40
1
40
1
40
1
10
958.98208831895727
20
67.336226919101222
30
0
10
958.91269084097917
20
68.660409682185843
30
0
10
957.78295527411274
20
69.67667664955114
30
0
10
956.45877251102843
20
69.607279171572927
30
0
0
SPLINE
5
538
100
AcDbEntity
8
0
100
AcDbSpline
70
0
71
3
72
8
73
4
74
0
42
0.000000001
43
0.0000000001
44
0.0000000001
40
0
40
0
40
0
40
0
40
1
40
1
40
1
40
1
10
739.03315709620176
20
67.464328062113026
30
0
10
739.10255457417986
20
68.788510825197534
30
0
10
740.23229014104618
20
69.804777792562845
30
0
10
741.5564729041306
20
69.735380314584631
30
0
0
SPLINE
5
539
100
AcDbEntity
8
0
100
AcDbSpline
70
0
71
3
72
8
73
4
74
0
42
0.000000001
43
0.0000000001
44
0.0000000001
40
0
40
0
40
0
40
0
40
1
40
1
40
1
40
1
10
739.03315709620142
20
67.464328062112941
30
0
10
739.10255457417963
20
68.788510825197648
30
0
10
740.23229014104572
20
69.804777792562845
30
0
10
741.55647290413026
20
69.735380314584745
30
0
0
SPLINE
5
540
100
AcDbEntity
8
0
100
AcDbSpline
70
0
71
3
72
8
73
4
74
0
42
0.000000001
43
0.0000000001
44
0.0000000001
40
0
40
0
40
0
40
0
40
1
40
1
40
1
40
1
10
758.17942359854885
20
-20.039483908650851
30
0
10
758.11002612057064
20
-21.363666671735469
30
0
10
756.98029055370455
20
-22.379933639100674
30
0
10
755.65610779062024
20
-22.31053616112257
30
0
0
SPLINE
5
541
100
AcDbEntity
8
0
100
AcDbSpline
70
0
71
3
72
8
73
4
74
0
42
0.000000001
43
0.0000000001
44
0.0000000001
40
0
40
0
40
0
40
0
40
1
40
1
40
1
40
1
10
758.17942359854874
20
-20.039483908650961
30
0
10
758.11002612057052
20
-21.363666671735558
30
0
10
756.98029055370421
20
-22.379933639100869
30
0
10
755.65610779062001
20
-22.310536161122659
30
0
0
SPLINE
5
542
100
AcDbEntity
8
0
100
AcDbSpline
70
0
71
3
72
8
73
4
74
0
42
0.000000001
43
0.0000000001
44
0.0000000001
40
0
40
0
40
0
40
0
40
1
40
1
40
1
40
1
10
940.30221705343263
20
-19.514001163152162
30
0
10
940.37161453141096
20
-20.838183926236752
30
0
10
941.50135009827693
20
-21.854450893601985
30
0
10
942.82553286136181
20
-21.785053415623882
30
0
0
SPLINE
5
543
100
AcDbEntity
8
0
100
AcDbSpline
70
0
71
3
72
8
73
4
74
0
42
0.000000001
43
0.0000000001
44
0.0000000001
40
0
40
0
40
0
40
0
40
1
40
1
40
1
40
1
10
940.3022170534324
20
-19.514001163152269
30
0
10
940.37161453141084
20
-20.838183926236752
30
0
10
941.50135009827693
20
-21.854450893601985
30
0
10
942.82553286136135
20
-21.785053415623882
30
0
0
LWPOLYLINE
5
544
100
AcDbEntity
8
0
100
AcDbPolyline
90
2
70
1
43
0.0
10
758.22783435807378
20
-19.11575158900305
10
758.17942359854885
20
-20.039483908650944
0
LWPOLYLINE
5
545
100
AcDbEntity
8
0
100
AcDbPolyline
90
2
70
1
43
0.0
10
931.58784693136283
20
-15.440707336063239
10
931.83704693136292
20
-20.196707336063163
0
LWPOLYLINE
5
546
100
AcDbEntity
8
0
100
AcDbPolyline
90
2
70
1
43
0.0
10
931.58784693136283
20
-15.440707336063239
10
931.83704693136292
20
-20.196707336063163
0
LWPOLYLINE
5
547
100
AcDbEntity
8
0
100
AcDbPolyline
90
2
70
1
43
0.0
10
766.17144693136288
20
-20.196707336063163
10
766.39448433457733
20
-15.940022385464463
0
LWPOLYLINE
5
548
100
AcDbEntity
8
0
100
AcDbPolyline
90
2
70
1
43
0.0
10
766.17144693136288
20
-20.196707336063163
10
766.39448433457733
20
-15.940022385464463
0
LWPOLYLINE
5
549
100
AcDbEntity
8
0
100
AcDbPolyline
90
2
70
1
43
0.0
10
747.58412344712849
20
62.486189537407853
10
848.97807895324149
20
57.166207431314064
0
LWPOLYLINE
5
550
100
AcDbEntity
8
0
100
AcDbPolyline
90
2
70
1
43
0.0
10
823.24314693136273
20
-23.187707336063141
10
766.17144693136288
20
-20.196707336063163
0
LWPOLYLINE
5
551
100
AcDbEntity
8
0
100
AcDbPolyline
90
2
70
1
43
0.0
10
851.47807895324149
20
57.166207431314064
10
950.43112164636216
20
62.358094525136245
0
LWPOLYLINE
5
552
100
AcDbEntity
8
0
100
AcDbPolyline
90
2
70
1
43
0.0
10
931.83704693136292
20
-20.196707336063163
10
874.76534693136318
20
-23.187707336063141
0
LWPOLYLINE
5
553
100
AcDbEntity
8
0
100
AcDbPolyline
90
2
70
1
43
0.0
10
766.39448433457733
20
-15.940022385464463
10
758.4163690534233
20
-15.52243736222036
0
LWPOLYLINE
5
554
100
AcDbEntity
8
0
100
AcDbPolyline
90
2
70
1
43
0.0
10
931.58784693136283
20
-15.440707336063239
10
940.06527159855841
20
-14.996954616721553
0
LWPOLYLINE
5
555
100
AcDbEntity
8
0
100
AcDbPolyline
90
2
70
1
43
0.0
10
931.58784693136283
20
-15.440707336063239
10
931.83704693136292
20
-20.196707336063163
0
LWPOLYLINE
5
556
100
AcDbEntity
8
0
100
AcDbPolyline
90
2
70
1
43
0.0
10
931.58784693136283
20
-15.440707336063239
10
931.83704693136292
20
-20.196707336063163
0
LWPOLYLINE
5
557
100
AcDbEntity
8
0
100
AcDbPolyline
90
2
70
1
43
0.0
10
766.17144693136288
20
-20.196707336063163
10
766.39448433457733
20
-15.940022385464463
0
LWPOLYLINE
5
558
100
AcDbEntity
8
0
100
AcDbPolyline
90
2
70
1
43
0.0
10
766.17144693136288
20
-20.196707336063163
10
766.39448433457733
20
-15.940022385464463
0
LWPOLYLINE
5
559
100
AcDbEntity
8
0
100
AcDbPolyline
90
2
70
1
43
0.0
10
874.76534693136318
20
-23.187707336063141
10
863.75883372345345
20
-9.5189073360631369
0
LWPOLYLINE
5
560
100
AcDbEntity
8
0
100
AcDbPolyline
90
2
70
1
43
0.0
10
874.76534693136318
20
-23.187707336063141
10
863.75883372345345
20
-9.5189073360631369
0
LWPOLYLINE
5
561
100
AcDbEntity
8
0
100
AcDbPolyline
90
2
70
1
43
0.0
10
979.64686169874039
20
-12.922039357941662
10
975.65886169874034
20
63.181060642058249
0
LWPOLYLINE
5
562
100
AcDbEntity
8
0
100
AcDbPolyline
90
2
70
1
43
0.0
10
834.85213106459378
20
-9.5189073360631369
10
863.75883372345345
20
-9.5189073360631369
0
LWPOLYLINE
5
563
100
AcDbEntity
8
0
100
AcDbPolyline
90
2
70
1
43
0.0
10
834.85213106459378
20
-9.5189073360631369
10
863.75883372345345
20
-9.5189073360631369
0
LWPOLYLINE
5
564
100
AcDbEntity
8
0
100
AcDbPolyline
90
2
70
1
43
0.0
10
823.24314693136273
20
-23.187707336063141
10
766.17144693136288
20
-20.196707336063163
0
LWPOLYLINE
5
565
100
AcDbEntity
8
0
100
AcDbPolyline
90
2
70
1
43
0.0
10
834.85213106459378
20
-9.5189073360631369
10
823.24314693136273
20
-23.187707336063141
0
LWPOLYLINE
5
566
100
AcDbEntity
8
0
100
AcDbPolyline
90
2
70
1
43
0.0
10
834.85213106459378
20
-9.5189073360631369
10
823.24314693136273
20
-23.187707336063141
0
LWPOLYLINE
5
567
100
AcDbEntity
8
0
100
AcDbPolyline
90
2
70
1
43
0.0
10
931.83704693136292
20
-20.196707336063163
10
874.76534693136318
20
-23.187707336063141
0
LWPOLYLINE
5
568
100
AcDbEntity
8
0
100
AcDbPolyline
90
2
70
1
43
0.0
10
931.83704693136292
20
-20.196707336063163
10
874.76534693136318
20
-23.187707336063141
0
LWPOLYLINE
5
569
100
AcDbEntity
8
0
100
AcDbPolyline
90
2
70
1
43
0.0
10
749.6284569259534
20
-15.061351514686038
10
718.33546418586411
20
-13.42135412531894
0
LWPOLYLINE
5
570
100
AcDbEntity
8
0
100
AcDbPolyline
90
2
70
1
43
0.0
10
948.85318372602853
20
-14.53586876918726
10
979.64686169874039
20
-12.922039357941662
0
LWPOLYLINE
5
571
100
AcDbEntity
8
0
100
AcDbPolyline
90
2
70
1
43
0.0
10
758.22783435807378
20
-19.11575158900305
10
758.4163690534233
20
-15.52243736222036
0
LWPOLYLINE
5
572
100
AcDbEntity
8
0
100
AcDbPolyline
90
2
70
1
43
0.0
10
749.43989445223326
20
-18.655195174065142
10
749.6284569259534
20
-15.061351514686038
0
LWPOLYLINE
5
573
100
AcDbEntity
8
0
100
AcDbPolyline
90
2
70
1
43
0.0
10
959.21903377383205
20
62.819180372670573
10
975.63269372061882
20
63.680375409435555
0
LWPOLYLINE
5
574
100
AcDbEntity
8
0
100
AcDbPolyline
90
2
70
1
43
0.0
10
738.79621164132732
20
62.947281515682256
10
722.3825516945401
20
63.808476552447154
0
LWPOLYLINE
5
575
100
AcDbEntity
8
0
100
AcDbPolyline
90
2
70
1
43
0.0
10
738.79621164132732
20
62.947281515682256
10
739.03315709620176
20
67.464328062112941
0
LWPOLYLINE
5
576
100
AcDbEntity
8
0
100
AcDbPolyline
90
2
70
1
43
0.0
10
741.5564729041306
20
69.735380314584546
10
745.54999241361418
20
69.526088825569047
0
LWPOLYLINE
5
577
100
AcDbEntity
8
0
100
AcDbPolyline
90
2
70
1
43
0.0
10
747.82109700204205
20
67.003771647175057
10
747.58412344712849
20
62.486189537407853
0
LWPOLYLINE
5
578
100
AcDbEntity
8
0
100
AcDbPolyline
90
2
70
1
43
0.0
10
950.19414841311732
20
66.875670504163338
10
950.43112164636216
20
62.358094525136245
0
LWPOLYLINE
5
579
100
AcDbEntity
8
0
100
AcDbPolyline
90
2
70
1
43
0.0
10
958.98208831895772
20
67.33622691910125
10
959.21903377383205
20
62.819180372670573
0
LWPOLYLINE
5
580
100
AcDbEntity
8
0
100
AcDbPolyline
90
2
70
1
43
0.0
10
956.45877251102843
20
69.607279171572927
10
952.46525300154508
20
69.397987682557442
0
LWPOLYLINE
5
581
100
AcDbEntity
8
0
100
AcDbPolyline
90
2
70
1
43
0.0
10
940.06527159855841
20
-14.996954616721553
10
940.30221705343263
20
-19.514001163152241
0
LWPOLYLINE
5
582
100
AcDbEntity
8
0
100
AcDbPolyline
90
2
70
1
43
0.0
10
948.85318372602853
20
-14.53586876918726
10
949.0901569592728
20
-19.053444748214361
0
LWPOLYLINE
5
583
100
AcDbEntity
8
0
100
AcDbPolyline
90
2
70
1
43
0.0
10
722.3825516945401
20
63.808476552447154
10
718.33546418586411
20
-13.421354125318938
0
ARC
5
584
100
AcDbEntity
8
0
100
AcDbCircle
10
724.39710400666809
20
62.088166822616955
30
0
40
11.500000000000002
210
0
220
-0
230
1
100
AcDbArc
50
87.000000000000071
51
176.99999999999994
0
LINE
5
585
100
AcDbEntity
8
0
100
AcDbLine
10
712.91286435699044
20
62.69003031941083
30
0
11
710.48300370217498
21
27.818000143405648
31
0
0
LINE
5
586
100
AcDbEntity
8
0
100
AcDbLine
10
88.65271764289615
20
-28.664811138086019
30
0
11
88.65271764289615
21
-34.164811138085909
31
0
0
ENDSEC
0
SECTION
2
OBJECTS
0
DICTIONARY
5
C
100
AcDbDictionary
3
ACAD_GROUP
350
D
3
ACAD_MLINESTYLE
350
17
0
DICTIONARY
5
D
100
AcDbDictionary
0
DICTIONARY
5
1A
330
C
100
AcDbDictionary
0
DICTIONARY
5
17
100
AcDbDictionary
0
ENDSEC
0
EOF
