999
dxflib 3.26.4.0
  0
SECTION
  2
HEADER
  9
$ACADVER
  1
AC1015
  9
$HANDSEED
  5
FFFF
  9
$DIMADEC
 70
0
  9
$DIMASZ
 40
0.18
  9
$DIMATFIT
 70
0
  9
$DIMAUNIT
 70
0
  9
$DIMAZIN
 70
0
  9
$DIMBLK
  1
0
  9
$DIMBLK1
  1
0
  9
$DIMBLK2
  1
0
  9
$DIMDEC
 70
4
  9
$DIMDLI
 40
0.36
  9
$DIMDSEP
 70
0
  9
$DIMEXE
 40
0.18
  9
$DIMEXO
 40
0.0625
  9
$DIMGAP
 40
0.09
  9
$DIMLFAC
 40
0.0
  9
$DIMLUNIT
 70
2
  9
$DIMSCALE
 40
0.0
  9
$DIMTAD
 70
0
  9
$DIMTIH
 70
0
  9
$DIMTSZ
 40
0.0
  9
$DIMTXT
 40
0.18
  9
$DIMZIN
 70
0
  9
$DWGCODEPAGE
  3
ANSI_1252
  9
$INSUNITS
 70
4
  9
$LTSCALE
 40
1.0
  9
$MAXACTVP
 70
64
  9
$MEASUREMENT
 70
1
  9
$MIRRTEXT
 70
0
  9
$PDMODE
 70
0
  9
$PDSIZE
 40
0.0
  0
ENDSEC
  0
SECTION
  2
TABLES
  0
TABLE
  2
VPORT
  5
8
100
AcDbSymbolTable
 70
1
  0
VPORT
  5
30
100
AcDbSymbolTableRecord
100
AcDbViewportTableRecord
  2
*Active
 70
0
 10
0.0
 20
0.0
 11
1.0
 21
1.0
 12
286.3055555555554861
 22
148.5
 13
0.0
 23
0.0
 14
10.0
 24
10.0
 15
10.0
 25
10.0
 16
0.0
 26
0.0
 36
1.0
 17
0.0
 27
0.0
 37
0.0
 40
297.0
 41
1.92798353909465
 42
50.0
 43
0.0
 44
0.0
 50
0.0
 51
0.0
 71
0
 72
100
 73
1
 74
3
 75
1
 76
1
 77
0
 78
0
281
0
 65
1
110
0.0
120
0.0
130
0.0
111
1.0
121
0.0
131
0.0
112
0.0
122
1.0
132
0.0
 79
0
146
0.0
  0
ENDTAB
  0
TABLE
  2
LTYPE
  5
5
100
AcDbSymbolTable
 70
41
  0
LTYPE
  5
16
100
AcDbSymbolTableRecord
100
AcDbLinetypeTableRecord
  2
Continuous
 70
0
  3
Solid line
 72
65
 73
0
 40
0.0
  0
LTYPE
  5
31
100
AcDbSymbolTableRecord
100
AcDbLinetypeTableRecord
  2
ACAD_ISO13W100
 70
0
  3
ISO double-dash double-dot __ __ . . __ __ . . _
 72
65
 73
8
 40
36.0000000000000071
 49
12.0
 74
0
 49
-3.0
 74
0
 49
12.0
 74
0
 49
-2.9500000000000002
 74
0
 49
0.1
 74
0
 49
-2.9000000000000004
 74
0
 49
0.1
 74
0
 49
-2.9500000000000002
 74
0
  0
LTYPE
  5
32
100
AcDbSymbolTableRecord
100
AcDbLinetypeTableRecord
  2
CENTER2
 70
0
  3
Center (.5x) ___ _ ___ _ ___ _ ___ _ ___ _ ___
 72
65
 73
4
 40
28.5750000000000028
 49
19.0500000000000007
 74
0
 49
-3.1749999999999998
 74
0
 49
3.1749999999999998
 74
0
 49
-3.1749999999999998
 74
0
  0
LTYPE
  5
33
100
AcDbSymbolTableRecord
100
AcDbLinetypeTableRecord
  2
DIVIDE
 70
0
  3
Divide ____ . . ____ . . ____ . . ____ . . ____
 72
65
 73
6
 40
31.7500000000000036
 49
12.6999999999999993
 74
0
 49
-6.2999999999999998
 74
0
 49
0.1
 74
0
 49
-6.25
 74
0
 49
0.1
 74
0
 49
-6.2999999999999998
 74
0
  0
LTYPE
  5
34
100
AcDbSymbolTableRecord
100
AcDbLinetypeTableRecord
  2
ACAD_ISO02W100
 70
0
  3
ISO dash __ __ __ __ __ __ __ __ __ __ __ __ __
 72
65
 73
2
 40
15.0
 49
12.0
 74
0
 49
-3.0
 74
0
  0
LTYPE
  5
35
100
AcDbSymbolTableRecord
100
AcDbLinetypeTableRecord
  2
DASHDOTX2
 70
0
  3
Dash dot (2x) ____  .  ____  .  ____  .  ___
 72
65
 73
4
 40
50.7999999999999972
 49
25.3999999999999986
 74
0
 49
-12.6499999999999986
 74
0
 49
0.1
 74
0
 49
-12.6499999999999986
 74
0
  0
LTYPE
  5
36
100
AcDbSymbolTableRecord
100
AcDbLinetypeTableRecord
  2
ACAD_ISO07W100
 70
0
  3
ISO dot . . . . . . . . . . . . . . . . . . . . 
 72
65
 73
2
 40
3.0
 49
0.1
 74
0
 49
-2.8999999999999999
 74
0
  0
LTYPE
  5
37
100
AcDbSymbolTableRecord
100
AcDbLinetypeTableRecord
  2
HIDDEN2
 70
0
  3
Hidden (.5x) _ _ _ _ _ _ _ _ _ _ _ _ _ _ _ _ _ 
 72
65
 73
2
 40
4.7624999999999993
 49
3.1749999999999998
 74
0
 49
-1.5874999999999999
 74
0
  0
LTYPE
  5
38
100
AcDbSymbolTableRecord
100
AcDbLinetypeTableRecord
  2
HIDDENX2
 70
0
  3
Hidden (2x) ____ ____ ____ ____ ____ ____ ____ 
 72
65
 73
2
 40
19.0499999999999972
 49
12.6999999999999993
 74
0
 49
-6.3499999999999996
 74
0
  0
LTYPE
  5
39
100
AcDbSymbolTableRecord
100
AcDbLinetypeTableRecord
  2
DASHDOT2
 70
0
  3
Dash dot (.5x) _._._._._._._._._._._._._._._.
 72
65
 73
4
 40
12.6999999999999993
 49
6.3499999999999996
 74
0
 49
-3.125
 74
0
 49
0.1
 74
0
 49
-3.125
 74
0
  0
LTYPE
  5
3A
100
AcDbSymbolTableRecord
100
AcDbLinetypeTableRecord
  2
DOT
 70
0
  3
Dot . . . . . . . . . . . . . . . . . . . . . . . .
 72
65
 73
2
 40
6.3499999999999996
 49
0.1
 74
0
 49
-6.25
 74
0
  0
LTYPE
  5
3B
100
AcDbSymbolTableRecord
100
AcDbLinetypeTableRecord
  2
DASHED
 70
0
  3
Dashed __ __ __ __ __ __ __ __ __ __ __ __ __ _
 72
65
 73
2
 40
19.0499999999999972
 49
12.6999999999999993
 74
0
 49
-6.3499999999999996
 74
0
  0
LTYPE
  5
3C
100
AcDbSymbolTableRecord
100
AcDbLinetypeTableRecord
  2
PHANTOM
 70
0
  3
Phantom ______  __  __  ______  __  __  ______ 
 72
65
 73
6
 40
63.5000000000000071
 49
31.75
 74
0
 49
-6.3499999999999996
 74
0
 49
6.3499999999999996
 74
0
 49
-6.3499999999999996
 74
0
 49
6.3499999999999996
 74
0
 49
-6.3499999999999996
 74
0
  0
LTYPE
  5
3D
100
AcDbSymbolTableRecord
100
AcDbLinetypeTableRecord
  2
DOT2
 70
0
  3
Dot (.5x) ........................................
 72
65
 73
2
 40
3.1749999999999998
 49
0.1
 74
0
 49
-3.0749999999999997
 74
0
  0
LTYPE
  5
15
100
AcDbSymbolTableRecord
100
AcDbLinetypeTableRecord
  2
BYLAYER
 70
0
  3

 72
65
 73
0
 40
0.0
  0
LTYPE
  5
3E
100
AcDbSymbolTableRecord
100
AcDbLinetypeTableRecord
  2
ACAD_ISO04W100
 70
0
  3
ISO long-dash dot ____ . ____ . ____ . ____ . _
 72
65
 73
4
 40
30.0
 49
24.0
 74
0
 49
-2.9500000000000002
 74
0
 49
0.1
 74
0
 49
-2.9500000000000002
 74
0
  0
LTYPE
  5
3F
100
AcDbSymbolTableRecord
100
AcDbLinetypeTableRecord
  2
ACAD_ISO11W100
 70
0
  3
ISO double-dash dot __ __ . __ __ . __ __ . __ _
 72
65
 73
6
 40
33.0
 49
12.0
 74
0
 49
-3.0
 74
0
 49
12.0
 74
0
 49
-2.9500000000000002
 74
0
 49
0.1
 74
0
 49
-2.9500000000000002
 74
0
  0
LTYPE
  5
40
100
AcDbSymbolTableRecord
100
AcDbLinetypeTableRecord
  2
ACAD_ISO12W100
 70
0
  3
ISO dash double-dot __ . . __ . . __ . . __ . . 
 72
65
 73
6
 40
21.0
 49
12.0
 74
0
 49
-2.9500000000000002
 74
0
 49
0.1
 74
0
 49
-2.9000000000000004
 74
0
 49
0.1
 74
0
 49
-2.9500000000000002
 74
0
  0
LTYPE
  5
41
100
AcDbSymbolTableRecord
100
AcDbLinetypeTableRecord
  2
BORDER
 70
0
  3
Border __ __ . __ __ . __ __ . __ __ . __ __ .
 72
65
 73
6
 40
44.4499999999999957
 49
12.6999999999999993
 74
0
 49
-6.3499999999999996
 74
0
 49
12.6999999999999993
 74
0
 49
-6.2999999999999998
 74
0
 49
0.1
 74
0
 49
-6.2999999999999998
 74
0
  0
LTYPE
  5
42
100
AcDbSymbolTableRecord
100
AcDbLinetypeTableRecord
  2
DASHED2
 70
0
  3
Dashed (.5x) _ _ _ _ _ _ _ _ _ _ _ _ _ _ _ _ _ 
 72
65
 73
2
 40
9.5249999999999986
 49
6.3499999999999996
 74
0
 49
-3.1749999999999998
 74
0
  0
LTYPE
  5
43
100
AcDbSymbolTableRecord
100
AcDbLinetypeTableRecord
  2
ACAD_ISO08W100
 70
0
  3
ISO long-dash short-dash ____ __ ____ __ ____ _
 72
65
 73
4
 40
36.0
 49
24.0
 74
0
 49
-3.0
 74
0
 49
6.0
 74
0
 49
-3.0
 74
0
  0
LTYPE
  5
44
100
AcDbSymbolTableRecord
100
AcDbLinetypeTableRecord
  2
ACAD_ISO10W100
 70
0
  3
ISO dash dot __ . __ . __ . __ . __ . __ . __ . 
 72
65
 73
4
 40
18.0
 49
12.0
 74
0
 49
-2.9500000000000002
 74
0
 49
0.1
 74
0
 49
-2.9500000000000002
 74
0
  0
LTYPE
  5
45
100
AcDbSymbolTableRecord
100
AcDbLinetypeTableRecord
  2
BORDERX2
 70
0
  3
Border (2x) ____  ____  .  ____  ____  .  ___
 72
65
 73
6
 40
88.8999999999999773
 49
25.3999999999999986
 74
0
 49
-12.6999999999999993
 74
0
 49
25.3999999999999986
 74
0
 49
-12.6499999999999986
 74
0
 49
0.1
 74
0
 49
-12.6499999999999986
 74
0
  0
LTYPE
  5
46
100
AcDbSymbolTableRecord
100
AcDbLinetypeTableRecord
  2
DIVIDEX2
 70
0
  3
Divide (2x) ________  .  .  ________  .  .  _
 72
65
 73
6
 40
63.5
 49
25.3999999999999986
 74
0
 49
-12.6499999999999986
 74
0
 49
0.1
 74
0
 49
-12.5999999999999979
 74
0
 49
0.1
 74
0
 49
-12.6499999999999986
 74
0
  0
LTYPE
  5
47
100
AcDbSymbolTableRecord
100
AcDbLinetypeTableRecord
  2
PHANTOMX2
 70
0
  3
Phantom (2x) ____________    ____    ____   _
 72
65
 73
6
 40
127.0000000000000142
 49
63.5
 74
0
 49
-12.6999999999999993
 74
0
 49
12.6999999999999993
 74
0
 49
-12.6999999999999993
 74
0
 49
12.6999999999999993
 74
0
 49
-12.6999999999999993
 74
0
  0
LTYPE
  5
48
100
AcDbSymbolTableRecord
100
AcDbLinetypeTableRecord
  2
DIVIDE2
 70
0
  3
Divide (.5x) __..__..__..__..__..__..__..__.._
 72
65
 73
6
 40
15.8749999999999982
 49
6.3499999999999996
 74
0
 49
-3.125
 74
0
 49
0.1
 74
0
 49
-3.0750000000000002
 74
0
 49
0.1
 74
0
 49
-3.125
 74
0
  0
LTYPE
  5
49
100
AcDbSymbolTableRecord
100
AcDbLinetypeTableRecord
  2
CENTER
 70
0
  3
Center ____ _ ____ _ ____ _ ____ _ ____ _ ____
 72
65
 73
4
 40
50.8000000000000043
 49
31.75
 74
0
 49
-6.3499999999999996
 74
0
 49
6.3499999999999996
 74
0
 49
-6.3499999999999996
 74
0
  0
LTYPE
  5
4A
100
AcDbSymbolTableRecord
100
AcDbLinetypeTableRecord
  2
ACAD_ISO14W100
 70
0
  3
ISO dash triple-dot __ . . . __ . . . __ . . . _
 72
65
 73
8
 40
24.0000000000000036
 49
12.0
 74
0
 49
-2.9500000000000002
 74
0
 49
0.1
 74
0
 49
-2.9000000000000004
 74
0
 49
0.1
 74
0
 49
-2.9000000000000004
 74
0
 49
0.1
 74
0
 49
-2.9500000000000002
 74
0
  0
LTYPE
  5
4B
100
AcDbSymbolTableRecord
100
AcDbLinetypeTableRecord
  2
ACAD_ISO03W100
 70
0
  3
ISO dash space __    __    __    __    __    __
 72
65
 73
2
 40
30.0
 49
12.0
 74
0
 49
-18.0
 74
0
  0
LTYPE
  5
4C
100
AcDbSymbolTableRecord
100
AcDbLinetypeTableRecord
  2
CENTERX2
 70
0
  3
Center (2x) ________  __  ________  __  _____
 72
65
 73
4
 40
101.6000000000000085
 49
63.5
 74
0
 49
-12.6999999999999993
 74
0
 49
12.6999999999999993
 74
0
 49
-12.6999999999999993
 74
0
  0
LTYPE
  5
4D
100
AcDbSymbolTableRecord
100
AcDbLinetypeTableRecord
  2
PHANTOM2
 70
0
  3
Phantom (.5x) ___ _ _ ___ _ _ ___ _ _ ___ _ _
 72
65
 73
6
 40
31.7500000000000036
 49
15.875
 74
0
 49
-3.1749999999999998
 74
0
 49
3.1749999999999998
 74
0
 49
-3.1749999999999998
 74
0
 49
3.1749999999999998
 74
0
 49
-3.1749999999999998
 74
0
  0
LTYPE
  5
4E
100
AcDbSymbolTableRecord
100
AcDbLinetypeTableRecord
  2
BORDER2
 70
0
  3
Border (.5x) __.__.__.__.__.__.__.__.__.__.__.
 72
65
 73
6
 40
22.2250000000000014
 49
6.3499999999999996
 74
0
 49
-3.1749999999999998
 74
0
 49
6.3499999999999996
 74
0
 49
-3.125
 74
0
 49
0.1
 74
0
 49
-3.125
 74
0
  0
LTYPE
  5
4F
100
AcDbSymbolTableRecord
100
AcDbLinetypeTableRecord
  2
DASHEDX2
 70
0
  3
Dashed (2x) ____  ____  ____  ____  ____  ___
 72
65
 73
2
 40
38.0999999999999943
 49
25.3999999999999986
 74
0
 49
-12.6999999999999993
 74
0
  0
LTYPE
  5
50
100
AcDbSymbolTableRecord
100
AcDbLinetypeTableRecord
  2
HIDDEN
 70
0
  3
Hidden __ __ __ __ __ __ __ __ __ __ __ __ __ __
 72
65
 73
2
 40
9.5249999999999986
 49
6.3499999999999996
 74
0
 49
-3.1749999999999998
 74
0
  0
LTYPE
  5
51
100
AcDbSymbolTableRecord
100
AcDbLinetypeTableRecord
  2
DASHDOT
 70
0
  3
Dash dot __ . __ . __ . __ . __ . __ . __ . __
 72
65
 73
4
 40
25.4000000000000021
 49
12.6999999999999993
 74
0
 49
-6.2999999999999998
 74
0
 49
0.1
 74
0
 49
-6.2999999999999998
 74
0
  0
LTYPE
  5
52
100
AcDbSymbolTableRecord
100
AcDbLinetypeTableRecord
  2
DOTX2
 70
0
  3
Dot (2x) .  .  .  .  .  .  .  .  .  .  .  .  .  .
 72
65
 73
2
 40
12.6999999999999993
 49
0.1
 74
0
 49
-12.5999999999999996
 74
0
  0
LTYPE
  5
53
100
AcDbSymbolTableRecord
100
AcDbLinetypeTableRecord
  2
ACAD_ISO05W100
 70
0
  3
ISO long-dash double-dot ____ .. ____ .. ____ . 
 72
65
 73
6
 40
33.0000000000000071
 49
24.0
 74
0
 49
-2.9500000000000002
 74
0
 49
0.1
 74
0
 49
-2.9000000000000004
 74
0
 49
0.1
 74
0
 49
-2.9500000000000002
 74
0
  0
LTYPE
  5
54
100
AcDbSymbolTableRecord
100
AcDbLinetypeTableRecord
  2
ACAD_ISO06W100
 70
0
  3
ISO long-dash triple-dot ____ ... ____ ... ____
 72
65
 73
8
 40
36.0000000000000071
 49
24.0
 74
0
 49
-2.9500000000000002
 74
0
 49
0.1
 74
0
 49
-2.9000000000000004
 74
0
 49
0.1
 74
0
 49
-2.9000000000000004
 74
0
 49
0.1
 74
0
 49
-2.9500000000000002
 74
0
  0
LTYPE
  5
55
100
AcDbSymbolTableRecord
100
AcDbLinetypeTableRecord
  2
ACAD_ISO09W100
 70
0
  3
ISO long-dash double-short-dash ____ __ __ ____
 72
65
 73
6
 40
45.0
 49
24.0
 74
0
 49
-3.0
 74
0
 49
6.0
 74
0
 49
-3.0
 74
0
 49
6.0
 74
0
 49
-3.0
 74
0
  0
LTYPE
  5
56
100
AcDbSymbolTableRecord
100
AcDbLinetypeTableRecord
  2
ACAD_ISO15W100
 70
0
  3
ISO double-dash triple-dot __ __ . . . __ __ . .
 72
65
 73
10
 40
39.0000000000000071
 49
12.0
 74
0
 49
-3.0
 74
0
 49
12.0
 74
0
 49
-2.9500000000000002
 74
0
 49
0.1
 74
0
 49
-2.9000000000000004
 74
0
 49
0.1
 74
0
 49
-2.9000000000000004
 74
0
 49
0.1
 74
0
 49
-2.9500000000000002
 74
0
  0
LTYPE
  5
14
100
AcDbSymbolTableRecord
100
AcDbLinetypeTableRecord
  2
BYBLOCK
 70
0
  3

 72
65
 73
0
 40
0.0
  0
ENDTAB
  0
TABLE
  2
LAYER
  5
2
100
AcDbSymbolTable
 70
1
  0
LAYER
  5
10
100
AcDbSymbolTableRecord
100
AcDbLayerTableRecord
  2
0
 70
0
 62
7
420
16777215
  6
Continuous
370
5
390
F
  0
ENDTAB
  0
TABLE
  2
STYLE
  5
3
100
AcDbSymbolTable
 70
1
  0
STYLE
  5
57
100
AcDbSymbolTableRecord
100
AcDbTextStyleTableRecord
  2
Standard
 70
0
 40
0.0
 41
1.0
 50
0.0
 71
0
 42
2.5
  3

  4

1001
ACAD
1000
txt
1071
0
  0
ENDTAB
  0
TABLE
  2
VIEW
  5
6
100
AcDbSymbolTable
 70
0
  0
ENDTAB
  0
TABLE
  2
UCS
  5
7
100
AcDbSymbolTable
 70
0
  0
ENDTAB
  0
TABLE
  2
APPID
  5
9
100
AcDbSymbolTable
 70
1
  0
APPID
  5
12
100
AcDbSymbolTableRecord
100
AcDbRegAppTableRecord
  2
ACAD
 70
0
  0
APPID
  5
58
100
AcDbSymbolTableRecord
100
AcDbRegAppTableRecord
  2
QCAD
 70
0
  0
ENDTAB
  0
TABLE
  2
DIMSTYLE
  5
A
100
AcDbSymbolTable
 70
1
100
AcDbDimStyleTable
 71
0
  0
DIMSTYLE
105
27
100
AcDbSymbolTableRecord
100
AcDbDimStyleTableRecord
  2
Standard
 41
0.18
 42
0.0625
 43
3.75
 44
0.18
 70
0
 73
0
 74
0
 77
0
 78
8
140
0.18
141
2.5
143
0.03937007874016
147
0.09
171
3
172
1
271
2
272
2
274
3
278
44
283
0
284
8
340
57
  0
ENDTAB
  0
TABLE
  2
BLOCK_RECORD
  5
1
100
AcDbSymbolTable
 70
1
  0
BLOCK_RECORD
  5
1F
100
AcDbSymbolTableRecord
100
AcDbBlockTableRecord
  2
*Model_Space
340
22
  0
BLOCK_RECORD
  5
1B
100
AcDbSymbolTableRecord
100
AcDbBlockTableRecord
  2
*Paper_Space
340
1E
  0
BLOCK_RECORD
  5
23
100
AcDbSymbolTableRecord
100
AcDbBlockTableRecord
  2
*Paper_Space0
340
26
  0
ENDTAB
  0
ENDSEC
  0
SECTION
  2
BLOCKS
  0
BLOCK
  5
20
100
AcDbEntity
  8
0
100
AcDbBlockBegin
  2
*Model_Space
 70
0
 10
0.0
 20
0.0
 30
0.0
  3
*Model_Space
  1

  0
ENDBLK
  5
21
100
AcDbEntity
  8
0
100
AcDbBlockEnd
  0
BLOCK
  5
1C
100
AcDbEntity
 67
1
  8
0
100
AcDbBlockBegin
  2
*Paper_Space
 70
0
 10
0.0
 20
0.0
 30
0.0
  3
*Paper_Space
  1

  0
ENDBLK
  5
1D
100
AcDbEntity
 67
1
  8
0
100
AcDbBlockEnd
  0
BLOCK
  5
24
100
AcDbEntity
  8
0
100
AcDbBlockBegin
  2
*Paper_Space0
 70
0
 10
0.0
 20
0.0
 30
0.0
  3
*Paper_Space0
  1

  0
ENDBLK
  5
25
100
AcDbEntity
  8
0
100
AcDbBlockEnd
  0
ENDSEC
  0
SECTION
  2
ENTITIES
  0
SPLINE
  5
59
100
AcDbEntity
  8
0
 62
256
370
-1
 48
1.0
  6
BYLAYER
100
AcDbSpline
 70
8
 71
3
 72
8
 73
4
 74
0
 40
0.0
 40
0.0
 40
0.0
 40
0.0
 40
1.0
 40
1.0
 40
1.0
 40
1.0
 10
517.6181538074470154
 20
-193.8866799330556319
 30
0.0
 10
519.1395952587184865
 20
-194.9181677053782948
 30
0.0
 10
519.7146379414645025
 20
-196.1898906734527088
 30
0.0
 10
519.3063849127469211
 20
-197.6224578837573915
 30
0.0
  0
ARC
  5
5A
100
AcDbEntity
  8
0
 62
256
370
-1
 48
1.0
  6
BYLAYER
100
AcDbCircle
 10
514.8170021010539585
 20
-196.2209664328482859
 30
0.0
 40
4.703056061423931
100
AcDbArc
 50
317.6790271897297657
 51
342.6627277297502587
  0
ARC
  5
5B
100
AcDbEntity
  8
0
 62
256
370
-1
 48
1.0
  6
BYLAYER
100
AcDbCircle
 10
511.6124500331741274
 20
-193.2718996632439143
 30
0.0
 40
9.0580389455933865
100
AcDbArc
 50
298.0186661929309366
 51
317.5340250813114267
  0
ARC
  5
5C
100
AcDbEntity
  8
0
 62
256
370
-1
 48
1.0
  6
BYLAYER
100
AcDbCircle
 10
515.4741116392125377
 20
-200.7652610287852042
 30
0.0
 40
0.6386134116250168
100
AcDbArc
 50
272.4115929958120432
 51
308.030264322872199
  0
ARC
  5
5D
100
AcDbEntity
  8
0
 62
256
370
-1
 48
1.0
  6
BYLAYER
100
AcDbCircle
 10
515.4765022838897721
 20
-201.598772873761277
 30
0.0
 40
0.1969911089574903
100
AcDbArc
 50
82.8611863556802746
 51
148.6211356356488125
  0
ARC
  5
5E
100
AcDbEntity
  8
0
 62
256
370
-1
 48
1.0
  6
BYLAYER
100
AcDbCircle
 10
499.867928531777693
 20
-184.8072508939131922
 30
0.0
 40
22.7360245001184964
100
AcDbArc
 50
309.6832618101544199
 51
312.7745888939879251
  0
SPLINE
  5
5F
100
AcDbEntity
  8
0
 62
256
370
-1
 48
1.0
  6
BYLAYER
100
AcDbSpline
 70
8
 71
3
 72
8
 73
4
 74
0
 40
0.0
 40
0.0
 40
0.0
 40
0.0
 40
1.0
 40
1.0
 40
1.0
 40
1.0
 10
514.385858291384011
 20
-202.3045799919535455
 30
0.0
 10
512.6924558094985969
 20
-203.6708824615756441
 30
0.0
 10
510.4326102080779037
 20
-204.9424620827194872
 30
0.0
 10
507.9936409500069203
 20
-205.8994529780193261
 30
0.0
  0
ARC
  5
60
100
AcDbEntity
  8
0
 62
256
370
-1
 48
1.0
  6
BYLAYER
100
AcDbCircle
 10
510.4259681459586773
 20
-212.3586805326511069
 30
0.0
 40
6.9020168205156214
100
AcDbArc
 50
110.634681177168261
 51
113.4743770646158367
  0
ARC
  5
61
100
AcDbEntity
  8
0
 62
256
370
-1
 48
1.0
  6
BYLAYER
100
AcDbCircle
 10
532.8970761639968714
 20
-156.8014644953981076
 30
0.0
 40
55.3110450068640915
100
AcDbArc
 50
242.8723194540490624
 51
244.2025879587482962
  0
ARC
  5
62
100
AcDbEntity
  8
0
 62
256
370
-1
 48
1.0
  6
BYLAYER
100
AcDbCircle
 10
595.4850843680285379
 20
-22.0015974022559995
 30
0.0
 40
203.9273682846485372
100
AcDbArc
 50
244.8525291073826224
 51
245.6480163520847952
  0
SPLINE
  5
63
100
AcDbEntity
  8
0
 62
256
370
-1
 48
1.0
  6
BYLAYER
100
AcDbSpline
 70
8
 71
3
 72
8
 73
4
 74
0
 40
0.0
 40
0.0
 40
0.0
 40
0.0
 40
1.0
 40
1.0
 40
1.0
 40
1.0
 10
511.3974505629208807
 20
-207.7854540113835071
 30
0.0
 10
512.2695943433589036
 20
-208.1798566721595307
 30
0.0
 10
512.2927775811615447
 20
-208.1914899041790363
 30
0.0
 10
512.3614571050327413
 20
-208.2645857016167952
 30
0.0
  0
ARC
  5
64
100
AcDbEntity
  8
0
 62
256
370
-1
 48
1.0
  6
BYLAYER
100
AcDbCircle
 10
511.9760573254467317
 20
-208.5562294080134222
 30
0.0
 40
0.4833105022505548
100
AcDbArc
 50
-8.1231523568406274
 51
37.1158982725003739
  0
ARC
  5
65
100
AcDbEntity
  8
0
 62
256
370
-1
 48
1.0
  6
BYLAYER
100
AcDbCircle
 10
512.0380116007468132
 20
-208.5323442248390506
 30
0.0
 40
0.4265850269706063
100
AcDbArc
 50
286.7679285135560008
 51
347.5209551619958006
  0
ARC
  5
66
100
AcDbEntity
  8
0
 62
256
370
-1
 48
1.0
  6
BYLAYER
100
AcDbCircle
 10
510.978670614724706
 20
-198.2641028770773346
 30
0.0
 40
10.7419629310413001
100
AcDbArc
 50
272.3708945693649639
 51
276.319571621150601
  0
ARC
  5
67
100
AcDbEntity
  8
0
 62
256
370
-1
 48
1.0
  6
BYLAYER
100
AcDbCircle
 10
511.5458998906669876
 20
-214.3909311129289392
 30
0.0
 40
5.3954595912094483
100
AcDbArc
 50
91.3047373925666506
 51
98.28560227799899
  0
ARC
  5
68
100
AcDbEntity
  8
0
 62
256
370
-1
 48
1.0
  6
BYLAYER
100
AcDbCircle
 10
543.1733870361913432
 20
-181.355955753331699
 30
0.0
 40
42.6279731093096714
100
AcDbArc
 50
220.519763651993344
 51
221.3346918277636064
  0
SPLINE
  5
69
100
AcDbEntity
  8
0
 62
256
370
-1
 48
1.0
  6
BYLAYER
100
AcDbSpline
 70
8
 71
3
 72
8
 73
4
 74
0
 40
0.0
 40
0.0
 40
0.0
 40
0.0
 40
1.0
 40
1.0
 40
1.0
 40
1.0
 10
511.1655607080066375
 20
-209.5098745774101019
 30
0.0
 10
511.5989151797907653
 20
-210.0028948368154431
 30
0.0
 10
511.6171058424433795
 20
-210.0292432404328054
 30
0.0
 10
511.6078892339054391
 20
-210.1946435413612164
 30
0.0
  0
ARC
  5
6A
100
AcDbEntity
  8
0
 62
256
370
-1
 48
1.0
  6
BYLAYER
100
AcDbCircle
 10
511.1912316572577311
 20
-210.17635176076584
 30
0.0
 40
0.4170588992158443
100
AcDbArc
 50
256.2878576892348974
 51
357.4862588350762849
  0
ARC
  5
6B
100
AcDbEntity
  8
0
 62
256
370
-1
 48
1.0
  6
BYLAYER
100
AcDbCircle
 10
511.6830818074205354
 20
-209.033564479192961
 30
0.0
 40
1.6568400050938523
100
AcDbArc
 50
231.2807485471795417
 51
249.1128189361834302
  0
ARC
  5
6C
100
AcDbEntity
  8
0
 62
256
370
-1
 48
1.0
  6
BYLAYER
100
AcDbCircle
 10
479.4116187847459969
 20
-258.3481944923544233
 30
0.0
 40
57.2864496674269787
100
AcDbArc
 50
56.9586504171221506
 51
63.5455759659227652
  0
LINE
  5
6D
100
AcDbEntity
  8
0
 62
256
370
-1
 48
1.0
  6
BYLAYER
100
AcDbLine
 10
504.7081757421049133
 20
-206.9539812001610244
 30
0.0
 11
504.5878348514050913
 21
-206.9795377370813299
 31
0.0
  0
LINE
  5
6E
100
AcDbEntity
  8
0
 62
256
370
-1
 48
1.0
  6
BYLAYER
100
AcDbLine
 10
504.93191840842087
 20
-207.0602658676139072
 30
0.0
 11
504.7081757421049133
 21
-206.9539812001610244
 31
0.0
  0
ARC
  5
6F
100
AcDbEntity
  8
0
 62
256
370
-1
 48
1.0
  6
BYLAYER
100
AcDbCircle
 10
505.9399589371209913
 20
-214.2486690705230217
 30
0.0
 40
7.393815651339751
100
AcDbArc
 50
100.5371081549920689
 51
106.3120439950083806
  0
ARC
  5
70
100
AcDbEntity
  8
0
 62
256
370
-1
 48
1.0
  6
BYLAYER
100
AcDbCircle
 10
517.2405668634492031
 20
-191.7613821744048153
 30
0.0
 40
20.3921074280221468
100
AcDbArc
 50
229.0042017105620573
 51
230.392690569086426
  0
ARC
  5
71
100
AcDbEntity
  8
0
 62
256
370
-1
 48
1.0
  6
BYLAYER
100
AcDbCircle
 10
571.354814784037103
 20
-127.278574099866205
 30
0.0
 40
104.5723799707377708
100
AcDbArc
 50
230.0737438959012593
 51
232.1857912833020805
  0
ARC
  5
72
100
AcDbEntity
  8
0
 62
256
370
-1
 48
1.0
  6
BYLAYER
100
AcDbCircle
 10
500.6789379827754374
 20
-218.715294609878498
 30
0.0
 40
10.9968159626417723
100
AcDbArc
 50
48.205011600276805
 51
53.3632367470744455
  0
ARC
  5
73
100
AcDbEntity
  8
0
 62
256
370
-1
 48
1.0
  6
BYLAYER
100
AcDbCircle
 10
507.6600489531209632
 20
-210.7556503892171236
 30
0.0
 40
0.4220105644862916
100
AcDbArc
 50
-73.3608113660820464
 51
34.4719703716183474
  0
SPLINE
  5
74
100
AcDbEntity
  8
0
 62
256
370
-1
 48
1.0
  6
BYLAYER
100
AcDbSpline
 70
8
 71
3
 72
8
 73
4
 74
0
 40
0.0
 40
0.0
 40
0.0
 40
0.0
 40
1.0
 40
1.0
 40
1.0
 40
1.0
 10
507.7808890470606684
 20
-211.1599900833292622
 30
0.0
 10
507.6877622650719104
 20
-211.1871642901680275
 30
0.0
 10
507.6010554086950606
 20
-211.175843304110515
 30
0.0
 10
506.9069230234307497
 20
-211.0460975292341175
 30
0.0
  0
SPLINE
  5
75
100
AcDbEntity
  8
0
 62
256
370
-1
 48
1.0
  6
BYLAYER
100
AcDbSpline
 70
8
 71
3
 72
8
 73
4
 74
0
 40
0.0
 40
0.0
 40
0.0
 40
0.0
 40
1.0
 40
1.0
 40
1.0
 40
1.0
 10
506.9069230234307497
 20
-211.0460975292341175
 30
0.0
 10
506.4485296761770314
 20
-210.9591719854180099
 30
0.0
 10
506.3023171595716576
 20
-210.9380994928811219
 30
0.0
 10
506.3080986187449071
 20
-210.9555318229624561
 30
0.0
  0
ARC
  5
76
100
AcDbEntity
  8
0
 62
256
370
-1
 48
1.0
  6
BYLAYER
100
AcDbCircle
 10
524.6668453632854607
 20
-201.8269347932786957
 30
0.0
 40
20.5030452801660346
100
AcDbArc
 50
206.4381367406128902
 51
208.0436356968419886
  0
ARC
  5
77
100
AcDbEntity
  8
0
 62
256
370
-1
 48
1.0
  6
BYLAYER
100
AcDbCircle
 10
501.7576206971909869
 20
-214.1382943207445351
 30
0.0
 40
5.5053367923297847
100
AcDbArc
 50
22.3090084666603126
 51
29.0349692615123161
  0
ARC
  5
78
100
AcDbEntity
  8
0
 62
256
370
-1
 48
1.0
  6
BYLAYER
100
AcDbCircle
 10
506.468334745859238
 20
-212.1557724107212266
 30
0.0
 40
0.3973152862524262
100
AcDbArc
 50
-74.4335494281606884
 51
15.6699200033684871
  0
ARC
  5
79
100
AcDbEntity
  8
0
 62
256
370
-1
 48
1.0
  6
BYLAYER
100
AcDbCircle
 10
506.4431257245820461
 20
-212.1426985905771119
 30
0.0
 40
0.4171921790057632
100
AcDbArc
 50
241.416160069699373
 51
288.4209260535064914
  0
ARC
  5
7A
100
AcDbEntity
  8
0
 62
256
370
-1
 48
1.0
  6
BYLAYER
100
AcDbCircle
 10
508.7122688013901097
 20
-209.6254024542045897
 30
0.0
 40
3.7960621954239846
100
AcDbArc
 50
221.9012103942753527
 51
229.4324572640070414
  0
ARC
  5
7B
100
AcDbEntity
  8
0
 62
256
370
-1
 48
1.0
  6
BYLAYER
100
AcDbCircle
 10
463.6727308645977814
 20
-251.9001488574194809
 30
0.0
 40
57.9764223791632674
100
AcDbArc
 50
43.2704835810292963
 51
49.7159306452130068
  0
LINE
  5
7C
100
AcDbEntity
  8
0
 62
256
370
-1
 48
1.0
  6
BYLAYER
100
AcDbLine
 10
500.9260042460587101
 20
-207.4821310609187037
 30
0.0
 11
500.6655538943090278
 21
-207.47604430299819
 31
0.0
  0
LINE
  5
7D
100
AcDbEntity
  8
0
 62
256
370
-1
 48
1.0
  6
BYLAYER
100
AcDbLine
 10
501.1589927311109705
 20
-207.6729431672299029
 30
0.0
 11
500.9260042460587101
 21
-207.4821310609187037
 31
0.0
  0
ARC
  5
7E
100
AcDbEntity
  8
0
 62
256
370
-1
 48
1.0
  6
BYLAYER
100
AcDbCircle
 10
500.6300750012215985
 20
-202.0159271282736597
 30
0.0
 40
5.4602324413506365
100
AcDbArc
 50
249.7465562782108464
 51
270.3722927845785762
  0
SPLINE
  5
7F
100
AcDbEntity
  8
0
 62
256
370
-1
 48
1.0
  6
BYLAYER
100
AcDbSpline
 70
8
 71
3
 72
8
 73
4
 74
0
 40
0.0
 40
0.0
 40
0.0
 40
0.0
 40
1.0
 40
1.0
 40
1.0
 40
1.0
 10
498.7398875222911556
 20
-207.1385562977599477
 30
0.0
 10
497.8509977892497318
 20
-206.7608818110475113
 30
0.0
 10
497.1521743026934246
 20
-205.8224395952855161
 30
0.0
 10
496.7801901790592183
 20
-204.5007749970288273
 30
0.0
  0
SPLINE
  5
80
100
AcDbEntity
  8
0
 62
256
370
-1
 48
1.0
  6
BYLAYER
100
AcDbSpline
 70
8
 71
3
 72
8
 73
4
 74
0
 40
0.0
 40
0.0
 40
0.0
 40
0.0
 40
1.0
 40
1.0
 40
1.0
 40
1.0
 10
496.7801901790592183
 20
-204.5007749970288273
 30
0.0
 10
496.4710834985595511
 20
-203.4054834726127865
 30
0.0
 10
496.3610556792785928
 20
-202.0995739125204409
 30
0.0
 10
496.4429902089357256
 20
-200.506754699815815
 30
0.0
  0
ARC
  5
81
100
AcDbEntity
  8
0
 62
256
370
-1
 48
1.0
  6
BYLAYER
100
AcDbCircle
 10
520.845698146828795
 20
-201.8234671407283258
 30
0.0
 40
24.438205465094363
100
AcDbArc
 50
169.3792503339562927
 51
176.9114502029179903
  0
LINE
  5
82
100
AcDbEntity
  8
0
 62
256
370
-1
 48
1.0
  6
BYLAYER
100
AcDbLine
 10
496.8261517244750394
 20
-197.3193272651740244
 30
0.0
 11
496.863281871415893
 21
-197.1330959641800291
 31
0.0
  0
LINE
  5
83
100
AcDbEntity
  8
0
 62
256
370
-1
 48
1.0
  6
BYLAYER
100
AcDbLine
 10
496.863281871415893
 20
-197.1330959641800291
 30
0.0
 11
497.307913602495546
 21
-197.0853895486259262
 31
0.0
  0
ARC
  5
84
100
AcDbEntity
  8
0
 62
256
370
-1
 48
1.0
  6
BYLAYER
100
AcDbCircle
 10
503.6006835681675966
 20
-256.7355407657587989
 30
0.0
 40
59.9811594925247675
100
AcDbArc
 50
88.3994717541893635
 51
96.0221220417121657
  0
SPLINE
  5
85
100
AcDbEntity
  8
0
 62
256
370
-1
 48
1.0
  6
BYLAYER
100
AcDbSpline
 70
8
 71
3
 72
8
 73
4
 74
0
 40
0.0
 40
0.0
 40
0.0
 40
0.0
 40
1.0
 40
1.0
 40
1.0
 40
1.0
 10
505.2760086220762332
 20
-196.7777824685090593
 30
0.0
 10
509.5046402404036598
 20
-196.899799325740446
 30
0.0
 10
513.2372304833487533
 20
-197.4939172700124459
 30
0.0
 10
516.2884858497559435
 20
-198.5305540596394565
 30
0.0
  0
ARC
  5
86
100
AcDbEntity
  8
0
 62
256
370
-1
 48
1.0
  6
BYLAYER
100
AcDbCircle
 10
512.6762348403893839
 20
-209.7347322550690478
 30
0.0
 40
11.7720841990535963
100
AcDbArc
 50
66.9316229637105522
 51
72.1305676041705084
  0
ARC
  5
87
100
AcDbEntity
  8
0
 62
256
370
-1
 48
1.0
  6
BYLAYER
100
AcDbCircle
 10
517.3105177919198923
 20
-198.2815405489180023
 30
0.0
 40
0.6228039798731199
100
AcDbArc
 50
268.0093065264022698
 51
313.5393452789364801
  0
SPLINE
  5
88
100
AcDbEntity
  8
0
 62
256
370
-1
 48
1.0
  6
BYLAYER
100
AcDbSpline
 70
8
 71
3
 72
8
 73
4
 74
0
 40
0.0
 40
0.0
 40
0.0
 40
0.0
 40
1.0
 40
1.0
 40
1.0
 40
1.0
 10
517.7395378899689149
 20
-198.7330120904526325
 30
0.0
 10
518.2515104065743117
 20
-198.1205696796133111
 30
0.0
 10
518.5547853133124363
 20
-197.4703282435934
 30
0.0
 10
518.5884745652767833
 20
-196.9090567475220723
 30
0.0
  0
SPLINE
  5
89
100
AcDbEntity
  8
0
 62
256
370
-1
 48
1.0
  6
BYLAYER
100
AcDbSpline
 70
8
 71
3
 72
8
 73
4
 74
0
 40
0.0
 40
0.0
 40
0.0
 40
0.0
 40
1.0
 40
1.0
 40
1.0
 40
1.0
 10
518.5884745652767833
 20
-196.9090567475220723
 30
0.0
 10
518.635900986962497
 20
-196.1075978866522007
 30
0.0
 10
518.251065118826773
 20
-195.4208270517270591
 30
0.0
 10
517.3773576845084108
 20
-194.7457110522503001
 30
0.0
  0
ARC
  5
8A
100
AcDbEntity
  8
0
 62
256
370
-1
 48
1.0
  6
BYLAYER
100
AcDbCircle
 10
511.9252647999661576
 20
-202.7183529358628107
 30
0.0
 40
9.6585886870705835
100
AcDbArc
 50
55.6337190547382434
 51
64.3662809452643216
  0
ARC
  5
8B
100
AcDbEntity
  8
0
 62
256
370
-1
 48
1.0
  6
BYLAYER
100
AcDbCircle
 10
510.8846207826615
 20
-205.9083811220700113
 30
0.0
 40
12.9923629022655422
100
AcDbArc
 50
66.3151381764631651
 51
71.2470129768483673
  0
SPLINE
  5
8C
100
AcDbEntity
  8
0
 62
256
370
-1
 48
1.0
  6
BYLAYER
100
AcDbSpline
 70
8
 71
3
 72
8
 73
4
 74
0
 40
0.0
 40
0.0
 40
0.0
 40
0.0
 40
1.0
 40
1.0
 40
1.0
 40
1.0
 10
515.061520351092895
 20
-193.6057389757907856
 30
0.0
 10
511.9603746880344488
 20
-192.5579363814359226
 30
0.0
 10
507.0814295389427571
 20
-192.1449050447820639
 30
0.0
 10
500.5176517781515031
 20
-192.3763660605077632
 30
0.0
  0
ARC
  5
8D
100
AcDbEntity
  8
0
 62
256
370
-1
 48
1.0
  6
BYLAYER
100
AcDbCircle
 10
500.0029745617739536
 20
-181.1048429640128177
 30
0.0
 40
11.2832675033377487
100
AcDbArc
 50
269.018379604999609
 51
272.6144082734103904
  0
ARC
  5
8E
100
AcDbEntity
  8
0
 62
256
370
-1
 48
1.0
  6
BYLAYER
100
AcDbCircle
 10
499.903561661685103
 20
-191.962052715057041
 30
0.0
 40
0.43466301994422
100
AcDbArc
 50
197.1099765155502723
 51
257.5256497176273456
  0
ARC
  5
8F
100
AcDbEntity
  8
0
 62
256
370
-1
 48
1.0
  6
BYLAYER
100
AcDbCircle
 10
499.8955705044252227
 20
-191.9801619784641957
 30
0.0
 40
0.4219628278862774
100
AcDbArc
 50
100.6895307849241021
 51
195.0786674521865791
  0
ARC
  5
90
100
AcDbEntity
  8
0
 62
256
370
-1
 48
1.0
  6
BYLAYER
100
AcDbCircle
 10
503.1948180485903777
 20
-256.8245769564812235
 30
0.0
 40
65.3463994585487882
100
AcDbArc
 50
90.500619451261457
 51
92.9627292593803247
  0
ARC
  5
91
100
AcDbEntity
  8
0
 62
256
370
-1
 48
1.0
  6
BYLAYER
100
AcDbCircle
 10
503.9360729200996047
 20
-250.8366936155816234
 30
0.0
 40
59.3705247695830849
100
AcDbArc
 50
83.2922385290760587
 51
91.2664560561706821
  0
SPLINE
  5
92
100
AcDbEntity
  8
0
 62
256
370
-1
 48
1.0
  6
BYLAYER
100
AcDbSpline
 70
8
 71
3
 72
8
 73
4
 74
0
 40
0.0
 40
0.0
 40
0.0
 40
0.0
 40
1.0
 40
1.0
 40
1.0
 40
1.0
 10
510.8708633407588877
 20
-191.8725698347840876
 30
0.0
 10
513.2448401669307714
 20
-192.1803213558636116
 30
0.0
 10
515.1179138796790085
 20
-192.6546225190617747
 30
0.0
 10
516.5609065011954044
 20
-193.309965983648226
 30
0.0
  0
ARC
  5
93
100
AcDbEntity
  8
0
 62
256
370
-1
 48
1.0
  6
BYLAYER
100
AcDbCircle
 10
510.2434507009733125
 20
-206.1426137135805448
 30
0.0
 40
14.303394546340888
100
AcDbArc
 50
58.9636032818383597
 51
63.789180428402517
  0
LINE
  5
94
100
AcDbEntity
  8
0
 62
256
370
-1
 48
1.0
  6
BYLAYER
100
AcDbLine
 10
517.6180303352248302
 20
-193.8868937932177232
 30
0.0
 11
517.6181538074470154
 21
-193.8866799330556319
 31
0.0
  0
ARC
  5
95
100
AcDbEntity
  8
0
 62
256
370
-1
 48
1.0
  6
BYLAYER
100
AcDbCircle
 10
467.9309429784728422
 20
-192.4970601708336915
 30
0.0
 40
28.4579116665920075
100
AcDbArc
 50
349.8737192294613578
 51
350.4260945849888458
  0
SPLINE
  5
96
100
AcDbEntity
  8
0
 62
256
370
-1
 48
1.0
  6
BYLAYER
100
AcDbSpline
 70
8
 71
3
 72
8
 73
4
 74
0
 40
0.0
 40
0.0
 40
0.0
 40
0.0
 40
1.0
 40
1.0
 40
1.0
 40
1.0
 10
495.9455554576290979
 20
-197.5004814069736199
 30
0.0
 10
495.6626340388515928
 20
-199.0966151232898085
 30
0.0
 10
495.1902369393584422
 20
-202.7590664565157965
 30
0.0
 10
496.2062805841592308
 20
-205.3851722410135494
 30
0.0
  0
ARC
  5
97
100
AcDbEntity
  8
0
 62
256
370
-1
 48
1.0
  6
BYLAYER
100
AcDbCircle
 10
503.8891570931319848
 20
-202.2386642258684049
 30
0.0
 40
8.3022348883598767
100
AcDbArc
 50
202.2714632040022877
 51
208.5352312088139684
  0
ARC
  5
98
100
AcDbEntity
  8
0
 62
256
370
-1
 48
1.0
  6
BYLAYER
100
AcDbCircle
 10
496.4233140289884432
 20
-206.326447875106453
 30
0.0
 40
0.2108763374188858
100
AcDbArc
 50
12.6128329175095164
 51
35.2858150633210457
  0
ARC
  5
99
100
AcDbEntity
  8
0
 62
256
370
-1
 48
1.0
  6
BYLAYER
100
AcDbCircle
 10
503.4635084220012686
 20
121.2668514410347171
 30
0.0
 40
327.6185455604228878
100
AcDbArc
 50
268.5073292957807212
 51
268.8046736494678157
  0
LINE
  5
9A
100
AcDbEntity
  8
0
 62
256
370
-1
 48
1.0
  6
BYLAYER
100
AcDbLine
 10
493.2371453838928801
 20
-206.1997052624160176
 30
0.0
 11
493.1796749891134368
 21
-206.1102285727716321
 31
0.0
  0
LINE
  5
9B
100
AcDbEntity
  8
0
 62
256
370
-1
 48
1.0
  6
BYLAYER
100
AcDbLine
 10
494.929349475820004
 20
-206.2405217984210708
 30
0.0
 11
493.2371453838928801
 21
-206.1997052624160176
 31
0.0
  0
SPLINE
  5
9C
100
AcDbEntity
  8
0
 62
256
370
-1
 48
1.0
  6
BYLAYER
100
AcDbSpline
 70
8
 71
3
 72
8
 73
4
 74
0
 40
0.0
 40
0.0
 40
0.0
 40
0.0
 40
1.0
 40
1.0
 40
1.0
 40
1.0
 10
493.1796749891134368
 20
-206.1102285727716321
 30
0.0
 10
492.8811798550051435
 20
-205.6457389775257241
 30
0.0
 10
492.3663404811080682
 20
-204.3155313752969278
 30
0.0
 10
491.9846049906450389
 20
-203.0199288620531775
 30
0.0
  0
SPLINE
  5
9D
100
AcDbEntity
  8
0
 62
256
370
-1
 48
1.0
  6
BYLAYER
100
AcDbSpline
 70
8
 71
3
 72
8
 73
4
 74
0
 40
0.0
 40
0.0
 40
0.0
 40
0.0
 40
1.0
 40
1.0
 40
1.0
 40
1.0
 10
491.9846049906450389
 20
-203.0199288620531775
 30
0.0
 10
490.4173615627805702
 20
-197.691352440276404
 30
0.0
 10
491.0769890181219353
 20
-197.5572947291132948
 30
0.0
 10
494.9482352759733885
 20
-197.2466906330147367
 30
0.0
  0
ARC
  5
9E
100
AcDbEntity
  8
0
 62
256
370
-1
 48
1.0
  6
BYLAYER
100
AcDbCircle
 10
496.5082761640595663
 20
-216.2434245017722105
 30
0.0
 40
19.0606827068941662
100
AcDbArc
 50
91.6028689023365388
 51
94.694682540854572
  0
ARC
  5
9F
100
AcDbEntity
  8
0
 62
256
370
-1
 48
1.0
  6
BYLAYER
100
AcDbCircle
 10
495.9664430216362234
 20
-197.2177307661772545
 30
0.0
 40
0.0288648223308884
100
AcDbArc
 50
-25.5292132799859672
 51
72.5129102044717513
  0
ARC
  5
A0
100
AcDbEntity
  8
0
 62
256
370
-1
 48
1.0
  6
BYLAYER
100
AcDbCircle
 10
499.068637335628182
 20
-198.7133420758967191
 30
0.0
 40
8.7219732730810478
100
AcDbArc
 50
180.647948492004133
 51
186.514909971246226
  0
SPLINE
  5
A1
100
AcDbEntity
  8
0
 62
256
370
-1
 48
1.0
  6
BYLAYER
100
AcDbSpline
 70
8
 71
3
 72
8
 73
4
 74
0
 40
0.0
 40
0.0
 40
0.0
 40
0.0
 40
1.0
 40
1.0
 40
1.0
 40
1.0
 10
490.4029873965611159
 20
-199.7029525598181863
 30
0.0
 10
490.7683749307029757
 20
-202.047174452898787
 30
0.0
 10
491.3714118169269796
 20
-204.4326717048986666
 30
0.0
 10
492.4804117244723329
 20
-206.5441480749960306
 30
0.0
  0
ARC
  5
A2
100
AcDbEntity
  8
0
 62
256
370
-1
 48
1.0
  6
BYLAYER
100
AcDbCircle
 10
449.871840745113218
 20
-153.7012317899265952
 30
0.0
 40
67.8812501535877146
100
AcDbArc
 50
307.8269140865899089
 51
308.8801048097828357
  0
ARC
  5
A3
100
AcDbEntity
  8
0
 62
256
370
-1
 48
1.0
  6
BYLAYER
100
AcDbCircle
 10
1536.9655988393278676
 20
2741.8501945160141986
 30
0.0
 40
3128.9917929793509757
100
AcDbArc
 50
250.3662650926804076
 51
250.4808696823722016
  0
SPLINE
  5
A4
100
AcDbEntity
  8
0
 62
256
370
-1
 48
1.0
  6
BYLAYER
100
AcDbSpline
 70
8
 71
3
 72
8
 73
4
 74
0
 40
0.0
 40
0.0
 40
0.0
 40
0.0
 40
1.0
 40
1.0
 40
1.0
 40
1.0
 10
485.6050158995747097
 20
-205.2213290769769571
 30
0.0
 10
485.5134531986961974
 20
-205.1684653269770138
 30
0.0
 10
486.5894727812882365
 20
-201.1508952955439327
 30
0.0
 10
489.7851904724998349
 20
-199.0295098877189446
 30
0.0
  0
ARC
  5
A5
100
AcDbEntity
  8
0
 62
256
370
-1
 48
1.0
  6
BYLAYER
100
AcDbCircle
 10
492.0686071422758232
 20
-202.2630537991760491
 30
0.0
 40
3.9585095572871221
100
AcDbArc
 50
115.843906847738694
 51
125.2284137203614449
  0
ARC
  5
A6
100
AcDbEntity
  8
0
 62
256
370
-1
 48
1.0
  6
BYLAYER
100
AcDbCircle
 10
489.9128021061193294
 20
-198.7725417923630289
 30
0.0
 40
0.4362057524114676
100
AcDbArc
 50
-5.1866896345263536
 51
9.5123094280586766
  0
SPLINE
  5
A7
100
AcDbEntity
  8
0
 62
256
370
-1
 48
1.0
  6
BYLAYER
100
AcDbSpline
 70
8
 71
3
 72
8
 73
4
 74
0
 40
0.0
 40
0.0
 40
0.0
 40
0.0
 40
1.0
 40
1.0
 40
1.0
 40
1.0
 10
500.1162494051526437
 20
-210.3385353648202454
 30
0.0
 10
500.0860656805700728
 20
-211.6416239982476668
 30
0.0
 10
498.2589135461764727
 20
-212.443227105953298
 30
0.0
 10
497.2931644536398608
 20
-212.9971541571458147
 30
0.0
  0
ARC
  5
A8
100
AcDbEntity
  8
0
 62
256
370
-1
 48
1.0
  6
BYLAYER
100
AcDbCircle
 10
497.6205228567504264
 20
-213.303521537317522
 30
0.0
 40
0.4483575534328427
100
AcDbArc
 50
136.8971256942953971
 51
196.7609795034723277
  0
SPLINE
  5
A9
100
AcDbEntity
  8
0
 62
256
370
-1
 48
1.0
  6
BYLAYER
100
AcDbSpline
 70
8
 71
3
 72
8
 73
4
 74
0
 40
0.0
 40
0.0
 40
0.0
 40
0.0
 40
1.0
 40
1.0
 40
1.0
 40
1.0
 10
497.1912132733350518
 20
-213.4328187813253237
 30
0.0
 10
497.6519783474084306
 20
-214.6822724848994142
 30
0.0
 10
499.5362473860873251
 20
-216.5475883303345768
 30
0.0
 10
499.0099409597436306
 20
-217.9970933566667952
 30
0.0
  0
SPLINE
  5
AA
100
AcDbEntity
  8
0
 62
256
370
-1
 48
1.0
  6
BYLAYER
100
AcDbSpline
 70
8
 71
3
 72
8
 73
4
 74
0
 40
0.0
 40
0.0
 40
0.0
 40
0.0
 40
1.0
 40
1.0
 40
1.0
 40
1.0
 10
499.0099409597436306
 20
-217.9970933566667952
 30
0.0
 10
498.9131923685279162
 20
-218.2431246099907014
 30
0.0
 10
498.2021447808612038
 20
-217.998108491762423
 30
0.0
 10
498.0314487055767358
 20
-217.9301899890301115
 30
0.0
  0
SPLINE
  5
AB
100
AcDbEntity
  8
0
 62
256
370
-1
 48
1.0
  6
BYLAYER
100
AcDbSpline
 70
8
 71
3
 72
8
 73
4
 74
0
 40
0.0
 40
0.0
 40
0.0
 40
0.0
 40
1.0
 40
1.0
 40
1.0
 40
1.0
 10
498.0314487055767358
 20
-217.9301899890301115
 30
0.0
 10
497.1406374847738334
 20
-217.5742586167463912
 30
0.0
 10
495.8893338061536724
 20
-216.6599957193699311
 30
0.0
 10
494.4568151455774796
 20
-215.3190552667226143
 30
0.0
  0
ARC
  5
AC
100
AcDbEntity
  8
0
 62
256
370
-1
 48
1.0
  6
BYLAYER
100
AcDbCircle
 10
506.0439394044891515
 20
-202.7697975606104706
 30
0.0
 40
17.0805537839342918
100
AcDbArc
 50
223.728522063435264
 51
227.2827371175909548
  0
SPLINE
  5
AD
100
AcDbEntity
  8
0
 62
256
370
-1
 48
1.0
  6
BYLAYER
100
AcDbSpline
 70
8
 71
3
 72
8
 73
4
 74
0
 40
0.0
 40
0.0
 40
0.0
 40
0.0
 40
1.0
 40
1.0
 40
1.0
 40
1.0
 10
493.7011361264433162
 20
-214.5765974998545289
 30
0.0
 10
493.6798643603677874
 20
-214.5267990572422434
 30
0.0
 10
493.9730581076312319
 20
-214.3963037016312967
 30
0.0
 10
494.3325019436728098
 20
-213.7268798262510359
 30
0.0
  0
ARC
  5
AE
100
AcDbEntity
  8
0
 62
256
370
-1
 48
1.0
  6
BYLAYER
100
AcDbCircle
 10
489.3900530708169754
 20
-211.1974272279963145
 30
0.0
 40
5.5521105273230624
100
AcDbArc
 50
332.8974853274451675
 51
355.234717470617511
  0
LINE
  5
AF
100
AcDbEntity
  8
0
 62
256
370
-1
 48
1.0
  6
BYLAYER
100
AcDbLine
 10
494.9229720594988748
 20
-211.6586633630669496
 30
0.0
 11
494.9490178468768136
 21
-211.4185351804498225
 31
0.0
  0
ARC
  5
B0
100
AcDbEntity
  8
0
 62
256
370
-1
 48
1.0
  6
BYLAYER
100
AcDbCircle
 10
504.654838422424632
 20
-236.6225368188241305
 30
0.0
 40
27.0082330342416341
100
AcDbArc
 50
104.8500738290072576
 51
111.0612193384953059
  0
SPLINE
  5
B1
100
AcDbEntity
  8
0
 62
256
370
-1
 48
1.0
  6
BYLAYER
100
AcDbSpline
 70
8
 71
3
 72
8
 73
4
 74
0
 40
0.0
 40
0.0
 40
0.0
 40
0.0
 40
1.0
 40
1.0
 40
1.0
 40
1.0
 10
497.7328816693193403
 20
-210.5163849319596352
 30
0.0
 10
498.0089234415070223
 20
-210.4996998908525256
 30
0.0
 10
499.950620627015951
 20
-209.8283467126377957
 30
0.0
 10
500.1162494051526437
 20
-210.3385353648204443
 30
0.0
  0
ARC
  5
B2
100
AcDbEntity
  8
0
 62
256
370
-1
 48
1.0
  6
BYLAYER
100
AcDbCircle
 10
165.7555260361204148
 20
216.8327146656955051
 30
0.0
 40
536.5511357238390246
100
AcDbArc
 50
306.8932918334882629
 51
307.366470082435967
  0
ARC
  5
B3
100
AcDbEntity
  8
0
 62
256
370
-1
 48
1.0
  6
BYLAYER
100
AcDbCircle
 10
489.481236862751075
 20
-210.0940827539715201
 30
0.0
 40
2.718015023594496
100
AcDbArc
 50
224.2750255589143649
 51
233.4197799479036917
  0
SPLINE
  5
B4
100
AcDbEntity
  8
0
 62
256
370
-1
 48
1.0
  6
BYLAYER
100
AcDbSpline
 70
8
 71
3
 72
8
 73
4
 74
0
 40
0.0
 40
0.0
 40
0.0
 40
0.0
 40
1.0
 40
1.0
 40
1.0
 40
1.0
 10
487.5351460008560025
 20
-211.9915378985622283
 30
0.0
 10
486.3831877202883334
 20
-210.8219481687050347
 30
0.0
 10
485.7956195840463351
 20
-208.8991727002514267
 30
0.0
 10
485.6318465101380752
 20
-207.9820509851724921
 30
0.0
  0
SPLINE
  5
B5
100
AcDbEntity
  8
0
 62
256
370
-1
 48
1.0
  6
BYLAYER
100
AcDbSpline
 70
8
 71
3
 72
8
 73
4
 74
0
 40
0.0
 40
0.0
 40
0.0
 40
0.0
 40
1.0
 40
1.0
 40
1.0
 40
1.0
 10
485.6318465101380752
 20
-207.9820509851724921
 30
0.0
 10
485.5813299374615326
 20
-207.44230936678332
 30
0.0
 10
485.3943493267574922
 20
-206.6113865067754318
 30
0.0
 10
485.509546010532631
 20
-206.0724877753912949
 30
0.0
  0
ARC
  5
B6
100
AcDbEntity
  8
0
 62
256
370
-1
 48
1.0
  6
BYLAYER
100
AcDbCircle
 10
-171.1157762898108956
 20
-2059.8088464517513785
 30
0.0
 40
1966.5948493181601862
100
AcDbArc
 50
70.3192336263111457
 51
70.4949783417182658
  0
ARC
  5
B7
100
AcDbEntity
  8
0
 62
256
370
-1
 48
1.0
  6
BYLAYER
100
AcDbCircle
 10
468.4159026535967314
 20
-211.912231518773126
 30
0.0
 40
23.0941667360684804
100
AcDbArc
 50
5.7412236515517243
 51
9.5133498140145463
  0
SPLINE
  5
B8
100
AcDbEntity
  8
0
 62
256
370
-1
 48
1.0
  6
BYLAYER
100
AcDbSpline
 70
8
 71
3
 72
8
 73
4
 74
0
 40
0.0
 40
0.0
 40
0.0
 40
0.0
 40
1.0
 40
1.0
 40
1.0
 40
1.0
 10
492.5536124591467342
 20
-214.2202406833891928
 30
0.0
 10
491.7031278051154004
 20
-214.3979233152286952
 30
0.0
 10
490.3729139152264906
 20
-213.967823024117024
 30
0.0
 10
488.9756924667249223
 20
-213.0625982290135596
 30
0.0
  0
SPLINE
  5
B9
100
AcDbEntity
  8
0
 62
256
370
-1
 48
1.0
  6
BYLAYER
100
AcDbSpline
 70
8
 71
3
 72
8
 73
4
 74
0
 40
0.0
 40
0.0
 40
0.0
 40
0.0
 40
1.0
 40
1.0
 40
1.0
 40
1.0
 10
488.9756924667249223
 20
-213.0625982290135596
 30
0.0
 10
488.933330200746127
 20
-213.0244940482347999
 30
0.0
 10
488.5530265412216977
 20
-212.8243970866130326
 30
0.0
 10
488.5987346888618958
 20
-212.7675238081359339
 30
0.0
  0
ARC
  5
BA
100
AcDbEntity
  8
0
 62
256
370
-1
 48
1.0
  6
BYLAYER
100
AcDbCircle
 10
830.903556423695818
 20
-662.4369812137226745
 30
0.0
 40
565.1329152565361937
100
AcDbArc
 50
126.8601310613144051
 51
127.2797162766662922
  0
ARC
  5
BB
100
AcDbEntity
  8
0
 62
256
370
-1
 48
1.0
  6
BYLAYER
100
AcDbCircle
 10
344.2590620551748088
 20
-507.3007446859207903
 30
0.0
 40
331.6981643036051537
100
AcDbArc
 50
63.142496711370562
 51
63.5696915672206657
  0
SPLINE
  5
BC
100
AcDbEntity
  8
0
 62
256
370
-1
 48
1.0
  6
BYLAYER
100
AcDbSpline
 70
8
 71
3
 72
8
 73
4
 74
0
 40
0.0
 40
0.0
 40
0.0
 40
0.0
 40
1.0
 40
1.0
 40
1.0
 40
1.0
 10
494.1113806134189872
 20
-211.3819132048879226
 30
0.0
 10
494.1002425035945862
 20
-212.4456388658929313
 30
0.0
 10
493.6681430366039649
 20
-213.8749887633106539
 30
0.0
 10
492.5536124591467342
 20
-214.2202406833891928
 30
0.0
  0
LWPOLYLINE
  5
BD
100
AcDbEntity
  8
0
 62
256
370
-1
 48
1.0
  6
BYLAYER
100
AcDbPolyline
 90
20
 70
1
 10
217.9937880594843591
 20
62.1713979404494665
 10
215.493788059484217
 20
62.1713979404494665
 10
114.0998325533712148
 20
67.4913800465432843
 10
88.8982608007831061
 20
68.8136670615826063
 10
84.8773412702283849
 20
-7.916848848806346
 10
84.8511732921068926
 20
-8.4161636161836348
 10
116.1441660321962104
 20
-10.0561610055506616
 10
132.9101934408204215
 20
-10.9348318763291612
 10
132.6871560376056323
 20
-15.1915168269278027
 10
189.7588560376057103
 20
-18.1825168269277988
 10
201.3678401708366437
 20
-4.5137168269278121
 10
230.2745428296962018
 20
-4.5137168269278121
 10
241.2810560376057367
 20
-18.1825168269277988
 10
298.3527560376056726
 20
-15.1915168269278027
 10
298.1035560376056424
 20
-10.4355168269278025
 10
306.580980704800993
 20
-9.9917641075861869
 10
346.1625708049830337
 20
-7.9168488488063327
 10
342.1745708049829773
 20
68.1862511511936731
 10
342.1484028268616271
 20
68.6855659185709726
 10
316.946830752604626
 20
67.3632850342716694
  0
LINE
  5
BE
100
AcDbEntity
  8
0
 62
256
370
-1
 48
1.0
  6
BYLAYER
100
AcDbLine
 10
298.1035560376056424
 20
-10.4355168269278025
 30
0.0
 11
298.3527560376056726
 21
-15.1915168269278027
 31
0.0
  0
LINE
  5
BF
100
AcDbEntity
  8
0
 62
256
370
-1
 48
1.0
  6
BYLAYER
100
AcDbLine
 10
132.6871560376056323
 20
-15.1915168269278027
 30
0.0
 11
132.9101934408204215
 21
-10.9348318763291612
 31
0.0
  0
LINE
  5
C0
100
AcDbEntity
  8
0
 62
256
370
-1
 48
1.0
  6
BYLAYER
100
AcDbLine
 10
298.3527560376056726
 20
-15.1915168269278027
 30
0.0
 11
241.2810560376057367
 21
-18.1825168269277988
 31
0.0
  0
LINE
  5
C1
100
AcDbEntity
  8
0
 62
256
370
-1
 48
1.0
  6
BYLAYER
100
AcDbLine
 10
189.7588560376057103
 20
-18.1825168269277988
 30
0.0
 11
132.6871560376056323
 21
-15.1915168269278027
 31
0.0
  0
LWPOLYLINE
  5
C2
100
AcDbEntity
  8
0
 62
256
370
-1
 48
1.0
  6
BYLAYER
100
AcDbPolyline
 90
12
 70
1
 10
499.9011489113253219
 20
21.2902636481636307
 10
500.8981489113253929
 20
40.3141636481636141
 10
505.654148911325251
 20
40.0649636481636264
 10
506.6511489113253219
 20
59.0888636481636098
 10
382.9958489113253108
 20
65.5768636481636236
 10
379.0078489113253113
 20
-10.5262363518363813
 10
417.0556489113253065
 20
-12.5202363518363775
 10
418.0526489113253774
 20
6.5036636481636325
 10
494.1482489113253678
 20
2.5156636481636347
 10
495.1452489113254387
 20
21.5395636481636288
 10
499.9011489113253219
 20
21.2902636481636307
 10
500.8981489113253929
 20
40.3141636481636141
  0
LWPOLYLINE
  5
C3
100
AcDbEntity
  8
0
 62
256
370
-1
 48
1.0
  6
BYLAYER
100
AcDbPolyline
 90
4
 70
1
 10
494.1482489113253678
 20
2.5156636481636347
 10
495.1452489113254387
 20
21.5395636481636288
 10
499.9011489113253219
 20
21.2902636481636307
 10
495.1452489113254387
 20
21.5395636481636288
  0
LWPOLYLINE
  5
C4
100
AcDbEntity
  8
0
 62
256
370
-1
 48
1.0
  6
BYLAYER
100
AcDbPolyline
 90
2
 70
1
 10
418.0526489113253774
 20
6.5036636481636325
 10
494.1482489113253678
 20
2.5156636481636347
  0
LWPOLYLINE
  5
C5
100
AcDbEntity
  8
0
 62
256
370
-1
 48
1.0
  6
BYLAYER
100
AcDbPolyline
 90
4
 70
1
 10
533.9152489113253068
 20
-1.7418363518363726
 10
590.9869489113254986
 20
1.2491636481636279
 10
591.9839489113251148
 20
-17.7747363518363564
 10
534.9122489113253778
 20
-20.7657363518363667
  0
LWPOLYLINE
  5
C6
100
AcDbEntity
  8
0
 62
256
370
-1
 48
1.0
  6
BYLAYER
100
AcDbPolyline
 90
16
 70
1
 10
517.4041489113251373
 20
40.3141636481636141
 10
512.6481489113252792
 20
40.0649636481636264
 10
511.6511489113253219
 20
59.0888636481636098
 10
635.3064489113254467
 20
65.5768636481636236
 10
639.2944489113252757
 20
-10.5262363518363777
 10
601.2369489113254986
 20
-12.5202363518363775
 10
600.2496489113256075
 20
6.5036636481636325
 10
524.1540489113252761
 20
2.5156636481636347
 10
523.1570489113253188
 20
21.5395636481636288
 10
518.4011489113253219
 20
21.2902636481636307
 10
517.4041489113251373
 20
40.3141636481636141
 10
518.4011489113253219
 20
21.2902636481636307
 10
523.1570489113253188
 20
21.5395636481636288
 10
524.1540489113252761
 20
2.5156636481636347
 10
523.1570489113253188
 20
21.5395636481636288
 10
518.4011489113253219
 20
21.2902636481636307
  0
LINE
  5
C7
100
AcDbEntity
  8
0
 62
256
370
-1
 48
1.0
  6
BYLAYER
100
AcDbLine
 10
600.2496489113256075
 20
6.5036636481636325
 30
0.0
 11
524.1540489113252761
 21
2.5156636481636347
 31
0.0
  0
LWPOLYLINE
  5
C8
100
AcDbEntity
  8
0
 62
256
370
-1
 48
1.0
  6
BYLAYER
100
AcDbPolyline
 90
5
 70
1
 10
427.3153489113253158
 20
1.2491636481636279
 10
484.3870489113253939
 20
-1.7418363518363726
 10
483.3900489113253229
 20
-20.7657363518363667
 10
426.3183489113253586
 20
-17.7747363518363564
 10
426.5675489113253889
 20
-13.0187363518363544
  0
LWPOLYLINE
  5
C9
100
AcDbEntity
  8
0
 62
256
370
-1
 48
1.0
  6
BYLAYER
100
AcDbPolyline
 90
2
 70
1
 10
591.7347489113251413
 20
-13.0187363518363544
 10
591.9839489113251148
 20
-17.7747363518363564
  0
LWPOLYLINE
  5
CA
100
AcDbEntity
  8
0
 62
256
370
-1
 48
1.0
  6
BYLAYER
100
AcDbPolyline
 90
2
 70
1
 10
426.3183489113253586
 20
-17.7747363518363564
 10
426.5675489113253889
 20
-13.0187363518363544
  0
LWPOLYLINE
  5
CB
100
AcDbEntity
  8
0
 62
256
370
-1
 48
1.0
  6
BYLAYER
100
AcDbPolyline
 90
4
 70
1
 10
639.2944489113252757
 20
-10.5262363518363777
 10
635.3064489113254467
 20
65.5768636481636236
 10
511.6511489113253219
 20
59.0888636481636098
 10
635.3064489113254467
 20
65.5768636481636236
  0
LWPOLYLINE
  5
CC
100
AcDbEntity
  8
0
 62
256
370
-1
 48
1.0
  6
BYLAYER
100
AcDbPolyline
 90
2
 70
1
 10
382.9958489113253108
 20
65.5768636481636236
 10
506.6511489113253219
 20
59.0888636481636098
  0
LWPOLYLINE
  5
CD
100
AcDbEntity
  8
0
 62
256
370
-1
 48
1.0
  6
BYLAYER
100
AcDbPolyline
 90
2
 70
1
 10
483.3900489113253229
 20
-20.7657363518363667
 10
426.3183489113253586
 20
-17.7747363518363564
  0
LWPOLYLINE
  5
CE
100
AcDbEntity
  8
0
 62
256
370
-1
 48
1.0
  6
BYLAYER
100
AcDbPolyline
 90
2
 70
1
 10
382.9958489113253108
 20
65.5768636481636236
 10
379.0078489113253113
 20
-10.5262363518363813
  0
LWPOLYLINE
  5
CF
100
AcDbEntity
  8
0
 62
256
370
-1
 48
1.0
  6
BYLAYER
100
AcDbPolyline
 90
2
 70
1
 10
591.9839489113251148
 20
-17.7747363518363564
 10
534.9122489113253778
 20
-20.7657363518363667
  0
ARC
  5
D0
100
AcDbEntity
  8
0
 62
256
370
-1
 48
1.0
  6
BYLAYER
100
AcDbCircle
 10
89.3646560376056556
 20
68.1600831730722092
 30
0.0
 40
11.5000000000000195
100
AcDbArc
 50
87.0000000000000142
 51
176.9999999999999432
  0
ARC
  5
D1
100
AcDbEntity
  8
0
 62
256
370
-1
 48
1.0
  6
BYLAYER
100
AcDbCircle
 10
341.6752560376056067
 20
68.1600831730722092
 30
0.0
 40
11.5000000000000195
100
AcDbArc
 50
3.0000000000000449
 51
92.9999999999999147
  0
LINE
  5
D2
100
AcDbEntity
  8
0
 62
256
370
-1
 48
1.0
  6
BYLAYER
100
AcDbLine
 10
77.8804163879280367
 20
68.7619466698660915
 30
0.0
 11
73.8924163879280513
 21
-7.341153330133956
 31
0.0
  0
ARC
  5
D3
100
AcDbEntity
  8
0
 62
256
370
-1
 48
1.0
  6
BYLAYER
100
AcDbCircle
 10
85.3766560376056418
 20
-7.943016826927809
 30
0.0
 40
11.499999999999984
100
AcDbArc
 50
177.0000000000000853
 51
266.9999999999998863
  0
LINE
  5
D4
100
AcDbEntity
  8
0
 62
256
370
-1
 48
1.0
  6
BYLAYER
100
AcDbLine
 10
353.1594956872831972
 20
68.7619466698660773
 30
0.0
 11
357.147495687283083
 21
-7.3411533301339471
 31
0.0
  0
ARC
  5
D5
100
AcDbEntity
  8
0
 62
256
370
-1
 48
1.0
  6
BYLAYER
100
AcDbCircle
 10
345.6632560376055494
 20
-7.9430168269277903
 30
0.0
 40
11.5000000000000107
100
AcDbArc
 50
-87.0000000000000853
 51
2.9999999999998015
  0
LWPOLYLINE
  5
D6
100
AcDbEntity
  8
0
 62
256
370
-1
 48
1.0
  6
BYLAYER
100
AcDbPolyline
 90
12
 70
1
 10
347.7953738704592865
 20
-13.5543064778825428
 10
350.9708003510021967
 20
-13.5543064778825428
 10
352.5585135912737087
 20
-10.8043064778825411
 10
350.9708003510021967
 20
-8.0543064778826512
 10
347.7953738704592865
 20
-8.0543064778826512
 10
346.2076606301877177
 20
-10.8043064778825411
 10
347.7953738704592865
 20
-13.5543064778825428
 10
350.9708003510021967
 20
-13.5543064778825428
 10
352.5585135912737087
 20
-10.8043064778825411
 10
350.9708003510021967
 20
-8.0543064778826512
 10
347.7953738704592865
 20
-8.0543064778826512
 10
346.2076606301877177
 20
-10.8043064778825411
  0
LWPOLYLINE
  5
D7
100
AcDbEntity
  8
0
 62
256
370
-1
 48
1.0
  6
BYLAYER
100
AcDbPolyline
 90
6
 70
1
 10
664.9381552314335977
 20
71.5530154922746533
 10
668.1135817119766216
 20
71.5530154922746533
 10
669.7012949522480767
 20
68.8030154922747954
 10
668.1135817119766216
 20
66.0530154922747954
 10
664.9381552314335977
 20
66.0530154922747954
 10
663.3504419911621426
 20
68.8030154922747954
  0
LWPOLYLINE
  5
D8
100
AcDbEntity
  8
0
 62
256
370
-1
 48
1.0
  6
BYLAYER
100
AcDbPolyline
 90
6
 70
1
 10
84.832251445023644
 20
-10.8043064778825411
 10
83.2445382047521178
 20
-13.5543064778825428
 10
80.0691117242091224
 20
-13.5543064778825428
 10
78.4813984839376957
 20
-10.8043064778825411
 10
80.0691117242091224
 20
-8.0543064778826476
 10
83.2445382047521178
 20
-8.0543064778826565
  0
LWPOLYLINE
  5
D9
100
AcDbEntity
  8
0
 62
256
370
-1
 48
1.0
  6
BYLAYER
100
AcDbPolyline
 90
6
 70
1
 10
347.4216966884674775
 20
-114.6154904399955115
 10
349.0094099287389895
 20
-117.3654904399955115
 10
352.1848364092820702
 20
-117.3654904399955115
 10
353.7725496495533548
 20
-114.6154904399955115
 10
352.1848364092820702
 20
-111.8654904399956109
 10
349.0094099287389895
 20
-111.8654904399956109
  0
LWPOLYLINE
  5
DA
100
AcDbEntity
  8
0
 62
256
370
-1
 48
1.0
  6
BYLAYER
100
AcDbPolyline
 90
6
 70
1
 10
352.1848364092820702
 20
-117.3654904399955115
 10
353.7725496495533548
 20
-114.6154904399955115
 10
352.1848364092820702
 20
-111.8654904399956109
 10
349.0094099287389895
 20
-111.8654904399956109
 10
347.4216966884674775
 20
-114.6154904399955115
 10
349.0094099287389895
 20
-117.3654904399955115
  0
LWPOLYLINE
  5
DB
100
AcDbEntity
  8
0
 62
256
370
-1
 48
1.0
  6
BYLAYER
100
AcDbPolyline
 90
6
 70
1
 10
90.2404308831677042
 20
-28.6648111380860193
 10
91.8281441234392162
 20
-31.4148111380859127
 10
90.2404308831677042
 20
-34.1648111380859092
 10
87.0650044026246661
 20
-34.1648111380859092
 10
85.4772911623532536
 20
-31.4148111380859127
 10
87.0650044026246661
 20
-28.6648111380860193
  0
LWPOLYLINE
  5
DC
100
AcDbEntity
  8
0
 62
256
370
-1
 48
1.0
  6
BYLAYER
100
AcDbPolyline
 90
6
 70
1
 10
84.4585742630319487
 20
-111.8654904399956109
 10
86.0462875033034607
 20
-114.6154904399955115
 10
84.4585742630319487
 20
-117.3654904399955115
 10
81.2831477824889248
 20
-117.3654904399955115
 10
79.6954345422175265
 20
-114.6154904399955115
 10
81.2831477824889248
 20
-111.8654904399956109
  0
LWPOLYLINE
  5
DD
100
AcDbEntity
  8
0
 62
256
370
-1
 48
1.0
  6
BYLAYER
100
AcDbPolyline
 90
29
 70
1
 10
80.0930819809624097
 20
-35.1015732484897711
 10
76.1050819809624102
 20
-111.2046732484898115
 42
0.4142135623730931
 10
86.0411645553345181
 20
-122.2398109039637717
 10
217.1384815390554763
 20
-129.1103301570454107
 10
347.5311180514257785
 20
-122.2338244282683064
 42
0.4113023935225908
 10
357.3629022108083291
 20
-111.2046732484898115
 10
353.3749022108083864
 20
-35.1015732484897924
 42
0.4142135623730995
 10
342.3397645553344546
 20
-25.1654906741178124
 10
230.8396914870624244
 20
-31.0089618935227804
 42
0.2446984432290996
 10
230.0439793471489054
 20
-31.4776721640441366
 10
224.5067620415498766
 20
-39.5443932370638791
 42
0.6068148963146054
 10
225.4071460939492795
 20
-41.0729420360516997
 10
343.3497448693597107
 20
-34.8834017932952563
 10
347.3766068632627935
 20
-111.7280328109192169
 10
299.3175920958852885
 20
-114.246700789040716
 10
299.5667920958853756
 20
-119.0027007890407162
 10
242.4950920958855249
 20
-121.9937007890407017
 10
231.4885788879760184
 20
-108.3249007890407967
 10
202.5818762291163466
 20
-108.3249007890407967
 10
190.9728920958854985
 20
-121.9937007890407017
 10
133.9011920958854205
 20
-119.0027007890407162
 10
134.1242241177639869
 20
-114.7460155564180013
 10
86.0652093503866524
 20
-112.2273475782965875
 10
90.1185639760225854
 20
-34.8779331851833732
 10
207.9672697440958586
 20
-41.1197961313127678
 42
0.606814896314614
 10
208.8676537964952331
 20
-39.591247332325004
 10
203.4073675802859782
 20
-31.5245262593051905
 42
0.2446984432290834
 10
202.6116554403724876
 20
-31.0558159887838556
 10
91.1282196364363841
 20
-25.1654906741176809
 42
0.4142135623730935
  0
LINE
  5
DE
100
AcDbEntity
  8
0
 62
256
370
-1
 48
1.0
  6
BYLAYER
100
AcDbLine
 10
183.4457890017483521
 20
-24.598384280767899
 30
0.0
 11
215.8721095245327319
 21
-26.2977757296871282
 31
0.0
  0
LINE
  5
DF
100
AcDbEntity
  8
0
 62
256
370
-1
 48
1.0
  6
BYLAYER
100
AcDbLine
 10
84.7747925408117595
 20
-19.4272564766054181
 30
0.0
 11
184.6377460162692046
 21
-24.6608521008997705
 31
0.0
  0
LINE
  5
E0
100
AcDbEntity
  8
0
 62
256
370
-1
 48
1.0
  6
BYLAYER
100
AcDbLine
 10
346.2651195343993891
 20
-19.4272564766054003
 30
0.0
 11
246.4021660589419866
 21
-24.6608521008997705
 31
0.0
  0
LINE
  5
E1
100
AcDbEntity
  8
0
 62
256
370
-1
 48
1.0
  6
BYLAYER
100
AcDbLine
 10
184.6377460162692046
 20
-24.6608521008997705
 30
0.0
 11
210.3282290440179452
 21
-26.0072332650927436
 31
0.0
  0
LINE
  5
E2
100
AcDbEntity
  8
0
 62
256
370
-1
 48
1.0
  6
BYLAYER
100
AcDbLine
 10
246.4021660589419866
 20
-24.6608521008997705
 30
0.0
 11
215.5199560376059083
 21
-26.2793201474704929
 31
0.0
  0
LWPOLYLINE
  5
E3
100
AcDbEntity
  8
0
 62
256
370
-1
 48
1.0
  6
BYLAYER
100
AcDbPolyline
 90
6
 70
1
 10
351.7645811086935055
 20
-134.7762154898817073
 10
350.1768678684221072
 20
-132.0262154898817926
 10
347.0014413878791402
 20
-132.0262154898817926
 10
345.4137281476076282
 20
-134.7762154898817073
 10
347.0014413878791402
 20
-137.5262154898817073
 10
350.1768678684221072
 20
-137.5262154898817073
  0
LWPOLYLINE
  5
E4
100
AcDbEntity
  8
0
 62
256
370
-1
 48
1.0
  6
BYLAYER
100
AcDbPolyline
 90
6
 70
1
 10
345.4137281476076282
 20
-134.7762154898817073
 10
347.0014413878791402
 20
-137.5262154898817073
 10
350.1768678684221072
 20
-137.5262154898817073
 10
351.7645811086935055
 20
-134.7762154898817073
 10
350.1768678684221072
 20
-132.0262154898817926
 10
347.0014413878791402
 20
-132.0262154898817926
  0
LWPOLYLINE
  5
E5
100
AcDbEntity
  8
0
 62
256
370
-1
 48
1.0
  6
BYLAYER
100
AcDbPolyline
 90
24
 70
1
 10
350.1768678684221072
 20
-132.0262154898817926
 10
347.0014413878791402
 20
-132.0262154898817926
 10
345.4137281476076282
 20
-134.7762154898817073
 10
347.0014413878791402
 20
-137.5262154898817073
 10
350.1768678684221072
 20
-137.5262154898817073
 10
351.7645811086935055
 20
-134.7762154898817073
 10
350.1768678684221072
 20
-132.0262154898817926
 10
347.0014413878791402
 20
-132.0262154898817926
 10
345.4137281476076282
 20
-134.7762154898817073
 10
347.0014413878791402
 20
-137.5262154898817073
 10
350.1768678684221072
 20
-137.5262154898817073
 10
351.7645811086935055
 20
-134.7762154898817073
 10
350.1768678684221072
 20
-132.0262154898817926
 10
347.0014413878791402
 20
-132.0262154898817926
 10
345.4137281476076282
 20
-134.7762154898817073
 10
347.0014413878791402
 20
-137.5262154898817073
 10
350.1768678684221072
 20
-137.5262154898817073
 10
351.7645811086935055
 20
-134.7762154898817073
 10
350.1768678684221072
 20
-132.0262154898817926
 10
347.0014413878791402
 20
-132.0262154898817926
 10
345.4137281476076282
 20
-134.7762154898817073
 10
347.0014413878791402
 20
-137.5262154898817073
 10
350.1768678684221072
 20
-137.5262154898817073
 10
351.7645811086935055
 20
-134.7762154898817073
  0
LWPOLYLINE
  5
E6
100
AcDbEntity
  8
0
 62
256
370
-1
 48
1.0
  6
BYLAYER
100
AcDbPolyline
 90
18
 70
1
 10
354.9587244885578343
 20
-220.7268947917911817
 10
356.5464377288292326
 20
-217.9768947917912101
 10
354.9587244885578343
 20
-215.2268947917913238
 10
351.7832980080148673
 20
-215.2268947917913238
 10
350.1955847677432985
 20
-217.9768947917912101
 10
351.7832980080148673
 20
-220.7268947917911817
 10
354.9587244885578343
 20
-220.7268947917911817
 10
356.5464377288292326
 20
-217.9768947917912101
 10
354.9587244885578343
 20
-215.2268947917913238
 10
351.7832980080148673
 20
-215.2268947917913238
 10
350.1955847677432985
 20
-217.9768947917912101
 10
351.7832980080148673
 20
-220.7268947917911817
 10
354.9587244885578343
 20
-220.7268947917911817
 10
356.5464377288292326
 20
-217.9768947917912101
 10
354.9587244885578343
 20
-215.2268947917913238
 10
351.7832980080148673
 20
-215.2268947917913238
 10
350.1955847677432985
 20
-217.9768947917912101
 10
351.7832980080148673
 20
-220.7268947917911817
  0
LWPOLYLINE
  5
E7
100
AcDbEntity
  8
0
 62
256
370
-1
 48
1.0
  6
BYLAYER
100
AcDbPolyline
 90
6
 70
1
 10
94.6020322027150087
 20
-134.776215489881622
 10
93.0143189624435109
 20
-137.5262154898815936
 10
89.8388924819004586
 20
-137.5262154898815936
 10
88.2511792416290746
 20
-134.776215489881622
 10
89.8388924819004586
 20
-132.0262154898817073
 10
93.0143189624435109
 20
-132.0262154898817073
  0
LWPOLYLINE
  5
E8
100
AcDbEntity
  8
0
 62
256
370
-1
 48
1.0
  6
BYLAYER
100
AcDbPolyline
 90
6
 70
1
 10
84.0570358617647457
 20
-220.7268947917911817
 10
82.4693226214933475
 20
-217.9768947917912101
 10
84.0570358617647457
 20
-215.2268947917913238
 10
87.2324623423077696
 20
-215.2268947917913238
 10
88.8201755825792816
 20
-217.9768947917912101
 10
87.2324623423077696
 20
-220.7268947917911817
  0
LWPOLYLINE
  5
E9
100
AcDbEntity
  8
0
 62
256
370
-1
 48
1.0
  6
BYLAYER
100
AcDbPolyline
 90
29
 70
1
 10
355.1562052791332462
 20
-138.5149967764590997
 42
0.4174379579571215
 10
345.0613166783674046
 20
-129.5255245606680319
 10
233.5618189859662266
 20
-135.3212999169062414
 42
0.2446984432291006
 10
232.766106846052736
 20
-135.7900101874276118
 10
227.1861031938405802
 20
-143.0237963402250898
 42
0.6068148963146202
 10
228.0864872462400399
 20
-144.5523451392129175
 10
346.1363269644170941
 20
-138.4870223953377035
 10
349.651180175161187
 20
-215.1156051408365215
 10
302.0914801751611094
 20
-217.6081051408365283
 10
302.3406801751611397
 20
-222.3641051408365001
 10
245.2689801751611753
 20
-225.355105140836514
 10
234.2624669672517257
 20
-211.6863051408364811
 10
205.3557643083921391
 20
-211.6863051408364811
 10
193.7467801751611773
 20
-225.355105140836514
 10
136.6750801751610993
 20
-222.3641051408365001
 10
136.898117578375917
 20
-218.1074201902379173
 10
88.8390974296624165
 20
-215.5887519300923145
 10
92.8861849383386442
 20
-138.3589212523261267
 10
210.7360123743598308
 20
-144.5436927162096481
 42
0.6068148963146154
 10
211.6363964267592053
 20
-143.0151439172218772
 10
206.1294950791897236
 20
-135.8368642826887367
 42
0.2446984432290854
 10
205.333782939276233
 20
-135.3681540121673947
 10
93.8497717594692631
 20
-129.5255245606680319
 42
0.4142135623730961
 10
83.8655995949929149
 20
-138.515313556528497
 10
79.877599594992887
 20
-214.6184135565284805
 42
0.4142135623731021
 10
88.8673885908532952
 20
-224.6025857210049139
 10
219.9647055745743103
 20
-231.4731049740865956
 10
350.3567312638359681
 20
-224.5893687890001047
 42
0.4077911693070803
 10
359.1381607553296362
 20
-214.6184135565283384
  0
ARC
  5
EA
100
AcDbEntity
  8
0
 62
256
370
-1
 48
1.0
  6
BYLAYER
100
AcDbCircle
 10
89.3645801751613078
 20
-215.1156051408365215
 30
0.0
 40
9.4999999999999751
100
AcDbArc
 50
176.9999999999996305
 51
266.9999999999996021
  0
LWPOLYLINE
  5
EB
100
AcDbEntity
  8
0
 62
256
370
-1
 48
1.0
  6
BYLAYER
100
AcDbPolyline
 90
6
 70
1
 10
638.8201366045859686
 20
72.5631532991183263
 10
635.6447101240429447
 20
72.5631532991183263
 10
634.0569968837716033
 20
69.8131532991184258
 10
635.6447101240429447
 20
67.0631532991184258
 10
638.8201366045859686
 20
67.0631532991184258
 10
640.4078498448574237
 20
69.8131532991184258
  0
LWPOLYLINE
  5
EC
100
AcDbEntity
  8
0
 62
256
370
-1
 48
1.0
  6
BYLAYER
100
AcDbPolyline
 90
6
 70
1
 10
646.1897064649929234
 20
-13.3875260027910947
 10
644.6019932247218094
 20
-10.63752600279118
 10
641.4265667441786718
 20
-10.63752600279118
 10
639.8388535039072167
 20
-13.3875260027910947
 10
641.4265667441786718
 20
-16.1375260027910983
 10
644.6019932247218094
 20
-16.1375260027910983
  0
LWPOLYLINE
  5
ED
100
AcDbEntity
  8
0
 62
256
370
-1
 48
1.0
  6
BYLAYER
100
AcDbPolyline
 90
6
 70
1
 10
379.4821612180643342
 20
67.0631532991185395
 10
377.8944479777929928
 20
69.8131532991185537
 10
379.4821612180643342
 20
72.5631532991184258
 10
382.6575876986073581
 20
72.5631532991184258
 10
384.2453009388788701
 20
69.8131532991185537
 10
382.6575876986073581
 20
67.0631532991185395
  0
LWPOLYLINE
  5
EE
100
AcDbEntity
  8
0
 62
256
370
-1
 48
1.0
  6
BYLAYER
100
AcDbPolyline
 90
6
 70
1
 10
376.8757310784715742
 20
-16.1375260027910983
 10
373.7003045979286071
 20
-16.1375260027910983
 10
372.1125913576572088
 20
-13.3875260027910947
 10
373.7003045979286071
 20
-10.63752600279118
 10
376.8757310784715742
 20
-10.63752600279118
 10
378.463444318743143
 20
-13.3875260027910947
  0
LWPOLYLINE
  5
EF
100
AcDbEntity
  8
0
 62
256
370
-1
 48
1.0
  6
BYLAYER
100
AcDbPolyline
 90
2
 70
1
 10
591.7347489113251413
 20
-13.0187363518363544
 10
591.9839489113251148
 20
-17.7747363518363564
  0
LINE
  5
F0
100
AcDbEntity
  8
0
 62
256
370
-1
 48
1.0
  6
BYLAYER
100
AcDbLine
 10
426.3183489113253586
 20
-17.7747363518363564
 30
0.0
 11
426.5675489113253889
 21
-13.0187363518363544
 31
0.0
  0
LINE
  5
F1
100
AcDbEntity
  8
0
 62
256
370
-1
 48
1.0
  6
BYLAYER
100
AcDbLine
 10
378.5106573270172703
 20
-20.0132169320047701
 30
0.0
 11
509.6079743107382001
 21
-26.8837361850864447
 31
0.0
  0
LINE
  5
F2
100
AcDbEntity
  8
0
 62
256
370
-1
 48
1.0
  6
BYLAYER
100
AcDbLine
 10
640.0009843206048572
 20
-20.0132169320046565
 30
0.0
 11
509.6079743107382001
 21
-26.8837361850864447
 31
0.0
  0
LINE
  5
F3
100
AcDbEntity
  8
0
 62
256
370
-1
 48
1.0
  6
BYLAYER
100
AcDbLine
 10
371.4701104148773538
 20
27.1683888386904648
 30
0.0
 11
369.5208683311567484
 21
-10.0290447675283083
 31
0.0
  0
LINE
  5
F4
100
AcDbEntity
  8
0
 62
256
370
-1
 48
1.0
  6
BYLAYER
100
AcDbLine
 10
644.7934294914936117
 20
66.0740552324717072
 30
0.0
 11
648.7814294914934408
 21
-10.0290447675282781
 31
0.0
  0
ARC
  5
F5
100
AcDbEntity
  8
0
 62
256
370
-1
 48
1.0
  6
BYLAYER
100
AcDbCircle
 10
635.3064489113252193
 20
65.576863648163723
 30
0.0
 40
9.5060528189814892
100
AcDbArc
 50
3.0000000000000449
 51
93.6300365247043942
  0
LWPOLYLINE
  5
F6
100
AcDbEntity
  8
0
 62
256
370
-1
 48
1.0
  6
BYLAYER
100
AcDbPolyline
 90
2
 70
1
 10
369.5208683311567484
 20
-10.0290447675283083
 42
0.4142135623731016
 10
378.5106573270172703
 20
-20.0132169320048021
 42
-0.4142135623731034
  0
LWPOLYLINE
  5
F7
100
AcDbEntity
  8
0
 62
256
370
-1
 48
1.0
  6
BYLAYER
100
AcDbPolyline
 90
2
 70
1
 10
640.0
 20
-20.0000000000000036
 42
0.4077911693070767
 10
648.7814294914936681
 20
-10.0290447675282728
 42
-0.4077911693070767
  0
LINE
  5
F8
100
AcDbEntity
  8
0
 62
256
370
-1
 48
1.0
  6
BYLAYER
100
AcDbLine
 10
88.8982608007831061
 20
68.8136670615826063
 30
0.0
 11
91.8384880594842059
 21
68.6593979404494803
 31
0.0
  0
LINE
  5
F9
100
AcDbEntity
  8
0
 62
256
370
-1
 48
1.0
  6
BYLAYER
100
AcDbLine
 10
299.3175920958852885
 20
-114.246700789040716
 30
0.0
 11
299.5667920958853756
 21
-119.0027007890407162
 31
0.0
  0
LINE
  5
FA
100
AcDbEntity
  8
0
 62
256
370
-1
 48
1.0
  6
BYLAYER
100
AcDbLine
 10
346.8772920958854797
 20
-111.754200789040695
 30
0.0
 11
299.3175920958852885
 21
-114.246700789040716
 31
0.0
  0
LINE
  5
FB
100
AcDbEntity
  8
0
 62
256
370
-1
 48
1.0
  6
BYLAYER
100
AcDbLine
 10
190.9728920958854985
 20
-121.9937007890407017
 30
0.0
 11
133.9011920958854205
 21
-119.0027007890407162
 31
0.0
  0
LINE
  5
FC
100
AcDbEntity
  8
0
 62
256
370
-1
 48
1.0
  6
BYLAYER
100
AcDbLine
 10
299.5667920958853756
 20
-119.0027007890407162
 30
0.0
 11
242.4950920958855249
 21
-121.9937007890407017
 31
0.0
  0
LINE
  5
FD
100
AcDbEntity
  8
0
 62
256
370
-1
 48
1.0
  6
BYLAYER
100
AcDbLine
 10
134.1242241177639869
 20
-114.7460155564180013
 30
0.0
 11
86.5645241177639377
 21
-112.2535155564180087
 31
0.0
  0
LWPOLYLINE
  5
FE
100
AcDbEntity
  8
0
 62
256
370
-1
 48
1.0
  6
BYLAYER
100
AcDbPolyline
 90
8
 70
1
 10
499.6261489113254584
 20
7.2781636481636447
 10
499.6261489113254584
 20
16.8031636481636433
 10
509.1511489113253219
 20
16.8031636481636433
 10
518.6761489113252992
 20
16.8031636481636433
 10
518.6761489113252992
 20
7.2781636481636447
 10
518.6761489113252992
 20
-2.2468363518363601
 10
509.1511489113253219
 20
-2.246836351836361
 10
499.6261489113254584
 20
-2.246836351836361
  0
LINE
  5
FF
100
AcDbEntity
  8
0
 62
256
370
-1
 48
1.0
  6
BYLAYER
100
AcDbLine
 10
499.6261489113254584
 20
16.8031636481636433
 30
0.0
 11
499.626148911325231
 21
14.2781636481636447
 31
0.0
  0
LINE
  5
100
100
AcDbEntity
  8
0
 62
256
370
-1
 48
1.0
  6
BYLAYER
100
AcDbLine
 10
518.6761489113252992
 20
16.8031636481636433
 30
0.0
 11
518.6761489113252992
 21
14.2781636481636447
 31
0.0
  0
LWPOLYLINE
  5
101
100
AcDbEntity
  8
0
 62
256
370
-1
 48
1.0
  6
BYLAYER
100
AcDbPolyline
 90
6
 70
1
 10
342.0135172503233321
 20
75.1463728240268551
 10
340.4258040100518201
 20
72.3963728240269688
 10
342.0135172503233321
 20
69.6463728240269688
 10
345.1889437308664697
 20
69.6463728240269688
 10
346.7766569711378679
 20
72.3963728240269688
 10
345.1889437308664697
 20
75.1463728240268551
  0
LINE
  5
102
100
AcDbEntity
  8
0
 62
256
370
-1
 48
1.0
  6
BYLAYER
100
AcDbLine
 10
326.6141660645058664
 20
-134.9817340802030117
 30
0.0
 11
326.6141660645058664
 21
-134.9817340802030117
 31
0.0
  0
LINE
  5
103
100
AcDbEntity
  8
0
 62
256
370
-1
 48
1.0
  6
BYLAYER
100
AcDbLine
 10
316.722234704821517
 20
-221.3714057475186792
 30
0.0
 11
316.722234704821517
 21
-221.3714057475186792
 31
0.0
  0
LINE
  5
104
100
AcDbEntity
  8
0
 62
256
370
-1
 48
1.0
  6
BYLAYER
100
AcDbLine
 10
122.7666724347569982
 20
-221.8968884930174283
 30
0.0
 11
122.7666724347569982
 21
-221.8968884930174283
 31
0.0
  0
LWPOLYLINE
  5
105
100
AcDbEntity
  8
0
 62
256
370
-1
 48
1.0
  6
BYLAYER
100
AcDbPolyline
 90
6
 70
1
 10
341.6398400683318641
 20
-31.4148111380859234
 10
343.2275533086033761
 20
-34.1648111380859234
 10
346.4029797891464
 20
-34.1648111380859234
 10
347.9906930294177414
 20
-31.4148111380859234
 10
346.4029797891464
 20
-28.6648111380860371
 10
343.2275533086033761
 20
-28.6648111380860371
  0
LINE
  5
106
100
AcDbEntity
  8
0
 62
256
370
-1
 48
1.0
  6
BYLAYER
100
AcDbLine
 10
89.9665195343995094
 20
79.6443228227498281
 30
0.0
 11
215.5199560376057377
 21
73.0643460342624564
 31
0.0
  0
LINE
  5
107
100
AcDbEntity
  8
0
 62
256
370
-1
 48
1.0
  6
BYLAYER
100
AcDbLine
 10
215.5199560376057377
 20
73.0643460342624564
 30
0.0
 11
341.073392540811767
 21
79.6443228227498139
 31
0.0
  0
LINE
  5
108
100
AcDbEntity
  8
0
 62
256
370
-1
 48
1.0
  6
BYLAYER
100
AcDbLine
 10
219.9647055745743103
 20
-231.4731049740865956
 30
0.0
 11
350.3567312638359681
 21
-224.5893687890001047
 31
0.0
  0
LINE
  5
109
100
AcDbEntity
  8
0
 62
256
370
-1
 48
1.0
  6
BYLAYER
100
AcDbLine
 10
509.0464769988393527
 20
68.4838674398448148
 30
0.0
 11
634.704585414531266
 21
75.0638442283321297
 31
0.0
  0
LINE
  5
10A
100
AcDbEntity
  8
0
 62
256
370
-1
 48
1.0
  6
BYLAYER
100
AcDbLine
 10
363.9497760556520802
 20
76.0880633175727183
 30
0.0
 11
509.0464769988393527
 21
68.4838674398448148
 31
0.0
  0
ARC
  5
10B
100
AcDbEntity
  8
0
 62
256
370
-1
 48
1.0
  6
BYLAYER
100
AcDbCircle
 10
363.9518751223840241
 20
39.8488955328575827
 30
0.0
 40
3.0000000000005782
100
AcDbArc
 50
179.472250932762023
 51
206.9999999999993747
  0
ARC
  5
10C
100
AcDbEntity
  8
0
 62
256
370
-1
 48
1.0
  6
BYLAYER
100
AcDbCircle
 10
363.8352516364557232
 20
75.0546229592678316
 30
0.0
 40
1.0397667126647203
100
AcDbArc
 50
83.6763637497446524
 51
173.8730439096428597
  0
LINE
  5
10D
100
AcDbEntity
  8
0
 62
256
370
-1
 48
1.0
  6
BYLAYER
100
AcDbLine
 10
361.2788555498183882
 20
38.4869240336387008
 30
0.0
 11
371.4701237147518214
 21
27.1683740676834304
 31
0.0
  0
LWPOLYLINE
  5
10E
100
AcDbEntity
  8
0
 62
256
370
-1
 48
1.0
  6
BYLAYER
100
AcDbPolyline
 90
4
 70
1
 10
374.0370570924084745
 20
66.3269798810955962
 10
372.7532561730299676
 20
41.8305990585986649
 42
-0.9999999999999999
 10
367.7601084992572851
 20
42.0922788398133179
 10
369.0439094186357352
 20
66.588659662310306
 42
-0.9999999999999999
  0
LINE
  5
10F
100
AcDbEntity
  8
0
 62
256
370
-1
 48
1.0
  6
BYLAYER
100
AcDbLine
 10
362.8014242378628182
 20
75.1655992030515279
 30
0.0
 11
360.9520023841280363
 21
39.8765280186651552
 31
0.0
  0
ARC
  5
110
100
AcDbEntity
  8
0
 62
256
370
-1
 48
1.0
  6
BYLAYER
100
AcDbCircle
 10
635.3064489113254467
 20
65.5768636481636946
 30
0.0
 40
9.5060528189813489
100
AcDbArc
 50
3.0000000000002878
 51
93.6300365247057869
  0
LINE
  5
111
100
AcDbEntity
  8
0
 62
256
370
-1
 48
1.0
  6
BYLAYER
100
AcDbLine
 10
509.6079743107382001
 20
-26.8837361850864447
 30
0.0
 11
640.0
 21
-20.0
 31
0.0
  0
LINE
  5
112
100
AcDbEntity
  8
0
 62
256
370
-1
 48
1.0
  6
BYLAYER
100
AcDbLine
 10
378.5106573270172703
 20
-20.0132169320047701
 30
0.0
 11
509.6079743107382001
 21
-26.8837361850864447
 31
0.0
  0
LINE
  5
113
100
AcDbEntity
  8
0
 62
256
370
-1
 48
1.0
  6
BYLAYER
100
AcDbLine
 10
648.7814294914934408
 20
-10.0290447675282781
 30
0.0
 11
644.7994740152971644
 21
66.0743720125410618
 31
0.0
  0
LINE
  5
114
100
AcDbEntity
  8
0
 62
256
370
-1
 48
1.0
  6
BYLAYER
100
AcDbLine
 10
634.704585414531266
 20
75.0638442283321297
 30
0.0
 11
523.205087722130088
 21
69.268068872093707
 31
0.0
  0
LINE
  5
115
100
AcDbEntity
  8
0
 62
256
370
-1
 48
1.0
  6
BYLAYER
100
AcDbLine
 10
494.977051675440066
 20
69.2212147768327242
 30
0.0
 11
383.4930404956331813
 21
75.0638442283321154
 31
0.0
  0
CIRCLE
  5
116
100
AcDbEntity
  8
0
 62
256
370
-1
 48
1.0
  6
BYLAYER
100
AcDbCircle
 10
632.3377522554336565
 20
-35.2224647957043047
 30
0.0
 40
1.6749999999999898
  0
CIRCLE
  5
117
100
AcDbEntity
  8
0
 62
256
370
-1
 48
1.0
  6
BYLAYER
100
AcDbCircle
 10
631.1810804201109022
 20
-136.1943767459025878
 30
0.0
 40
1.6749999999999898
  0
CIRCLE
  5
118
100
AcDbEntity
  8
0
 62
256
370
-1
 48
1.0
  6
BYLAYER
100
AcDbCircle
 10
638.1196088755693836
 20
-118.4231440976137719
 30
0.0
 40
1.6749999999999898
  0
CIRCLE
  5
119
100
AcDbEntity
  8
0
 62
256
370
-1
 48
1.0
  6
BYLAYER
100
AcDbCircle
 10
636.9629370402465156
 20
-219.3950560478120337
 30
0.0
 40
1.6749999999999898
  0
CIRCLE
  5
11A
100
AcDbEntity
  8
0
 62
256
370
-1
 48
1.0
  6
BYLAYER
100
AcDbCircle
 10
376.1752033494549323
 20
-35.2224647957043047
 30
0.0
 40
1.6749999999999898
  0
CIRCLE
  5
11B
100
AcDbEntity
  8
0
 62
256
370
-1
 48
1.0
  6
BYLAYER
100
AcDbCircle
 10
375.0185315141322349
 20
-136.1943767459025878
 30
0.0
 40
1.6749999999999898
  0
CIRCLE
  5
11C
100
AcDbEntity
  8
0
 62
256
370
-1
 48
1.0
  6
BYLAYER
100
AcDbCircle
 10
370.3933467293192052
 20
-118.4231440976137719
 30
0.0
 40
1.6749999999999898
  0
CIRCLE
  5
11D
100
AcDbEntity
  8
0
 62
256
370
-1
 48
1.0
  6
BYLAYER
100
AcDbCircle
 10
369.2366748939962804
 20
-219.3950560478120337
 30
0.0
 40
1.6749999999999898
  0
LWPOLYLINE
  5
11E
100
AcDbEntity
  8
0
 62
256
370
-1
 48
1.0
  6
BYLAYER
100
AcDbPolyline
 90
10
 70
1
 10
507.7534778024445359
 20
-64.9706544466590401
 10
506.7564778024446923
 20
-45.9467544466590851
 10
630.4117778024447034
 20
-39.4587544466590643
 10
634.3997778024446461
 20
-115.5618544466591118
 10
596.3422778024447553
 20
-117.5558544466591115
 10
595.3549778024447505
 20
-98.5319544466590571
 10
519.2593778024445328
 20
-102.5199544466589998
 10
518.2623778024446892
 20
-83.4960544466590306
 10
513.5064778024446923
 20
-83.7453544466590643
 10
512.5094778024446214
 20
-64.7214544466590809
  0
LWPOLYLINE
  5
11F
100
AcDbEntity
  8
0
 62
256
370
-1
 48
1.0
  6
BYLAYER
100
AcDbPolyline
 90
10
 70
1
 10
500.7594778024446214
 20
-64.9706544466590401
 10
501.7564778024446923
 20
-45.9467544466590851
 10
378.1011778024447381
 20
-39.4587544466590643
 10
374.1131778024446248
 20
-115.5618544466591118
 10
412.1609778024447337
 20
-117.5558544466591115
 10
413.1579778024448046
 20
-98.5319544466590571
 10
489.2535778024447382
 20
-102.5199544466589998
 10
490.2505778024446954
 20
-83.4960544466590306
 10
495.0064778024446923
 20
-83.7453544466590643
 10
496.0034778024448769
 20
-64.7214544466590809
  0
LWPOLYLINE
  5
120
100
AcDbEntity
  8
0
 62
256
370
-1
 48
1.0
  6
BYLAYER
100
AcDbPolyline
 90
10
 70
1
 10
495.0064778024446923
 20
-83.7453544466590643
 10
496.0034778024448769
 20
-64.7214544466590809
 10
500.7594778024446214
 20
-64.9706544466590401
 10
501.7564778024446923
 20
-45.9467544466590851
 10
378.1011778024447381
 20
-39.4587544466590643
 10
374.1131778024446248
 20
-115.5618544466591118
 10
412.1609778024447337
 20
-117.5558544466591115
 10
413.1579778024448046
 20
-98.5319544466590571
 10
489.2535778024447382
 20
-102.5199544466589998
 10
490.2505778024446954
 20
-83.4960544466590306
  0
LWPOLYLINE
  5
121
100
AcDbEntity
  8
0
 62
256
370
-1
 48
1.0
  6
BYLAYER
100
AcDbPolyline
 90
6
 70
1
 10
489.2535778024447382
 20
-102.5199544466589998
 10
490.2505778024446954
 20
-83.4960544466590306
 10
495.0064778024446923
 20
-83.7453544466590643
 10
496.0034778024448769
 20
-64.7214544466590809
 10
495.0064778024446923
 20
-83.7453544466590643
 10
490.2505778024446954
 20
-83.4960544466590306
  0
LWPOLYLINE
  5
122
100
AcDbEntity
  8
0
 62
256
370
-1
 48
1.0
  6
BYLAYER
100
AcDbPolyline
 90
2
 70
1
 10
413.1579778024448046
 20
-98.5319544466590571
 10
489.2535778024447382
 20
-102.5199544466589998
  0
LWPOLYLINE
  5
123
100
AcDbEntity
  8
0
 62
256
370
-1
 48
1.0
  6
BYLAYER
100
AcDbPolyline
 90
10
 70
1
 10
530.0175778024446345
 20
-125.8013544466589906
 10
529.0205778024447909
 20
-106.777454446658993
 10
586.0922778024447553
 20
-103.7864544466589791
 10
587.0892778024445988
 20
-122.8103544466590051
 10
530.0175778024446345
 20
-125.8013544466589906
 10
529.0205778024447909
 20
-106.777454446658993
 10
586.0922778024447553
 20
-103.7864544466589791
 10
587.0892778024445988
 20
-122.8103544466590051
 10
586.8400778024446254
 20
-118.0543544466590049
 10
587.0892778024445988
 20
-122.8103544466590051
  0
LWPOLYLINE
  5
124
100
AcDbEntity
  8
0
 62
256
370
-1
 48
1.0
  6
BYLAYER
100
AcDbPolyline
 90
10
 70
1
 10
513.5064778024446923
 20
-83.7453544466590643
 10
512.5094778024446214
 20
-64.7214544466590809
 10
507.7534778024445359
 20
-64.9706544466590401
 10
506.7564778024446923
 20
-45.9467544466590851
 10
630.4117778024447034
 20
-39.4587544466590643
 10
634.3997778024446461
 20
-115.5618544466591118
 10
596.3422778024447553
 20
-117.5558544466591115
 10
595.3549778024447505
 20
-98.5319544466590571
 10
519.2593778024445328
 20
-102.5199544466589998
 10
518.2623778024446892
 20
-83.4960544466590306
  0
LWPOLYLINE
  5
125
100
AcDbEntity
  8
0
 62
256
370
-1
 48
1.0
  6
BYLAYER
100
AcDbPolyline
 90
6
 70
1
 10
519.2593778024445328
 20
-102.5199544466589998
 10
518.2623778024446892
 20
-83.4960544466590306
 10
513.5064778024446923
 20
-83.7453544466590643
 10
512.5094778024446214
 20
-64.7214544466590809
 10
513.5064778024446923
 20
-83.7453544466590643
 10
518.2623778024446892
 20
-83.4960544466590306
  0
LWPOLYLINE
  5
126
100
AcDbEntity
  8
0
 62
256
370
-1
 48
1.0
  6
BYLAYER
100
AcDbPolyline
 90
2
 70
1
 10
595.3549778024447505
 20
-98.5319544466590571
 10
519.2593778024445328
 20
-102.5199544466589998
  0
LWPOLYLINE
  5
127
100
AcDbEntity
  8
0
 62
256
370
-1
 48
1.0
  6
BYLAYER
100
AcDbPolyline
 90
5
 70
1
 10
479.4923778024447074
 20
-106.777454446658993
 10
478.4953778024446365
 20
-125.8013544466589906
 10
421.4236778024447858
 20
-122.8103544466590051
 10
421.6728778024445887
 20
-118.0543544466590049
 10
422.4206778024446294
 20
-103.7864544466589791
  0
LWPOLYLINE
  5
128
100
AcDbEntity
  8
0
 62
256
370
-1
 48
1.0
  6
BYLAYER
100
AcDbPolyline
 90
5
 70
1
 10
422.4206778024446294
 20
-103.7864544466589791
 10
421.6728778024445887
 20
-118.0543544466590049
 10
421.4236778024447858
 20
-122.8103544466590051
 10
478.4953778024446365
 20
-125.8013544466589906
 10
479.4923778024447074
 20
-106.777454446658993
  0
LINE
  5
129
100
AcDbEntity
  8
0
 62
256
370
-1
 48
1.0
  6
BYLAYER
100
AcDbLine
 10
597.7431850306193155
 20
-222.9242347705326495
 30
0.0
 11
597.7431850306193155
 21
-222.9242347705326495
 31
0.0
  0
LWPOLYLINE
  5
12A
100
AcDbEntity
  8
0
 62
256
370
-1
 48
1.0
  6
BYLAYER
100
AcDbPolyline
 90
2
 70
1
 10
421.4236778024447858
 20
-122.8103544466590051
 10
421.6728778024445887
 20
-118.0543544466590049
  0
LWPOLYLINE
  5
12B
100
AcDbEntity
  8
0
 62
256
370
-1
 48
1.0
  6
BYLAYER
100
AcDbPolyline
 90
4
 70
1
 10
634.3997778024446461
 20
-115.5618544466591118
 10
630.4117778024447034
 20
-39.4587544466590643
 10
506.7564778024446923
 20
-45.9467544466590851
 10
630.4117778024447034
 20
-39.4587544466590643
  0
LWPOLYLINE
  5
12C
100
AcDbEntity
  8
0
 62
256
370
-1
 48
1.0
  6
BYLAYER
100
AcDbPolyline
 90
2
 70
1
 10
378.1011778024447381
 20
-39.4587544466590643
 10
501.7564778024446923
 20
-45.9467544466590851
  0
LWPOLYLINE
  5
12D
100
AcDbEntity
  8
0
 62
256
370
-1
 48
1.0
  6
BYLAYER
100
AcDbPolyline
 90
2
 70
1
 10
586.8400778024446254
 20
-118.0543544466590049
 10
587.0892778024445988
 20
-122.8103544466590051
  0
LWPOLYLINE
  5
12E
100
AcDbEntity
  8
0
 62
256
370
-1
 48
1.0
  6
BYLAYER
100
AcDbPolyline
 90
2
 70
1
 10
478.4953778024446365
 20
-125.8013544466589906
 10
421.4236778024447858
 20
-122.8103544466590051
  0
LWPOLYLINE
  5
12F
100
AcDbEntity
  8
0
 62
256
370
-1
 48
1.0
  6
BYLAYER
100
AcDbPolyline
 90
4
 70
1
 10
367.8585850641490538
 20
-63.2050190362243072
 42
-0.9999999999999999
 10
362.8654373903764849
 20
-62.9433392550097182
 10
364.1492383097549919
 20
-38.4469584325126377
 42
-0.9999999999999999
 10
369.142385983527447
 20
-38.7086382137273475
  0
LWPOLYLINE
  5
130
100
AcDbEntity
  8
0
 62
256
370
-1
 48
1.0
  6
BYLAYER
100
AcDbPolyline
 90
2
 70
1
 10
378.1011778024447381
 20
-39.4587544466590643
 10
374.1131778024446248
 20
-115.5618544466591118
  0
LWPOLYLINE
  5
131
100
AcDbEntity
  8
0
 62
256
370
-1
 48
1.0
  6
BYLAYER
100
AcDbPolyline
 90
2
 70
1
 10
587.0892778024445988
 20
-122.8103544466590051
 10
530.0175778024446345
 20
-125.8013544466589906
  0
LWPOLYLINE
  5
132
100
AcDbEntity
  8
0
 62
256
370
-1
 48
1.0
  6
BYLAYER
100
AcDbPolyline
 90
2
 70
1
 10
586.8400778024446254
 20
-118.0543544466590049
 10
587.0892778024445988
 20
-122.8103544466590051
  0
LWPOLYLINE
  5
133
100
AcDbEntity
  8
0
 62
256
370
-1
 48
1.0
  6
BYLAYER
100
AcDbPolyline
 90
2
 70
1
 10
421.4236778024447858
 20
-122.8103544466590051
 10
421.6728778024445887
 20
-118.0543544466590049
  0
LWPOLYLINE
  5
134
100
AcDbEntity
  8
0
 62
256
370
-1
 48
1.0
  6
BYLAYER
100
AcDbPolyline
 90
13
 70
1
 10
357.1069888020573444
 20
-64.1864124639755289
 42
0.1206934381402824
 10
357.4338419677476963
 20
-65.576016449001969
 10
367.6251101326811295
 20
-76.8945664149572679
 10
365.6248267570307462
 20
-115.1169988185939701
 42
0.4142135623731011
 10
373.6683221743792274
 20
-124.0502054920727915
 10
504.2032943248512993
 20
-130.9504510120115128
 10
635.1566718353225269
 20
-124.0280880498019087
 42
0.4034743771049558
 10
642.8881288478579563
 20
-115.1169988185938848
 10
638.9062408441378693
 20
-39.0135785024418666
 42
0.417817503390185
 10
629.8622502618934504
 20
-30.9704034012451928
 10
504.2041418462014235
 20
-37.5503801897324863
 10
360.0
 20
-30.0
 42
0.415219339487947
 10
358.8516481822107949
 20
-30.9224641145211869
  0
LWPOLYLINE
  5
135
100
AcDbEntity
  8
0
 62
256
370
-1
 48
1.0
  6
BYLAYER
100
AcDbPolyline
 90
2
 70
1
 10
634.3997778024446461
 20
-115.5618544466591118
 10
630.4117778024447034
 20
-39.4587544466590643
  0
LWPOLYLINE
  5
136
100
AcDbEntity
  8
0
 62
256
370
-1
 48
1.0
  6
BYLAYER
100
AcDbPolyline
 90
2
 70
1
 10
378.1011778024447381
 20
-39.4587544466590643
 10
501.7564778024446923
 20
-45.9467544466590851
  0
LWPOLYLINE
  5
137
100
AcDbEntity
  8
0
 62
256
370
-1
 48
1.0
  6
BYLAYER
100
AcDbPolyline
 90
2
 70
1
 10
478.4953778024446365
 20
-125.8013544466589906
 10
421.4236778024447858
 20
-122.8103544466590051
  0
LWPOLYLINE
  5
138
100
AcDbEntity
  8
0
 62
256
370
-1
 48
1.0
  6
BYLAYER
100
AcDbPolyline
 90
2
 70
1
 10
506.7564778024446923
 20
-45.9467544466590851
 10
630.4117778024447034
 20
-39.4587544466590643
  0
LWPOLYLINE
  5
139
100
AcDbEntity
  8
0
 62
256
370
-1
 48
1.0
  6
BYLAYER
100
AcDbPolyline
 90
2
 70
1
 10
378.1011778024447381
 20
-39.4587544466590643
 10
374.1131778024446248
 20
-115.5618544466591118
  0
LWPOLYLINE
  5
13A
100
AcDbEntity
  8
0
 62
256
370
-1
 48
1.0
  6
BYLAYER
100
AcDbPolyline
 90
2
 70
1
 10
587.0892778024445988
 20
-122.8103544466590051
 10
530.0175778024446345
 20
-125.8013544466589906
  0
LWPOLYLINE
  5
13B
100
AcDbEntity
  8
0
 62
256
370
-1
 48
1.0
  6
BYLAYER
100
AcDbPolyline
 90
10
 70
1
 10
630.2521059671219064
 20
-162.4564413968572296
 10
503.0998059671212559
 20
-169.1202110705884252
 10
375.9475059671219697
 20
-162.4564413968572296
 10
374.9505059671221261
 20
-181.4822163968572966
 10
373.9535059671219415
 20
-200.5079913968573351
 10
473.816459442579287
 20
-205.7415870211518438
 10
475.2103111055486124
 20
-205.8146356914578519
 42
-0.7298947254471894
 10
530.9893008286950362
 20
-205.8146356914578234
 10
532.3831524916645321
 20
-205.7415870211516165
 10
632.2461059671220482
 20
-200.5079913968573351
  0
LINE
  5
13C
100
AcDbEntity
  8
0
 62
256
370
-1
 48
1.0
  6
BYLAYER
100
AcDbLine
 10
373.6683221743792274
 20
-124.0502054920727915
 30
0.0
 11
504.7656391581003845
 21
-130.9207247451545015
 31
0.0
  0
LINE
  5
13D
100
AcDbEntity
  8
0
 62
256
370
-1
 48
1.0
  6
BYLAYER
100
AcDbLine
 10
635.1586491679670416
 20
-124.0502054920727062
 30
0.0
 11
504.7656391581003845
 21
-130.9207247451545015
 31
0.0
  0
ARC
  5
13E
100
AcDbEntity
  8
0
 62
256
370
-1
 48
1.0
  6
BYLAYER
100
AcDbCircle
 10
374.1131778024444543
 20
-115.5618544466591118
 30
0.0
 40
8.4999999999998526
100
AcDbArc
 50
176.9999999999990052
 51
266.9999999999985789
  0
LWPOLYLINE
  5
13F
100
AcDbEntity
  8
0
 62
256
370
-1
 48
1.0
  6
BYLAYER
100
AcDbPolyline
 90
10
 70
1
 10
364.4681549217078214
 20
-216.0889107687921182
 42
0.4142135623730988
 10
372.5116503390564731
 20
-225.0221174422710533
 10
503.046622489528545
 20
-231.9223629622095757
 10
634.0
 20
-225.0
 42
0.4034743771049565
 10
641.7314570125353157
 20
-216.0889107687919477
 10
637.7495690088152287
 20
-139.9854904526400787
 42
0.4178175033901856
 10
628.7055784265708098
 20
-131.9423153514434262
 10
503.0474700108787829
 20
-138.5222921399306131
 10
377.4936381077200167
 20
-131.9484229499759635
 42
0.4178175033901762
 10
368.4561549217078209
 20
-139.9858107687921347
  0
ARC
  5
140
100
AcDbEntity
  8
0
 62
256
370
-1
 48
1.0
  6
BYLAYER
100
AcDbCircle
 10
630.4117778024447034
 20
-39.4587544466589719
 30
0.0
 40
8.506120384052954
100
AcDbArc
 50
3.0000000000005302
 51
93.7041036639919298
  0
ARC
  5
141
100
AcDbEntity
  8
0
 62
256
370
-1
 48
1.0
  6
BYLAYER
100
AcDbCircle
 10
634.3997778024446461
 20
-115.5618544466591118
 30
0.0
 40
8.4999999999994351
100
AcDbArc
 50
-84.8912529185378446
 51
3.0000000000016245
  0
LWPOLYLINE
  5
142
100
AcDbEntity
  8
0
 62
256
370
-1
 48
1.0
  6
BYLAYER
100
AcDbPolyline
 90
8
 70
1
 10
494.7314778024449424
 20
-97.7574544466590112
 10
494.7314778024449424
 20
-88.2324544466589771
 10
504.256477802444806
 20
-88.2324544466589771
 10
513.7814778024447833
 20
-88.2324544466589771
 10
513.7814778024447833
 20
-97.7574544466590112
 10
513.7814778024447833
 20
-107.2824544466589884
 10
504.256477802444806
 20
-107.2824544466589884
 10
494.7314778024449424
 20
-107.2824544466589884
  0
LINE
  5
143
100
AcDbEntity
  8
0
 62
256
370
-1
 48
1.0
  6
BYLAYER
100
AcDbLine
 10
494.7314778024449424
 20
-88.2324544466589771
 30
0.0
 11
494.7314778024448287
 21
-90.7574544466590112
 31
0.0
  0
LINE
  5
144
100
AcDbEntity
  8
0
 62
256
370
-1
 48
1.0
  6
BYLAYER
100
AcDbLine
 10
513.7814778024447833
 20
-88.2324544466589771
 30
0.0
 11
513.7814778024447833
 21
-90.7574544466590112
 31
0.0
  0
LINE
  5
145
100
AcDbEntity
  8
0
 62
256
370
-1
 48
1.0
  6
BYLAYER
100
AcDbLine
 10
375.9475059671219697
 20
-162.4564413968572296
 30
0.0
 11
373.9535059671219415
 21
-200.5079913968573351
 31
0.0
  0
LINE
  5
146
100
AcDbEntity
  8
0
 62
256
370
-1
 48
1.0
  6
BYLAYER
100
AcDbLine
 10
631.2491059671217499
 20
-181.4822163968572966
 30
0.0
 11
632.2461059671220482
 21
-200.5079913968573351
 31
0.0
  0
LINE
  5
147
100
AcDbEntity
  8
0
 62
256
370
-1
 48
1.0
  6
BYLAYER
100
AcDbLine
 10
630.2521059671219064
 20
-162.4564413968572296
 30
0.0
 11
631.2491059671217499
 21
-181.4822163968572966
 31
0.0
  0
LINE
  5
148
100
AcDbEntity
  8
0
 62
256
370
-1
 48
1.0
  6
BYLAYER
100
AcDbLine
 10
629.8622502618934504
 20
-30.9704034012451928
 30
0.0
 11
504.2041418462014235
 21
-37.5503801897324863
 31
0.0
  0
LINE
  5
149
100
AcDbEntity
  8
0
 62
256
370
-1
 48
1.0
  6
BYLAYER
100
AcDbLine
 10
638.9062408441378693
 20
-39.0135785024418666
 30
0.0
 11
642.8881288478579563
 21
-115.1169988185938848
 31
0.0
  0
LINE
  5
14A
100
AcDbEntity
  8
0
 62
256
370
-1
 48
1.0
  6
BYLAYER
100
AcDbLine
 10
88.8673885908532952
 20
-224.6025857210049139
 30
0.0
 11
219.9647055745743103
 21
-231.4731049740865956
 31
0.0
  0
LINE
  5
14B
100
AcDbEntity
  8
0
 62
256
370
-1
 48
1.0
  6
BYLAYER
100
AcDbLine
 10
350.3577155844408253
 20
-224.6025857210049139
 30
0.0
 11
219.9647055745743103
 21
-231.4731049740865956
 31
0.0
  0
LINE
  5
14C
100
AcDbEntity
  8
0
 62
256
370
-1
 48
1.0
  6
BYLAYER
100
AcDbLine
 10
81.8268416787134356
 20
-177.4209799503097145
 30
0.0
 11
79.877599594992887
 21
-214.6184135565284805
 31
0.0
  0
LINE
  5
14D
100
AcDbEntity
  8
0
 62
256
370
-1
 48
1.0
  6
BYLAYER
100
AcDbLine
 10
355.1501607553298072
 20
-138.515313556528497
 30
0.0
 11
359.1381607553296362
 21
-214.6184135565283384
 31
0.0
  0
ARC
  5
14E
100
AcDbEntity
  8
0
 62
256
370
-1
 48
1.0
  6
BYLAYER
100
AcDbCircle
 10
89.3645801751612225
 20
-215.1156051408365215
 30
0.0
 40
9.4999999999998863
100
AcDbArc
 50
176.9999999999996305
 51
267.0000000000001705
  0
LWPOLYLINE
  5
14F
100
AcDbEntity
  8
0
 62
256
370
-1
 48
1.0
  6
BYLAYER
100
AcDbPolyline
 90
2
 70
1
 10
350.3567312638359681
 20
-224.5893687890001047
 42
0.4077911693070834
 10
359.1381607553295225
 20
-214.6184135565283384
 42
-0.4077911693070834
  0
LINE
  5
150
100
AcDbEntity
  8
0
 62
256
370
-1
 48
1.0
  6
BYLAYER
100
AcDbLine
 10
88.8673885908532952
 20
-224.6025857210049139
 30
0.0
 11
219.9647055745743103
 21
-231.4731049740865956
 31
0.0
  0
LINE
  5
151
100
AcDbEntity
  8
0
 62
256
370
-1
 48
1.0
  6
BYLAYER
100
AcDbLine
 10
359.1381607553296362
 20
-214.6184135565283384
 30
0.0
 11
355.1562052791332462
 21
-138.5149967764590997
 31
0.0
  0
LINE
  5
152
100
AcDbEntity
  8
0
 62
256
370
-1
 48
1.0
  6
BYLAYER
100
AcDbLine
 10
224.5067620415498766
 20
-39.5443932370638791
 30
0.0
 11
227.2753706943494194
 21
-35.5110327005539972
 31
0.0
  0
LWPOLYLINE
  5
153
100
AcDbEntity
  8
0
 62
256
370
-1
 48
1.0
  6
BYLAYER
100
AcDbPolyline
 90
6
 70
1
 10
924.2761306179555731
 20
66.0530154922746817
 10
925.8638438582265735
 20
68.8030154922746817
 10
924.2761306179555731
 20
71.5530154922745965
 10
921.1007041374124356
 20
71.5530154922745965
 10
919.5129908971407531
 20
68.8030154922746817
 10
921.1007041374124356
 20
66.0530154922746817
  0
LWPOLYLINE
  5
154
100
AcDbEntity
  8
0
 62
256
370
-1
 48
1.0
  6
BYLAYER
100
AcDbPolyline
 90
6
 70
1
 10
931.645700478362528
 20
-14.3976638096347944
 10
930.0579872380910729
 20
-11.6476638096347962
 10
926.8825607575479353
 20
-11.6476638096347962
 10
925.2948475172767075
 20
-14.3976638096347944
 10
926.8825607575479353
 20
-17.1476638096347926
 10
930.0579872380910729
 20
-17.1476638096347926
  0
LWPOLYLINE
  5
155
100
AcDbEntity
  8
0
 62
256
370
-1
 48
1.0
  6
BYLAYER
100
AcDbPolyline
 90
6
 70
1
 10
930.0579872380910729
 20
-11.6476638096347962
 10
926.8825607575479353
 20
-11.6476638096347962
 10
925.2948475172767075
 20
-14.3976638096347944
 10
926.8825607575479353
 20
-17.1476638096347926
 10
930.0579872380910729
 20
-17.1476638096347926
 10
931.645700478362528
 20
-14.3976638096347944
  0
LWPOLYLINE
  5
156
100
AcDbEntity
  8
0
 62
256
370
-1
 48
1.0
  6
BYLAYER
100
AcDbPolyline
 90
6
 70
1
 10
925.2948475172767075
 20
-14.3976638096347944
 10
926.8825607575479353
 20
-17.1476638096347926
 10
930.0579872380910729
 20
-17.1476638096347926
 10
931.645700478362528
 20
-14.3976638096347944
 10
930.0579872380910729
 20
-11.6476638096347962
 10
926.8825607575479353
 20
-11.6476638096347962
  0
LWPOLYLINE
  5
157
100
AcDbEntity
  8
0
 62
256
370
-1
 48
1.0
  6
BYLAYER
100
AcDbPolyline
 90
6
 70
1
 10
930.0579872380910729
 20
-17.1476638096347926
 10
931.645700478362528
 20
-14.3976638096347944
 10
930.0579872380910729
 20
-11.6476638096347962
 10
926.8825607575479353
 20
-11.6476638096347962
 10
925.2948475172767075
 20
-14.3976638096347944
 10
926.8825607575479353
 20
-17.1476638096347926
  0
LWPOLYLINE
  5
158
100
AcDbEntity
  8
0
 62
256
370
-1
 48
1.0
  6
BYLAYER
100
AcDbPolyline
 90
6
 70
1
 10
664.9381552314337114
 20
66.0530154922747954
 10
663.35044199116237
 20
68.8030154922747954
 10
664.9381552314337114
 20
71.5530154922746817
 10
668.1135817119767353
 20
71.5530154922746817
 10
669.7012949522483041
 20
68.8030154922747954
 10
668.1135817119767353
 20
66.0530154922747954
  0
LWPOLYLINE
  5
159
100
AcDbEntity
  8
0
 62
256
370
-1
 48
1.0
  6
BYLAYER
100
AcDbPolyline
 90
6
 70
1
 10
662.3317250918412356
 20
-17.1476638096347926
 10
659.1562986112982117
 20
-17.1476638096347926
 10
657.5685853710266429
 20
-14.3976638096347944
 10
659.1562986112982117
 20
-11.6476638096349063
 10
662.3317250918412356
 20
-11.6476638096349063
 10
663.9194383321128043
 20
-14.3976638096347944
  0
SPLINE
  5
15A
100
AcDbEntity
  8
0
 62
256
370
-1
 48
1.0
  6
BYLAYER
100
AcDbSpline
 70
8
 71
3
 72
8
 73
4
 74
0
 40
0.0
 40
0.0
 40
0.0
 40
0.0
 40
1.0
 40
1.0
 40
1.0
 40
1.0
 10
904.5849843122896345
 20
68.7480600964842949
 30
0.0
 10
904.5155868343111933
 20
70.0722428595688882
 30
0.0
 10
903.3858512674452186
 20
71.0885098269340858
 30
0.0
 10
902.0616685043603411
 20
71.0191123489559715
 30
0.0
  0
SPLINE
  5
15B
100
AcDbEntity
  8
0
 62
256
370
-1
 48
1.0
  6
BYLAYER
100
AcDbSpline
 70
8
 71
3
 72
8
 73
4
 74
0
 40
0.0
 40
0.0
 40
0.0
 40
0.0
 40
1.0
 40
1.0
 40
1.0
 40
1.0
 10
684.6360530895337888
 20
68.8761612394959712
 30
0.0
 10
684.70545056751223
 20
70.2003440025805787
 30
0.0
 10
685.8351861343782048
 20
71.2166109699457621
 30
0.0
 10
687.1593688974630822
 20
71.1472134919676478
 30
0.0
  0
SPLINE
  5
15C
100
AcDbEntity
  8
0
 62
256
370
-1
 48
1.0
  6
BYLAYER
100
AcDbSpline
 70
8
 71
3
 72
8
 73
4
 74
0
 40
0.0
 40
0.0
 40
0.0
 40
0.0
 40
1.0
 40
1.0
 40
1.0
 40
1.0
 10
711.7604348730346828
 20
-19.0452357545121345
 30
0.0
 10
711.6910373950562416
 20
-20.3694185175967206
 30
0.0
 10
710.5613018281902669
 20
-21.3856854849618934
 30
0.0
 10
709.2371190651053894
 20
-21.3162880069837897
 30
0.0
  0
SPLINE
  5
15D
100
AcDbEntity
  8
0
 62
256
370
-1
 48
1.0
  6
BYLAYER
100
AcDbSpline
 70
8
 71
3
 72
8
 73
4
 74
0
 40
0.0
 40
0.0
 40
0.0
 40
0.0
 40
1.0
 40
1.0
 40
1.0
 40
1.0
 10
904.5849843122891798
 20
68.7480600964841813
 30
0.0
 10
904.5155868343110797
 20
70.0722428595688029
 30
0.0
 10
903.3858512674446501
 20
71.0885098269340858
 30
0.0
 10
902.0616685043603411
 20
71.0191123489559004
 30
0.0
  0
SPLINE
  5
15E
100
AcDbEntity
  8
0
 62
256
370
-1
 48
1.0
  6
BYLAYER
100
AcDbSpline
 70
8
 71
3
 72
8
 73
4
 74
0
 40
0.0
 40
0.0
 40
0.0
 40
0.0
 40
1.0
 40
1.0
 40
1.0
 40
1.0
 10
684.6360530895342436
 20
68.8761612394958433
 30
0.0
 10
684.7054505675123437
 20
70.2003440025804792
 30
0.0
 10
685.8351861343787732
 20
71.2166109699457763
 30
0.0
 10
687.1593688974630822
 20
71.1472134919675767
 30
0.0
  0
SPLINE
  5
15F
100
AcDbEntity
  8
0
 62
256
370
-1
 48
1.0
  6
BYLAYER
100
AcDbSpline
 70
8
 71
3
 72
8
 73
4
 74
0
 40
0.0
 40
0.0
 40
0.0
 40
0.0
 40
1.0
 40
1.0
 40
1.0
 40
1.0
 10
711.7604348730342281
 20
-19.0452357545119959
 30
0.0
 10
711.6910373950561279
 20
-20.3694185175966069
 30
0.0
 10
710.5613018281896984
 20
-21.3856854849619253
 30
0.0
 10
709.2371190651053894
 20
-21.3162880069837044
 30
0.0
  0
SPLINE
  5
160
100
AcDbEntity
  8
0
 62
256
370
-1
 48
1.0
  6
BYLAYER
100
AcDbSpline
 70
8
 71
3
 72
8
 73
4
 74
0
 40
0.0
 40
0.0
 40
0.0
 40
0.0
 40
1.0
 40
1.0
 40
1.0
 40
1.0
 10
684.6360530895336751
 20
68.8761612394959855
 30
0.0
 10
684.7054505675117753
 20
70.2003440025804935
 30
0.0
 10
685.8351861343780911
 20
71.2166109699458048
 30
0.0
 10
687.1593688974625138
 20
71.1472134919675909
 30
0.0
  0
SPLINE
  5
161
100
AcDbEntity
  8
0
 62
256
370
-1
 48
1.0
  6
BYLAYER
100
AcDbSpline
 70
8
 71
3
 72
8
 73
4
 74
0
 40
0.0
 40
0.0
 40
0.0
 40
0.0
 40
1.0
 40
1.0
 40
1.0
 40
1.0
 10
711.7604348730347965
 20
-19.0452357545121274
 30
0.0
 10
711.6910373950566964
 20
-20.3694185175966211
 30
0.0
 10
710.5613018281903805
 20
-21.3856854849619502
 30
0.0
 10
709.2371190651059578
 20
-21.3162880069837328
 30
0.0
  0
SPLINE
  5
162
100
AcDbEntity
  8
0
 62
256
370
-1
 48
1.0
  6
BYLAYER
100
AcDbSpline
 70
8
 71
3
 72
8
 73
4
 74
0
 40
0.0
 40
0.0
 40
0.0
 40
0.0
 40
1.0
 40
1.0
 40
1.0
 40
1.0
 10
684.6360530895333341
 20
68.8761612394959002
 30
0.0
 10
684.7054505675115479
 20
70.2003440025806071
 30
0.0
 10
685.8351861343776363
 20
71.2166109699458048
 30
0.0
 10
687.1593688974621728
 20
71.1472134919677046
 30
0.0
  0
SPLINE
  5
163
100
AcDbEntity
  8
0
 62
256
370
-1
 48
1.0
  6
BYLAYER
100
AcDbSpline
 70
8
 71
3
 72
8
 73
4
 74
0
 40
0.0
 40
0.0
 40
0.0
 40
0.0
 40
1.0
 40
1.0
 40
1.0
 40
1.0
 10
877.439942924694833
 20
-18.7848741586801182
 30
0.0
 10
877.4970858575471766
 20
-19.8701034681955235
 30
0.0
 10
878.626821424413265
 20
-20.8863704355607069
 30
0.0
 10
879.9510041874978015
 20
-20.816972957582621
 30
0.0
  0
SPLINE
  5
164
100
AcDbEntity
  8
0
 62
256
370
-1
 48
1.0
  6
BYLAYER
100
AcDbSpline
 70
8
 71
3
 72
8
 73
4
 74
0
 40
0.0
 40
0.0
 40
0.0
 40
0.0
 40
1.0
 40
1.0
 40
1.0
 40
1.0
 10
711.7604348730351376
 20
-19.0452357545120492
 30
0.0
 10
711.6910373950569237
 20
-20.3694185175967561
 30
0.0
 10
710.5613018281908353
 20
-21.3856854849619182
 30
0.0
 10
709.2371190651062989
 20
-21.3162880069838501
 30
0.0
  0
CIRCLE
  5
165
100
AcDbEntity
  8
0
 62
256
370
-1
 48
1.0
  6
BYLAYER
100
AcDbCircle
 10
926.6289580239615589
 20
-30.2351536085098154
 30
0.0
 40
1.6749999999999898
  0
CIRCLE
  5
166
100
AcDbEntity
  8
0
 62
256
370
-1
 48
1.0
  6
BYLAYER
100
AcDbCircle
 10
926.6289580239615589
 20
-130.2351536085098473
 30
0.0
 40
1.6749999999999898
  0
CIRCLE
  5
167
100
AcDbEntity
  8
0
 62
256
370
-1
 48
1.0
  6
BYLAYER
100
AcDbCircle
 10
932.4108146440971723
 20
-113.4358329104193643
 30
0.0
 40
1.6749999999999898
  0
CIRCLE
  5
168
100
AcDbEntity
  8
0
 62
256
370
-1
 48
1.0
  6
BYLAYER
100
AcDbCircle
 10
670.466409117982721
 20
-30.2351536085098154
 30
0.0
 40
1.6749999999999898
  0
CIRCLE
  5
169
100
AcDbEntity
  8
0
 62
256
370
-1
 48
1.0
  6
BYLAYER
100
AcDbCircle
 10
670.466409117982721
 20
-130.2351536085098473
 30
0.0
 40
1.6749999999999898
  0
CIRCLE
  5
16A
100
AcDbEntity
  8
0
 62
256
370
-1
 48
1.0
  6
BYLAYER
100
AcDbCircle
 10
664.6845524978469939
 20
-113.4358329104193643
 30
0.0
 40
1.6749999999999898
  0
LWPOLYLINE
  5
16B
100
AcDbEntity
  8
0
 62
256
370
-1
 48
1.0
  6
BYLAYER
100
AcDbPolyline
 90
10
 70
1
 10
802.0446835709724382
 20
-59.9833432594645046
 10
801.0476835709725947
 20
-40.959443259464507
 10
924.7029835709727195
 20
-34.4714432594645075
 10
928.6909835709723211
 20
-110.5745432594646616
 10
890.6334835709725439
 20
-112.5685432594645476
 10
889.6461835709726529
 20
-93.5446432594645074
 10
813.5505835709725488
 20
-97.5326432594645212
 10
812.5535835709727053
 20
-78.5087432594644952
 10
807.7976835709727084
 20
-78.7580432594645146
 10
806.8006835709724101
 20
-59.7341432594645454
  0
LWPOLYLINE
  5
16C
100
AcDbEntity
  8
0
 62
256
370
-1
 48
1.0
  6
BYLAYER
100
AcDbPolyline
 90
10
 70
1
 10
789.2976835709725947
 20
-78.7580432594645146
 10
790.2946835709726656
 20
-59.7341432594645454
 10
795.0506835709725237
 20
-59.9833432594645046
 10
796.0476835709725947
 20
-40.959443259464507
 10
672.3923835709726973
 20
-34.4714432594645075
 10
668.4043835709724135
 20
-110.5745432594646616
 10
706.4521835709726929
 20
-112.5685432594645476
 10
707.4491835709726502
 20
-93.5446432594645074
 10
783.5447835709725268
 20
-97.5326432594645212
 10
784.5417835709727115
 20
-78.5087432594644952
  0
LWPOLYLINE
  5
16D
100
AcDbEntity
  8
0
 62
256
370
-1
 48
1.0
  6
BYLAYER
100
AcDbPolyline
 90
6
 70
1
 10
783.5447835709725268
 20
-97.5326432594645212
 10
784.5417835709727115
 20
-78.5087432594644952
 10
789.2976835709725947
 20
-78.7580432594645146
 10
790.2946835709726656
 20
-59.7341432594645454
 10
789.2976835709725947
 20
-78.7580432594645146
 10
784.5417835709727115
 20
-78.5087432594644952
  0
LWPOLYLINE
  5
16E
100
AcDbEntity
  8
0
 62
256
370
-1
 48
1.0
  6
BYLAYER
100
AcDbPolyline
 90
2
 70
1
 10
707.4491835709726502
 20
-93.5446432594645074
 10
783.5447835709725268
 20
-97.5326432594645212
  0
LWPOLYLINE
  5
16F
100
AcDbEntity
  8
0
 62
256
370
-1
 48
1.0
  6
BYLAYER
100
AcDbPolyline
 90
12
 70
1
 10
824.3087835709724231
 20
-120.8140432594644551
 10
823.3117835709725796
 20
-101.7901432594645428
 10
880.3834835709726576
 20
-98.7991432594645573
 10
881.3804835709723875
 20
-117.8230432594644697
 10
824.3087835709724231
 20
-120.8140432594644551
 10
881.3804835709723875
 20
-117.8230432594644697
 10
881.1312835709724141
 20
-113.0670432594645405
 10
881.3804835709723875
 20
-117.8230432594644697
 10
824.3087835709724231
 20
-120.8140432594644551
 10
881.3804835709723875
 20
-117.8230432594644697
 10
881.1312835709724141
 20
-113.0670432594645405
 10
881.3804835709723875
 20
-117.8230432594644697
  0
LWPOLYLINE
  5
170
100
AcDbEntity
  8
0
 62
256
370
-1
 48
1.0
  6
BYLAYER
100
AcDbPolyline
 90
4
 70
1
 10
812.5535835709727053
 20
-78.5087432594644952
 10
807.7976835709727084
 20
-78.7580432594645146
 10
806.8006835709724101
 20
-59.7341432594645454
 10
807.7976835709727084
 20
-78.7580432594645146
  0
LWPOLYLINE
  5
171
100
AcDbEntity
  8
0
 62
256
370
-1
 48
1.0
  6
BYLAYER
100
AcDbPolyline
 90
2
 70
1
 10
813.5505835709725488
 20
-97.5326432594645212
 10
812.5535835709727053
 20
-78.5087432594644952
  0
LWPOLYLINE
  5
172
100
AcDbEntity
  8
0
 62
256
370
-1
 48
1.0
  6
BYLAYER
100
AcDbPolyline
 90
5
 70
1
 10
716.7118835709726454
 20
-98.7991432594645573
 10
715.9640835709724342
 20
-113.0670432594645405
 10
715.7148835709725745
 20
-117.8230432594644697
 10
772.7865835709724252
 20
-120.8140432594644551
 10
773.7835835709727235
 20
-101.7901432594645428
  0
LWPOLYLINE
  5
173
100
AcDbEntity
  8
0
 62
256
370
-1
 48
1.0
  6
BYLAYER
100
AcDbPolyline
 90
2
 70
1
 10
715.7148835709725745
 20
-117.8230432594644697
 10
715.9640835709724342
 20
-113.0670432594645405
  0
LWPOLYLINE
  5
174
100
AcDbEntity
  8
0
 62
256
370
-1
 48
1.0
  6
BYLAYER
100
AcDbPolyline
 90
4
 70
1
 10
928.6909835709723211
 20
-110.5745432594646616
 10
924.7029835709727195
 20
-34.4714432594645075
 10
801.0476835709725947
 20
-40.959443259464507
 10
924.7029835709727195
 20
-34.4714432594645075
  0
LWPOLYLINE
  5
175
100
AcDbEntity
  8
0
 62
256
370
-1
 48
1.0
  6
BYLAYER
100
AcDbPolyline
 90
2
 70
1
 10
672.3923835709726973
 20
-34.4714432594645075
 10
796.0476835709725947
 20
-40.959443259464507
  0
LWPOLYLINE
  5
176
100
AcDbEntity
  8
0
 62
256
370
-1
 48
1.0
  6
BYLAYER
100
AcDbPolyline
 90
2
 70
1
 10
889.6461835709726529
 20
-93.5446432594645074
 10
813.5505835709725488
 20
-97.5326432594645212
  0
LWPOLYLINE
  5
177
100
AcDbEntity
  8
0
 62
256
370
-1
 48
1.0
  6
BYLAYER
100
AcDbPolyline
 90
2
 70
1
 10
797.0809749465734058
 20
58.5780406086971084
 10
794.5809749465734058
 20
58.5780406086971084
  0
LWPOLYLINE
  5
178
100
AcDbEntity
  8
0
 62
256
370
-1
 48
1.0
  6
BYLAYER
100
AcDbPolyline
 90
2
 70
1
 10
715.7148835709725745
 20
-117.8230432594644697
 10
715.9640835709724342
 20
-113.0670432594645405
  0
LWPOLYLINE
  5
179
100
AcDbEntity
  8
0
 62
256
370
-1
 48
1.0
  6
BYLAYER
100
AcDbPolyline
 90
4
 70
1
 10
928.6909835709723211
 20
-110.5745432594646616
 10
924.7029835709727195
 20
-34.4714432594645075
 10
801.0476835709725947
 20
-40.959443259464507
 10
924.7029835709727195
 20
-34.4714432594645075
  0
LWPOLYLINE
  5
17A
100
AcDbEntity
  8
0
 62
256
370
-1
 48
1.0
  6
BYLAYER
100
AcDbPolyline
 90
2
 70
1
 10
768.8460429246946433
 20
-21.7758741586800966
 10
711.7743429246947926
 20
-18.7848741586801182
  0
LWPOLYLINE
  5
17B
100
AcDbEntity
  8
0
 62
256
370
-1
 48
1.0
  6
BYLAYER
100
AcDbPolyline
 90
2
 70
1
 10
772.7865835709724252
 20
-120.8140432594644551
 10
715.7148835709725745
 20
-117.8230432594644697
  0
LWPOLYLINE
  5
17C
100
AcDbEntity
  8
0
 62
256
370
-1
 48
1.0
  6
BYLAYER
100
AcDbPolyline
 90
2
 70
1
 10
672.3923835709726973
 20
-34.4714432594645075
 10
668.4043835709724135
 20
-110.5745432594646616
  0
LWPOLYLINE
  5
17D
100
AcDbEntity
  8
0
 62
256
370
-1
 48
1.0
  6
BYLAYER
100
AcDbPolyline
 90
2
 70
1
 10
877.439942924694833
 20
-18.7848741586801182
 10
820.368242924695096
 20
-21.7758741586800966
  0
LWPOLYLINE
  5
17E
100
AcDbEntity
  8
0
 62
256
370
-1
 48
1.0
  6
BYLAYER
100
AcDbPolyline
 90
2
 70
1
 10
881.1312835709724141
 20
-113.0670432594645405
 10
881.3804835709723875
 20
-117.8230432594644697
  0
LINE
  5
17F
100
AcDbEntity
  8
0
 62
256
370
-1
 48
1.0
  6
BYLAYER
100
AcDbLine
 10
715.7148835709725745
 20
-117.8230432594644697
 30
0.0
 11
715.9640835709724342
 21
-113.0670432594645405
 31
0.0
  0
LWPOLYLINE
  5
180
100
AcDbEntity
  8
0
 62
256
370
-1
 48
1.0
  6
BYLAYER
100
AcDbPolyline
 90
2
 70
1
 10
820.368242924695096
 20
-21.7758741586800966
 10
809.3617297167853621
 20
-8.1070741586800921
  0
LWPOLYLINE
  5
181
100
AcDbEntity
  8
0
 62
256
370
-1
 48
1.0
  6
BYLAYER
100
AcDbPolyline
 90
2
 70
1
 10
820.368242924695096
 20
-21.7758741586800966
 10
809.3617297167853621
 20
-8.1070741586800921
  0
LWPOLYLINE
  5
182
100
AcDbEntity
  8
0
 62
256
370
-1
 48
1.0
  6
BYLAYER
100
AcDbPolyline
 90
2
 70
1
 10
925.2497576920723077
 20
-11.5102061805586171
 10
921.2355897139507306
 20
65.0922085868186002
  0
LINE
  5
183
100
AcDbEntity
  8
0
 62
256
370
-1
 48
1.0
  6
BYLAYER
100
AcDbLine
 10
667.9854476878720106
 20
65.2203097298302055
 30
0.0
 11
670.9256749465730536
 21
65.0660406086971079
 31
0.0
  0
LWPOLYLINE
  5
184
100
AcDbEntity
  8
0
 62
256
370
-1
 48
1.0
  6
BYLAYER
100
AcDbPolyline
 90
2
 70
1
 10
672.3923835709726973
 20
-34.4714432594645075
 10
796.0476835709725947
 20
-40.959443259464507
  0
LWPOLYLINE
  5
185
100
AcDbEntity
  8
0
 62
256
370
-1
 48
1.0
  6
BYLAYER
100
AcDbPolyline
 90
2
 70
1
 10
780.4550270579256903
 20
-8.1070741586800921
 10
809.3617297167853621
 20
-8.1070741586800921
  0
LWPOLYLINE
  5
186
100
AcDbEntity
  8
0
 62
256
370
-1
 48
1.0
  6
BYLAYER
100
AcDbPolyline
 90
2
 70
1
 10
780.4550270579256903
 20
-8.1070741586800921
 10
809.3617297167853621
 20
-8.1070741586800921
  0
LWPOLYLINE
  5
187
100
AcDbEntity
  8
0
 62
256
370
-1
 48
1.0
  6
BYLAYER
100
AcDbPolyline
 90
2
 70
1
 10
768.8460429246946433
 20
-21.7758741586800966
 10
711.7743429246947926
 20
-18.7848741586801182
  0
LWPOLYLINE
  5
188
100
AcDbEntity
  8
0
 62
256
370
-1
 48
1.0
  6
BYLAYER
100
AcDbPolyline
 90
2
 70
1
 10
772.7865835709724252
 20
-120.8140432594644551
 10
715.7148835709725745
 20
-117.8230432594644697
  0
LWPOLYLINE
  5
189
100
AcDbEntity
  8
0
 62
256
370
-1
 48
1.0
  6
BYLAYER
100
AcDbPolyline
 90
2
 70
1
 10
672.3923835709726973
 20
-34.4714432594645075
 10
668.4043835709724135
 20
-110.5745432594646616
  0
LWPOLYLINE
  5
18A
100
AcDbEntity
  8
0
 62
256
370
-1
 48
1.0
  6
BYLAYER
100
AcDbPolyline
 90
2
 70
1
 10
780.4550270579256903
 20
-8.1070741586800921
 10
768.8460429246946433
 20
-21.7758741586800966
  0
LWPOLYLINE
  5
18B
100
AcDbEntity
  8
0
 62
256
370
-1
 48
1.0
  6
BYLAYER
100
AcDbPolyline
 90
2
 70
1
 10
780.4550270579256903
 20
-8.1070741586800921
 10
768.8460429246946433
 20
-21.7758741586800966
  0
LWPOLYLINE
  5
18C
100
AcDbEntity
  8
0
 62
256
370
-1
 48
1.0
  6
BYLAYER
100
AcDbPolyline
 90
2
 70
1
 10
877.439942924694833
 20
-18.7848741586801182
 10
820.368242924695096
 20
-21.7758741586800966
  0
LWPOLYLINE
  5
18D
100
AcDbEntity
  8
0
 62
256
370
-1
 48
1.0
  6
BYLAYER
100
AcDbPolyline
 90
2
 70
1
 10
877.439942924694833
 20
-18.7848741586801182
 10
820.368242924695096
 20
-21.7758741586800966
  0
LWPOLYLINE
  5
18E
100
AcDbEntity
  8
0
 62
256
370
-1
 48
1.0
  6
BYLAYER
100
AcDbPolyline
 90
2
 70
1
 10
666.6582145198627813
 20
-12.1520625723564244
 10
663.9383601791960245
 20
-12.0095209479358953
  0
LWPOLYLINE
  5
18F
100
AcDbEntity
  8
0
 62
256
370
-1
 48
1.0
  6
BYLAYER
100
AcDbPolyline
 90
2
 70
1
 10
922.5299087328247651
 20
-11.6527475245471202
 10
925.2497576920723077
 20
-11.5102061805586171
  0
ARC
  5
190
100
AcDbEntity
  8
0
 62
256
370
-1
 48
1.0
  6
BYLAYER
100
AcDbCircle
 10
919.8161493461826694
 20
63.5157603503223953
 30
0.0
 40
11.5000000000000195
100
AcDbArc
 50
3.0000000000000449
 51
92.9999999999999147
  0
LINE
  5
191
100
AcDbEntity
  8
0
 62
256
370
-1
 48
1.0
  6
BYLAYER
100
AcDbLine
 10
663.9040325255584776
 20
-34.0265876313993942
 30
0.0
 11
659.9160325255585349
 21
-110.1296876313995625
 31
0.0
  0
LINE
  5
192
100
AcDbEntity
  8
0
 62
256
370
-1
 48
1.0
  6
BYLAYER
100
AcDbLine
 10
933.1913346163860297
 20
-34.026587631399309
 30
0.0
 11
937.1793346163859724
 21
-110.1296876313992641
 31
0.0
  0
ARC
  5
193
100
AcDbEntity
  8
0
 62
256
370
-1
 48
1.0
  6
BYLAYER
100
AcDbCircle
 10
665.5148084156919595
 20
-10.5900805801685163
 30
0.0
 40
11.5000000000000213
100
AcDbArc
 50
176.9999999999999432
 51
267.0000000000000568
  0
ARC
  5
194
100
AcDbEntity
  8
0
 62
256
370
-1
 48
1.0
  6
BYLAYER
100
AcDbCircle
 10
923.699477433696984
 20
-10.5900805801684044
 30
0.0
 40
11.5000000000000107
100
AcDbArc
 50
-87.0000000000000853
 51
2.9999999999998015
  0
ARC
  5
195
100
AcDbEntity
  8
0
 62
256
370
-1
 48
1.0
  6
BYLAYER
100
AcDbCircle
 10
668.4043835709721861
 20
-110.5745432594646616
 30
0.0
 40
8.499999999999778
100
AcDbArc
 50
176.99999999999946
 51
266.9999999999997726
  0
ARC
  5
196
100
AcDbEntity
  8
0
 62
256
370
-1
 48
1.0
  6
BYLAYER
100
AcDbCircle
 10
672.8972684853987403
 20
-143.7233613436751511
 30
0.0
 40
8.4999999999999236
100
AcDbArc
 50
176.9999999999991189
 51
266.9999999999997726
  0
ARC
  5
197
100
AcDbEntity
  8
0
 62
256
370
-1
 48
1.0
  6
BYLAYER
100
AcDbCircle
 10
672.3923835709721288
 20
-34.4714432594643938
 30
0.0
 40
8.4999999999998881
100
AcDbArc
 50
86.2958963360109266
 51
177.0000000000000853
  0
ARC
  5
198
100
AcDbEntity
  8
0
 62
256
370
-1
 48
1.0
  6
BYLAYER
100
AcDbCircle
 10
673.3386771494808727
 20
-135.5224087504616648
 30
0.0
 40
8.4999999999998881
100
AcDbArc
 50
86.2958963360101592
 51
176.9999999999998295
  0
ARC
  5
199
100
AcDbEntity
  8
0
 62
256
370
-1
 48
1.0
  6
BYLAYER
100
AcDbCircle
 10
924.7029835709723784
 20
-34.4714432594643938
 30
0.0
 40
8.506120384052954
100
AcDbArc
 50
3.0000000000005302
 51
93.7041036639919298
  0
ARC
  5
19A
100
AcDbEntity
  8
0
 62
256
370
-1
 48
1.0
  6
BYLAYER
100
AcDbCircle
 10
923.7566899924470363
 20
-135.5224087505504542
 30
0.0
 40
8.506120384052954
100
AcDbArc
 50
3.000000000000409
 51
93.7041036639919298
  0
ARC
  5
19B
100
AcDbEntity
  8
0
 62
256
370
-1
 48
1.0
  6
BYLAYER
100
AcDbCircle
 10
928.6909835709723211
 20
-110.5745432594646616
 30
0.0
 40
8.4999999999994351
100
AcDbArc
 50
-84.8912529185370772
 51
3.000000000002597
  0
ARC
  5
19C
100
AcDbEntity
  8
0
 62
256
370
-1
 48
1.0
  6
BYLAYER
100
AcDbCircle
 10
924.2009721531563855
 20
-143.7781963486563654
 30
0.0
 40
8.4999999999994351
100
AcDbArc
 50
-84.8912529185370772
 51
3.0000000000015024
  0
LWPOLYLINE
  5
19D
100
AcDbEntity
  8
0
 62
256
370
-1
 48
1.0
  6
BYLAYER
100
AcDbPolyline
 90
2
 70
1
 10
904.8219297671639652
 20
64.2310135500536177
 10
921.2355897139507306
 20
65.0922085868186002
  0
LWPOLYLINE
  5
19E
100
AcDbEntity
  8
0
 62
256
370
-1
 48
1.0
  6
BYLAYER
100
AcDbPolyline
 90
2
 70
1
 10
684.3991076346592308
 20
64.359114693065294
 10
667.9854476878720106
 20
65.2203097298302055
  0
CIRCLE
  5
19F
100
AcDbEntity
  8
0
 62
256
370
-1
 48
1.0
  6
BYLAYER
100
AcDbCircle
 10
798.5476835709725947
 20
-92.7701432594645325
 30
0.0
 40
5.0
  0
LINE
  5
1A0
100
AcDbEntity
  8
0
 62
256
370
-1
 48
1.0
  6
BYLAYER
100
AcDbLine
 10
670.0
 20
75.0
 30
0.0
 11
794.607142924694358
 21
68.4696163565122902
 31
0.0
  0
LINE
  5
1A1
100
AcDbEntity
  8
0
 62
256
370
-1
 48
1.0
  6
BYLAYER
100
AcDbLine
 10
794.607142924694358
 20
68.4696163565122902
 30
0.0
 11
919.2142858493888298
 21
75.0
 31
0.0
  0
LINE
  5
1A2
100
AcDbEntity
  8
0
 62
256
370
-1
 48
1.0
  6
BYLAYER
100
AcDbLine
 10
798.4953476147294396
 20
-32.5630690025379081
 30
0.0
 11
924.1534560304211254
 21
-25.9830922140506182
 31
0.0
  0
LINE
  5
1A3
100
AcDbEntity
  8
0
 62
256
370
-1
 48
1.0
  6
BYLAYER
100
AcDbLine
 10
672.941515711570446
 20
-25.9891998125831449
 30
0.0
 11
798.4953476147294396
 21
-32.5630690025379081
 31
0.0
  0
LWPOLYLINE
  5
1A4
100
AcDbEntity
  8
0
 62
256
370
-1
 48
1.0
  6
BYLAYER
100
AcDbPolyline
 90
2
 70
1
 10
684.3991076346592308
 20
64.359114693065294
 10
684.6360530895336751
 20
68.8761612394959855
  0
LWPOLYLINE
  5
1A5
100
AcDbEntity
  8
0
 62
256
370
-1
 48
1.0
  6
BYLAYER
100
AcDbPolyline
 90
2
 70
1
 10
687.1593688974625138
 20
71.1472134919675909
 10
691.1528884069460901
 20
70.9379220029520923
  0
LWPOLYLINE
  5
1A6
100
AcDbEntity
  8
0
 62
256
370
-1
 48
1.0
  6
BYLAYER
100
AcDbPolyline
 90
2
 70
1
 10
904.5849843122896345
 20
68.7480600964842949
 10
904.8219297671639652
 20
64.2310135500536177
  0
LWPOLYLINE
  5
1A7
100
AcDbEntity
  8
0
 62
256
370
-1
 48
1.0
  6
BYLAYER
100
AcDbPolyline
 90
2
 70
1
 10
684.6360530895337888
 20
68.8761612394959712
 10
684.3991076346594582
 20
64.359114693065294
  0
LWPOLYLINE
  5
1A8
100
AcDbEntity
  8
0
 62
256
370
-1
 48
1.0
  6
BYLAYER
100
AcDbPolyline
 90
2
 70
1
 10
902.0616685043603411
 20
71.0191123489559715
 10
898.0681489948769922
 20
70.809820859940487
  0
LWPOLYLINE
  5
1A9
100
AcDbEntity
  8
0
 62
256
370
-1
 48
1.0
  6
BYLAYER
100
AcDbPolyline
 90
2
 70
1
 10
687.1593688974630822
 20
71.1472134919676478
 10
691.1528884069464311
 20
70.9379220029521633
  0
LINE
  5
1AA
100
AcDbEntity
  8
0
 62
256
370
-1
 48
1.0
  6
BYLAYER
100
AcDbLine
 10
929.4478776038503156
 20
-119.0407768626074585
 30
0.0
 11
799.0568449266281732
 21
-125.9334135579600513
 31
0.0
  0
LINE
  5
1AB
100
AcDbEntity
  8
0
 62
256
370
-1
 48
1.0
  6
BYLAYER
100
AcDbLine
 10
667.9595279429071297
 20
-119.0628943048784265
 30
0.0
 11
799.0568449266281732
 21
-125.9334135579600513
 31
0.0
  0
LINE
  5
1AC
100
AcDbEntity
  8
0
 62
256
370
-1
 48
1.0
  6
BYLAYER
100
AcDbLine
 10
798.4953010327557195
 20
-133.5644850984279515
 30
0.0
 11
923.2071624518957833
 21
-127.0340577051366893
 31
0.0
  0
LINE
  5
1AD
100
AcDbEntity
  8
0
 62
256
370
-1
 48
1.0
  6
BYLAYER
100
AcDbLine
 10
673.8878092900793035
 20
-127.0401653035804088
 30
0.0
 11
798.4953010327557195
 21
-133.5644850984279515
 31
0.0
  0
LWPOLYLINE
  5
1AE
100
AcDbEntity
  8
0
 62
256
370
-1
 48
1.0
  6
BYLAYER
100
AcDbPolyline
 90
2
 70
1
 10
667.9854476878720106
 20
65.2203097298302055
 10
663.9383601791960245
 20
-12.0095209479358935
  0
LINE
  5
1AF
100
AcDbEntity
  8
0
 62
256
370
-1
 48
1.0
  6
BYLAYER
100
AcDbLine
 10
935.1837170833746313
 20
-9.9882170833745683
 30
0.0
 11
931.3003889958603168
 21
64.1176238471162634
 31
0.0
  0
LINE
  5
1B0
100
AcDbEntity
  8
0
 62
256
370
-1
 48
1.0
  6
BYLAYER
100
AcDbLine
 10
664.9129449188981198
 20
-22.0743202298461263
 30
0.0
 11
764.7758983943555222
 21
-27.3079158541405107
 31
0.0
  0
LINE
  5
1B1
100
AcDbEntity
  8
0
 62
256
370
-1
 48
1.0
  6
BYLAYER
100
AcDbLine
 10
764.7758983943555222
 20
-27.3079158541405107
 30
0.0
 11
794.6071429246936759
 21
-28.8713051332248973
 31
0.0
  0
LINE
  5
1B2
100
AcDbEntity
  8
0
 62
256
370
-1
 48
1.0
  6
BYLAYER
100
AcDbLine
 10
924.3013409304908237
 20
-22.0743202298460162
 30
0.0
 11
824.4383874550333076
 21
-27.3079158541404148
 31
0.0
  0
LINE
  5
1B3
100
AcDbEntity
  8
0
 62
256
370
-1
 48
1.0
  6
BYLAYER
100
AcDbLine
 10
824.4383874550333076
 20
-27.3079158541404148
 30
0.0
 11
794.6071429246936759
 21
-28.8713051332248973
 31
0.0
  0
LINE
  5
1B4
100
AcDbEntity
  8
0
 62
256
370
-1
 48
1.0
  6
BYLAYER
100
AcDbLine
 10
799.0146057663914689
 20
-158.901951719033633
 30
0.0
 11
924.95786618603438
 21
-152.2444299517991624
 31
0.0
  0
LINE
  5
1B5
100
AcDbEntity
  8
0
 62
256
370
-1
 48
1.0
  6
BYLAYER
100
AcDbLine
 10
800.0132353011472333
 20
-158.954740553012499
 30
0.0
 11
672.4524128573336839
 21
-152.2117123890889161
 31
0.0
  0
LINE
  5
1B6
100
AcDbEntity
  8
0
 62
256
370
-1
 48
1.0
  6
BYLAYER
100
AcDbLine
 10
664.8503261040671077
 20
-135.0775531223966084
 30
0.0
 11
664.4089174399849753
 21
-143.2785057156100095
 31
0.0
  0
LINE
  5
1B7
100
AcDbEntity
  8
0
 62
256
370
-1
 48
1.0
  6
BYLAYER
100
AcDbLine
 10
932.2511530341402022
 20
-135.0772328063333703
 30
0.0
 11
932.6893231985698094
 21
-143.3333407205911385
 31
0.0
  0
LINE
  5
1B8
100
AcDbEntity
  8
0
 62
256
370
-1
 48
1.0
  6
BYLAYER
100
AcDbLine
 10
654.0305687660143121
 20
-9.9882170833746411
 30
0.0
 11
656.085899695506896
 21
29.2298333207886927
 31
0.0
  0
SPLINE
  5
1B9
100
AcDbEntity
  8
0
 62
256
370
-1
 48
1.0
  6
BYLAYER
100
AcDbSpline
 70
8
 71
3
 72
8
 73
4
 74
0
 40
0.0
 40
0.0
 40
0.0
 40
0.0
 40
1.0
 40
1.0
 40
1.0
 40
1.0
 10
904.5849843122896345
 20
68.7480600964843944
 30
0.0
 10
904.5155868343111933
 20
70.0722428595689735
 30
0.0
 10
903.3858512674452186
 20
71.0885098269341853
 30
0.0
 10
902.0616685043603411
 20
71.0191123489560709
 30
0.0
  0
SPLINE
  5
1BA
100
AcDbEntity
  8
0
 62
256
370
-1
 48
1.0
  6
BYLAYER
100
AcDbSpline
 70
8
 71
3
 72
8
 73
4
 74
0
 40
0.0
 40
0.0
 40
0.0
 40
0.0
 40
1.0
 40
1.0
 40
1.0
 40
1.0
 10
684.6360530895337888
 20
68.8761612394960991
 30
0.0
 10
684.70545056751223
 20
70.2003440025806498
 30
0.0
 10
685.8351861343782048
 20
71.2166109699458616
 30
0.0
 10
687.1593688974630822
 20
71.1472134919677472
 30
0.0
  0
SPLINE
  5
1BB
100
AcDbEntity
  8
0
 62
256
370
-1
 48
1.0
  6
BYLAYER
100
AcDbSpline
 70
8
 71
3
 72
8
 73
4
 74
0
 40
0.0
 40
0.0
 40
0.0
 40
0.0
 40
1.0
 40
1.0
 40
1.0
 40
1.0
 10
711.7604348730346828
 20
-19.0452357545122339
 30
0.0
 10
711.6910373950562416
 20
-20.369418517596813
 30
0.0
 10
710.5613018281902669
 20
-21.3856854849620106
 30
0.0
 10
709.2371190651053894
 20
-21.3162880069838749
 30
0.0
  0
SPLINE
  5
1BC
100
AcDbEntity
  8
0
 62
256
370
-1
 48
1.0
  6
BYLAYER
100
AcDbSpline
 70
8
 71
3
 72
8
 73
4
 74
0
 40
0.0
 40
0.0
 40
0.0
 40
0.0
 40
1.0
 40
1.0
 40
1.0
 40
1.0
 10
904.5849843122891798
 20
68.7480600964842665
 30
0.0
 10
904.5155868343110797
 20
70.0722428595688882
 30
0.0
 10
903.3858512674446501
 20
71.0885098269341853
 30
0.0
 10
902.0616685043603411
 20
71.0191123489559715
 30
0.0
  0
SPLINE
  5
1BD
100
AcDbEntity
  8
0
 62
256
370
-1
 48
1.0
  6
BYLAYER
100
AcDbSpline
 70
8
 71
3
 72
8
 73
4
 74
0
 40
0.0
 40
0.0
 40
0.0
 40
0.0
 40
1.0
 40
1.0
 40
1.0
 40
1.0
 10
684.6360530895342436
 20
68.8761612394959286
 30
0.0
 10
684.7054505675123437
 20
70.2003440025805787
 30
0.0
 10
685.8351861343787732
 20
71.2166109699458616
 30
0.0
 10
687.1593688974630822
 20
71.1472134919676478
 30
0.0
  0
SPLINE
  5
1BE
100
AcDbEntity
  8
0
 62
256
370
-1
 48
1.0
  6
BYLAYER
100
AcDbSpline
 70
8
 71
3
 72
8
 73
4
 74
0
 40
0.0
 40
0.0
 40
0.0
 40
0.0
 40
1.0
 40
1.0
 40
1.0
 40
1.0
 10
711.7604348730342281
 20
-19.0452357545120776
 30
0.0
 10
711.6910373950561279
 20
-20.3694185175967313
 30
0.0
 10
710.5613018281896984
 20
-21.3856854849619857
 30
0.0
 10
709.2371190651053894
 20
-21.3162880069837897
 30
0.0
  0
SPLINE
  5
1BF
100
AcDbEntity
  8
0
 62
256
370
-1
 48
1.0
  6
BYLAYER
100
AcDbSpline
 70
8
 71
3
 72
8
 73
4
 74
0
 40
0.0
 40
0.0
 40
0.0
 40
0.0
 40
1.0
 40
1.0
 40
1.0
 40
1.0
 10
684.6360530895336751
 20
68.8761612394960707
 30
0.0
 10
684.7054505675117753
 20
70.2003440025805787
 30
0.0
 10
685.8351861343780911
 20
71.21661096994589
 30
0.0
 10
687.1593688974625138
 20
71.1472134919676762
 30
0.0
  0
SPLINE
  5
1C0
100
AcDbEntity
  8
0
 62
256
370
-1
 48
1.0
  6
BYLAYER
100
AcDbSpline
 70
8
 71
3
 72
8
 73
4
 74
0
 40
0.0
 40
0.0
 40
0.0
 40
0.0
 40
1.0
 40
1.0
 40
1.0
 40
1.0
 10
711.7604348730347965
 20
-19.0452357545122091
 30
0.0
 10
711.6910373950566964
 20
-20.3694185175967135
 30
0.0
 10
710.5613018281903805
 20
-21.3856854849620319
 30
0.0
 10
709.2371190651059578
 20
-21.3162880069838181
 30
0.0
  0
SPLINE
  5
1C1
100
AcDbEntity
  8
0
 62
256
370
-1
 48
1.0
  6
BYLAYER
100
AcDbSpline
 70
8
 71
3
 72
8
 73
4
 74
0
 40
0.0
 40
0.0
 40
0.0
 40
0.0
 40
1.0
 40
1.0
 40
1.0
 40
1.0
 10
684.6360530895333341
 20
68.8761612394959855
 30
0.0
 10
684.7054505675115479
 20
70.2003440025806924
 30
0.0
 10
685.8351861343776363
 20
71.21661096994589
 30
0.0
 10
687.1593688974621728
 20
71.1472134919677899
 30
0.0
  0
SPLINE
  5
1C2
100
AcDbEntity
  8
0
 62
256
370
-1
 48
1.0
  6
BYLAYER
100
AcDbSpline
 70
8
 71
3
 72
8
 73
4
 74
0
 40
0.0
 40
0.0
 40
0.0
 40
0.0
 40
1.0
 40
1.0
 40
1.0
 40
1.0
 10
711.7604348730351376
 20
-19.0452357545121096
 30
0.0
 10
711.6910373950569237
 20
-20.3694185175968165
 30
0.0
 10
710.5613018281908353
 20
-21.3856854849620284
 30
0.0
 10
709.2371190651062989
 20
-21.3162880069839318
 30
0.0
  0
LWPOLYLINE
  5
1C3
100
AcDbEntity
  8
0
 62
256
370
-1
 48
1.0
  6
BYLAYER
100
AcDbPolyline
 90
2
 70
1
 10
729.7382735284036244
 20
61.9829896940287739
 10
794.5809749465734058
 20
58.5780406086971084
  0
LWPOLYLINE
  5
1C4
100
AcDbEntity
  8
0
 62
256
370
-1
 48
1.0
  6
BYLAYER
100
AcDbPolyline
 90
2
 70
1
 10
768.8460429246946433
 20
-21.7758741586800966
 10
711.7743429246947926
 20
-18.7848741586801182
  0
LWPOLYLINE
  5
1C5
100
AcDbEntity
  8
0
 62
256
370
-1
 48
1.0
  6
BYLAYER
100
AcDbPolyline
 90
2
 70
1
 10
797.0809749465734058
 20
58.5780406086971084
 10
859.482763873419799
 20
61.8548885510170692
  0
LWPOLYLINE
  5
1C6
100
AcDbEntity
  8
0
 62
256
370
-1
 48
1.0
  6
BYLAYER
100
AcDbPolyline
 90
2
 70
1
 10
877.439942924694833
 20
-18.7848741586801182
 10
820.368242924695096
 20
-21.7758741586800966
  0
LWPOLYLINE
  5
1C7
100
AcDbEntity
  8
0
 62
256
370
-1
 48
1.0
  6
BYLAYER
100
AcDbPolyline
 90
2
 70
1
 10
820.368242924695096
 20
-21.7758741586800966
 10
809.3617297167853621
 20
-8.1070741586800921
  0
LWPOLYLINE
  5
1C8
100
AcDbEntity
  8
0
 62
256
370
-1
 48
1.0
  6
BYLAYER
100
AcDbPolyline
 90
2
 70
1
 10
820.368242924695096
 20
-21.7758741586800966
 10
809.3617297167853621
 20
-8.1070741586800921
  0
LWPOLYLINE
  5
1C9
100
AcDbEntity
  8
0
 62
256
370
-1
 48
1.0
  6
BYLAYER
100
AcDbPolyline
 90
2
 70
1
 10
925.2497576920723077
 20
-11.5102061805586171
 10
921.2617576920722513
 20
64.5928938194412865
  0
LWPOLYLINE
  5
1CA
100
AcDbEntity
  8
0
 62
256
370
-1
 48
1.0
  6
BYLAYER
100
AcDbPolyline
 90
2
 70
1
 10
780.4550270579256903
 20
-8.1070741586800921
 10
809.3617297167853621
 20
-8.1070741586800921
  0
LWPOLYLINE
  5
1CB
100
AcDbEntity
  8
0
 62
256
370
-1
 48
1.0
  6
BYLAYER
100
AcDbPolyline
 90
2
 70
1
 10
780.4550270579256903
 20
-8.1070741586800921
 10
809.3617297167853621
 20
-8.1070741586800921
  0
LWPOLYLINE
  5
1CC
100
AcDbEntity
  8
0
 62
256
370
-1
 48
1.0
  6
BYLAYER
100
AcDbPolyline
 90
2
 70
1
 10
768.8460429246946433
 20
-21.7758741586800966
 10
711.7743429246947926
 20
-18.7848741586801182
  0
LWPOLYLINE
  5
1CD
100
AcDbEntity
  8
0
 62
256
370
-1
 48
1.0
  6
BYLAYER
100
AcDbPolyline
 90
2
 70
1
 10
780.4550270579256903
 20
-8.1070741586800921
 10
768.8460429246946433
 20
-21.7758741586800966
  0
LWPOLYLINE
  5
1CE
100
AcDbEntity
  8
0
 62
256
370
-1
 48
1.0
  6
BYLAYER
100
AcDbPolyline
 90
2
 70
1
 10
780.4550270579256903
 20
-8.1070741586800921
 10
768.8460429246946433
 20
-21.7758741586800966
  0
LWPOLYLINE
  5
1CF
100
AcDbEntity
  8
0
 62
256
370
-1
 48
1.0
  6
BYLAYER
100
AcDbPolyline
 90
2
 70
1
 10
877.439942924694833
 20
-18.7848741586801182
 10
820.368242924695096
 20
-21.7758741586800966
  0
LWPOLYLINE
  5
1D0
100
AcDbEntity
  8
0
 62
256
370
-1
 48
1.0
  6
BYLAYER
100
AcDbPolyline
 90
2
 70
1
 10
877.439942924694833
 20
-18.7848741586801182
 10
820.368242924695096
 20
-21.7758741586800966
  0
LWPOLYLINE
  5
1D1
100
AcDbEntity
  8
0
 62
256
370
-1
 48
1.0
  6
BYLAYER
100
AcDbPolyline
 90
2
 70
1
 10
904.8219297671639652
 20
64.2310135500536177
 10
921.2355897139507306
 20
65.0922085868186002
  0
LWPOLYLINE
  5
1D2
100
AcDbEntity
  8
0
 62
256
370
-1
 48
1.0
  6
BYLAYER
100
AcDbPolyline
 90
2
 70
1
 10
684.3991076346592308
 20
64.359114693065294
 10
667.9854476878720106
 20
65.2203097298302055
  0
LWPOLYLINE
  5
1D3
100
AcDbEntity
  8
0
 62
256
370
-1
 48
1.0
  6
BYLAYER
100
AcDbPolyline
 90
2
 70
1
 10
684.3991076346592308
 20
64.359114693065294
 10
684.6360530895336751
 20
68.8761612394959855
  0
LWPOLYLINE
  5
1D4
100
AcDbEntity
  8
0
 62
256
370
-1
 48
1.0
  6
BYLAYER
100
AcDbPolyline
 90
2
 70
1
 10
687.1593688974625138
 20
71.1472134919675909
 10
691.1528884069460901
 20
70.9379220029520923
  0
LWPOLYLINE
  5
1D5
100
AcDbEntity
  8
0
 62
256
370
-1
 48
1.0
  6
BYLAYER
100
AcDbPolyline
 90
2
 70
1
 10
904.5849843122896345
 20
68.7480600964842949
 10
904.8219297671639652
 20
64.2310135500536177
  0
LWPOLYLINE
  5
1D6
100
AcDbEntity
  8
0
 62
256
370
-1
 48
1.0
  6
BYLAYER
100
AcDbPolyline
 90
2
 70
1
 10
684.6360530895337888
 20
68.8761612394959712
 10
684.3991076346594582
 20
64.359114693065294
  0
LWPOLYLINE
  5
1D7
100
AcDbEntity
  8
0
 62
256
370
-1
 48
1.0
  6
BYLAYER
100
AcDbPolyline
 90
2
 70
1
 10
902.0616685043603411
 20
71.0191123489559715
 10
898.0681489948769922
 20
70.809820859940487
  0
LWPOLYLINE
  5
1D8
100
AcDbEntity
  8
0
 62
256
370
-1
 48
1.0
  6
BYLAYER
100
AcDbPolyline
 90
2
 70
1
 10
687.1593688974630822
 20
71.1472134919676478
 10
691.1528884069464311
 20
70.9379220029521633
  0
LWPOLYLINE
  5
1D9
100
AcDbEntity
  8
0
 62
256
370
-1
 48
1.0
  6
BYLAYER
100
AcDbPolyline
 90
2
 70
1
 10
667.9854476878720106
 20
65.2203097298302055
 10
663.9383601791960245
 20
-12.0095209479358935
  0
ARC
  5
1DA
100
AcDbEntity
  8
0
 62
256
370
-1
 48
1.0
  6
BYLAYER
100
AcDbCircle
 10
670.0
 20
63.5
 30
0.0
 40
11.5000000000000018
100
AcDbArc
 50
87.0000000000000711
 51
176.9999999999999432
  0
LINE
  5
1DB
100
AcDbEntity
  8
0
 62
256
370
-1
 48
1.0
  6
BYLAYER
100
AcDbLine
 10
658.5157603503223527
 20
64.1018634967938681
 30
0.0
 11
656.085899695506896
 21
29.2298333207886927
 31
0.0
  0
LINE
  5
1DC
100
AcDbEntity
  8
0
 62
256
370
-1
 48
1.0
  6
BYLAYER
100
AcDbLine
 10
88.6527176428961496
 20
-28.6648111380860193
 30
0.0
 11
88.6527176428961496
 21
-34.1648111380859092
 31
0.0
  0
SPLINE
  5
1DD
100
AcDbEntity
  8
0
 62
0
370
-1
 48
1.0
  6
Continuous
100
AcDbSpline
 70
8
 71
3
 72
8
 73
4
 74
0
 40
0.0
 40
0.0
 40
0.0
 40
0.0
 40
1.0
 40
1.0
 40
1.0
 40
1.0
 10
321.1038312012169627
 20
73.1610680684131864
 30
0.0
 10
319.7038312012170991
 20
73.1610680684132717
 30
0.0
 10
319.7038312012168717
 20
71.0610680684131921
 30
0.0
 10
321.1038312012170763
 20
71.0610680684131921
 30
0.0
  0
SPLINE
  5
1DE
100
AcDbEntity
  8
0
 62
0
370
-1
 48
1.0
  6
Continuous
100
AcDbSpline
 70
8
 71
3
 72
8
 73
4
 74
0
 40
0.0
 40
0.0
 40
0.0
 40
0.0
 40
1.0
 40
1.0
 40
1.0
 40
1.0
 10
109.9428324264278558
 20
73.2891692114248485
 30
0.0
 10
108.5428324264279922
 20
73.2891692114249338
 30
0.0
 10
108.5428324264277649
 20
71.1891692114248542
 30
0.0
 10
109.9428324264279695
 20
71.1891692114248542
 30
0.0
  0
SPLINE
  5
1DF
100
AcDbEntity
  8
0
 62
0
370
-1
 48
1.0
  6
Continuous
100
AcDbSpline
 70
8
 71
3
 72
8
 73
4
 74
0
 40
0.0
 40
0.0
 40
0.0
 40
0.0
 40
1.0
 40
1.0
 40
1.0
 40
1.0
 10
120.3011590229346552
 20
-13.7540863444011734
 30
0.0
 10
118.9011590229347917
 20
-13.7540863444010881
 30
0.0
 10
118.9011590229345643
 20
-15.8540863444011677
 30
0.0
 10
120.3011590229347689
 20
-15.8540863444011677
 30
0.0
  0
SPLINE
  5
1E0
100
AcDbEntity
  8
0
 62
0
370
-1
 48
1.0
  6
Continuous
100
AcDbSpline
 70
8
 71
3
 72
8
 73
4
 74
0
 40
0.0
 40
0.0
 40
0.0
 40
0.0
 40
1.0
 40
1.0
 40
1.0
 40
1.0
 10
311.2118998415324995
 20
-13.2286035989023958
 30
0.0
 10
309.8118998415326359
 20
-13.2286035989023105
 30
0.0
 10
309.8118998415324086
 20
-15.3286035989023901
 30
0.0
 10
311.2118998415326132
 20
-15.3286035989023901
 30
0.0
  0
SPLINE
  5
1E1
100
AcDbEntity
  8
0
 62
0
370
-1
 48
1.0
  6
Continuous
100
AcDbSpline
 70
8
 71
3
 72
8
 73
4
 74
0
 40
0.0
 40
0.0
 40
0.0
 40
0.0
 40
1.0
 40
1.0
 40
1.0
 40
1.0
 10
325.8529607016392333
 20
-134.0514133281416775
 30
0.0
 10
324.4529607016393697
 20
-134.0514133281416207
 30
0.0
 10
324.4529607016391424
 20
-136.1514133281416434
 30
0.0
 10
325.852960701639347
 20
-136.1514133281416434
 30
0.0
  0
SPLINE
  5
1E2
100
AcDbEntity
  8
0
 62
0
370
-1
 48
1.0
  6
Continuous
100
AcDbSpline
 70
8
 71
3
 72
8
 73
4
 74
0
 40
0.0
 40
0.0
 40
0.0
 40
0.0
 40
1.0
 40
1.0
 40
1.0
 40
1.0
 10
114.6919619268501407
 20
-133.9233121851300439
 30
0.0
 10
113.2919619268502771
 20
-133.9233121851299302
 30
0.0
 10
113.2919619268500497
 20
-136.0233121851300098
 30
0.0
 10
114.6919619268502544
 20
-136.0233121851300098
 30
0.0
  0
SPLINE
  5
1E3
100
AcDbEntity
  8
0
 62
0
370
-1
 48
1.0
  6
Continuous
100
AcDbSpline
 70
8
 71
3
 72
8
 73
4
 74
0
 40
0.0
 40
0.0
 40
0.0
 40
0.0
 40
1.0
 40
1.0
 40
1.0
 40
1.0
 10
125.0502885233569401
 20
-220.9665677409560658
 30
0.0
 10
123.6502885233570765
 20
-220.9665677409559521
 30
0.0
 10
123.6502885233568492
 20
-223.0665677409560885
 30
0.0
 10
125.0502885233570538
 20
-223.0665677409560885
 30
0.0
  0
SPLINE
  5
1E4
100
AcDbEntity
  8
0
 62
0
370
-1
 48
1.0
  6
Continuous
100
AcDbSpline
 70
8
 71
3
 72
8
 73
4
 74
0
 40
0.0
 40
0.0
 40
0.0
 40
0.0
 40
1.0
 40
1.0
 40
1.0
 40
1.0
 10
315.9610293419547702
 20
-220.4410849954572313
 30
0.0
 10
314.5610293419549066
 20
-220.4410849954572313
 30
0.0
 10
314.5610293419546792
 20
-222.5410849954572541
 30
0.0
 10
315.9610293419548839
 20
-222.5410849954572541
 30
0.0
  0
SPLINE
  5
1E5
100
AcDbEntity
  8
0
 62
0
370
-1
 48
1.0
  6
Continuous
100
AcDbSpline
 70
8
 71
3
 72
8
 73
4
 74
0
 40
0.0
 40
0.0
 40
0.0
 40
0.0
 40
1.0
 40
1.0
 40
1.0
 40
1.0
 10
321.1038312012169627
 20
73.1610680684131864
 30
0.0
 10
319.7038312012168717
 20
73.1610680684132717
 30
0.0
 10
319.7038312012168717
 20
71.0610680684131921
 30
0.0
 10
321.1038312012170763
 20
71.0610680684131921
 30
0.0
  0
SPLINE
  5
1E6
100
AcDbEntity
  8
0
 62
0
370
-1
 48
1.0
  6
Continuous
100
AcDbSpline
 70
8
 71
3
 72
8
 73
4
 74
0
 40
0.0
 40
0.0
 40
0.0
 40
0.0
 40
1.0
 40
1.0
 40
1.0
 40
1.0
 10
109.9428324264278558
 20
73.2891692114248485
 30
0.0
 10
108.5428324264277649
 20
73.2891692114249338
 30
0.0
 10
108.5428324264277649
 20
71.1891692114248542
 30
0.0
 10
109.9428324264279695
 20
71.1891692114248542
 30
0.0
  0
SPLINE
  5
1E7
100
AcDbEntity
  8
0
 62
0
370
-1
 48
1.0
  6
Continuous
100
AcDbSpline
 70
8
 71
3
 72
8
 73
4
 74
0
 40
0.0
 40
0.0
 40
0.0
 40
0.0
 40
1.0
 40
1.0
 40
1.0
 40
1.0
 10
120.3011590229346552
 20
-13.7540863444011734
 30
0.0
 10
118.9011590229345643
 20
-13.7540863444010881
 30
0.0
 10
118.9011590229345643
 20
-15.8540863444011677
 30
0.0
 10
120.3011590229347689
 20
-15.8540863444011677
 30
0.0
  0
SPLINE
  5
1E8
100
AcDbEntity
  8
0
 62
0
370
-1
 48
1.0
  6
Continuous
100
AcDbSpline
 70
8
 71
3
 72
8
 73
4
 74
0
 40
0.0
 40
0.0
 40
0.0
 40
0.0
 40
1.0
 40
1.0
 40
1.0
 40
1.0
 10
311.2118998415324995
 20
-13.2286035989023958
 30
0.0
 10
309.8118998415324086
 20
-13.2286035989023105
 30
0.0
 10
309.8118998415324086
 20
-15.3286035989023901
 30
0.0
 10
311.2118998415326132
 20
-15.3286035989023901
 30
0.0
  0
SPLINE
  5
1E9
100
AcDbEntity
  8
0
 62
0
370
-1
 48
1.0
  6
Continuous
100
AcDbSpline
 70
8
 71
3
 72
8
 73
4
 74
0
 40
0.0
 40
0.0
 40
0.0
 40
0.0
 40
1.0
 40
1.0
 40
1.0
 40
1.0
 10
325.8529607016392333
 20
-134.0514133281416775
 30
0.0
 10
324.4529607016391424
 20
-134.0514133281416207
 30
0.0
 10
324.4529607016391424
 20
-136.1514133281416434
 30
0.0
 10
325.852960701639347
 20
-136.1514133281416434
 30
0.0
  0
SPLINE
  5
1EA
100
AcDbEntity
  8
0
 62
0
370
-1
 48
1.0
  6
Continuous
100
AcDbSpline
 70
8
 71
3
 72
8
 73
4
 74
0
 40
0.0
 40
0.0
 40
0.0
 40
0.0
 40
1.0
 40
1.0
 40
1.0
 40
1.0
 10
114.6919619268501407
 20
-133.9233121851300439
 30
0.0
 10
113.2919619268500497
 20
-133.9233121851299302
 30
0.0
 10
113.2919619268500497
 20
-136.0233121851300098
 30
0.0
 10
114.6919619268502544
 20
-136.0233121851300098
 30
0.0
  0
SPLINE
  5
1EB
100
AcDbEntity
  8
0
 62
0
370
-1
 48
1.0
  6
Continuous
100
AcDbSpline
 70
8
 71
3
 72
8
 73
4
 74
0
 40
0.0
 40
0.0
 40
0.0
 40
0.0
 40
1.0
 40
1.0
 40
1.0
 40
1.0
 10
125.0502885233569401
 20
-220.9665677409560658
 30
0.0
 10
123.6502885233568492
 20
-220.9665677409559521
 30
0.0
 10
123.6502885233568492
 20
-223.0665677409560885
 30
0.0
 10
125.0502885233570538
 20
-223.0665677409560885
 30
0.0
  0
SPLINE
  5
1EC
100
AcDbEntity
  8
0
 62
0
370
-1
 48
1.0
  6
Continuous
100
AcDbSpline
 70
8
 71
3
 72
8
 73
4
 74
0
 40
0.0
 40
0.0
 40
0.0
 40
0.0
 40
1.0
 40
1.0
 40
1.0
 40
1.0
 10
315.9610293419547702
 20
-220.4410849954572313
 30
0.0
 10
314.5610293419546792
 20
-220.4410849954572313
 30
0.0
 10
314.5610293419546792
 20
-222.5410849954572541
 30
0.0
 10
315.9610293419548839
 20
-222.5410849954572541
 30
0.0
  0
SPLINE
  5
1ED
100
AcDbEntity
  8
0
 62
0
370
-1
 48
1.0
  6
Continuous
100
AcDbSpline
 70
8
 71
3
 72
8
 73
4
 74
0
 40
0.0
 40
0.0
 40
0.0
 40
0.0
 40
1.0
 40
1.0
 40
1.0
 40
1.0
 10
322.1538312012169172
 20
72.1110680684132319
 30
0.0
 10
322.1538312012169172
 20
73.5110680684133229
 30
0.0
 10
320.0538312012170081
 20
73.5110680684133797
 30
0.0
 10
320.0538312012170081
 20
72.1110680684132319
 30
0.0
  0
SPLINE
  5
1EE
100
AcDbEntity
  8
0
 62
0
370
-1
 48
1.0
  6
Continuous
100
AcDbSpline
 70
8
 71
3
 72
8
 73
4
 74
0
 40
0.0
 40
0.0
 40
0.0
 40
0.0
 40
1.0
 40
1.0
 40
1.0
 40
1.0
 10
110.9928324264278103
 20
72.239169211424894
 30
0.0
 10
110.9928324264278103
 20
73.639169211424985
 30
0.0
 10
108.8928324264279013
 20
73.6391692114250418
 30
0.0
 10
108.8928324264279013
 20
72.239169211424894
 30
0.0
  0
SPLINE
  5
1EF
100
AcDbEntity
  8
0
 62
0
370
-1
 48
1.0
  6
Continuous
100
AcDbSpline
 70
8
 71
3
 72
8
 73
4
 74
0
 40
0.0
 40
0.0
 40
0.0
 40
0.0
 40
1.0
 40
1.0
 40
1.0
 40
1.0
 10
121.3511590229346098
 20
-14.8040863444011279
 30
0.0
 10
121.3511590229346098
 20
-13.404086344401037
 30
0.0
 10
119.2511590229347007
 20
-13.4040863444009801
 30
0.0
 10
119.2511590229347007
 20
-14.8040863444011279
 30
0.0
  0
SPLINE
  5
1F0
100
AcDbEntity
  8
0
 62
0
370
-1
 48
1.0
  6
Continuous
100
AcDbSpline
 70
8
 71
3
 72
8
 73
4
 74
0
 40
0.0
 40
0.0
 40
0.0
 40
0.0
 40
1.0
 40
1.0
 40
1.0
 40
1.0
 10
312.261899841532454
 20
-14.2786035989023503
 30
0.0
 10
312.261899841532454
 20
-12.8786035989022594
 30
0.0
 10
310.161899841532545
 20
-12.8786035989022025
 30
0.0
 10
310.161899841532545
 20
-14.2786035989023503
 30
0.0
  0
SPLINE
  5
1F1
100
AcDbEntity
  8
0
 62
0
370
-1
 48
1.0
  6
Continuous
100
AcDbSpline
 70
8
 71
3
 72
8
 73
4
 74
0
 40
0.0
 40
0.0
 40
0.0
 40
0.0
 40
1.0
 40
1.0
 40
1.0
 40
1.0
 10
326.9029607016391878
 20
-135.1014133281416321
 30
0.0
 10
326.9029607016391878
 20
-133.7014133281415411
 30
0.0
 10
324.8029607016392788
 20
-133.7014133281414843
 30
0.0
 10
324.8029607016392788
 20
-135.1014133281416321
 30
0.0
  0
SPLINE
  5
1F2
100
AcDbEntity
  8
0
 62
0
370
-1
 48
1.0
  6
Continuous
100
AcDbSpline
 70
8
 71
3
 72
8
 73
4
 74
0
 40
0.0
 40
0.0
 40
0.0
 40
0.0
 40
1.0
 40
1.0
 40
1.0
 40
1.0
 10
115.7419619268500952
 20
-134.9733121851299984
 30
0.0
 10
115.7419619268500952
 20
-133.5733121851299074
 30
0.0
 10
113.6419619268501862
 20
-133.5733121851297938
 30
0.0
 10
113.6419619268501862
 20
-134.9733121851299984
 30
0.0
  0
SPLINE
  5
1F3
100
AcDbEntity
  8
0
 62
0
370
-1
 48
1.0
  6
Continuous
100
AcDbSpline
 70
8
 71
3
 72
8
 73
4
 74
0
 40
0.0
 40
0.0
 40
0.0
 40
0.0
 40
1.0
 40
1.0
 40
1.0
 40
1.0
 10
126.1002885233568946
 20
-222.0165677409560203
 30
0.0
 10
126.1002885233568946
 20
-220.6165677409559294
 30
0.0
 10
124.0002885233569856
 20
-220.6165677409558157
 30
0.0
 10
124.0002885233569856
 20
-222.0165677409560203
 30
0.0
  0
SPLINE
  5
1F4
100
AcDbEntity
  8
0
 62
0
370
-1
 48
1.0
  6
Continuous
100
AcDbSpline
 70
8
 71
3
 72
8
 73
4
 74
0
 40
0.0
 40
0.0
 40
0.0
 40
0.0
 40
1.0
 40
1.0
 40
1.0
 40
1.0
 10
317.0110293419547247
 20
-221.4910849954571859
 30
0.0
 10
317.0110293419547247
 20
-220.0910849954570949
 30
0.0
 10
314.9110293419548157
 20
-220.0910849954570949
 30
0.0
 10
314.9110293419548157
 20
-221.4910849954571859
 30
0.0
  0
SPLINE
  5
1F5
100
AcDbEntity
  8
0
 62
0
370
-1
 48
1.0
  6
Continuous
100
AcDbSpline
 70
8
 71
3
 72
8
 73
4
 74
0
 40
0.0
 40
0.0
 40
0.0
 40
0.0
 40
1.0
 40
1.0
 40
1.0
 40
1.0
 10
321.1038312012170763
 20
71.0610680684131921
 30
0.0
 10
322.5038312012168262
 20
71.0610680684132774
 30
0.0
 10
322.5038312012171673
 20
73.1610680684132717
 30
0.0
 10
321.1038312012169627
 20
73.1610680684131864
 30
0.0
  0
SPLINE
  5
1F6
100
AcDbEntity
  8
0
 62
0
370
-1
 48
1.0
  6
Continuous
100
AcDbSpline
 70
8
 71
3
 72
8
 73
4
 74
0
 40
0.0
 40
0.0
 40
0.0
 40
0.0
 40
1.0
 40
1.0
 40
1.0
 40
1.0
 10
109.9428324264279695
 20
71.1891692114248542
 30
0.0
 10
111.3428324264277194
 20
71.1891692114249395
 30
0.0
 10
111.3428324264280604
 20
73.2891692114249338
 30
0.0
 10
109.9428324264278558
 20
73.2891692114248485
 30
0.0
  0
SPLINE
  5
1F7
100
AcDbEntity
  8
0
 62
0
370
-1
 48
1.0
  6
Continuous
100
AcDbSpline
 70
8
 71
3
 72
8
 73
4
 74
0
 40
0.0
 40
0.0
 40
0.0
 40
0.0
 40
1.0
 40
1.0
 40
1.0
 40
1.0
 10
120.3011590229347689
 20
-15.8540863444011677
 30
0.0
 10
121.7011590229345188
 20
-15.8540863444010824
 30
0.0
 10
121.7011590229348599
 20
-13.7540863444010881
 30
0.0
 10
120.3011590229346552
 20
-13.7540863444011734
 30
0.0
  0
SPLINE
  5
1F8
100
AcDbEntity
  8
0
 62
0
370
-1
 48
1.0
  6
Continuous
100
AcDbSpline
 70
8
 71
3
 72
8
 73
4
 74
0
 40
0.0
 40
0.0
 40
0.0
 40
0.0
 40
1.0
 40
1.0
 40
1.0
 40
1.0
 10
311.2118998415326132
 20
-15.3286035989023901
 30
0.0
 10
312.6118998415323631
 20
-15.3286035989023048
 30
0.0
 10
312.6118998415327042
 20
-13.2286035989023105
 30
0.0
 10
311.2118998415324995
 20
-13.2286035989023958
 30
0.0
  0
SPLINE
  5
1F9
100
AcDbEntity
  8
0
 62
0
370
-1
 48
1.0
  6
Continuous
100
AcDbSpline
 70
8
 71
3
 72
8
 73
4
 74
0
 40
0.0
 40
0.0
 40
0.0
 40
0.0
 40
1.0
 40
1.0
 40
1.0
 40
1.0
 10
325.852960701639347
 20
-136.1514133281416434
 30
0.0
 10
327.2529607016390969
 20
-136.1514133281415866
 30
0.0
 10
327.252960701639438
 20
-134.0514133281416207
 30
0.0
 10
325.8529607016392333
 20
-134.0514133281416775
 30
0.0
  0
SPLINE
  5
1FA
100
AcDbEntity
  8
0
 62
0
370
-1
 48
1.0
  6
Continuous
100
AcDbSpline
 70
8
 71
3
 72
8
 73
4
 74
0
 40
0.0
 40
0.0
 40
0.0
 40
0.0
 40
1.0
 40
1.0
 40
1.0
 40
1.0
 10
114.6919619268502544
 20
-136.0233121851300098
 30
0.0
 10
116.0919619268500043
 20
-136.0233121851299529
 30
0.0
 10
116.0919619268503453
 20
-133.9233121851299302
 30
0.0
 10
114.6919619268501407
 20
-133.9233121851300439
 30
0.0
  0
SPLINE
  5
1FB
100
AcDbEntity
  8
0
 62
0
370
-1
 48
1.0
  6
Continuous
100
AcDbSpline
 70
8
 71
3
 72
8
 73
4
 74
0
 40
0.0
 40
0.0
 40
0.0
 40
0.0
 40
1.0
 40
1.0
 40
1.0
 40
1.0
 10
125.0502885233570538
 20
-223.0665677409560885
 30
0.0
 10
126.4502885233568037
 20
-223.0665677409559748
 30
0.0
 10
126.4502885233571448
 20
-220.9665677409559521
 30
0.0
 10
125.0502885233569401
 20
-220.9665677409560658
 30
0.0
  0
SPLINE
  5
1FC
100
AcDbEntity
  8
0
 62
0
370
-1
 48
1.0
  6
Continuous
100
AcDbSpline
 70
8
 71
3
 72
8
 73
4
 74
0
 40
0.0
 40
0.0
 40
0.0
 40
0.0
 40
1.0
 40
1.0
 40
1.0
 40
1.0
 10
315.9610293419548839
 20
-222.5410849954572541
 30
0.0
 10
317.3610293419546338
 20
-222.5410849954571404
 30
0.0
 10
317.3610293419549748
 20
-220.4410849954572313
 30
0.0
 10
315.9610293419547702
 20
-220.4410849954572313
 30
0.0
  0
SPLINE
  5
1FD
100
AcDbEntity
  8
0
 62
0
370
-1
 48
1.0
  6
Continuous
100
AcDbSpline
 70
8
 71
3
 72
8
 73
4
 74
0
 40
0.0
 40
0.0
 40
0.0
 40
0.0
 40
1.0
 40
1.0
 40
1.0
 40
1.0
 10
321.1038312012170763
 20
71.0610680684131921
 30
0.0
 10
322.5038312012168262
 20
71.0610680684132774
 30
0.0
 10
322.5038312012171673
 20
73.1610680684132717
 30
0.0
 10
321.1038312012169627
 20
73.1610680684131864
 30
0.0
  0
SPLINE
  5
1FE
100
AcDbEntity
  8
0
 62
0
370
-1
 48
1.0
  6
Continuous
100
AcDbSpline
 70
8
 71
3
 72
8
 73
4
 74
0
 40
0.0
 40
0.0
 40
0.0
 40
0.0
 40
1.0
 40
1.0
 40
1.0
 40
1.0
 10
109.9428324264279695
 20
71.1891692114248542
 30
0.0
 10
111.3428324264277194
 20
71.1891692114249395
 30
0.0
 10
111.3428324264280604
 20
73.2891692114249338
 30
0.0
 10
109.9428324264278558
 20
73.2891692114248485
 30
0.0
  0
SPLINE
  5
1FF
100
AcDbEntity
  8
0
 62
0
370
-1
 48
1.0
  6
Continuous
100
AcDbSpline
 70
8
 71
3
 72
8
 73
4
 74
0
 40
0.0
 40
0.0
 40
0.0
 40
0.0
 40
1.0
 40
1.0
 40
1.0
 40
1.0
 10
120.3011590229347689
 20
-15.8540863444011677
 30
0.0
 10
121.7011590229345188
 20
-15.8540863444010824
 30
0.0
 10
121.7011590229348599
 20
-13.7540863444010881
 30
0.0
 10
120.3011590229346552
 20
-13.7540863444011734
 30
0.0
  0
SPLINE
  5
200
100
AcDbEntity
  8
0
 62
0
370
-1
 48
1.0
  6
Continuous
100
AcDbSpline
 70
8
 71
3
 72
8
 73
4
 74
0
 40
0.0
 40
0.0
 40
0.0
 40
0.0
 40
1.0
 40
1.0
 40
1.0
 40
1.0
 10
311.2118998415326132
 20
-15.3286035989023901
 30
0.0
 10
312.6118998415323631
 20
-15.3286035989023048
 30
0.0
 10
312.6118998415327042
 20
-13.2286035989023105
 30
0.0
 10
311.2118998415324995
 20
-13.2286035989023958
 30
0.0
  0
SPLINE
  5
201
100
AcDbEntity
  8
0
 62
0
370
-1
 48
1.0
  6
Continuous
100
AcDbSpline
 70
8
 71
3
 72
8
 73
4
 74
0
 40
0.0
 40
0.0
 40
0.0
 40
0.0
 40
1.0
 40
1.0
 40
1.0
 40
1.0
 10
325.852960701639347
 20
-136.1514133281416434
 30
0.0
 10
327.2529607016390969
 20
-136.1514133281415866
 30
0.0
 10
327.252960701639438
 20
-134.0514133281416207
 30
0.0
 10
325.8529607016392333
 20
-134.0514133281416775
 30
0.0
  0
SPLINE
  5
202
100
AcDbEntity
  8
0
 62
0
370
-1
 48
1.0
  6
Continuous
100
AcDbSpline
 70
8
 71
3
 72
8
 73
4
 74
0
 40
0.0
 40
0.0
 40
0.0
 40
0.0
 40
1.0
 40
1.0
 40
1.0
 40
1.0
 10
114.6919619268502544
 20
-136.0233121851300098
 30
0.0
 10
116.0919619268500043
 20
-136.0233121851299529
 30
0.0
 10
116.0919619268503453
 20
-133.9233121851299302
 30
0.0
 10
114.6919619268501407
 20
-133.9233121851300439
 30
0.0
  0
SPLINE
  5
203
100
AcDbEntity
  8
0
 62
0
370
-1
 48
1.0
  6
Continuous
100
AcDbSpline
 70
8
 71
3
 72
8
 73
4
 74
0
 40
0.0
 40
0.0
 40
0.0
 40
0.0
 40
1.0
 40
1.0
 40
1.0
 40
1.0
 10
125.0502885233570538
 20
-223.0665677409560885
 30
0.0
 10
126.4502885233568037
 20
-223.0665677409559748
 30
0.0
 10
126.4502885233571448
 20
-220.9665677409559521
 30
0.0
 10
125.0502885233569401
 20
-220.9665677409560658
 30
0.0
  0
SPLINE
  5
204
100
AcDbEntity
  8
0
 62
0
370
-1
 48
1.0
  6
Continuous
100
AcDbSpline
 70
8
 71
3
 72
8
 73
4
 74
0
 40
0.0
 40
0.0
 40
0.0
 40
0.0
 40
1.0
 40
1.0
 40
1.0
 40
1.0
 10
315.9610293419548839
 20
-222.5410849954572541
 30
0.0
 10
317.3610293419546338
 20
-222.5410849954571404
 30
0.0
 10
317.3610293419549748
 20
-220.4410849954572313
 30
0.0
 10
315.9610293419547702
 20
-220.4410849954572313
 30
0.0
  0
SPLINE
  5
205
100
AcDbEntity
  8
0
 62
0
370
-1
 48
1.0
  6
Continuous
100
AcDbSpline
 70
8
 71
3
 72
8
 73
4
 74
0
 40
0.0
 40
0.0
 40
0.0
 40
0.0
 40
1.0
 40
1.0
 40
1.0
 40
1.0
 10
320.0538312012170081
 20
72.1110680684132319
 30
0.0
 10
320.0538312012170081
 20
70.7110680684135389
 30
0.0
 10
322.1538312012169172
 20
70.7110680684131978
 30
0.0
 10
322.1538312012169172
 20
72.1110680684132319
 30
0.0
  0
SPLINE
  5
206
100
AcDbEntity
  8
0
 62
0
370
-1
 48
1.0
  6
Continuous
100
AcDbSpline
 70
8
 71
3
 72
8
 73
4
 74
0
 40
0.0
 40
0.0
 40
0.0
 40
0.0
 40
1.0
 40
1.0
 40
1.0
 40
1.0
 10
108.8928324264279013
 20
72.239169211424894
 30
0.0
 10
108.8928324264279013
 20
70.839169211425201
 30
0.0
 10
110.9928324264278103
 20
70.8391692114248599
 30
0.0
 10
110.9928324264278103
 20
72.239169211424894
 30
0.0
  0
SPLINE
  5
207
100
AcDbEntity
  8
0
 62
0
370
-1
 48
1.0
  6
Continuous
100
AcDbSpline
 70
8
 71
3
 72
8
 73
4
 74
0
 40
0.0
 40
0.0
 40
0.0
 40
0.0
 40
1.0
 40
1.0
 40
1.0
 40
1.0
 10
119.2511590229347007
 20
-14.8040863444011279
 30
0.0
 10
119.2511590229347007
 20
-16.204086344400821
 30
0.0
 10
121.3511590229346098
 20
-16.204086344401162
 30
0.0
 10
121.3511590229346098
 20
-14.8040863444011279
 30
0.0
  0
SPLINE
  5
208
100
AcDbEntity
  8
0
 62
0
370
-1
 48
1.0
  6
Continuous
100
AcDbSpline
 70
8
 71
3
 72
8
 73
4
 74
0
 40
0.0
 40
0.0
 40
0.0
 40
0.0
 40
1.0
 40
1.0
 40
1.0
 40
1.0
 10
310.161899841532545
 20
-14.2786035989023503
 30
0.0
 10
310.161899841532545
 20
-15.6786035989020434
 30
0.0
 10
312.261899841532454
 20
-15.6786035989023844
 30
0.0
 10
312.261899841532454
 20
-14.2786035989023503
 30
0.0
  0
SPLINE
  5
209
100
AcDbEntity
  8
0
 62
0
370
-1
 48
1.0
  6
Continuous
100
AcDbSpline
 70
8
 71
3
 72
8
 73
4
 74
0
 40
0.0
 40
0.0
 40
0.0
 40
0.0
 40
1.0
 40
1.0
 40
1.0
 40
1.0
 10
324.8029607016392788
 20
-135.1014133281416321
 30
0.0
 10
324.8029607016392788
 20
-136.5014133281413251
 30
0.0
 10
326.9029607016391878
 20
-136.5014133281416662
 30
0.0
 10
326.9029607016391878
 20
-135.1014133281416321
 30
0.0
  0
SPLINE
  5
20A
100
AcDbEntity
  8
0
 62
0
370
-1
 48
1.0
  6
Continuous
100
AcDbSpline
 70
8
 71
3
 72
8
 73
4
 74
0
 40
0.0
 40
0.0
 40
0.0
 40
0.0
 40
1.0
 40
1.0
 40
1.0
 40
1.0
 10
113.6419619268501862
 20
-134.9733121851299984
 30
0.0
 10
113.6419619268501862
 20
-136.3733121851296346
 30
0.0
 10
115.7419619268500952
 20
-136.3733121851299757
 30
0.0
 10
115.7419619268500952
 20
-134.9733121851299984
 30
0.0
  0
SPLINE
  5
20B
100
AcDbEntity
  8
0
 62
0
370
-1
 48
1.0
  6
Continuous
100
AcDbSpline
 70
8
 71
3
 72
8
 73
4
 74
0
 40
0.0
 40
0.0
 40
0.0
 40
0.0
 40
1.0
 40
1.0
 40
1.0
 40
1.0
 10
124.0002885233569856
 20
-222.0165677409560203
 30
0.0
 10
124.0002885233569856
 20
-223.4165677409556565
 30
0.0
 10
126.1002885233568946
 20
-223.4165677409559976
 30
0.0
 10
126.1002885233568946
 20
-222.0165677409560203
 30
0.0
  0
SPLINE
  5
20C
100
AcDbEntity
  8
0
 62
0
370
-1
 48
1.0
  6
Continuous
100
AcDbSpline
 70
8
 71
3
 72
8
 73
4
 74
0
 40
0.0
 40
0.0
 40
0.0
 40
0.0
 40
1.0
 40
1.0
 40
1.0
 40
1.0
 10
314.9110293419548157
 20
-221.4910849954571859
 30
0.0
 10
314.9110293419548157
 20
-222.8910849954569358
 30
0.0
 10
317.0110293419547247
 20
-222.8910849954572768
 30
0.0
 10
317.0110293419547247
 20
-221.4910849954571859
 30
0.0
  0
LINE
  5
20D
100
AcDbEntity
  8
0
 62
0
370
-1
 48
1.0
  6
Continuous
100
AcDbLine
 10
321.1038312012169627
 20
73.1610680684131864
 30
0.0
 11
321.1038312012169627
 21
73.1610680684131864
 31
0.0
  0
LINE
  5
20E
100
AcDbEntity
  8
0
 62
0
370
-1
 48
1.0
  6
Continuous
100
AcDbLine
 10
109.9428324264278558
 20
73.2891692114248485
 30
0.0
 11
109.9428324264278558
 21
73.2891692114248485
 31
0.0
  0
LINE
  5
20F
100
AcDbEntity
  8
0
 62
0
370
-1
 48
1.0
  6
Continuous
100
AcDbLine
 10
689.0300193135166182
 20
69.6958118796726467
 30
0.0
 11
689.0300193135166182
 21
69.6958118796726467
 31
0.0
  0
LINE
  5
210
100
AcDbEntity
  8
0
 62
0
370
-1
 48
1.0
  6
Continuous
100
AcDbLine
 10
120.3011590229346552
 20
-13.7540863444011734
 30
0.0
 11
120.3011590229346552
 21
-13.7540863444011734
 31
0.0
  0
LINE
  5
211
100
AcDbEntity
  8
0
 62
0
370
-1
 48
1.0
  6
Continuous
100
AcDbLine
 10
311.2118998415324995
 20
-13.2286035989023958
 30
0.0
 11
311.2118998415324995
 21
-13.2286035989023958
 31
0.0
  0
LINE
  5
212
100
AcDbEntity
  8
0
 62
0
370
-1
 48
1.0
  6
Continuous
100
AcDbLine
 10
325.8529607016392333
 20
-134.0514133281416775
 30
0.0
 11
325.8529607016392333
 21
-134.0514133281416775
 31
0.0
  0
LINE
  5
213
100
AcDbEntity
  8
0
 62
0
370
-1
 48
1.0
  6
Continuous
100
AcDbLine
 10
114.6919619268501407
 20
-133.9233121851300439
 30
0.0
 11
114.6919619268501407
 21
-133.9233121851300439
 31
0.0
  0
LINE
  5
214
100
AcDbEntity
  8
0
 62
0
370
-1
 48
1.0
  6
Continuous
100
AcDbLine
 10
125.0502885233569401
 20
-220.9665677409560658
 30
0.0
 11
125.0502885233569401
 21
-220.9665677409560658
 31
0.0
  0
LINE
  5
215
100
AcDbEntity
  8
0
 62
0
370
-1
 48
1.0
  6
Continuous
100
AcDbLine
 10
315.9610293419547702
 20
-220.4410849954572313
 30
0.0
 11
315.9610293419547702
 21
-220.4410849954572313
 31
0.0
  0
LINE
  5
216
100
AcDbEntity
  8
0
 62
0
370
-1
 48
1.0
  6
Continuous
100
AcDbLine
 10
321.1038312012169627
 20
73.1610680684131864
 30
0.0
 11
321.1038312012169627
 21
73.1610680684131864
 31
0.0
  0
LINE
  5
217
100
AcDbEntity
  8
0
 62
0
370
-1
 48
1.0
  6
Continuous
100
AcDbLine
 10
109.9428324264278558
 20
73.2891692114248485
 30
0.0
 11
109.9428324264278558
 21
73.2891692114248485
 31
0.0
  0
LINE
  5
218
100
AcDbEntity
  8
0
 62
0
370
-1
 48
1.0
  6
Continuous
100
AcDbLine
 10
689.0300193135166182
 20
69.6958118796726467
 30
0.0
 11
689.0300193135166182
 21
69.6958118796726467
 31
0.0
  0
LINE
  5
219
100
AcDbEntity
  8
0
 62
0
370
-1
 48
1.0
  6
Continuous
100
AcDbLine
 10
120.3011590229346552
 20
-13.7540863444011734
 30
0.0
 11
120.3011590229346552
 21
-13.7540863444011734
 31
0.0
  0
LINE
  5
21A
100
AcDbEntity
  8
0
 62
0
370
-1
 48
1.0
  6
Continuous
100
AcDbLine
 10
311.2118998415324995
 20
-13.2286035989023958
 30
0.0
 11
311.2118998415324995
 21
-13.2286035989023958
 31
0.0
  0
LINE
  5
21B
100
AcDbEntity
  8
0
 62
0
370
-1
 48
1.0
  6
Continuous
100
AcDbLine
 10
325.8529607016392333
 20
-134.0514133281416775
 30
0.0
 11
325.8529607016392333
 21
-134.0514133281416775
 31
0.0
  0
LINE
  5
21C
100
AcDbEntity
  8
0
 62
0
370
-1
 48
1.0
  6
Continuous
100
AcDbLine
 10
114.6919619268501407
 20
-133.9233121851300439
 30
0.0
 11
114.6919619268501407
 21
-133.9233121851300439
 31
0.0
  0
LINE
  5
21D
100
AcDbEntity
  8
0
 62
0
370
-1
 48
1.0
  6
Continuous
100
AcDbLine
 10
125.0502885233569401
 20
-220.9665677409560658
 30
0.0
 11
125.0502885233569401
 21
-220.9665677409560658
 31
0.0
  0
LINE
  5
21E
100
AcDbEntity
  8
0
 62
0
370
-1
 48
1.0
  6
Continuous
100
AcDbLine
 10
315.9610293419547702
 20
-220.4410849954572313
 30
0.0
 11
315.9610293419547702
 21
-220.4410849954572313
 31
0.0
  0
LINE
  5
21F
100
AcDbEntity
  8
0
 62
0
370
-1
 48
1.0
  6
Continuous
100
AcDbLine
 10
321.103831201216849
 20
73.1610680684132433
 30
0.0
 11
321.103831201216849
 21
73.1610680684132433
 31
0.0
  0
LINE
  5
220
100
AcDbEntity
  8
0
 62
0
370
-1
 48
1.0
  6
Continuous
100
AcDbLine
 10
109.9428324264277421
 20
73.2891692114249054
 30
0.0
 11
109.9428324264277421
 21
73.2891692114249054
 31
0.0
  0
LINE
  5
221
100
AcDbEntity
  8
0
 62
0
370
-1
 48
1.0
  6
Continuous
100
AcDbLine
 10
689.0300193135165046
 20
69.6958118796727035
 30
0.0
 11
689.0300193135165046
 21
69.6958118796727035
 31
0.0
  0
LINE
  5
222
100
AcDbEntity
  8
0
 62
0
370
-1
 48
1.0
  6
Continuous
100
AcDbLine
 10
120.3011590229345416
 20
-13.7540863444011165
 30
0.0
 11
120.3011590229345416
 21
-13.7540863444011165
 31
0.0
  0
LINE
  5
223
100
AcDbEntity
  8
0
 62
0
370
-1
 48
1.0
  6
Continuous
100
AcDbLine
 10
311.2118998415323858
 20
-13.2286035989023389
 30
0.0
 11
311.2118998415323858
 21
-13.2286035989023389
 31
0.0
  0
LINE
  5
224
100
AcDbEntity
  8
0
 62
0
370
-1
 48
1.0
  6
Continuous
100
AcDbLine
 10
325.8529607016391196
 20
-134.0514133281416207
 30
0.0
 11
325.8529607016391196
 21
-134.0514133281416207
 31
0.0
  0
LINE
  5
225
100
AcDbEntity
  8
0
 62
0
370
-1
 48
1.0
  6
Continuous
100
AcDbLine
 10
114.691961926850027
 20
-133.9233121851299302
 30
0.0
 11
114.691961926850027
 21
-133.9233121851299302
 31
0.0
  0
LINE
  5
226
100
AcDbEntity
  8
0
 62
0
370
-1
 48
1.0
  6
Continuous
100
AcDbLine
 10
125.0502885233568264
 20
-220.9665677409559521
 30
0.0
 11
125.0502885233568264
 21
-220.9665677409559521
 31
0.0
  0
LINE
  5
227
100
AcDbEntity
  8
0
 62
0
370
-1
 48
1.0
  6
Continuous
100
AcDbLine
 10
315.9610293419546565
 20
-220.4410849954572313
 30
0.0
 11
315.9610293419546565
 21
-220.4410849954572313
 31
0.0
  0
LINE
  5
228
100
AcDbEntity
  8
0
 62
0
370
-1
 48
1.0
  6
Continuous
100
AcDbLine
 10
322.1538312012169172
 20
72.1110680684132319
 30
0.0
 11
322.1538312012169172
 21
72.1110680684132319
 31
0.0
  0
LINE
  5
229
100
AcDbEntity
  8
0
 62
0
370
-1
 48
1.0
  6
Continuous
100
AcDbLine
 10
121.3511590229346098
 20
-14.8040863444011279
 30
0.0
 11
121.3511590229346098
 21
-14.8040863444011279
 31
0.0
  0
LINE
  5
22A
100
AcDbEntity
  8
0
 62
0
370
-1
 48
1.0
  6
Continuous
100
AcDbLine
 10
312.261899841532454
 20
-14.2786035989023503
 30
0.0
 11
312.261899841532454
 21
-14.2786035989023503
 31
0.0
  0
LINE
  5
22B
100
AcDbEntity
  8
0
 62
0
370
-1
 48
1.0
  6
Continuous
100
AcDbLine
 10
326.9029607016391878
 20
-135.1014133281416321
 30
0.0
 11
326.9029607016391878
 21
-135.1014133281416321
 31
0.0
  0
LINE
  5
22C
100
AcDbEntity
  8
0
 62
0
370
-1
 48
1.0
  6
Continuous
100
AcDbLine
 10
126.1002885233568946
 20
-222.0165677409560203
 30
0.0
 11
126.1002885233568946
 21
-222.0165677409560203
 31
0.0
  0
LINE
  5
22D
100
AcDbEntity
  8
0
 62
0
370
-1
 48
1.0
  6
Continuous
100
AcDbLine
 10
317.0110293419547247
 20
-221.4910849954571859
 30
0.0
 11
317.0110293419547247
 21
-221.4910849954571859
 31
0.0
  0
LINE
  5
22E
100
AcDbEntity
  8
0
 62
256
370
-1
 48
1.0
  6
BYLAYER
100
AcDbLine
 10
322.3178672594967793
 20
-34.0095169704581508
 30
0.0
 11
324.3178672594967793
 21
-32.8548164320789056
 31
0.0
  0
LINE
  5
22F
100
AcDbEntity
  8
0
 62
256
370
-1
 48
1.0
  6
BYLAYER
100
AcDbLine
 10
111.1568684847076725
 20
-33.8814158274464887
 30
0.0
 11
113.1568684847076725
 21
-32.7267152890672435
 31
0.0
  0
LINE
  5
230
100
AcDbEntity
  8
0
 62
256
370
-1
 48
1.0
  6
BYLAYER
100
AcDbLine
 10
121.5151950812144719
 20
-120.9246713832725106
 30
0.0
 11
123.5151950812144719
 21
-119.7699708448932654
 31
0.0
  0
LINE
  5
231
100
AcDbEntity
  8
0
 62
256
370
-1
 48
1.0
  6
BYLAYER
100
AcDbLine
 10
312.4259358998123162
 20
-120.399188637773733
 30
0.0
 11
314.4259358998123162
 21
-119.2444880993944878
 31
0.0
  0
LINE
  5
232
100
AcDbEntity
  8
0
 62
256
370
-1
 48
1.0
  6
BYLAYER
100
AcDbLine
 10
324.3178672594967793
 20
-30.5454153553204151
 30
0.0
 11
322.3178672594967793
 21
-29.3907148169411698
 31
0.0
  0
LINE
  5
233
100
AcDbEntity
  8
0
 62
256
370
-1
 48
1.0
  6
BYLAYER
100
AcDbLine
 10
113.1568684847076725
 20
-30.417314212308753
 30
0.0
 11
111.1568684847076725
 21
-29.2626136739295077
 31
0.0
  0
LINE
  5
234
100
AcDbEntity
  8
0
 62
256
370
-1
 48
1.0
  6
BYLAYER
100
AcDbLine
 10
123.5151950812144719
 20
-117.4605697681347749
 30
0.0
 11
121.5151950812144719
 21
-116.3058692297555297
 31
0.0
  0
LINE
  5
235
100
AcDbEntity
  8
0
 62
256
370
-1
 48
1.0
  6
BYLAYER
100
AcDbLine
 10
314.4259358998123162
 20
-116.9350870226359973
 30
0.0
 11
312.4259358998123162
 21
-115.7803864842567521
 31
0.0
  0
LINE
  5
236
100
AcDbEntity
  8
0
 62
256
370
-1
 48
1.0
  6
BYLAYER
100
AcDbLine
 10
322.3178672594967793
 20
-29.3907148169411698
 30
0.0
 11
320.3178672594967793
 21
-30.5454153553204151
 31
0.0
  0
LINE
  5
237
100
AcDbEntity
  8
0
 62
256
370
-1
 48
1.0
  6
BYLAYER
100
AcDbLine
 10
111.1568684847076725
 20
-29.2626136739295077
 30
0.0
 11
109.1568684847076725
 21
-30.417314212308753
 31
0.0
  0
LINE
  5
238
100
AcDbEntity
  8
0
 62
256
370
-1
 48
1.0
  6
BYLAYER
100
AcDbLine
 10
121.5151950812144719
 20
-116.3058692297555297
 30
0.0
 11
119.5151950812144719
 21
-117.4605697681347749
 31
0.0
  0
LINE
  5
239
100
AcDbEntity
  8
0
 62
256
370
-1
 48
1.0
  6
BYLAYER
100
AcDbLine
 10
312.4259358998123162
 20
-115.7803864842567521
 30
0.0
 11
310.4259358998123162
 21
-116.9350870226359973
 31
0.0
  0
LINE
  5
23A
100
AcDbEntity
  8
0
 62
256
370
-1
 48
1.0
  6
BYLAYER
100
AcDbLine
 10
320.3178672594967793
 20
-30.5454153553204151
 30
0.0
 11
320.3178672594967793
 21
-32.8548164320789056
 31
0.0
  0
LINE
  5
23B
100
AcDbEntity
  8
0
 62
256
370
-1
 48
1.0
  6
BYLAYER
100
AcDbLine
 10
109.1568684847076725
 20
-30.417314212308753
 30
0.0
 11
109.1568684847076725
 21
-32.7267152890672435
 31
0.0
  0
LINE
  5
23C
100
AcDbEntity
  8
0
 62
256
370
-1
 48
1.0
  6
BYLAYER
100
AcDbLine
 10
119.5151950812144719
 20
-117.4605697681347749
 30
0.0
 11
119.5151950812144719
 21
-119.7699708448932654
 31
0.0
  0
LINE
  5
23D
100
AcDbEntity
  8
0
 62
256
370
-1
 48
1.0
  6
BYLAYER
100
AcDbLine
 10
310.4259358998123162
 20
-116.9350870226359973
 30
0.0
 11
310.4259358998123162
 21
-119.2444880993944878
 31
0.0
  0
LINE
  5
23E
100
AcDbEntity
  8
0
 62
256
370
-1
 48
1.0
  6
BYLAYER
100
AcDbLine
 10
320.3178672594967793
 20
-32.8548164320789056
 30
0.0
 11
322.3178672594967793
 21
-34.0095169704581508
 31
0.0
  0
LINE
  5
23F
100
AcDbEntity
  8
0
 62
256
370
-1
 48
1.0
  6
BYLAYER
100
AcDbLine
 10
109.1568684847076725
 20
-32.7267152890672435
 30
0.0
 11
111.1568684847076725
 21
-33.8814158274464887
 31
0.0
  0
LINE
  5
240
100
AcDbEntity
  8
0
 62
256
370
-1
 48
1.0
  6
BYLAYER
100
AcDbLine
 10
119.5151950812144719
 20
-119.7699708448932654
 30
0.0
 11
121.5151950812144719
 21
-120.9246713832725106
 31
0.0
  0
LINE
  5
241
100
AcDbEntity
  8
0
 62
256
370
-1
 48
1.0
  6
BYLAYER
100
AcDbLine
 10
310.4259358998123162
 20
-119.2444880993944878
 30
0.0
 11
312.4259358998123162
 21
-120.399188637773733
 31
0.0
  0
LINE
  5
242
100
AcDbEntity
  8
0
 62
256
370
-1
 48
1.0
  6
BYLAYER
100
AcDbLine
 10
324.3178672594967793
 20
-30.5454153553204151
 30
0.0
 11
324.3178672594967793
 21
-32.8548164320789056
 31
0.0
  0
LINE
  5
243
100
AcDbEntity
  8
0
 62
256
370
-1
 48
1.0
  6
BYLAYER
100
AcDbLine
 10
113.1568684847076725
 20
-30.417314212308753
 30
0.0
 11
113.1568684847076725
 21
-32.7267152890672435
 31
0.0
  0
LINE
  5
244
100
AcDbEntity
  8
0
 62
256
370
-1
 48
1.0
  6
BYLAYER
100
AcDbLine
 10
123.5151950812144719
 20
-117.4605697681347749
 30
0.0
 11
123.5151950812144719
 21
-119.7699708448932654
 31
0.0
  0
LINE
  5
245
100
AcDbEntity
  8
0
 62
256
370
-1
 48
1.0
  6
BYLAYER
100
AcDbLine
 10
314.4259358998123162
 20
-116.9350870226359973
 30
0.0
 11
314.4259358998123162
 21
-119.2444880993944878
 31
0.0
  0
LINE
  5
246
100
AcDbEntity
  8
0
 62
256
370
-1
 48
1.0
  6
BYLAYER
100
AcDbLine
 10
110.9928324264278103
 20
72.239169211424894
 30
0.0
 11
109.9428324264278558
 21
72.239169211424894
 31
0.0
  0
SPLINE
  5
247
100
AcDbEntity
  8
0
 62
0
370
-1
 48
1.0
  6
Continuous
100
AcDbSpline
 70
8
 71
3
 72
8
 73
4
 74
0
 40
0.0
 40
0.0
 40
0.0
 40
0.0
 40
1.0
 40
1.0
 40
1.0
 40
1.0
 10
902.0626602783156613
 20
71.0192860056585573
 30
0.0
 10
903.3858444118654916
 20
71.088631147680502
 30
0.0
 10
904.5155799787316937
 20
70.0723641803149917
 30
0.0
 10
904.5849774567097938
 20
68.7481814172303984
 30
0.0
  0
SPLINE
  5
248
100
AcDbEntity
  8
0
 62
0
370
-1
 48
1.0
  6
Continuous
100
AcDbSpline
 70
8
 71
3
 72
8
 73
4
 74
0
 40
0.0
 40
0.0
 40
0.0
 40
0.0
 40
1.0
 40
1.0
 40
1.0
 40
1.0
 10
687.158377123507762
 20
71.1473871486702478
 30
0.0
 10
685.8351929899579318
 20
71.216732290692164
 30
0.0
 10
684.7054574230917297
 20
70.2004653233266538
 30
0.0
 10
684.6360599451136295
 20
68.8762825602420747
 30
0.0
  0
SPLINE
  5
249
100
AcDbEntity
  8
0
 62
0
370
-1
 48
1.0
  6
Continuous
100
AcDbSpline
 70
8
 71
3
 72
8
 73
4
 74
0
 40
0.0
 40
0.0
 40
0.0
 40
0.0
 40
1.0
 40
1.0
 40
1.0
 40
1.0
 10
709.2381108390607096
 20
-21.3164616636863897
 30
0.0
 10
710.5612949726105398
 20
-21.3858068057083059
 30
0.0
 10
711.691030539476742
 20
-20.3695398383428028
 30
0.0
 10
711.7604280174548421
 20
-19.0453570752582166
 30
0.0
  0
SPLINE
  5
24A
100
AcDbEntity
  8
0
 62
0
370
-1
 48
1.0
  6
Continuous
100
AcDbSpline
 70
8
 71
3
 72
8
 73
4
 74
0
 40
0.0
 40
0.0
 40
0.0
 40
0.0
 40
1.0
 40
1.0
 40
1.0
 40
1.0
 10
902.0626602783156613
 20
71.0192860056584436
 30
0.0
 10
903.3858444118654916
 20
71.088631147680502
 30
0.0
 10
904.5155799787314663
 20
70.0723641803152759
 30
0.0
 10
904.5849774567097938
 20
68.7481814172305974
 30
0.0
  0
SPLINE
  5
24B
100
AcDbEntity
  8
0
 62
0
370
-1
 48
1.0
  6
Continuous
100
AcDbSpline
 70
8
 71
3
 72
8
 73
4
 74
0
 40
0.0
 40
0.0
 40
0.0
 40
0.0
 40
1.0
 40
1.0
 40
1.0
 40
1.0
 10
687.158377123507762
 20
71.1473871486701199
 30
0.0
 10
685.8351929899579318
 20
71.216732290692164
 30
0.0
 10
684.705457423091957
 20
70.2004653233269522
 30
0.0
 10
684.6360599451136295
 20
68.8762825602422879
 30
0.0
  0
SPLINE
  5
24C
100
AcDbEntity
  8
0
 62
0
370
-1
 48
1.0
  6
Continuous
100
AcDbSpline
 70
8
 71
3
 72
8
 73
4
 74
0
 40
0.0
 40
0.0
 40
0.0
 40
0.0
 40
1.0
 40
1.0
 40
1.0
 40
1.0
 10
709.2381108390607096
 20
-21.3164616636862476
 30
0.0
 10
710.5612949726105398
 20
-21.3858068057083059
 30
0.0
 10
711.6910305394765146
 20
-20.3695398383430941
 30
0.0
 10
711.7604280174548421
 20
-19.0453570752584511
 30
0.0
  0
SPLINE
  5
24D
100
AcDbEntity
  8
0
 62
0
370
-1
 48
1.0
  6
Continuous
100
AcDbSpline
 70
8
 71
3
 72
8
 73
4
 74
0
 40
0.0
 40
0.0
 40
0.0
 40
0.0
 40
1.0
 40
1.0
 40
1.0
 40
1.0
 10
859.2461979493173203
 20
66.3720766678447092
 30
0.0
 10
859.1768004713389928
 20
67.6962594309291319
 30
0.0
 10
860.1941184041952511
 20
68.8250487042167833
 30
0.0
 10
861.5183011672800149
 20
68.8944461821949119
 30
0.0
  0
SPLINE
  5
24E
100
AcDbEntity
  8
0
 62
0
370
-1
 48
1.0
  6
Continuous
100
AcDbSpline
 70
8
 71
3
 72
8
 73
4
 74
0
 40
0.0
 40
0.0
 40
0.0
 40
0.0
 40
1.0
 40
1.0
 40
1.0
 40
1.0
 10
729.974839452506103
 20
66.5001778108565418
 30
0.0
 10
730.0442369304844306
 20
67.824360573940794
 30
0.0
 10
729.0269189976281723
 20
68.9531498472284454
 30
0.0
 10
727.7027362345434085
 20
69.0225473252066024
 30
0.0
  0
SPLINE
  5
24F
100
AcDbEntity
  8
0
 62
0
370
-1
 48
1.0
  6
Continuous
100
AcDbSpline
 70
8
 71
3
 72
8
 73
4
 74
0
 40
0.0
 40
0.0
 40
0.0
 40
0.0
 40
1.0
 40
1.0
 40
1.0
 40
1.0
 10
922.7664747425417318
 20
-16.1699372764714582
 30
0.0
 10
922.8358722205200593
 20
-17.4941200395557104
 30
0.0
 10
921.818554287663801
 20
-18.6229093128433476
 30
0.0
 10
920.4943715245790372
 20
-18.6923067908215188
 30
0.0
  0
SPLINE
  5
250
100
AcDbEntity
  8
0
 62
0
370
-1
 48
1.0
  6
Continuous
100
AcDbSpline
 70
8
 71
3
 72
8
 73
4
 74
0
 40
0.0
 40
0.0
 40
0.0
 40
0.0
 40
1.0
 40
1.0
 40
1.0
 40
1.0
 10
666.4216485100623686
 20
-16.6692523258726872
 30
0.0
 10
666.3522510320840411
 20
-17.9934350889569643
 30
0.0
 10
667.3695689649402993
 20
-19.1222243622445767
 30
0.0
 10
668.6937517280250631
 20
-19.1916218402227443
 30
0.0
  0
SPLINE
  5
251
100
AcDbEntity
  8
0
 62
0
370
-1
 48
1.0
  6
Continuous
100
AcDbSpline
 70
8
 71
3
 72
8
 73
4
 74
0
 40
0.0
 40
0.0
 40
0.0
 40
0.0
 40
1.0
 40
1.0
 40
1.0
 40
1.0
 10
859.2461979493170929
 20
66.3720766678445955
 30
0.0
 10
859.1768004713389928
 20
67.6962594309291319
 30
0.0
 10
860.1941184041952511
 20
68.8250487042168686
 30
0.0
 10
861.5183011672800149
 20
68.8944461821949119
 30
0.0
  0
SPLINE
  5
252
100
AcDbEntity
  8
0
 62
0
370
-1
 48
1.0
  6
Continuous
100
AcDbSpline
 70
8
 71
3
 72
8
 73
4
 74
0
 40
0.0
 40
0.0
 40
0.0
 40
0.0
 40
1.0
 40
1.0
 40
1.0
 40
1.0
 10
729.9748394525063304
 20
66.5001778108564139
 30
0.0
 10
730.0442369304844306
 20
67.824360573940794
 30
0.0
 10
729.0269189976281723
 20
68.9531498472285165
 30
0.0
 10
727.7027362345434085
 20
69.0225473252066024
 30
0.0
  0
SPLINE
  5
253
100
AcDbEntity
  8
0
 62
0
370
-1
 48
1.0
  6
Continuous
100
AcDbSpline
 70
8
 71
3
 72
8
 73
4
 74
0
 40
0.0
 40
0.0
 40
0.0
 40
0.0
 40
1.0
 40
1.0
 40
1.0
 40
1.0
 10
922.7664747425419591
 20
-16.1699372764713303
 30
0.0
 10
922.8358722205200593
 20
-17.4941200395557104
 30
0.0
 10
921.818554287663801
 20
-18.6229093128434471
 30
0.0
 10
920.4943715245790372
 20
-18.6923067908215188
 30
0.0
  0
SPLINE
  5
254
100
AcDbEntity
  8
0
 62
0
370
-1
 48
1.0
  6
Continuous
100
AcDbSpline
 70
8
 71
3
 72
8
 73
4
 74
0
 40
0.0
 40
0.0
 40
0.0
 40
0.0
 40
1.0
 40
1.0
 40
1.0
 40
1.0
 10
666.4216485100621412
 20
-16.66925232587257
 30
0.0
 10
666.3522510320840411
 20
-17.9934350889569643
 30
0.0
 10
667.3695689649402993
 20
-19.1222243622446726
 30
0.0
 10
668.6937517280250631
 20
-19.1916218402227443
 30
0.0
  0
LINE
  5
255
100
AcDbEntity
  8
0
 62
0
370
-1
 48
1.0
  6
Continuous
100
AcDbLine
 10
859.2946087088417926
 20
65.4483443481970824
 30
0.0
 11
859.2461979493173203
 21
66.3720766678447092
 31
0.0
  0
LINE
  5
256
100
AcDbEntity
  8
0
 62
0
370
-1
 48
1.0
  6
Continuous
100
AcDbLine
 10
729.9264286929816308
 20
65.5764454912086592
 30
0.0
 11
729.974839452506103
 21
66.5001778108565418
 31
0.0
  0
LINE
  5
257
100
AcDbEntity
  8
0
 62
0
370
-1
 48
1.0
  6
Continuous
100
AcDbLine
 10
922.7180639830172595
 20
-15.2462049568235614
 30
0.0
 11
922.7664747425417318
 21
-16.1699372764714582
 31
0.0
  0
LINE
  5
258
100
AcDbEntity
  8
0
 62
0
370
-1
 48
1.0
  6
Continuous
100
AcDbLine
 10
666.4700592695868409
 20
-15.7455200062246981
 30
0.0
 11
666.4216485100623686
 21
-16.6692523258726872
 31
0.0
  0
LINE
  5
259
100
AcDbEntity
  8
0
 62
0
370
-1
 48
1.0
  6
Continuous
100
AcDbLine
 10
859.2946087088417926
 20
65.4483443481970824
 30
0.0
 11
859.2461979493170929
 21
66.3720766678445955
 31
0.0
  0
LINE
  5
25A
100
AcDbEntity
  8
0
 62
0
370
-1
 48
1.0
  6
Continuous
100
AcDbLine
 10
729.9264286929816308
 20
65.5764454912086592
 30
0.0
 11
729.9748394525063304
 21
66.5001778108564139
 31
0.0
  0
LINE
  5
25B
100
AcDbEntity
  8
0
 62
0
370
-1
 48
1.0
  6
Continuous
100
AcDbLine
 10
922.7180639830172595
 20
-15.2462049568235614
 30
0.0
 11
922.7664747425419591
 21
-16.1699372764713303
 31
0.0
  0
LINE
  5
25C
100
AcDbEntity
  8
0
 62
0
370
-1
 48
1.0
  6
Continuous
100
AcDbLine
 10
666.4700592695868409
 20
-15.7455200062246981
 30
0.0
 11
666.4216485100621412
 21
-16.66925232587257
 31
0.0
  0
LINE
  5
25D
100
AcDbEntity
  8
0
 62
0
370
-1
 48
1.0
  6
Continuous
100
AcDbLine
 10
859.5048446801084765
 20
65.2580865068438527
 30
0.0
 11
859.4564339205837769
 21
66.1818188264914227
 31
0.0
  0
LINE
  5
25E
100
AcDbEntity
  8
0
 62
256
370
-1
 48
1.0
  6
BYLAYER
100
AcDbLine
 10
883.7860559606913284
 20
70.0613280805047225
 30
0.0
 11
879.7925364512077522
 21
69.8520365914892807
 31
0.0
  0
LINE
  5
25F
100
AcDbEntity
  8
0
 62
256
370
-1
 48
1.0
  6
BYLAYER
100
AcDbLine
 10
705.4349814411320949
 20
70.1894292235163988
 30
0.0
 11
709.4285009506156712
 21
69.980137734500957
 31
0.0
  0
LINE
  5
260
100
AcDbEntity
  8
0
 62
256
370
-1
 48
1.0
  6
BYLAYER
100
AcDbLine
 10
898.2266167311677236
 20
-19.8591886891313152
 30
0.0
 11
902.2201362406512999
 21
-19.6498972001158734
 31
0.0
  0
LINE
  5
261
100
AcDbEntity
  8
0
 62
256
370
-1
 48
1.0
  6
BYLAYER
100
AcDbLine
 10
690.9615065214363767
 20
-20.3585037385325442
 30
0.0
 11
686.9679870119528005
 21
-20.149212249517106
 31
0.0
  0
LINE
  5
262
100
AcDbEntity
  8
0
 62
256
370
-1
 48
1.0
  6
BYLAYER
100
AcDbLine
 10
883.7860559606913284
 20
70.0613280805047793
 30
0.0
 11
879.7925364512077522
 21
69.8520365914892238
 31
0.0
  0
LINE
  5
263
100
AcDbEntity
  8
0
 62
256
370
-1
 48
1.0
  6
BYLAYER
100
AcDbLine
 10
705.4349814411320949
 20
70.1894292235164556
 30
0.0
 11
709.4285009506156712
 21
69.9801377345009001
 31
0.0
  0
LINE
  5
264
100
AcDbEntity
  8
0
 62
256
370
-1
 48
1.0
  6
BYLAYER
100
AcDbLine
 10
898.2266167311677236
 20
-19.859188689131372
 30
0.0
 11
902.2201362406512999
 21
-19.6498972001158165
 31
0.0
  0
LINE
  5
265
100
AcDbEntity
  8
0
 62
256
370
-1
 48
1.0
  6
BYLAYER
100
AcDbLine
 10
690.9615065214363767
 20
-20.3585037385326011
 30
0.0
 11
686.9679870119528005
 21
-20.1492122495170456
 31
0.0
  0
LINE
  5
266
100
AcDbEntity
  8
0
 62
256
370
-1
 48
1.0
  6
BYLAYER
100
AcDbLine
 10
904.5849774567097938
 20
68.7481814172303984
 30
0.0
 11
904.8219297671641925
 21
64.2310135500536319
 31
0.0
  0
LINE
  5
267
100
AcDbEntity
  8
0
 62
256
370
-1
 48
1.0
  6
BYLAYER
100
AcDbLine
 10
684.6360599451136295
 20
68.8762825602420747
 30
0.0
 11
684.3991076346592308
 21
64.359114693065294
 31
0.0
  0
LINE
  5
268
100
AcDbEntity
  8
0
 62
256
370
-1
 48
1.0
  6
BYLAYER
100
AcDbLine
 10
711.7604280174548421
 20
-19.0453570752582166
 30
0.0
 11
711.7743429246947926
 21
-18.7848741586801253
 31
0.0
  0
LINE
  5
269
100
AcDbEntity
  8
0
 62
256
370
-1
 48
1.0
  6
BYLAYER
100
AcDbLine
 10
859.2946087088417926
 20
65.4483443481970824
 30
0.0
 11
859.482763873419799
 21
61.8548885510170692
 31
0.0
  0
LINE
  5
26A
100
AcDbEntity
  8
0
 62
256
370
-1
 48
1.0
  6
BYLAYER
100
AcDbLine
 10
729.9264286929816308
 20
65.5764454912086592
 30
0.0
 11
729.7382735284036244
 21
61.9829896940287739
 31
0.0
  0
LINE
  5
26B
100
AcDbEntity
  8
0
 62
256
370
-1
 48
1.0
  6
BYLAYER
100
AcDbLine
 10
922.7180639830172595
 20
-15.2462049568235614
 30
0.0
 11
922.5299088184392531
 21
-11.6527491596436903
 31
0.0
  0
LINE
  5
26C
100
AcDbEntity
  8
0
 62
256
370
-1
 48
1.0
  6
BYLAYER
100
AcDbLine
 10
666.4700592695868409
 20
-15.7455200062246981
 30
0.0
 11
666.6582144341648473
 21
-12.1520642090449158
 31
0.0
  0
LINE
  5
26D
100
AcDbEntity
  8
0
 62
256
370
-1
 48
1.0
  6
BYLAYER
100
AcDbLine
 10
879.7939680444907253
 20
69.852111618114094
 30
0.0
 11
883.7874875539741879
 21
70.061403107129621
 31
0.0
  0
LINE
  5
26E
100
AcDbEntity
  8
0
 62
256
370
-1
 48
1.0
  6
BYLAYER
100
AcDbLine
 10
709.427069357332698
 20
69.9802127611257703
 30
0.0
 11
705.4335498478492354
 21
70.1895042501412973
 31
0.0
  0
LINE
  5
26F
100
AcDbEntity
  8
0
 62
256
370
-1
 48
1.0
  6
BYLAYER
100
AcDbLine
 10
902.2187046473683267
 20
-19.6499722267406867
 30
0.0
 11
898.2251851378848642
 21
-19.8592637157562137
 31
0.0
  0
LINE
  5
270
100
AcDbEntity
  8
0
 62
256
370
-1
 48
1.0
  6
BYLAYER
100
AcDbLine
 10
686.9694186052357736
 20
-20.1492872761419193
 30
0.0
 11
690.9629381147192362
 21
-20.3585787651574428
 31
0.0
  0
LINE
  5
271
100
AcDbEntity
  8
0
 62
256
370
-1
 48
1.0
  6
BYLAYER
100
AcDbLine
 10
861.5183011672800149
 20
68.8944461821949119
 30
0.0
 11
902.0626602783156613
 21
71.0192860056584436
 31
0.0
  0
LINE
  5
272
100
AcDbEntity
  8
0
 62
256
370
-1
 48
1.0
  6
BYLAYER
100
AcDbLine
 10
727.7027362345434085
 20
69.0225473252066024
 30
0.0
 11
687.158377123507762
 21
71.1473871486701199
 31
0.0
  0
LINE
  5
273
100
AcDbEntity
  8
0
 62
256
370
-1
 48
1.0
  6
BYLAYER
100
AcDbLine
 10
920.4943715245790372
 20
-18.6923067908215188
 30
0.0
 11
879.9500124135433907
 21
-20.8171466142850363
 31
0.0
  0
LINE
  5
274
100
AcDbEntity
  8
0
 62
256
370
-1
 48
1.0
  6
BYLAYER
100
AcDbLine
 10
668.6937517280250631
 20
-19.1916218402227443
 30
0.0
 11
709.2381108390607096
 21
-21.3164616636862476
 31
0.0
  0
ENDSEC
  0
SECTION
  2
OBJECTS
  0
DICTIONARY
  5
C
100
AcDbDictionary
280
0
281
1
  3
ACAD_GROUP
350
D
  3
ACAD_LAYOUT
350
1A
  3
ACAD_MLINESTYLE
350
17
  3
ACAD_PLOTSETTINGS
350
19
  3
ACAD_PLOTSTYLENAME
350
E
  3
AcDbVariableDictionary
350
275
  3
QCAD_OBJECTS
350
276
  0
DICTIONARY
  5
D
100
AcDbDictionary
280
0
281
1
  0
ACDBDICTIONARYWDFLT
  5
E
100
AcDbDictionary
281
1
  3
Normal
350
F
100
AcDbDictionaryWithDefault
340
F
  0
ACDBPLACEHOLDER
  5
F
  0
DICTIONARY
  5
17
100
AcDbDictionary
280
0
281
1
  3
Standard
350
18
  0
MLINESTYLE
  5
18
100
AcDbMlineStyle
  2
STANDARD
 70
0
  3

 62
256
 51
90.0
 52
90.0
 71
2
 49
0.5
 62
256
  6
BYLAYER
 49
-0.5
 62
256
  6
BYLAYER
  0
DICTIONARY
  5
19
100
AcDbDictionary
280
0
281
1
  0
DICTIONARY
  5
1A
100
AcDbDictionary
281
1
  3
Layout1
350
1E
  3
Layout2
350
26
  3
Model
350
22
  0
LAYOUT
  5
1E
100
AcDbPlotSettings
  1

  2
none_device
  4

  6

 40
0.0
 41
0.0
 42
0.0
 43
0.0
 44
0.0
 45
0.0
 46
0.0
 47
0.0
 48
0.0
 49
0.0
140
0.0
141
0.0
142
1.0
143
1.0
 70
688
 72
0
 73
0
 74
5
  7

 75
16
147
1.0
148
0.0
149
0.0
100
AcDbLayout
  1
Layout1
 70
1
 71
1
 10
0.0
 20
0.0
 11
420.0
 21
297.0
 12
0.0
 22
0.0
 32
0.0
 14
100000000000000000000.0
 24
100000000000000000000.0
 34
100000000000000000000.0
 15
-100000000000000000000.0
 25
-100000000000000000000.0
 35
-100000000000000000000.0
146
0.0
 13
0.0
 23
0.0
 33
0.0
 16
1.0
 26
0.0
 36
0.0
 17
0.0
 27
1.0
 37
0.0
 76
0
330
1B
  0
LAYOUT
  5
22
100
AcDbPlotSettings
  1

  2
none_device
  4

  6

 40
0.0
 41
0.0
 42
0.0
 43
0.0
 44
0.0
 45
0.0
 46
0.0
 47
0.0
 48
0.0
 49
0.0
140
0.0
141
0.0
142
1.0
143
1.0
 70
1712
 72
0
 73
0
 74
0
  7

 75
0
147
1.0
148
0.0
149
0.0
100
AcDbLayout
  1
Model
 70
1
 71
0
 10
0.0
 20
0.0
 11
12.0
 21
9.0
 12
0.0
 22
0.0
 32
0.0
 14
0.0
 24
0.0
 34
0.0
 15
0.0
 25
0.0
 35
0.0
146
0.0
 13
0.0
 23
0.0
 33
0.0
 16
1.0
 26
0.0
 36
0.0
 17
0.0
 27
1.0
 37
0.0
 76
0
330
1F
  0
LAYOUT
  5
26
100
AcDbPlotSettings
  1

  2
none_device
  4

  6

 40
0.0
 41
0.0
 42
0.0
 43
0.0
 44
0.0
 45
0.0
 46
0.0
 47
0.0
 48
0.0
 49
0.0
140
0.0
141
0.0
142
1.0
143
1.0
 70
688
 72
0
 73
0
 74
5
  7

 75
16
147
1.0
148
0.0
149
0.0
100
AcDbLayout
  1
Layout2
 70
1
 71
2
 10
0.0
 20
0.0
 11
12.0
 21
9.0
 12
0.0
 22
0.0
 32
0.0
 14
0.0
 24
0.0
 34
0.0
 15
0.0
 25
0.0
 35
0.0
146
0.0
 13
0.0
 23
0.0
 33
0.0
 16
1.0
 26
0.0
 36
0.0
 17
0.0
 27
1.0
 37
0.0
 76
0
330
23
  0
DICTIONARY
  5
275
100
AcDbDictionary
281
1
  3
DIMASSOC
350
278
  3
HIDETEXT
350
277
  0
DICTIONARYVAR
  5
277
100
DictionaryVariables
280
0
  1
2
  0
DICTIONARYVAR
  5
278
100
DictionaryVariables
280
0
  1
1
  0
DICTIONARY
  5
276
100
AcDbDictionary
281
1
  3
ColorSettings/BackgroundColor
350
279
  3
ColorSettings/ColorMode
350
27A
  3
Grid/DisplayGrid00
350
27B
  3
Grid/DisplayGrid01
350
27C
  3
Grid/DisplayGrid02
350
27D
  3
Grid/DisplayGrid03
350
27E
  3
Grid/GridSpacingX00
350
27F
  3
Grid/GridSpacingX01
350
280
  3
Grid/GridSpacingX02
350
281
  3
Grid/GridSpacingX03
350
282
  3
Grid/GridSpacingY00
350
283
  3
Grid/GridSpacingY01
350
284
  3
Grid/GridSpacingY02
350
285
  3
Grid/GridSpacingY03
350
286
  3
Grid/IsometricGrid00
350
287
  3
Grid/IsometricGrid01
350
288
  3
Grid/IsometricGrid02
350
289
  3
Grid/IsometricGrid03
350
28A
  3
Grid/IsometricProjection00
350
28B
  3
Grid/IsometricProjection01
350
28C
  3
Grid/IsometricProjection02
350
28D
  3
Grid/IsometricProjection03
350
28E
  3
Grid/MetaGridSpacingX00
350
28F
  3
Grid/MetaGridSpacingX01
350
290
  3
Grid/MetaGridSpacingX02
350
291
  3
Grid/MetaGridSpacingX03
350
292
  3
Grid/MetaGridSpacingY00
350
293
  3
Grid/MetaGridSpacingY01
350
294
  3
Grid/MetaGridSpacingY02
350
295
  3
Grid/MetaGridSpacingY03
350
296
  3
MultiPageSettings/Columns
350
297
  3
MultiPageSettings/GlueMarginsBottom
350
298
  3
MultiPageSettings/GlueMarginsLeft
350
299
  3
MultiPageSettings/GlueMarginsRight
350
29A
  3
MultiPageSettings/GlueMarginsTop
350
29B
  3
MultiPageSettings/PrintCropMarks
350
29C
  3
MultiPageSettings/Rows
350
29D
  3
PageSettings/OffsetX
350
29E
  3
PageSettings/OffsetY
350
29F
  3
PageSettings/PageOrientation
350
2A0
  3
PageSettings/PaperHeight
350
2A1
  3
PageSettings/PaperWidth
350
2A2
  3
PageSettings/Scale
350
2A3
  3
PageSettings/ShowPaperBorders
350
2A4
  3
PageTagSettings/EnablePageTags
350
2A5
  3
PageTagSettings/TagAlignment
350
2A6
  3
PageTagSettings/TagFont
350
2A7
  3
PageTagSettings/TagPosition
350
2A8
  3
QCADVersion
350
2A9
  3
UnitSettings/PaperUnit
350
2AA
  3
ViewportCenter
350
2AB
  3
ViewportHeight
350
2AC
  3
ViewportWidth
350
2AD
  0
XRECORD
  5
279
330
276
100
AcDbXrecord
280
1
1000
White
  0
XRECORD
  5
27A
330
276
100
AcDbXrecord
280
1
1000
FullColor
  0
XRECORD
  5
27B
330
276
100
AcDbXrecord
280
1
290
1
  0
XRECORD
  5
27C
330
276
100
AcDbXrecord
280
1
290
1
  0
XRECORD
  5
27D
330
276
100
AcDbXrecord
280
1
290
1
  0
XRECORD
  5
27E
330
276
100
AcDbXrecord
280
1
290
1
  0
XRECORD
  5
27F
330
276
100
AcDbXrecord
280
1
1000
auto
  0
XRECORD
  5
280
330
276
100
AcDbXrecord
280
1
1000
auto
  0
XRECORD
  5
281
330
276
100
AcDbXrecord
280
1
1000
auto
  0
XRECORD
  5
282
330
276
100
AcDbXrecord
280
1
1000
auto
  0
XRECORD
  5
283
330
276
100
AcDbXrecord
280
1
1000
auto
  0
XRECORD
  5
284
330
276
100
AcDbXrecord
280
1
1000
auto
  0
XRECORD
  5
285
330
276
100
AcDbXrecord
280
1
1000
auto
  0
XRECORD
  5
286
330
276
100
AcDbXrecord
280
1
1000
auto
  0
XRECORD
  5
287
330
276
100
AcDbXrecord
280
1
290
0
  0
XRECORD
  5
288
330
276
100
AcDbXrecord
280
1
290
0
  0
XRECORD
  5
289
330
276
100
AcDbXrecord
280
1
290
0
  0
XRECORD
  5
28A
330
276
100
AcDbXrecord
280
1
290
0
  0
XRECORD
  5
28B
330
276
100
AcDbXrecord
280
1
 90
65537
  0
XRECORD
  5
28C
330
276
100
AcDbXrecord
280
1
 90
65537
  0
XRECORD
  5
28D
330
276
100
AcDbXrecord
280
1
 90
65537
  0
XRECORD
  5
28E
330
276
100
AcDbXrecord
280
1
 90
65537
  0
XRECORD
  5
28F
330
276
100
AcDbXrecord
280
1
1000
auto
  0
XRECORD
  5
290
330
276
100
AcDbXrecord
280
1
1000
auto
  0
XRECORD
  5
291
330
276
100
AcDbXrecord
280
1
1000
auto
  0
XRECORD
  5
292
330
276
100
AcDbXrecord
280
1
1000
auto
  0
XRECORD
  5
293
330
276
100
AcDbXrecord
280
1
1000
auto
  0
XRECORD
  5
294
330
276
100
AcDbXrecord
280
1
1000
auto
  0
XRECORD
  5
295
330
276
100
AcDbXrecord
280
1
1000
auto
  0
XRECORD
  5
296
330
276
100
AcDbXrecord
280
1
1000
auto
  0
XRECORD
  5
297
330
276
100
AcDbXrecord
280
1
 90
1
  0
XRECORD
  5
298
330
276
100
AcDbXrecord
280
1
 40
10.0
  0
XRECORD
  5
299
330
276
100
AcDbXrecord
280
1
 40
10.0
  0
XRECORD
  5
29A
330
276
100
AcDbXrecord
280
1
 40
10.0
  0
XRECORD
  5
29B
330
276
100
AcDbXrecord
280
1
 40
10.0
  0
XRECORD
  5
29C
330
276
100
AcDbXrecord
280
1
290
0
  0
XRECORD
  5
29D
330
276
100
AcDbXrecord
280
1
 90
1
  0
XRECORD
  5
29E
330
276
100
AcDbXrecord
280
1
 40
0.0
  0
XRECORD
  5
29F
330
276
100
AcDbXrecord
280
1
 40
0.0
  0
XRECORD
  5
2A0
330
276
100
AcDbXrecord
280
1
1000
Portrait
  0
XRECORD
  5
2A1
330
276
100
AcDbXrecord
280
1
 40
297.0
  0
XRECORD
  5
2A2
330
276
100
AcDbXrecord
280
1
 40
210.0
  0
XRECORD
  5
2A3
330
276
100
AcDbXrecord
280
1
1000
1:1
  0
XRECORD
  5
2A4
330
276
100
AcDbXrecord
280
1
290
1
  0
XRECORD
  5
2A5
330
276
100
AcDbXrecord
280
1
290
0
  0
XRECORD
  5
2A6
330
276
100
AcDbXrecord
280
1
1000
Inside
  0
XRECORD
  5
2A7
330
276
100
AcDbXrecord
280
1
1000
Arial,10,-1,5,50,0,0,0,0,0
  0
XRECORD
  5
2A8
330
276
100
AcDbXrecord
280
1
1000
TopLeft
  0
XRECORD
  5
2A9
330
276
100
AcDbXrecord
280
1
1000
3.29.6
  0
XRECORD
  5
2AA
330
276
100
AcDbXrecord
280
1
 90
4
  0
XRECORD
  5
2AC
330
276
100
AcDbXrecord
280
1
 40
1264.5729513414653411
  0
XRECORD
  5
2AD
330
276
100
AcDbXrecord
280
1
 40
2668.447930226983317
  0
ENDSEC
  0
EOF
